<svg width="211" height="65" viewBox="0 0 211 65" fill="none" xmlns="http://www.w3.org/2000/svg">
<path d="M42.7206 33.5793H51.1018C52.085 33.559 53.5174 33.5338 54.6587 33.688C57.2905 34.0439 59.9689 35.2076 59.9689 38.394C59.9689 41.0675 58.3883 42.3224 56.4866 42.7267V42.8897C59.2378 43.3754 60.8183 44.8339 60.8183 47.7478C60.8183 52.5061 56.2722 53.8191 52.5953 53.9936C51.6942 54.0208 50.5423 54.0229 49.7666 54.0229H42.7216V33.5793H42.7206ZM48.5903 50.1372H50.9787C53.0034 50.1372 54.9864 49.5281 54.9864 47.5839C54.9864 45.7629 53.4882 45.116 50.6964 45.116H48.5903V50.1372ZM48.7105 41.5107H50.4929C52.922 41.5107 54.3804 41.0258 54.3804 39.4482C54.3804 38.1933 53.4882 37.4639 51.101 37.4639H48.7105V41.5107Z" fill="white"/>
<path d="M13.6836 54.4185C4.81848 54.4185 0 48.0213 0 40.0056C0 31.9087 5.66894 25.2699 14.9782 25.2699C17.4481 25.2699 19.5941 25.5937 21.4548 26.5655V31.7893C18.985 30.3319 17.0028 30.0486 15.1818 30.0486C8.86607 30.0486 6.39523 34.7044 6.39523 39.6042C6.39523 45.0667 9.47407 49.3993 14.6126 49.3993C16.8817 49.3993 18.7445 48.8726 20.9312 47.7002L22.4691 51.8293C19.1897 53.892 16.3959 54.4185 13.6836 54.4185ZM113.678 54.4185C107.118 54.4185 103.759 49.602 103.759 43.8524C103.759 37.4155 108.213 33.1654 114.165 33.1654C116.794 33.1654 118.172 33.69 119.265 34.3386V38.9545C117.807 37.9013 116.631 37.5358 115.014 37.5358C111.654 37.5358 109.588 40.0056 109.588 43.5704C109.588 46.7675 111.167 49.886 114.932 49.886C115.983 49.886 117.402 49.4807 118.9 48.7108L120.276 52.4731C118.577 53.6087 115.743 54.4185 113.678 54.4185ZM131.815 38.1837V54.0141H125.985V38.1837H120.318V33.5679H138.21L136.753 38.1837H131.815ZM159.827 35.9582C159.827 43.0835 159.547 46.8072 158.249 48.5063C157.603 49.3584 156.589 49.9238 155.538 50.0857L157.156 54.4185C158.491 54.3787 160.559 53.8123 161.974 52.3936C163.836 50.5727 164.445 48.2647 164.728 45.8348C164.972 43.771 165.132 41.341 165.132 39.1971V38.1837H169.692V54.0141H175.522V33.5679H159.827V35.9582ZM27.6513 45.3874C27.7735 48.1424 30.3646 49.8444 33.0739 49.8444C35.0598 49.8444 36.5572 49.4797 38.8661 48.3869L40.1597 52.0708C37.3252 53.8522 34.574 54.4185 32.1042 54.4185C24.8158 54.4185 21.8214 49.2363 21.8214 43.8524C21.8214 38.104 25.2621 33.1654 31.376 33.1654C36.9634 33.1654 40.8491 37.2943 40.8491 43.6102V45.3885H27.6513V45.3874ZM31.213 37.4166C28.8626 37.4166 27.5282 39.5209 27.5282 41.3846H34.897C34.7759 39.4384 33.682 37.4166 31.213 37.4166ZM67.8109 45.3874C67.9311 48.1424 70.5221 49.8444 73.2355 49.8444C75.2185 49.8444 76.7176 49.4797 79.0265 48.3869L80.3191 52.0708C77.4856 53.8522 74.7327 54.4185 72.2639 54.4185C64.9755 54.4185 61.9809 49.2363 61.9809 43.8524C61.9809 38.104 65.4215 33.1654 71.5364 33.1654C77.1201 33.1654 81.0086 37.2943 81.0086 43.6102V45.3885H67.8109V45.3874ZM71.3736 37.4166C69.024 37.4166 67.6896 39.5209 67.6896 41.3846H75.0575C74.9363 39.4384 73.8405 37.4166 71.3736 37.4166ZM149.383 52.19C148.008 53.4468 146.389 54.4185 143.758 54.4185C139.869 54.4185 136.955 51.8274 136.955 47.7779C136.955 43.4462 140.436 41.2189 145.618 41.0578L149.061 40.9356V40.5321C149.061 38.3871 147.32 37.5348 145.294 37.5348C143.231 37.5348 141.449 38.1429 140.112 38.9535L138.332 35.3908C141.126 33.5669 143.796 33.1644 146.59 33.1644C151.976 33.1644 154.85 35.3083 154.85 40.6951V54.0131H150.317L149.383 52.19ZM146.468 44.864C143.959 44.9463 142.784 45.7957 142.784 47.3328C142.784 48.9135 143.879 49.8849 145.862 49.8849C147.401 49.8849 148.495 49.3973 149.018 48.9532V44.7843L146.468 44.864ZM88.6993 53.567V62.1906L82.8716 63.974V33.5679H87.7685L88.4164 35.4315C89.9145 34.2564 91.6541 33.1654 93.9214 33.1654C98.6185 33.1654 102.302 36.7271 102.302 43.2046C102.302 49.2799 98.6604 54.4185 92.6267 54.4185C91.1295 54.4185 89.7525 54.1344 88.6993 53.567ZM88.6993 39.7215V49.3983C89.3481 49.8452 90.1579 50.2091 91.2119 50.2091C95.179 50.2091 96.4735 46.6065 96.4735 43.1242C96.4735 38.9128 95.0967 37.4166 92.749 37.4166C91.2119 37.4166 89.3878 38.6714 88.6993 39.7215Z" fill="white"/>
<path d="M183.789 40.2249V32.6921L177.96 34.4763V54.0287H185.407C190.833 54.0287 195.893 52.5722 195.893 46.9451C195.893 42.1672 191.806 40.2239 186.784 40.2239H183.789V40.2249ZM183.789 49.9811V44.2724H185.734C187.799 44.2724 190.067 44.5953 190.067 47.0244C190.067 49.4149 188.122 49.9811 185.814 49.9811H183.789Z" fill="white"/>
<path d="M186.182 4.11474C184.499 4.88661 183.09 5.71379 181.916 6.5613C180.688 7.45247 179.556 8.56184 179.241 9.78465C178.926 11.0026 179.374 12.5202 180.016 13.8943C180.644 15.1956 181.475 16.5998 182.565 18.0892C182.524 17.6636 182.537 17.2582 182.619 16.881C182.879 15.6921 183.89 14.6245 184.99 13.776C185.791 13.1602 186.713 12.56 187.783 11.9917C189.499 11.0744 191.579 10.2336 194.085 9.53834H194.087C196.598 8.84109 198.816 8.4891 200.759 8.39213C200.8 7.18482 200.744 6.0813 200.612 5.08055C200.428 3.70357 200.009 2.29652 199.107 1.47517C198.818 1.21335 198.464 0.994199 198.07 0.816742C196.252 1.01941 194.235 1.40632 192.005 2.02694H192.003C189.771 2.64562 187.843 3.35253 186.182 4.11474Z" fill="url(#paint0_linear)"/>
<path d="M208.363 10.9279C208.532 9.09133 208.52 7.46318 208.387 6.02704C208.248 4.51528 207.832 2.98408 206.934 2.10166C206.04 1.22019 204.497 0.848785 202.983 0.719813C201.545 0.594722 199.906 0.611206 198.069 0.817754C198.464 0.995211 198.816 1.21437 199.105 1.47619C200.007 2.29755 200.426 3.70459 200.611 5.08157C200.744 6.08233 200.799 7.18584 200.758 8.39314C200.696 10.3384 200.381 12.559 199.73 15.0793V15.0802C199.08 17.6025 198.276 19.6981 197.386 21.4319C198.411 22.068 199.389 22.5694 200.321 22.9544C201.608 23.4836 203.034 23.8222 204.198 23.4527C204.574 23.3364 204.935 23.1374 205.289 22.8834C206.019 21.2098 206.693 19.2752 207.27 17.039C207.853 14.7845 208.197 12.7539 208.363 10.9279Z" fill="url(#paint1_linear)"/>
<path d="M191.355 26.7489C189.865 25.6918 188.291 24.3788 186.646 22.7555C184.988 21.1303 183.649 19.5672 182.564 18.0902C182.523 17.6644 182.537 17.2592 182.619 16.882C182.879 15.6931 183.888 14.6254 184.99 13.777C185.79 13.1612 186.712 12.5609 187.782 11.9927C188.835 13.6276 190.25 15.3692 192.106 17.1932C193.963 19.0202 195.73 20.402 197.386 21.4308C198.411 22.067 199.391 22.5683 200.323 22.9534C201.609 23.4828 203.036 23.8211 204.197 23.4517C204.574 23.3353 204.936 23.1368 205.289 22.8826C204.553 24.5668 203.758 25.9817 202.938 27.1638C202.064 28.4245 200.965 29.5911 199.74 29.9303C198.517 30.2717 196.97 29.8374 195.575 29.206C194.263 28.6156 192.852 27.8097 191.355 26.7489Z" fill="url(#paint2_linear)"/>
<defs>
<linearGradient id="paint0_linear" x1="179.544" y1="12.2059" x2="208.265" y2="4.24174" gradientUnits="userSpaceOnUse">
<stop stop-color="#D1D2D2"/>
<stop offset="0.7747" stop-color="white"/>
</linearGradient>
<linearGradient id="paint1_linear" x1="204.837" y1="0.837952" x2="197.145" y2="29.5866" gradientUnits="userSpaceOnUse">
<stop stop-color="#B4B4B4"/>
<stop offset="0.8956" stop-color="white"/>
</linearGradient>
<linearGradient id="paint2_linear" x1="184.552" y1="13.5166" x2="202.02" y2="27.9211" gradientUnits="userSpaceOnUse">
<stop stop-color="white"/>
<stop offset="1" stop-color="#D9D9D9"/>
</linearGradient>
</defs>
</svg>
