<svg width="158" height="38" viewBox="0 0 158 38" fill="none" xmlns="http://www.w3.org/2000/svg">
<path fill-rule="evenodd" clip-rule="evenodd" d="M29.0722 36.3298H31.3271L32.1791 24.3372L38.0168 23.4665V21.8492H32.037L31.4274 12.9668L39.6705 14.6338V11.2748H28.3957L29.0722 36.3298ZM45.1287 23.1467L45.9964 13.3246C46.2445 13.2746 46.6917 13.2244 47.4618 13.2244C50.3681 13.2244 52.0569 14.8994 52.0569 17.4992C52.0569 21.1168 48.9567 23.1125 45.1291 23.1471L45.1287 23.1467ZM55.4101 17.199C55.4101 13.8245 52.9505 11.2748 47.7599 11.2748C45.624 11.2748 43.2642 11.5499 42.5936 11.7245L43.0157 36.7474H45.2511L46.0461 24.7736L47.5114 24.6232C49.1012 26.8732 51.6593 33.7224 52.355 36.7474H55.9562C54.7478 32.8797 52.3867 27.475 49.5145 23.9388C51.7203 23.3797 55.4096 21.1886 55.4096 17.199H55.4101ZM63.4469 26.5329L65.6726 13.0002C65.9474 14.567 66.9646 19.8277 68.1501 26.1165L63.4469 26.5329ZM64.1546 11.2748L58.4617 36.3298H60.5564L63.1053 28.0132L68.6612 28.8396C69.129 31.3351 69.5899 33.8318 70.0442 36.3298H73.4947L67.5554 11.2748H64.1546ZM149.495 11.2748H136.132V14.385L140.952 13.8555L141.527 36.3298H143.383L144.475 13.4683L149.495 12.9171V11.2748ZM131.255 23.7755C127.692 20.5509 124.334 18.2447 124.334 16.2603C124.334 15.119 126.487 14.3503 128.768 14.3503C131.947 14.3503 133.793 14.9955 134.28 15.1938V12.0431C133.561 11.7207 131.819 11.2744 129.666 11.2744C125.051 11.2748 122.769 13.7552 122.769 16.9547C122.769 21.1962 126.205 23.6762 129.024 26.1566C131.998 28.7607 133.819 30.6707 133.819 32.878C133.819 33.2004 128.589 34.8373 122.923 32.5557V35.6809C124.052 36.425 126.436 36.7474 127.999 36.7474C132.587 36.7474 135.714 34.6143 135.714 30.8937C135.714 28.0909 133.485 25.7845 131.255 23.7755ZM92.286 14.385L97.1388 13.8425L97.7447 36.3298H99.5971L100.664 13.4492L105.649 12.8921V11.2748H92.3111L92.286 14.385ZM86.5676 28.8593C86.5676 33.2555 85.2927 34.9133 83.0862 34.9133C81.0268 34.9133 79.3347 33.0296 79.1142 27.7793L78.4514 11.2748H76.2449C76.2449 11.2748 76.0002 22.8305 76.0002 27.8295C76.0002 34.386 78.9671 36.7474 82.5714 36.7474C86.4207 36.7474 89.069 33.6572 89.142 27.4022L89.363 11.2748H85.8076C86.5922 25.7189 86.5676 28.5076 86.5676 28.8593ZM108.676 36.3298H119.821V33.8418L111.06 33.3691L112.071 24.2629L118.214 23.4912V21.8739L111.993 21.65L111.176 13.2312L119.847 14.6338V11.2748H108.571L108.676 36.3298ZM4.32868 16.3442C4.32868 16.3442 4.11111 16.1271 3.99043 16.0307C3.07133 15.0889 2.3702 14.4129 1.35422 13.8091C1.59642 13.6404 3.28889 11.7087 4.44978 10.6952L5.97312 14.7265C5.97312 14.7265 4.76421 15.1859 4.32868 16.3442ZM21.1114 33.968C22.4179 23.4181 23.3847 19.7 23.3847 17.648C23.3847 14.7749 19.4428 12.4332 19.4428 12.4332C18.1858 10.7432 17.6292 8.90873 15.9609 7.50816C15.7914 7.38747 15.4526 7.31524 15.066 7.31524L14.3644 5.9631C14.5098 5.89086 15.7186 5.35969 15.9609 4.10401C16.8312 4.44225 16.4682 6.15602 17.5811 5.9631C17.7982 6.34937 17.9194 7.02543 18.7174 7.00121C19.8056 6.977 20.0958 6.05956 20.4102 5.60105C19.8298 5.62527 19.4431 5.35969 18.4998 4.3696C17.5327 3.40415 16.3718 3.3557 16.0332 3.30768C15.9846 2.96944 15.5496 1.52084 13.6634 1.52084C13.3251 1.52084 12.72 1.73798 12.72 2.26915C12.72 2.43618 12.8487 2.60197 13.0286 2.7143C12.8491 2.93938 12.6795 3.18825 12.5024 3.28346C12.2849 3.40415 11.1724 3.30768 11.0756 3.47638C11.0033 3.62129 11.535 4.10401 11.4869 4.15246C11.3416 4.3458 11.2209 4.41803 11.0998 4.44225C11.0033 4.46606 10.9787 4.56294 11.0033 4.61096C11.0597 4.75252 11.5592 5.04566 11.801 5.06988C11.5838 5.23901 11.1244 5.37764 11.1244 5.48037C11.1244 5.64949 11.3416 5.64949 11.4626 5.9631C11.5592 6.20446 11.656 6.42202 11.8978 6.51849C12.4302 6.68761 12.986 6.42202 12.986 6.42202L13.7598 7.46014C12.986 7.55618 13.4942 8.93254 13.5427 9.17389C13.5906 9.53595 13.3974 10.2362 13.5427 10.5983C13.9536 11.347 15.1382 11.5879 15.1382 11.5879L14.7516 12.3847L11.5834 9.02942C11.922 8.11198 11.922 8.01552 11.6318 7.31524C11.5107 7.00121 11.39 6.85631 11.3178 6.88053C11.2936 6.88053 11.2693 6.92897 11.2693 6.97699C11.2693 7.14612 11.3904 7.46014 11.3904 7.62884C11.3904 7.67728 11.3658 7.72571 11.3658 7.72571C11.124 7.72571 10.7611 6.2529 10.4229 6.2529C10.2049 6.2529 10.1085 6.68719 10.1085 7.21835C10.1085 8.03932 10.3745 8.69118 10.906 9.41568C11.8978 10.7916 13.784 13.1335 14.316 13.8575C14.5582 14.1957 14.8 14.3164 14.9934 14.3164C15.4769 14.3164 16.2753 12.6261 16.3718 12.409L16.2264 14.9199L12.7442 18.3482C11.7044 17.648 8.00467 14.4614 8.00467 14.4614L8.10112 11.7091C8.34332 11.6606 8.82647 11.4434 8.97179 11.033C9.11711 10.6947 8.63355 9.65705 8.29489 9.39146C8.48822 8.98097 9.16513 8.47403 9.02022 7.74952C8.94757 7.26679 8.02847 7.14612 7.666 7.12189C7.69022 6.63916 8.53667 5.23859 8.53667 4.6594C8.68157 4.61096 9.98736 4.80431 10.1569 3.40415C11.3178 3.01788 11.1482 2.22113 11.3178 1.73798C11.1724 1.78642 11.0033 1.81065 10.6889 1.81065C9.64911 1.81065 9.74557 0.868992 8.89913 0.868992C8.68199 0.868992 8.53667 0.965871 8.31869 0.965871C7.64178 0.965871 7.47267 0 6.602 0C5.77936 0 4.8849 0.338243 4.76421 0.989674C4.69156 1.18302 4.64311 1.35214 4.35289 1.35214C4.18377 1.35214 3.99043 1.30369 3.82089 1.30369C3.53067 1.30369 3.28889 1.64194 3.28889 1.95513C3.28889 2.58317 4.08648 2.7761 4.42556 2.82454C4.37711 3.04168 4.47358 3.28346 4.86068 3.28346C5.27158 3.28346 5.46533 3.01788 5.46533 3.01788C5.24778 4.73206 5.6829 5.91508 6.602 6.15602L6.26334 7.19414C5.65868 7.24257 5.1509 7.53238 5.1509 7.53238C4.71578 7.74952 4.25601 8.16 3.94199 8.64315C3.94199 8.64315 0 13.6888 0 14.1231C0 14.5336 4.15913 17.1652 4.15913 17.1652C4.15913 17.1652 3.67558 20.5936 3.69979 22.5491C3.74823 24.5285 3.96621 24.9874 4.01423 26.0255C4.13533 27.981 3.69979 28.126 3.91777 30.0572C4.06268 31.2883 4.66733 33.3888 4.66733 33.3888C4.66733 33.3888 4.18377 35.8028 4.18377 36.3582C4.18377 36.9616 4.52201 37.2518 4.8849 37.2518C6.07 37.2518 5.22314 33.3403 5.22314 33.3403C5.17511 32.2058 5.03021 29.6225 5.10246 27.1839C5.1509 25.2045 5.36888 23.756 5.39268 22.3315L7.10978 22.2593C7.20666 23.0557 7.44802 27.2081 7.90779 27.4015C8.10112 30.178 8.02888 32.5919 8.10112 33.6785C7.88357 34.6683 7.39959 35.8513 7.42422 36.4304C7.42422 36.9135 7.666 37.324 7.98045 37.324C8.58469 37.324 9.11711 35.4408 9.11711 34.596C9.11711 34.1128 8.65777 33.7508 8.65777 33.7508C8.92334 32.4229 9.26201 30.178 9.23779 29.0672C9.21357 27.5221 8.70579 26.7254 8.68157 25.7838C8.65735 24.6492 8.89913 23.1279 8.80267 22.0175C8.80267 22.0175 9.40691 21.8488 9.62489 21.559C9.84245 21.245 8.75422 17.9377 8.36712 16.2962L12.1638 18.9274C11.5491 19.5538 11.6924 20.6174 12.7334 20.6174C13.698 20.6174 13.85 19.6043 13.3836 18.9554C13.3836 18.9554 17.3874 15.9579 17.6053 15.596C17.8471 15.2339 17.7987 13.5919 17.7987 13.5919L18.403 14.1715C18.403 14.1715 18.4514 14.8476 18.4756 15.6682C18.4998 16.3447 18.6451 17.6722 18.6451 17.6722L17.2182 24.842L14.7754 33.9438H15.3078C15.3078 33.9438 14.8 34.5717 14.8 35.0545C14.8 35.7305 15.7429 37.9997 16.4924 37.9997C17.2424 38.0239 16.807 36.5031 16.5652 35.6099C16.396 35.0545 16.2749 34.5475 15.9846 33.9199H16.4682L20.9422 18.0099L19.5642 33.968H20.2896C20.1684 34.5475 19.999 36.4789 20.3138 37.2756C20.5556 37.8791 21.2567 38.0482 21.716 37.9517C22.1754 37.8548 20.9422 33.968 20.9422 33.968H21.1118H21.1114ZM154.28 12.0356L154.224 13.3626H153.685L153.824 11.2748H154.478L155.154 12.6081L155.81 11.2748H156.463L156.595 13.3626H156.035L155.976 12.0168L155.358 13.237H154.886L154.281 12.0356H154.28ZM152.258 11.7279H151.583V11.2748H153.495V11.7279H152.841V13.3626H152.258V11.7279Z" fill="white"/>
</svg>
