<svg width="174" height="83" viewBox="0 0 174 83" fill="none" xmlns="http://www.w3.org/2000/svg">
<g clip-path="url(#clip0_2969_216)">
<mask id="mask0_2969_216" style="mask-type:luminance" maskUnits="userSpaceOnUse" x="0" y="0" width="174" height="83">
<path d="M174 0H0V83H174V0Z" fill="white"/>
</mask>
<g mask="url(#mask0_2969_216)">
<path fill-rule="evenodd" clip-rule="evenodd" d="M66.0897 26.0661C65.3153 25.0165 64.2873 24.1325 63.0958 23.6202C61.3194 22.857 59.3562 22.8906 57.6053 23.7272C55.8337 24.5732 54.4951 26.136 53.8175 28.0497C58.09 28.4921 62.3587 28.8345 66.6245 29.114L66.0897 26.0661L65.7843 24.324L65.6391 23.4943L72.4436 22.2317L72.1689 20.6638L72.6006 20.5836L73.5311 20.4111L69.7045 14.2464L60.4655 17.7876L60.6002 19.8755C61.7691 20.6051 62.7748 21.6617 63.5634 22.8354C64.3895 23.2123 65.1323 23.6987 65.7829 24.324L66.0897 26.0661ZM40.8964 61.3321C40.4034 61.3554 40.1715 60.6672 40.8148 60.4258C70.0747 54.1747 103.944 54.7491 133.224 60.5444C133.773 60.7715 133.628 61.3345 133.165 61.3321C130.13 60.8474 127.096 60.4315 124.063 60.0729V60.0739L123.864 60.3395L122.188 62.5781C122.648 63.1136 122.965 63.797 122.888 64.5369C122.852 64.8931 122.726 65.2275 122.521 65.5115C122.318 65.7942 122.047 66.0124 121.74 66.1566C121.043 66.4834 120.256 66.3961 119.576 66.0703L118.103 68.0381L117.806 67.901L113.927 66.1054C113.709 66.7755 113.405 67.4182 113.02 68.0158L112.928 68.1547C113.199 70.2971 112.875 72.6609 111.305 74.1952C110.727 74.7582 110.028 75.15 109.26 75.3321C108.494 75.5128 107.699 75.4749 106.947 75.2406C104.838 74.5808 103.493 72.5969 102.865 70.4607C102.706 70.3635 102.551 70.2606 102.4 70.152C102.332 70.1036 102.266 70.0538 102.199 70.003L103.205 75.7803L102.644 75.7182L97.8225 75.1808C97.7034 77.6054 96.988 80.6047 94.9293 81.9916C94.2527 82.4478 93.4692 82.6816 92.6659 82.6048C91.8545 82.528 91.1207 82.1495 90.5207 81.5751C89.6114 80.7048 89.08 79.5025 88.8024 78.2115C87.9958 79.069 86.9896 79.7245 85.8865 80.1632C84.3342 80.7816 82.6335 80.9638 80.988 80.784C80.9587 80.9121 80.9327 81.0401 80.9072 81.1696C80.7748 81.845 80.6641 82.3696 79.9833 82.6247C79.8844 82.6608 79.7856 82.6954 79.6859 82.7272C78.6338 83.0653 77.4716 83.1298 76.4347 82.6978C75.3987 82.2666 74.6748 81.4205 74.3032 80.314C74.2796 80.2443 74.2569 80.1727 74.2365 80.1011C74.0999 79.6215 74.2101 79.3156 74.3949 78.885C74.4403 78.7773 74.4852 78.6711 74.5231 78.5601C73.1566 77.713 71.9367 76.5643 71.0487 75.1732C70.2601 73.9372 69.7523 72.5333 69.6596 71.0887C68.6955 71.3173 67.6576 71.2077 66.6344 70.631C65.9782 70.2606 65.4817 69.8029 65.12 69.2826L61.6508 70.5774L61.3364 69.7104C58.6172 71.12 55.61 71.1845 53.157 69.1275C52.0983 68.2401 51.2837 67.0492 50.7754 65.7297C50.2652 64.405 50.0619 62.9438 50.2293 61.5219C50.2955 60.9622 50.417 60.4116 50.5966 59.8823C47.3616 60.3115 44.1281 60.7962 40.8964 61.3321ZM55.9018 37.8228H45.7281C45.5861 37.8254 45.4595 37.8703 45.3583 37.9806C45.2555 38.0859 45.213 38.2204 45.2105 38.3687V48.7455C45.213 48.8954 45.2555 49.0292 45.3599 49.1364C45.4603 49.245 45.5869 49.2896 45.7272 49.2924H47.9777C47.9933 49.2924 48.0065 49.2915 48.0179 49.2924H55.8999C56.0422 49.2891 56.1684 49.245 56.2696 49.1345C56.3727 49.0282 56.4152 48.8954 56.4181 48.7465C56.4181 48.323 56.4181 47.9013 56.4181 47.4787C56.4152 47.3295 56.3727 47.1949 56.2691 47.088C56.1694 46.9793 56.0427 46.9344 55.9018 46.9319H48.4968V44.7516H54.4478C54.5892 44.749 54.7164 44.7042 54.8166 44.5938C54.9197 44.4886 54.9623 44.354 54.9646 44.2057C54.9646 43.7822 54.9646 43.3605 54.9646 42.9379C54.9613 42.7879 54.9197 42.6542 54.8152 42.5472C54.7154 42.4386 54.5892 42.3937 54.4478 42.3912H48.4964V40.1842H55.8999C56.0422 40.1816 56.1675 40.1367 56.2691 40.0263C56.3717 39.9203 56.4143 39.7875 56.4176 39.6383C56.4176 39.2148 56.4176 38.7922 56.4176 38.3705C56.4143 38.2204 56.3717 38.0867 56.2682 37.9798C56.1684 37.8711 56.0427 37.8263 55.9018 37.8228ZM61.6858 45.1199H63.7738C65.5933 45.088 68.2066 45.1802 69.0284 43.0362C69.399 42.0677 69.3797 40.687 68.956 39.7418C68.2269 38.1281 66.3928 37.8159 64.8717 37.8228H58.917C58.7751 37.8263 58.6484 37.8703 58.5472 37.9806C58.4441 38.0867 58.4021 38.2195 58.3992 38.3687V48.7465C58.4025 48.8964 58.4441 49.0301 58.5486 49.1373C58.6494 49.2459 58.7751 49.2905 58.916 49.2933H61.1681C61.3104 49.2905 61.4362 49.2459 61.5374 49.1373C61.6386 49.0301 61.6835 48.8973 61.6858 48.7484V45.1199ZM64.5625 42.9146H61.6868V40.0281H64.5635C64.9488 40.0324 65.3257 40.1316 65.6075 40.4239C66.1243 40.9535 66.1233 41.9893 65.6075 42.5196C65.3233 42.8086 64.9479 42.9112 64.5625 42.9146ZM173.42 38.6723C173.482 38.5283 173.541 38.3601 173.548 38.198C173.555 38.0988 173.54 37.9979 173.473 37.9246C173.398 37.8401 173.267 37.8228 173.163 37.8228H171.26C171.072 37.8228 170.893 37.8633 170.719 37.9384C170.543 38.0169 170.384 38.1273 170.246 38.267C170.102 38.4084 169.989 38.5775 169.906 38.7655L168.934 40.9509C168.723 41.4226 168.413 41.7978 167.987 42.0617C167.523 42.3558 166.976 42.4524 166.442 42.4558L166.336 42.4567V38.3705C166.333 38.2204 166.291 38.0867 166.187 37.9798C166.087 37.8711 165.961 37.8263 165.82 37.8237H163.568C163.426 37.8271 163.299 37.8711 163.198 37.9815C163.095 38.0876 163.053 38.2204 163.05 38.3696V48.7474C163.054 48.8973 163.095 49.0311 163.2 49.1378C163.3 49.2469 163.426 49.2914 163.567 49.2943H165.82C165.962 49.2914 166.089 49.2469 166.19 49.1373C166.292 49.0311 166.335 48.8973 166.337 48.7489V44.6619H166.442C166.763 44.6619 167.079 44.7145 167.385 44.8206C167.697 44.9319 167.984 45.0975 168.243 45.3113C168.518 45.5382 168.745 45.8219 168.929 46.1341L170.212 48.341C170.318 48.5241 170.447 48.6867 170.596 48.8309C170.742 48.9723 170.909 49.0861 171.09 49.1681C171.277 49.2511 171.471 49.2914 171.674 49.2943H173.575C173.686 49.2924 173.823 49.2715 173.909 49.1881C173.982 49.1164 174.004 49.0216 173.999 48.9172C173.992 48.756 173.918 48.5914 173.839 48.4567L172.122 45.5287C171.858 45.0777 171.54 44.6412 171.154 44.298C170.824 44.0005 170.448 43.7805 170.031 43.6538L169.634 43.5339L170.038 43.4407C170.331 43.3726 170.604 43.251 170.859 43.0828C171.129 42.9026 171.37 42.6852 171.582 42.4334C171.797 42.1738 171.975 41.8883 172.118 41.577L173.42 38.6723ZM154.983 37.6046C153.874 37.6046 152.72 37.7676 151.708 38.2679C150.836 38.7025 150.155 39.3528 149.686 40.2428C149.161 41.245 148.989 42.4153 148.986 43.5477C148.989 44.6792 149.161 45.8547 149.686 46.856C150.155 47.7486 150.835 48.4041 151.708 48.8423C152.721 49.3465 153.873 49.5129 154.983 49.5129C156.093 49.5129 157.245 49.3465 158.257 48.8423C159.13 48.4041 159.81 47.7486 160.279 46.856C160.804 45.8547 160.977 44.6792 160.98 43.5477C160.977 42.4153 160.804 41.2441 160.279 40.2428C159.81 39.3528 159.129 38.7016 158.258 38.2679C157.245 37.7676 156.091 37.6046 154.983 37.6046ZM154.983 47.307C154.459 47.3105 153.923 47.2139 153.47 46.9189C153.027 46.6309 152.744 46.185 152.566 45.677C152.33 45.0233 152.273 44.2419 152.273 43.5477C152.273 42.8525 152.33 42.0764 152.566 41.4226C152.745 40.9164 153.029 40.4783 153.471 40.1945C153.925 39.9039 154.46 39.8073 154.983 39.8107C155.507 39.8073 156.042 39.9039 156.496 40.1945C156.938 40.4783 157.221 40.9164 157.4 41.4226C157.635 42.0764 157.693 42.8543 157.693 43.5486C157.693 44.2428 157.636 45.0233 157.4 45.677C157.222 46.185 156.939 46.6309 156.496 46.9189C156.043 47.2139 155.508 47.3105 154.983 47.307ZM140.05 49.2933C140.237 49.2896 140.407 49.2326 140.555 49.1089C140.712 48.9784 140.826 48.8086 140.906 48.618L143.691 41.5313V48.7474C143.693 48.8973 143.739 49.0301 143.839 49.1378C143.94 49.2469 144.065 49.2914 144.207 49.2943H146.397C146.538 49.2914 146.665 49.2469 146.766 49.1373C146.869 49.0311 146.912 48.8973 146.915 48.7489V38.3696C146.912 38.2195 146.869 38.0867 146.765 37.9798C146.665 37.8711 146.538 37.8263 146.398 37.8237H142.925C142.743 37.8271 142.588 37.8901 142.453 38.0186C142.3 38.1618 142.189 38.3455 142.111 38.543L139.553 45.1501L136.996 38.543C136.917 38.3455 136.806 38.1618 136.654 38.0186C136.517 37.8909 136.362 37.8271 136.181 37.8237H132.709C132.566 37.8271 132.44 37.8711 132.339 37.9815C132.236 38.0876 132.193 38.2204 132.191 38.3696V48.7474C132.193 48.8973 132.236 49.0311 132.339 49.1373C132.44 49.2459 132.566 49.2905 132.707 49.2933H134.898C135.04 49.2905 135.166 49.2459 135.268 49.1364C135.371 49.0301 135.413 48.8964 135.416 48.7484V41.5313L138.2 48.617C138.281 48.8096 138.395 48.9794 138.552 49.1103C138.7 49.2336 138.869 49.2914 139.057 49.2943H140.05V49.2933ZM112.847 39.9625C113.32 39.966 113.806 40.0401 114.238 40.2532C114.589 40.4257 114.897 40.6715 115.107 41.0207C115.228 41.2294 115.38 41.4183 115.572 41.5606C115.751 41.6969 115.959 41.7521 116.177 41.7547H117.685C117.826 41.7521 117.954 41.7072 118.054 41.5968C118.157 41.4916 118.199 41.3579 118.202 41.2096C118.199 40.461 118.006 39.7788 117.538 39.2096C117.039 38.6059 116.345 38.2377 115.628 38.0082C114.662 37.6986 113.604 37.6055 112.598 37.6055C111.51 37.6055 110.385 37.7711 109.396 38.2756C108.532 38.7163 107.864 39.3735 107.401 40.2618C106.88 41.2648 106.708 42.4386 106.705 43.5701C106.708 44.6982 106.878 45.865 107.401 46.8637C107.866 47.7529 108.547 48.4083 109.415 48.8423C110.43 49.3474 111.588 49.5129 112.701 49.5129C113.707 49.5129 114.765 49.42 115.731 49.1103C116.447 48.8774 117.142 48.5084 117.641 47.9046C118.11 47.339 118.303 46.655 118.305 45.9099C118.303 45.7598 118.26 45.6261 118.156 45.5201C118.056 45.4114 117.93 45.3665 117.789 45.3631H116.281C116.062 45.3665 115.853 45.4218 115.674 45.558C115.483 45.6994 115.33 45.8883 115.209 46.0979C115 46.4463 114.691 46.6921 114.341 46.8637C113.91 47.0776 113.422 47.151 112.949 47.1544C112.385 47.1544 111.758 47.0768 111.263 46.7723C110.816 46.5024 110.525 46.0867 110.355 45.5778C110.142 44.9543 110.09 44.2281 110.094 43.5709C110.09 42.9069 110.142 42.1807 110.348 41.5494C110.516 41.0449 110.797 40.6257 111.233 40.348C111.708 40.0427 112.303 39.9599 112.847 39.9625ZM92.3207 45.1199V48.7465C92.324 48.8964 92.3689 49.0301 92.4701 49.1373C92.5694 49.2459 92.6961 49.2905 92.8375 49.2933H95.0896C95.2314 49.2905 95.3582 49.2459 95.4593 49.1364C95.5619 49.0301 95.6045 48.8964 95.6069 48.7484V38.3696C95.6045 38.2195 95.5619 38.0867 95.4584 37.9798C95.3582 37.8711 95.2324 37.8263 95.091 37.8237H89.1348C88.5291 37.8211 87.9192 37.8737 87.3267 38.0108C86.8317 38.129 86.3584 38.3222 85.9395 38.6275C85.547 38.9129 85.2562 39.289 85.0505 39.7426C84.8108 40.2773 84.7323 40.8862 84.73 41.4727C84.73 41.997 84.7905 42.5481 84.9773 43.0371C85.1338 43.4459 85.3617 43.8064 85.6794 44.0945C86.0132 44.3946 86.4023 44.6171 86.8132 44.7784L86.9305 44.8241L84.8392 48.5212C84.7697 48.6445 84.7129 48.7863 84.7129 48.931C84.7129 49.0344 84.7399 49.1207 84.8089 49.1914C84.894 49.2701 85.0141 49.2924 85.1224 49.2943H86.9414C87.261 49.2905 87.5778 49.2241 87.852 49.0458C88.0932 48.8859 88.2856 48.6739 88.4237 48.4112L90.1703 45.1208H92.3207V45.1199ZM89.444 42.9146C89.0596 42.9112 88.6833 42.8086 88.4 42.5196C88.1263 42.2385 88.0204 41.8685 88.0171 41.4718C88.0204 41.0759 88.1263 40.7051 88.4 40.4248C88.6814 40.1316 89.0587 40.0324 89.445 40.0289H92.3207V42.9155H89.444V42.9146ZM74.3874 45.8159V38.3696C74.385 38.2195 74.3424 38.0867 74.238 37.9798C74.1377 37.8711 74.011 37.8263 73.8706 37.8237H71.7637C71.6218 37.8271 71.4951 37.8711 71.3939 37.9815C71.2913 38.0876 71.2487 38.2204 71.2464 38.3696V48.7474C71.2487 48.8973 71.2913 49.0311 71.3948 49.1378C71.4951 49.2469 71.6209 49.2914 71.7622 49.2943H74.594C74.7292 49.2905 74.8569 49.2568 74.9798 49.1985C75.1179 49.1321 75.247 49.0467 75.3604 48.9395C75.4716 48.8352 75.5671 48.718 75.6422 48.5852L79.3946 41.3243V48.7465C79.3979 48.8964 79.4428 49.0301 79.544 49.1373C79.6442 49.2459 79.77 49.2905 79.9114 49.2933H82.0188C82.1611 49.2905 82.2873 49.2459 82.3885 49.1364C82.4916 49.0301 82.5342 48.8964 82.5365 48.7484V38.3696C82.5342 38.2195 82.4916 38.0867 82.3881 37.9798C82.2873 37.8711 82.1611 37.8263 82.0207 37.8237H79.187C79.0551 37.8237 78.9218 37.8616 78.8012 37.9168C78.6622 37.9798 78.5364 38.0669 78.4215 38.1678C78.309 38.2739 78.2158 38.3946 78.1407 38.5318L74.3874 45.8159ZM42.7796 38.3705C42.7763 38.2213 42.7347 38.0867 42.6302 37.9798C42.5307 37.8711 42.4041 37.8263 42.2629 37.8237H32.0894C31.9474 37.8271 31.8209 37.8711 31.7196 37.9815C31.6168 38.0876 31.5743 38.2204 31.5719 38.3696V48.7474C31.5743 48.8973 31.6168 49.0311 31.7204 49.1378C31.8209 49.2469 31.9465 49.2914 32.0878 49.2943H34.3407C34.4828 49.2914 34.6085 49.2469 34.7097 49.1373C34.8126 49.0311 34.855 48.8973 34.8574 48.7489V40.1825H39.4924V48.7484C39.4948 48.8983 39.5398 49.0311 39.6418 49.1387C39.7414 49.2473 39.8671 49.2924 40.0083 49.2948H42.2613C42.4025 49.2924 42.5299 49.2473 42.6302 49.1378C42.7331 49.032 42.7755 48.8983 42.7788 48.7498V38.3705H42.7796ZM22.0147 49.2933C22.2024 49.2896 22.3722 49.2326 22.5199 49.1089C22.6775 48.9784 22.791 48.8086 22.871 48.618L25.6562 41.5313V48.7474C25.6586 48.8973 25.7035 49.0301 25.8048 49.1378C25.9051 49.2469 26.0309 49.2914 26.1721 49.2943H28.3622C28.5042 49.2914 28.6308 49.2469 28.732 49.1373C28.8348 49.0311 28.8773 48.8973 28.8797 48.7489V38.3696C28.8773 38.2195 28.8348 38.0867 28.7312 37.9798C28.6308 37.8711 28.5042 37.8263 28.3638 37.8237H24.8905C24.7085 37.8271 24.5534 37.8901 24.4179 38.0186C24.2652 38.1618 24.155 38.3455 24.0766 38.543L21.5184 45.1501L18.9617 38.543C18.8825 38.3455 18.7724 38.1618 18.6197 38.0186C18.4834 37.8909 18.3283 37.8271 18.1471 37.8237H14.6745C14.5325 37.8271 14.406 37.8711 14.3048 37.9815C14.2019 38.0876 14.1595 38.2204 14.157 38.3696V48.7474C14.1595 48.8973 14.2019 49.0311 14.3064 49.1378C14.4068 49.2469 14.5325 49.2914 14.6737 49.2943H16.8647C17.0067 49.2914 17.1324 49.2469 17.2337 49.1373C17.3365 49.0311 17.379 48.8973 17.3814 48.7489V41.5322L20.1666 48.618C20.2474 48.8101 20.3609 48.9803 20.5184 49.1112C20.6661 49.2345 20.8359 49.2924 21.0229 49.2948H22.0147V49.2933ZM3.14192 45.752V38.3067C3.13948 38.1566 3.09703 38.0229 2.99254 37.9168C2.89214 37.8073 2.76642 37.7633 2.62521 37.7607H0.517532C0.375496 37.7633 0.24897 37.8081 0.14775 37.9186C0.0448963 38.0237 0.00244889 38.1566 0 38.3058V48.6834C0.00244889 48.8328 0.0448963 48.967 0.148566 49.0733C0.24897 49.1819 0.37468 49.2269 0.515901 49.2303H3.34681C3.48232 49.226 3.60966 49.1933 3.73292 49.1345C3.87088 49.0681 3.99985 48.9827 4.11331 48.876C4.22433 48.7716 4.31902 48.654 4.39494 48.5222L8.14826 41.2614V48.6834C8.15072 48.8338 8.19644 48.967 8.29763 49.0742C8.39725 49.1828 8.52378 49.2279 8.66416 49.2303H10.7718C10.9139 49.2269 11.0404 49.1819 11.1416 49.0723C11.2445 48.9666 11.2869 48.8328 11.2894 48.6844V38.3067C11.2869 38.1566 11.2445 38.0237 11.1408 37.9168C11.0404 37.8081 10.9147 37.7633 10.7735 37.7607H7.94092C7.80868 37.7607 7.67562 37.7987 7.55482 37.8539C7.41604 37.9168 7.29032 38.0039 7.17603 38.1057C7.06341 38.2118 6.96955 38.3325 6.89442 38.4697L3.14192 45.752ZM125.33 45.6615C125.196 45.9884 125.023 46.3083 124.791 46.5705C124.146 47.2941 122.853 47.182 122.008 47.0293C121.747 46.9767 121.478 46.9836 121.215 46.9836C121.073 46.9862 120.947 47.0311 120.846 47.1406C120.743 47.2467 120.701 47.3795 120.698 47.5285V48.7067C120.702 48.8456 120.749 48.9595 120.845 49.0553C120.952 49.1648 121.088 49.2269 121.233 49.2554C121.493 49.3062 121.755 49.3422 122.017 49.3707C123.268 49.4925 125.29 49.6538 126.409 48.9846C127.016 48.6203 127.475 48.0583 127.825 47.4294C128.301 46.5817 128.629 45.5822 128.88 44.6378L130.517 38.2885C130.546 38.1609 130.533 38.0462 130.455 37.9418C130.375 37.8357 130.266 37.7961 130.142 37.7901H128.015C127.84 37.7935 127.691 37.8573 127.554 37.9703C127.411 38.0928 127.318 38.2446 127.265 38.4308L126.27 42.292L125.974 43.4071L125.89 43.4011C125.642 43.3847 124.787 43.3424 124.618 43.2191C124.072 42.956 123.631 42.1272 123.386 41.5727C123.104 40.9535 122.821 40.1384 122.627 39.4804L122.323 38.4369C122.283 38.3127 122.222 38.2023 122.138 38.1049C122.052 38.0074 121.953 37.9315 121.839 37.8746C121.736 37.8219 121.626 37.7901 121.512 37.7901H119.405C119.276 37.7961 119.166 37.8366 119.082 37.9435C119.002 38.0462 118.993 38.1583 119.026 38.2825L119.517 39.9608C119.797 40.9103 120.238 42.1617 120.696 43.0259C120.983 43.5709 121.34 44.1108 121.783 44.5265C122.151 44.8681 122.571 45.1397 123.044 45.2958C123.461 45.4675 124.747 45.5123 125.235 45.5063L125.395 45.5046L125.33 45.6615ZM52.2184 27.8789C51.5948 25.8824 51.4832 23.6487 52.4667 21.7557C52.9286 20.8665 53.5996 20.1326 54.4298 19.6228C55.2606 19.114 56.2001 18.8596 57.1595 18.8518C58.0649 18.8441 58.9226 19.0467 59.7184 19.4029L59.5733 17.1476L59.8754 17.0312L62.9019 15.8712C62.7511 15.0217 62.8197 14.0998 63.3313 13.3926C63.5667 13.0675 63.876 12.8199 64.2367 12.6733C64.5937 12.5284 64.9795 12.4913 65.3569 12.5526C66.2496 12.6975 66.9626 13.346 67.4269 14.1369L70.0374 13.1365L70.2227 13.434L70.6175 14.0705L69.7575 8.94415L75.5917 9.65909C75.7236 6.88381 76.3695 2.71391 78.4797 0.817411C79.0769 0.280115 79.8078 -0.0674468 80.606 0.011035C81.4098 0.0903789 82.0755 0.581966 82.5772 1.22707C84.3763 3.53754 84.3616 7.87298 84.0623 10.6983L84.4775 10.7492L85.9437 10.9286C85.939 10.939 87.8936 8.14465 89.3287 7.32969C90.8308 6.47588 92.5931 6.11276 94.2943 6.10157C94.8664 3.87993 96.4102 2.43362 98.6991 3.13305C100.955 3.94375 101.094 5.40902 100.84 7.55564C102.329 8.2654 103.696 9.27013 104.747 10.5957C106.224 12.462 107.035 14.8475 106.633 17.2804L106.626 17.3184L105.922 21.4296C106.688 20.8354 107.562 20.3732 108.528 20.0851C108.777 20.0109 109.028 19.9497 109.282 19.9014C111.164 17.4478 114.085 15.3926 117.051 17.1442C120.44 19.1468 120.049 23.6832 118.894 26.9941C118.983 27.4408 119.041 27.8945 119.068 28.3498C123.749 27.8022 128.424 27.1355 133.104 26.3593C133.597 26.336 133.829 27.0243 133.186 27.2658C103.926 33.5167 70.0567 32.9423 40.7756 27.1467C40.2271 26.9199 40.3723 26.3567 40.8352 26.3593C44.631 26.9656 48.4259 27.4633 52.2184 27.8789ZM118.222 28.4482C118.182 27.7151 118.053 27.0027 117.842 26.3032C117.268 24.4016 116.111 22.6698 114.458 21.6625C112.735 20.6121 110.659 20.4068 108.755 20.9751C105.132 22.0549 102.947 25.866 103.338 29.7254C108.317 29.4408 113.273 29.0113 118.222 28.4482ZM102.489 29.7711C102.342 28.2575 102.551 26.756 103.059 25.3925L102.776 24.4671L90.3802 28.6482L90.7632 30.1212C94.6905 30.0989 98.597 29.9798 102.489 29.7711ZM89.8847 30.1256L89.3419 28.0351L90.0677 27.7901C89.0743 25.1269 89.1769 22.2464 91.0228 20.017C91.8138 19.0614 92.8456 18.3473 93.9808 17.9368C95.1113 17.5271 96.3435 17.4253 97.5171 17.6746C100.361 18.2791 102.078 20.656 102.78 23.5021L103.319 23.3201L103.449 23.7505L103.591 24.2153C103.95 23.546 104.388 22.926 104.896 22.374L105.791 17.1442C106.162 14.9777 105.42 12.8545 104.104 11.1943C102.545 9.22531 100.102 7.91614 97.7577 7.34259C95.186 6.71302 92.0895 6.80271 89.7273 8.14555C87.9353 9.16408 86.5631 10.8381 86.1953 12.9855L84.2477 24.3585L85.2515 30.0902C86.7991 30.1178 88.3438 30.129 89.8847 30.1256ZM84.3569 30.0756C79.2991 29.9712 74.2006 29.7047 69.0482 29.2657C68.5404 29.2356 68.0335 29.2036 67.5257 29.1717L66.6619 24.242L82.8098 21.2442L84.3569 30.0756ZM74.4479 20.2404L71.8005 15.9756L70.7981 9.99977L85.6019 11.8135L85.6 11.8178C85.4997 12.1395 85.4179 12.4707 85.3602 12.813L83.8108 21.8635L83.5942 20.6284L83.5134 20.1757L76.9435 21.396L76.7482 20.28L76.6687 19.8281L74.4479 20.2404ZM76.438 9.76348L83.2198 10.594C83.4916 8.04206 83.5569 3.90752 81.9308 1.81784C81.5772 1.3642 81.1048 1.05458 80.535 0.999389C79.9691 0.943329 79.4466 1.15117 79.0258 1.52892C77.1123 3.25034 76.5515 7.25465 76.438 9.76348ZM74.9694 21.0804L75.35 21.6927L76.0806 21.5573L75.9638 20.8958L74.9694 21.0804ZM74.4323 21.8626L73.3065 22.0721L73.1906 21.4107L74.0526 21.2511L74.4323 21.8626ZM59.8971 22.1713C58.9936 22.2403 58.1023 22.4784 57.2592 22.882C55.2975 23.8177 53.8104 25.5417 53.0454 27.6538C52.4823 25.8936 52.3352 23.8884 53.2071 22.2119C53.5939 21.4676 54.1556 20.8535 54.8511 20.4266C55.5556 19.9937 56.3547 19.7798 57.1685 19.7729C58.0999 19.7651 58.9808 20.0178 59.7865 20.4465L59.8971 22.1713ZM60.6745 21.0105C61.1903 21.3925 61.6655 21.8436 62.0892 22.3352C61.6452 22.2343 61.196 22.1748 60.7477 22.1567L60.6745 21.0105ZM66.6009 14.4551L63.7143 15.5616C63.6386 15.0183 63.6793 14.4129 64.0027 13.9644C64.1422 13.7721 64.3252 13.6246 64.5389 13.5375C64.7606 13.4478 65.0008 13.428 65.2358 13.4659C65.8056 13.5582 66.2741 13.9687 66.6009 14.4551ZM100.011 7.20979C100.046 6.66644 100.188 6.15588 100.062 5.62292C99.8609 4.76911 99.2084 4.19126 98.3857 3.93943C96.6301 3.403 95.6428 4.5371 95.1704 6.11623C96.7223 6.12917 98.501 6.5095 100.011 7.20979ZM118.432 25.3908C119.061 22.7682 119.417 19.8307 116.672 17.9851C114.224 16.6543 112.131 18.048 110.562 19.7669C111.993 19.741 113.709 20.1265 114.864 20.9769C116.49 22.0506 117.716 23.5254 118.432 25.3908ZM90.88 27.5159L101.968 23.7754C101.359 21.2658 99.8736 19.1131 97.3563 18.5784C96.3256 18.3593 95.2456 18.4525 94.2527 18.8113C93.2579 19.1709 92.3491 19.7953 91.6554 20.6345C90.0209 22.6112 89.9892 25.1744 90.88 27.5159ZM123.097 59.96C120.076 59.6133 117.057 59.3216 114.039 59.0707L113.511 59.7978L112.933 60.5937L110.718 63.6457L113.371 64.8741L114.161 65.2398L117.847 66.9458L123.005 60.052L122.929 59.9415L122.938 59.9425L122.947 59.9434L122.956 59.9444L122.965 59.9453L122.974 59.9458L122.983 59.9468L122.992 59.9477L123.001 59.9487L123.01 59.9496L123.019 59.9505L123.028 59.951L123.037 59.952L123.046 59.9529L123.055 59.9539L123.064 59.9548L123.073 59.9553L123.082 59.9562L123.091 59.9572L123.097 59.96ZM111.952 58.9033C109.618 58.7231 107.284 58.5661 104.952 58.4262C104.115 58.3498 103.278 58.2792 102.442 58.2128L102.573 65.6406L102.225 65.651L100.234 65.6951H100.232L100.241 65.7236C100.584 66.8471 101.164 67.8104 101.961 68.6271V68.6281C102.031 68.6987 102.102 68.7689 102.173 68.8368C102.394 69.044 102.627 69.2361 102.874 69.414C104.367 70.4878 106.197 70.8885 107.972 70.5309C109.75 70.1738 111.305 69.0938 112.323 67.514C112.678 66.9619 112.956 66.3667 113.152 65.7458L109.39 64.0057L109.718 63.5546L112.502 59.72C112.338 59.4355 112.153 59.1623 111.952 58.9033ZM102.424 58.2118C102.313 58.2033 102.203 58.1938 102.092 58.1848C102.203 58.1938 102.314 58.2033 102.424 58.2118ZM102.088 58.1848C101.728 58.1573 101.367 58.1298 101.007 58.1037L100.989 58.1023C98.3294 57.9087 95.6716 57.766 93.0143 57.6702L92.8342 57.664L92.9841 57.6692C91.3935 57.6123 89.8024 57.5725 88.2123 57.5492L88.3386 65.2052L92.6366 65.1207L100.05 64.9756L100.466 64.968L101.678 64.9438L101.576 58.7463L101.566 58.1464C101.707 58.1563 101.849 58.1677 101.99 58.1791L102.088 58.1848ZM88.2114 57.5492C85.1007 57.5037 81.9914 57.5208 78.8835 57.5986C78.9563 57.803 79.0201 58.0107 79.0754 58.2213C79.5814 60.1393 79.3587 62.1892 78.4527 63.935L78.4111 64.0166C77.4674 65.7857 75.9099 67.0738 74.0583 67.6202C73.8493 67.6814 73.6379 67.7331 73.4242 67.7744C72.7722 69.1232 71.723 70.235 70.4922 70.7989C70.5329 72.1677 71.0057 73.5052 71.7509 74.6719C73.0431 76.6952 75.0753 78.1399 77.2598 78.875L78.7932 79.3906C80.9771 80.1252 83.4269 80.1883 85.5896 79.3265C86.6638 78.8983 87.643 78.2428 88.3944 77.3696C88.4733 77.2776 88.5499 77.1837 88.6246 77.086L89.3944 75.7594C89.4757 75.5655 89.5485 75.3653 89.6105 75.1585L89.7835 74.5832L89.8701 74.2953L92.4143 65.853L87.6539 65.9711L87.5802 61.7856L87.5055 57.5388C87.6 57.5398 87.6936 57.5416 87.7887 57.5426H87.792H87.7958H87.8024H87.8033H87.809H87.8137H87.8156H87.8218H87.8251H87.8284H87.835H87.836H87.8416H87.8464H87.8483H87.8549H87.8577H87.861H87.8676H87.8686H87.8743H87.8799H87.8809H87.8875H87.8908H87.8936H87.9003H87.9012H87.9069H87.9126H87.9135H87.9201H87.9234H87.9263H87.9329H87.9348H87.9395H87.9452H87.9461H87.9527H87.9561H87.9594H87.9655H87.9674H87.9721H87.9778H87.9788H87.9854H87.9887H87.992H87.9981H88H88.0048H88.0104H88.0114H88.018H88.0218H88.0251H88.0317H88.0336H88.0383H88.044H88.045H88.0516H88.0553H88.0577H88.0643H88.0662H88.071H88.0766H88.0776H88.0842H88.088H88.0903H88.097H88.0989H88.1036H88.1102H88.1168H88.1206H88.1234H88.1296H88.1315H88.1362H88.1428H88.1494H88.1532H88.1561H88.1622H88.1641H88.1688H88.1754H88.1821H88.1858H88.1887H88.1948H88.1977H88.2015L88.2114 57.5492ZM77.9842 57.6228C76.6829 57.6607 75.3808 57.7081 74.0805 57.7665C73.7807 57.7797 73.4814 57.7944 73.1826 57.8091C71.323 57.8988 69.4634 58.0098 67.6047 58.1411C67.765 58.1298 67.9238 58.1184 68.0841 58.1075C67.9224 58.1184 67.7607 58.1298 67.5981 58.1411C66.9508 58.1867 66.3044 58.2341 65.6581 58.2849C65.7829 58.2754 65.9077 58.2649 66.0325 58.2555C66.0269 58.2744 66.0212 58.2943 66.0155 58.3133C66.0098 58.3323 66.0046 58.3522 65.999 58.3712C65.9933 58.3901 65.9886 58.4101 65.9838 58.43C65.9786 58.4499 65.973 58.4689 65.9682 58.4883C65.963 58.5082 65.9583 58.5272 65.9536 58.5471C65.9484 58.5671 65.9436 58.586 65.9389 58.6059C65.9337 58.6259 65.9299 58.6448 65.9247 58.6643C65.92 58.6842 65.9157 58.7032 65.912 58.7231C65.9077 58.743 65.903 58.7629 65.8987 58.7819C65.8945 58.8014 65.8907 58.8213 65.8864 58.8402C65.8826 58.8602 65.8784 58.8801 65.8741 58.9C65.8704 58.9199 65.867 58.9394 65.8628 58.9593C65.8595 58.9792 65.8557 58.9991 65.8524 59.0191C65.8491 59.039 65.8458 59.0584 65.8415 59.0783C65.8382 59.0983 65.8349 59.1182 65.8316 59.1381C65.8287 59.1575 65.8254 59.1775 65.8231 59.1974C65.8198 59.2173 65.8169 59.2372 65.8141 59.2571C65.8108 59.2766 65.8079 59.2965 65.8056 59.3164C65.8032 59.3363 65.8008 59.3563 65.7975 59.3762C65.7952 59.3956 65.7928 59.4156 65.79 59.4355C65.7876 59.4554 65.7852 59.4753 65.7838 59.4948C65.781 59.5147 65.7796 59.5346 65.7772 59.5555C65.7753 59.5754 65.7729 59.5948 65.7715 59.6157C65.7696 59.6356 65.7682 59.6555 65.7663 59.6759C65.7649 59.6959 65.763 59.7167 65.7616 59.7366C65.7602 59.7561 65.7583 59.777 65.7573 59.7969C65.7559 59.8168 65.755 59.8372 65.754 59.8571C65.7536 59.877 65.7517 59.8979 65.7512 59.9173C65.7502 59.9373 65.7493 59.9581 65.7484 59.9781C65.7479 59.998 65.7469 60.0184 65.746 60.0383C65.7455 60.0582 65.7455 60.0791 65.7446 60.0985C65.7436 60.1184 65.7436 60.1393 65.7436 60.1592C65.7436 60.1787 65.7427 60.1995 65.7427 60.2195C65.7427 60.2394 65.7427 60.2598 65.7427 60.2797C65.7427 60.2996 65.7427 60.3205 65.7427 60.3399C65.7427 60.3599 65.7436 60.3807 65.7436 60.4006C65.7436 60.4206 65.7446 60.441 65.7455 60.4609C65.746 60.4808 65.7469 60.5017 65.7469 60.5211C65.7479 60.541 65.7484 60.5619 65.7493 60.5818C65.7503 60.6013 65.7512 60.6221 65.7526 60.6421C65.7536 60.662 65.755 60.6824 65.7559 60.7023C65.7573 60.7222 65.7583 60.7431 65.7602 60.763C65.7616 60.7824 65.763 60.8033 65.7649 60.8232C65.7663 60.8432 65.7682 60.8635 65.7696 60.8835C65.7715 60.9034 65.7729 60.9233 65.7753 60.9437C65.7772 60.9636 65.7796 60.9835 65.781 61.0044C65.7838 61.0239 65.7852 61.0438 65.7876 61.0646C65.79 61.0846 65.7928 61.1045 65.7952 61.1249C65.7975 61.1448 65.7999 61.1647 65.8023 61.1856C65.8051 61.205 65.8075 61.225 65.8108 61.2458C65.8131 61.2657 65.8164 61.2852 65.8198 61.3061C65.8231 61.326 65.8254 61.3459 65.8287 61.3658C65.8316 61.3853 65.8349 61.4052 65.8382 61.4251C65.8415 61.445 65.8448 61.4649 65.8481 61.4844C65.8514 61.5043 65.8557 61.5242 65.8585 61.5441C65.8618 61.5641 65.8661 61.584 65.8703 61.6034C65.8741 61.6234 65.8774 61.6433 65.8817 61.6632C65.8855 61.6831 65.8897 61.703 65.894 61.7225C65.8978 61.7424 65.902 61.7623 65.9068 61.7822C65.911 61.8022 65.9157 61.8216 65.92 61.8415C65.9247 61.8614 65.929 61.8814 65.9337 61.9013C65.9389 61.9212 65.9436 61.9407 65.9479 61.9596C65.9526 61.9795 65.9574 61.9995 65.9626 62.0184C65.9673 62.0384 65.972 62.0583 65.9781 62.0772C66.0226 62.248 66.0741 62.4159 66.1313 62.5824C66.6718 64.0925 67.6515 65.3399 68.9877 66.1357C69.0336 66.1632 69.0789 66.1893 69.1258 66.2149C69.1489 66.2282 69.1721 66.2401 69.1948 66.2529L69.1981 66.2548C69.2203 66.2666 69.243 66.2789 69.2652 66.2908L69.27 66.2936C69.2912 66.3046 69.3125 66.3159 69.3338 66.3264L69.3437 66.3316C69.3641 66.342 69.3834 66.352 69.4038 66.3615L69.4151 66.3667C69.435 66.3762 69.4544 66.3857 69.4742 66.3951L69.4865 66.4075C69.505 66.416 69.5239 66.4246 69.5418 66.434L69.5589 66.4421L69.5858 66.454C70.1868 66.7281 70.8218 66.9017 71.4667 66.9714L71.471 66.9723C71.4951 66.9747 71.5197 66.9776 71.5443 66.9799L71.5499 66.9809C71.5736 66.9837 71.5982 66.9852 71.6218 66.9871L71.6294 66.988C71.6521 66.9894 71.6738 66.9913 71.697 66.9932L71.7098 66.9937C71.731 66.9956 71.7518 66.9965 71.7726 66.9975L71.7906 66.998C71.8114 66.9989 71.8308 66.9999 71.8511 67.0008L71.8681 67.0018C71.8871 67.0027 71.906 67.0032 71.9254 67.0032L71.9485 67.0041C71.967 67.0051 71.9868 67.0051 72.0053 67.006H72.0284C72.0431 67.006 72.0587 67.006 72.0734 67.007H72.1093C72.1206 67.007 72.131 67.007 72.1424 67.007C72.1575 67.007 72.1722 67.007 72.1873 67.007C72.1991 67.007 72.2105 67.007 72.2228 67.006C72.2374 67.006 72.2511 67.0051 72.2658 67.0051L72.2984 67.0041C72.314 67.0041 72.3306 67.0032 72.3457 67.0027L72.3745 67.0018C72.3916 67.0008 72.4086 66.9999 72.4261 66.9989L72.4526 66.9975C72.4705 66.9965 72.488 66.9956 72.506 66.9937L72.5296 66.9923C72.5476 66.9913 72.5656 66.9894 72.5835 66.9885L72.6081 66.9871C72.6256 66.9852 72.6436 66.9842 72.6611 66.9828L72.6861 66.9799C72.7041 66.9785 72.723 66.9766 72.741 66.9747L72.7623 66.9723C72.7816 66.9705 72.8015 66.9681 72.8199 66.9652L72.8389 66.9638C72.8587 66.961 72.879 66.9586 72.8984 66.9557L72.9183 66.9534C72.9377 66.9505 72.958 66.9482 72.9779 66.9458L72.9939 66.9429C73.0143 66.9396 73.0346 66.9368 73.0559 66.9335L73.0715 66.9311C73.0928 66.9273 73.114 66.924 73.1353 66.9207L73.1476 66.9188C73.1694 66.9154 73.1906 66.9112 73.2129 66.9078L73.2256 66.905C73.2479 66.9007 73.2701 66.8965 73.2918 66.8922L73.3018 66.8903C73.324 66.886 73.3457 66.8818 73.368 66.8765L73.3802 66.8742C73.402 66.8699 73.4242 66.8647 73.4464 66.8595L73.4554 66.8576C73.4781 66.8524 73.5018 66.8471 73.5245 66.8414L73.5287 66.8405C73.5533 66.8343 73.5774 66.8282 73.602 66.8225L73.6044 66.8215C73.629 66.8154 73.6526 66.8092 73.6772 66.8026L73.6795 66.8016L73.6829 66.8007C73.733 66.7879 73.7826 66.7731 73.8323 66.7584C75.4664 66.277 76.8394 65.1407 77.6721 63.5788C78.5033 62.0246 78.7128 60.1773 78.2598 58.4584L78.2565 58.4447L78.2532 58.4314L78.2504 58.4186L78.247 58.4058L78.2437 58.393L78.2404 58.3797L78.2362 58.3669L78.2324 58.3541L78.2291 58.3408L78.2248 58.328L78.2206 58.3152L78.2168 58.3024L78.2125 58.2891L78.2083 58.2763L78.2045 58.2635L78.2002 58.2507L78.1965 58.2374L78.1922 58.2246L78.1879 58.2118L78.1842 58.1985L78.1799 58.1857L78.1757 58.1729L78.1719 58.1601L78.1676 58.1468L78.1652 58.1279L78.161 58.1151L78.1572 58.1023L78.153 58.0894L78.1487 58.0762L78.1449 58.0634L78.1407 58.0506L78.1369 58.0373L78.1326 58.0245L78.1284 58.0117L78.1246 57.9989L78.1203 57.9856L78.1161 57.9728L78.1123 57.96L78.108 57.9467L78.1038 57.9339L78.0991 57.9211L78.0948 57.9083L78.0901 57.895L78.0853 57.8822L78.0801 57.8694L78.0754 57.8566L78.0707 57.8433L78.0655 57.8305L78.0607 57.8177L78.056 57.8044L78.0508 57.7916L78.0461 57.7788L78.0414 57.766L78.0362 57.7527L78.0314 57.7399L78.0262 57.7271L78.0215 57.7138L78.0168 57.701L78.0116 57.6882L78.0068 57.6754L78.0021 57.6621L77.9969 57.6503L77.9889 57.6365L77.9842 57.6228ZM74.0781 57.7665C73.9221 57.7736 73.767 57.7807 73.611 57.7883C73.767 57.7812 73.9231 57.7736 74.0781 57.7665ZM65.1332 58.3266C62.5837 58.5301 60.0361 58.7715 57.4895 59.0485C57.7694 59.0181 58.0484 58.9877 58.3283 58.9583L62.1431 69.4448L64.6906 68.4943C63.9757 66.7651 64.3961 64.6004 65.2954 62.7707C65.2467 62.6213 65.2022 62.4714 65.1616 62.3196C64.8188 61.0163 64.8084 59.6314 65.1332 58.3266ZM57.4597 59.0518C55.4876 59.2657 53.5163 59.5009 51.5456 59.757L51.5541 59.7561C51.3068 60.3513 51.1442 60.9812 51.0676 61.6295C50.9182 62.9016 51.1012 64.2082 51.5574 65.3925C52.0113 66.5697 52.7376 67.6344 53.6818 68.4265C55.8899 70.2781 58.6025 70.152 61.0319 68.8723L57.4597 59.0518ZM65.3696 68.242L68.4014 67.1113C68.4822 67.0734 68.5768 67.0293 68.6799 66.9799C68.6439 66.9595 68.608 66.9387 68.5721 66.9173C67.3205 66.1713 66.3143 65.0605 65.6703 63.7088C65.0505 65.199 64.7852 66.8879 65.3696 68.242ZM69.6733 67.449C69.3551 67.6397 69.0217 67.7967 68.7291 67.9337L68.7021 67.9451L65.8316 69.0156C66.1167 69.3751 66.4874 69.6952 66.9574 69.9599C67.8756 70.4773 68.8 70.5489 69.6496 70.3066C69.6742 69.7185 69.7697 69.1275 69.9461 68.5427L70.2203 67.6321C70.0364 67.5794 69.8539 67.5183 69.6733 67.449ZM71.0511 67.8175L70.7518 68.8126C70.6388 69.1863 70.5646 69.5615 70.5249 69.9376C71.3249 69.4827 72.0199 68.7552 72.5301 67.8901C72.0355 67.9195 71.5395 67.8944 71.0511 67.8175ZM93.012 66.813L90.9902 73.5232L102.171 74.7687L101.177 69.0611C100.324 68.122 99.6973 66.9766 99.354 65.715L96.8707 65.7658L96.8934 67.0833L96.4717 67.0923L93.0186 67.1597L93.012 66.813ZM90.7282 74.3911L90.4152 75.4284C90.2039 76.1303 89.8937 76.7678 89.505 77.3379C89.697 78.71 90.1623 80.028 91.089 80.9135C91.5509 81.356 92.115 81.6577 92.7411 81.7174C93.359 81.7762 93.9581 81.5898 94.4773 81.2398C96.2958 80.0143 96.8854 77.2155 96.9833 75.0878L90.7282 74.3911ZM75.2739 78.986C75.2394 79.0747 75.203 79.1629 75.1661 79.2492C75.0886 79.4304 74.9883 79.6372 75.0479 79.8388C75.0649 79.8976 75.0829 79.9564 75.1018 80.0143C75.3898 80.8703 75.9415 81.5296 76.7449 81.864C77.6021 82.2211 78.5757 82.1504 79.4438 81.8716C79.5308 81.8441 79.6182 81.8123 79.7048 81.7805C79.9809 81.6766 80.0315 81.2517 80.0826 80.9894C80.1048 80.8789 80.127 80.7688 80.1511 80.6583C79.6059 80.5573 79.0679 80.4169 78.5407 80.24L77.0068 79.7245C76.4111 79.5253 75.8323 79.2786 75.2739 78.986ZM93.6054 65.8364L93.6186 66.509L96.2504 66.4487L96.2381 65.7762L93.6054 65.8364ZM103.955 71.0118C104.566 72.5352 105.639 73.8983 107.187 74.3826C107.802 74.5756 108.452 74.6083 109.078 74.4608C109.7 74.3133 110.266 73.9951 110.734 73.5369C111.882 72.4153 112.231 70.7187 112.165 69.1213C111.072 70.3047 109.671 71.0982 108.128 71.4088C106.723 71.6915 105.284 71.5544 103.955 71.0118ZM121.657 63.2914L120.124 65.3408C120.533 65.494 120.993 65.5319 121.398 65.3413C121.575 65.2588 121.733 65.1326 121.851 64.9699C121.962 64.8153 122.03 64.6341 122.05 64.4411C122.093 64.0185 121.905 63.6149 121.657 63.2914Z" fill="white"/>
</g>
</g>
<defs>
<clipPath id="clip0_2969_216">
<rect width="174" height="83" fill="white"/>
</clipPath>
</defs>
</svg>
