<svg width="165" height="38" viewBox="0 0 165 38" fill="none" xmlns="http://www.w3.org/2000/svg">
<path fill-rule="evenodd" clip-rule="evenodd" d="M12.0617 25.9854L25.4587 17.5864L25.6752 19.0846L24.215 19.9021C23.2249 20.895 23.348 22.3067 23.348 22.3067C23.1261 28.6687 22.0658 30.9868 22.0658 30.9868C20.6309 32.7897 16.9909 35.5082 16.9909 35.5082C11.7176 39.2348 6.13141 37.677 6.13141 37.677C-3.12606 33.4519 0.8481 17.2104 0.8481 17.2104C4.42961 3.80581 15.6647 2.07347 15.6647 2.07347C25.4272 0.368831 25.3257 3.98793 25.3257 3.98793L16.8804 10.7024L16.2838 8.67716C20.3604 5.50289 18.0755 4.27414 18.0755 4.27414C16.9353 2.71135 14.5056 4.03913 14.5056 4.03913C9.84501 6.34388 8.5691 11.5778 8.5691 11.5778C7.27433 15.2289 7.2366 21.4061 7.01376 27.6758C6.78733 33.9546 12.6349 34.9736 12.6349 34.9736C15.042 35.1087 16.3593 31.9915 16.3593 31.9915C17.1985 28.6167 16.5839 25.8008 16.5839 25.8008C16.105 25.0244 12.3798 27.9234 12.3798 27.9234L12.0617 25.9854ZM43.5678 18.0071C42.7097 19.762 41.0205 20.582 41.0205 20.582C40.2981 20.8439 38.9674 19.7621 38.3834 19.8341C37.7939 19.8955 36.8423 21.2871 36.8423 21.2871C34.2124 25.0556 34.384 34.0521 34.384 34.0521L29.8716 37.4866C29.8716 37.4866 29.3595 37.9717 29.5841 37.2818C30.4511 34.5439 30.6893 24.2641 30.4691 21.9115C30.2409 19.5513 29.435 20.6584 29.435 20.6584C29.435 20.6584 27.4708 21.9971 27.3783 22.2547C27.2884 22.51 26.3099 21.2702 26.3099 21.2702C28.1177 19.5513 32.933 16.2134 32.933 16.2134C35.482 17.1594 35.2915 20.4964 35.2915 20.4964L38.8344 16.2134C39.3879 15.8685 40.8031 16.7842 40.8031 16.7842C42.929 17.062 44.3207 15.9524 44.3207 15.9524L44.6855 16.2327L43.5678 18.0071ZM106.297 14.1728C104.514 16.1116 103.705 16.3466 103.056 16.4725C102.395 16.5992 101.423 16.6765 101.423 16.6765C100.693 16.7117 100.091 16.5716 100.091 16.5716C100.163 21.4068 99.6379 30.562 99.1824 35.169L94.6475 37.2521L94.4345 37.0616C95.5658 26.2463 95.4454 16.7764 95.4454 16.7764C92.7606 17.3202 91.473 18.9677 91.473 18.9677C90.7956 19.1247 90.7614 18.5616 90.7614 18.5616C93.128 15.4745 95.3932 14.6847 95.3932 14.6847C95.3932 14.6847 95.5316 10.265 96.3421 8.07437C101.518 -5.89678 108.603 2.50471 108.603 2.50471C109.463 3.47831 109.714 5.03187 109.714 5.03187L103.801 9.35012L103.623 8.70386C103.623 8.70386 106.499 6.94885 105.858 4.61725C104.607 0.0279031 101.678 2.49799 101.678 2.49799C99.2191 5.51112 99.8274 12.0669 99.805 13.9697C99.805 13.9697 102.948 14.7813 105.943 13.6944C106.574 13.4628 106.462 13.8925 106.297 14.1728ZM60.2906 26.5453C60.2906 26.5453 61.5655 25.4902 62.9008 23.3232C63.8182 21.835 63.829 19.6638 62.9736 18.5231C62.9736 18.5231 61.4317 18.456 60.6653 21.4607C60.4488 22.3117 60.1396 23.3542 60.1765 24.3773C60.2106 25.4029 60.2906 26.5453 60.2906 26.5453ZM46.8388 23.9921C46.7993 24.6442 46.7005 24.6384 46.8127 26.2019C46.8127 26.2019 49.006 24.7458 50.1067 21.6328C50.6737 20.0112 49.5946 18.5811 49.5946 18.5811C49.5946 18.5811 48.1093 19.6125 47.4543 21.5874C47.4543 21.5874 46.9143 22.948 46.8388 23.9921ZM90.4594 31.0011C90.4954 30.9609 91.2015 31.7691 91.2015 31.7691C87.9615 35.7214 86.4232 36.5389 86.4232 36.5389C85.2192 37.16 84.7233 37.4302 84.4123 37.16C83.9127 36.716 83.0385 34.9409 83.0915 33.8388C83.1642 31.9017 83.3638 30.5547 83.3638 30.5547C84.6298 23.4868 84.5309 20.869 84.5309 20.869C84.7142 18.6348 83.7438 19.5991 83.7438 19.5991C80.9215 21.8165 79.3069 28.1659 79.3069 28.1659C78.6806 30.114 78.465 33.9782 78.465 33.9782L73.9562 36.8872C73.0317 37.614 73.6966 36.1067 73.6966 36.1067C75.8835 27.4425 75.5781 23.9265 75.7605 21.2055C75.924 19.2172 74.8395 19.939 74.8395 19.939C74.6643 20.1564 72.6713 23.8393 72.5141 24.0525C66.2029 33.7172 62.5513 35.8641 62.5513 35.8641C61.7965 36.4667 60.6068 36.988 59.9608 36.7748C59.3345 36.5473 58.6903 35.5099 58.6903 35.5099C55.807 32.0838 55.6848 27.9528 55.6848 27.9528C52.1742 33.2119 46.4534 35.8557 46.4534 35.8557C44.5718 37.2288 44.2933 36.0286 44.2933 36.0286C41.5627 32.3407 41.9454 27.6179 41.9454 27.6179C41.843 22.901 46.5531 18.7875 46.5531 18.7875C49.1894 16.4659 51.9091 15.2675 51.9091 15.2675C53.4169 14.3232 53.6046 16.0396 53.6046 16.0396C54.7342 19.2969 52.1006 23.0722 52.1006 23.0722C50.5982 25.3904 46.873 27.8814 46.873 27.8814L47.0113 29.6297C47.2899 31.4292 48.0554 31.7078 48.7904 31.9823C51.9451 31.7078 55.7962 25.2192 55.7962 25.2192C58.0496 17.2315 65.1147 15.2909 65.1147 15.2909C66.1471 14.6992 66.3125 15.0778 66.7456 15.8189C67.1661 16.5532 67.1661 18.8378 67.1661 18.8378C65.9288 24.948 60.6923 27.8814 60.6923 27.8814C61.1424 31.1791 63.0086 31.7867 63.0086 31.7867C64.5064 31.8472 67.326 28.4841 67.326 28.4841C68.8499 26.6358 70.168 25.2435 72.7279 20.7338C73.8232 18.8244 75.7605 17.1593 75.7605 17.1593C76.3257 16.6423 77.6114 15.8063 77.6114 15.8063C80.4993 15.7937 79.979 22.6777 79.979 22.6777L83.3583 18.3687C84.9029 16.4659 87.177 15.0853 87.7108 14.9334C88.2652 14.7773 88.7558 17.1593 88.7558 17.1593C89.5537 19.7535 87.717 29.1102 87.717 29.1102C87.8689 28.8643 87.1007 32.6899 87.6865 33.3268C88.2769 33.9664 90.1584 31.284 90.4594 31.0011ZM148.107 28.5575L149.034 19.2739C149.034 19.2739 145.616 16.3858 144.203 24.6891C144.203 24.6891 143.83 27.4916 144.218 30.0522C144.218 30.0522 144.885 32.7313 146.227 30.8178L148.107 28.5575ZM119.885 22.908C119.447 24.6807 119.52 26.5179 119.52 26.5179C119.52 26.5179 124.106 22.24 122.62 19.3528C122.62 19.3528 120.32 21.138 119.885 22.908ZM157.747 28.0749C158.08 27.8936 158.414 28.2956 158.414 28.2956C154.161 34.817 150.761 36.9296 150.761 36.9296C148.722 37.0555 148.259 34.76 148.162 33.8737C148.064 32.989 148.107 30.0522 148.107 30.0522C147.21 31.6915 143.897 36.5931 143.897 36.5931C139.507 35.2568 139.767 27.6376 139.767 27.6376C137.086 31.198 131.521 36.8683 131.521 36.8683C130.925 36.8683 130.175 35.6379 130.175 35.6379C129.28 34.2656 130.175 26.0589 130.175 26.0589C124.446 33.6042 119.434 37.011 119.434 37.011L118.234 35.9148C115.853 33.3139 116.04 29.3942 116.04 29.3942L111.826 34.6844C110.631 36.0475 109.245 37.0387 109.245 37.0387C107.003 36.8977 106.752 29.7518 106.752 29.7518C106.625 27.0887 107.904 21.9613 108.303 20.4573C108.303 20.4573 108.736 19.2974 108.624 18.8593C108.467 18.1886 105.487 20.3482 104.928 20.3482L104.38 19.5986C109.338 16.5537 113.034 14.9221 113.034 14.9221C113.638 14.6451 112.944 16.3741 112.944 16.7895C112.944 17.1999 111.826 22.7235 111.826 22.7235C110.332 30.2554 111.66 31.1854 111.66 31.1854C113.114 31.8291 115.611 28.012 115.611 28.012C116.213 24.7579 117.478 22.3818 118.375 21.1329C122.173 15.7982 125.686 15.1436 125.686 15.1436C126.585 15.0085 126.48 16.7626 126.48 16.7626C126.721 18.3749 126 20.5823 126 20.5823C124.81 25.2371 119.729 27.9708 119.729 27.9708C119.591 30.2982 121.983 31.4615 121.983 31.4615C127.145 29.1677 130.1 22.94 130.1 22.94C130.988 21.4351 132.116 9.87108 132.116 9.87108C132.116 9.87108 132.275 7.63516 131.925 7.48324C131.168 7.15508 129.291 8.6012 129.291 8.6012C128.614 7.96669 128.522 7.94319 128.522 7.94319L136.28 2.25518C137.326 2.11502 137.494 3.90442 137.494 3.90442C137.494 4.31569 136.295 15.9275 136.295 15.9275C135.843 18.9432 134.946 29.7493 134.946 29.7493C134.798 32.4586 139.878 25.7836 139.878 25.7836C142.859 16.0459 149.772 15.758 149.772 15.758C149.772 15.758 151.324 7.08206 150.904 6.0774C150.497 5.07778 147.408 6.96287 147.408 6.96287C147.012 6.53231 146.838 6.26792 146.838 6.26792L154.826 0.353303C155.766 0.353303 155.533 1.6962 155.533 1.6962C155.533 2.10578 153.158 24.507 153.158 24.507C152.747 29.3884 153.578 31.4934 153.578 31.4934C155.925 31.0049 157.426 28.2562 157.747 28.0749ZM161.809 23.8314C162.164 23.8314 162.468 23.7122 162.468 23.3975C162.468 23.1785 162.292 22.956 161.809 22.956C161.678 22.956 161.579 22.9677 161.503 22.9761V23.8314H161.809ZM162.389 23.9959C162.622 24.0345 162.783 24.2368 162.839 24.6112C162.902 25.0039 162.967 25.1559 163.009 25.2348H162.564C162.499 25.1559 162.434 24.9216 162.38 24.5885C162.32 24.267 162.144 24.1445 161.803 24.1445H161.503V25.2348H161.078V22.7051C161.299 22.6757 161.512 22.6446 161.834 22.6446C162.24 22.6446 162.509 22.7252 162.667 22.8351C162.832 22.9451 162.914 23.1171 162.914 23.3597C162.914 23.6921 162.676 23.8927 162.389 23.9757V23.9959ZM161.967 25.8387C163.032 25.8513 163.884 24.9935 163.884 23.9251C163.884 22.8525 163.032 21.9963 161.967 21.9963H161.952C160.896 21.9963 160.028 22.8525 160.028 23.9125C160.028 24.9935 160.896 25.8387 161.967 25.8387ZM161.967 21.6463C163.278 21.6463 164.324 22.6535 164.324 23.9125C164.324 25.1933 163.278 26.1937 161.952 26.1937C160.638 26.1937 159.569 25.1933 159.569 23.9125C159.569 22.6535 160.638 21.6463 161.952 21.6463H161.967Z" fill="white"/>
</svg>
