<svg width="128" height="34" viewBox="0 0 128 34" fill="none" xmlns="http://www.w3.org/2000/svg">
                                    <path d="M113.924 14.8241H112.899C113.235 14.5041 113.571 14.1521 113.908 13.7521C113.892 13.9121 113.892 14.0561 113.892 14.1681C113.892 14.3601 113.908 14.5841 113.924 14.8241ZM116.55 8.77605L118.52 4.55205L120.393 8.77605H116.55ZM120.826 9.70405H116.102L116.214 9.43205H120.682L120.826 9.70405ZM119.32 2.80805L123.692 12.6481C124.141 13.6561 124.573 14.3281 125.101 14.8241H122.235C122.667 14.2961 122.908 13.6881 122.908 13.1441C122.908 12.8721 122.859 12.6161 122.779 12.4401L118.888 3.72005L119.32 2.80805ZM120.762 14.8241H119.993V15.5121H127.952V14.8241H127.119C126.623 14.8241 125.806 14.3121 124.717 11.8801L119.641 0.456055L114.276 11.9921C114.02 12.5201 113.523 13.1921 112.739 14.0081C112.226 14.5521 111.858 14.8241 111.313 14.8241H110.753V15.5121H116.742V14.8241H115.877C115.093 14.8241 114.66 14.2001 114.66 13.1281C114.66 12.9041 114.74 12.6321 114.884 12.3121L115.765 10.4081H121.098L122.091 12.6481C122.155 12.8081 122.203 12.9841 122.203 13.1601C122.219 13.9601 121.642 14.8241 120.762 14.8241ZM106.173 2.79205V2.44005L105.404 1.78405H107.39L107.134 1.97605C106.797 2.23205 106.749 2.61605 106.749 2.92005V13.6721C106.749 14.1841 106.893 14.4561 107.294 14.8081H105.388C105.789 14.4401 105.949 14.0561 105.949 13.5601V3.19205C105.949 2.93605 106.029 2.87205 106.109 2.84005L106.173 2.79205ZM110.048 14.8241H109.424C108.639 14.8241 107.998 14.1521 107.998 13.3201V3.28805C107.998 2.47205 108.639 1.78405 109.376 1.78405H110.032V1.09605H103.242V1.80005H103.883C104.523 1.80005 105.228 2.42405 105.228 3.30405V13.3201C105.228 14.2001 104.523 14.8241 103.883 14.8241H103.242V15.5121H110.032V14.8241H110.048ZM99.9114 1.80005C99.6872 2.15205 99.495 2.55205 99.3669 3.00005C99.1107 2.52005 98.7584 2.12005 98.342 1.80005H99.9114ZM87.3564 13.7841C87.4685 14.1521 87.6126 14.5041 87.7728 14.8241H86.5877C86.908 14.5361 87.1642 14.1841 87.3564 13.7841ZM88.1091 1.80005L99.2548 13.5441V14.8401L87.7087 2.61605C87.4204 2.31205 87.1002 2.04005 86.7479 1.78405H88.1091V1.80005ZM102.522 1.09605H95.8278V1.80005H96.7566C97.221 1.80005 97.8135 2.16805 98.4221 2.82405C98.9986 3.46405 99.2388 4.12005 99.2388 5.08005V11.8481L89.15 1.14405L89.1019 1.09605H84.5539V1.80005H85.1945C85.5628 1.80005 86.2354 2.10405 87.0521 2.95205V11.6561C87.0521 13.4961 86.1553 14.8401 84.9062 14.8401H84.4098V15.5281H91.1357V14.8401H89.8226C88.9258 14.8401 87.7247 13.3041 87.7247 11.7361V3.60805L99.2068 15.7841L99.2548 15.8321H99.8954V4.76005C99.8954 3.24005 101.064 1.80005 101.961 1.80005H102.506V1.09605H102.522ZM78.0683 14.8241C78.5006 14.2961 78.7409 13.6881 78.7409 13.1441C78.7409 12.8721 78.6928 12.6161 78.6127 12.4401L74.7213 3.72005L75.1377 2.82405L79.5095 12.6641C79.9579 13.6721 80.3903 14.3441 80.9188 14.8401H78.0683V14.8241ZM76.643 9.70405H71.9349L72.047 9.43205H76.5149L76.643 9.70405ZM72.3673 8.77605L74.337 4.55205L76.2267 8.77605H72.3673ZM69.741 14.8241H68.7161C69.0524 14.5041 69.3887 14.1521 69.725 13.7521C69.7089 13.9121 69.7089 14.0561 69.7089 14.1681C69.7089 14.3761 69.725 14.5841 69.741 14.8241ZM72.5755 14.8241H71.7107C70.926 14.8241 70.4936 14.2001 70.4936 13.1281C70.4936 12.9041 70.5737 12.6321 70.7178 12.3121L71.5986 10.4081H76.9313L77.9241 12.6481C77.9882 12.8081 78.0362 12.9841 78.0362 13.1601C78.0362 13.9601 77.4437 14.8241 76.579 14.8241H75.7943V15.5121H83.7692V14.8241H82.9365C82.4401 14.8241 81.6234 14.3121 80.5344 11.8801L75.458 0.456055L70.0933 11.9921C69.8371 12.5361 69.3406 13.1921 68.5559 14.0081C68.0435 14.5521 67.6752 14.8241 67.1307 14.8241H66.5702V15.5121H72.5594V14.8241H72.5755ZM60.5009 14.8241C60.9653 14.3761 61.2696 13.9281 61.2696 13.3041L60.2287 1.80005H61.9902C61.4137 2.16805 61.1575 2.58405 61.1575 3.16005C61.1575 3.20805 61.1575 3.25605 61.1735 3.28805C61.1735 3.32005 61.1895 3.33605 61.1895 3.38405L61.9902 12.8081C62.0703 13.6721 62.3425 14.2321 62.9991 14.8081H60.5009V14.8241ZM48.4904 14.8241C48.7946 14.5521 49.0509 14.2801 49.2751 13.9761C49.2911 14.2321 49.3231 14.5201 49.3712 14.8241H48.4904ZM51.3409 1.80005L55.3924 11.1121L54.96 12.1201L51.1327 3.41605C50.8444 2.74405 50.4441 2.21605 49.9477 1.80005H51.3409ZM52.6861 14.8241H51.5811C50.6683 14.8241 49.9797 13.8801 49.9797 12.6481C49.9797 12.4401 49.9957 12.1841 50.0437 11.8641L50.7644 4.20005L54.96 13.7521L59.7162 3.36805L60.5649 13.0161V13.1761C60.5649 14.0881 59.7482 14.8401 58.7554 14.8401H58.291V15.5281H65.7855V14.8401H65.0168C64.4884 14.8401 63.3514 14.0881 63.2553 13.0801L62.4226 3.40005V3.28805C62.4226 2.47205 63.2233 1.80005 64.2001 1.80005H65.0649V1.11205H59.5401L59.6041 1.96005L56.065 9.64005L52.4298 1.19205L52.3818 1.09605H47.4014V1.80005H48.3142C49.3712 1.80005 50.1558 2.72805 50.1558 3.33605V3.40005C50.1558 3.48005 50.1398 3.60805 50.1238 3.76805L49.3231 12.1041C49.195 13.4801 47.8979 14.8401 46.7288 14.8401H46.4886V15.5281H52.6861V14.8241ZM32.5564 8.23205C32.5564 10.2801 33.149 12.1041 34.334 13.6561C32.6685 12.2961 31.7557 10.4561 31.7557 8.37605C31.7557 6.18405 32.6525 4.28005 34.2379 2.98405C33.165 4.34405 32.5564 6.21605 32.5564 8.23205ZM33.9977 8.02406C33.9977 3.78405 35.5511 1.54405 38.4976 1.54405C41.4923 1.54405 42.9335 3.68805 42.9335 8.12005C42.9335 12.7281 41.4282 15.0481 38.4656 15.0481C35.503 15.0641 33.9977 12.6961 33.9977 8.02406ZM42.4371 13.5121C43.2058 12.2641 43.6061 10.4881 43.6061 8.20005C43.6061 5.76805 43.1737 3.97605 42.2449 2.71205C43.6862 3.94405 44.599 6.00805 44.599 8.21605C44.615 10.3121 43.8143 12.2001 42.4371 13.5121ZM38.4656 15.7521C40.4994 15.7521 42.325 14.9841 43.7342 13.5281C45.1274 12.1041 45.8641 10.2641 45.8641 8.23205C45.8641 6.31205 45.1595 4.52005 43.8623 3.19205C42.4211 1.68805 40.5154 0.872055 38.4656 0.872055C36.4158 0.872055 34.5262 1.68805 33.1169 3.17605C31.7878 4.56805 31.0671 6.34405 31.0671 8.31205C31.0671 10.2801 31.7878 12.0721 33.165 13.5121C34.5742 14.9521 36.4478 15.7521 38.4656 15.7521ZM25.4142 1.99205C25.8145 2.00805 26.1989 1.97605 26.5672 1.91205C26.6152 2.29605 26.6953 2.66405 26.8074 3.04805C26.4231 2.64805 25.9587 2.29605 25.4142 1.99205ZM16.046 8.23205C16.046 10.9361 17.0709 13.0321 19.1047 14.4561C16.7186 13.3841 15.2293 11.1281 15.2293 8.36005C15.2293 6.18405 16.1421 4.28005 17.7115 3.03205C16.6385 4.42405 16.046 6.23205 16.046 8.23205ZM27.3999 9.91205V12.1041C27.3999 12.6961 27.432 13.1441 27.7042 13.5441L26.0708 14.0881C26.4071 13.5601 26.5832 12.9201 26.5832 12.2961V10.1681C26.5832 9.91206 26.6633 9.84805 26.7434 9.81605L26.8234 9.76805V9.41605L26.0548 8.74405H28.0725L27.7843 8.96805C27.448 9.20806 27.3999 9.59205 27.3999 9.91205ZM29.1455 14.0881V13.4961L29.0974 13.4481C28.7931 13.1601 28.6811 12.7761 28.6811 11.9921V10.2481C28.6811 9.36806 29.3857 8.74405 30.0262 8.74405H30.3785V8.07205H23.1402V8.74405H24.5174C25.2701 8.74405 25.8946 9.43206 25.8946 10.2481V12.0401C25.8946 13.8641 24.6135 15.0001 22.5477 15.0001C21.0264 15.0001 19.6171 14.2641 18.6723 12.9681C17.8396 11.8321 17.4392 10.3441 17.4392 8.31205C17.4392 3.86405 18.8645 1.62405 21.6669 1.62405C24.2452 1.62405 26.6313 3.25605 28.0405 5.97605L28.1045 6.10405L28.7131 5.84805L28.649 5.70405C28.0885 4.29606 27.8003 2.79205 27.8003 1.25605V0.680055L27.5761 0.792055C26.9996 1.08005 26.311 1.19205 25.2861 1.19205C24.5174 1.19205 23.7968 1.09605 23.1562 1.00005C22.6117 0.920055 22.1153 0.856055 21.6509 0.856055C19.8573 0.856055 18.1278 1.59205 16.7666 2.93605C15.3894 4.32805 14.5727 6.28005 14.5727 8.31205C14.5727 11.0801 15.8378 13.3361 18.1438 14.6961C19.3129 15.3841 20.7061 15.7521 22.1794 15.7521C23.8128 15.7521 25.1099 15.2401 26.2469 14.7921C26.6953 14.6161 27.1117 14.4561 27.512 14.3281C27.9764 14.1841 28.4889 14.1361 29.0013 14.0881H29.1455ZM7.70269 7.80005C8.055 7.59205 8.37528 7.33605 8.69556 7.06405V8.39205C8.3913 8.15205 8.055 7.96005 7.70269 7.80005ZM8.90374 14.8241C10.0888 14.3601 11.1617 13.7361 12.1065 12.9201C11.7062 13.6881 11.434 14.3281 11.2898 14.8241H8.90374ZM2.78639 2.79205V2.44005L2.01772 1.80005H4.00346L3.74723 1.99205C3.41094 2.24805 3.3629 2.63205 3.3629 2.93605V13.6881C3.3629 14.2001 3.50702 14.4721 3.90737 14.8241H1.98569C2.38604 14.4561 2.54618 14.0721 2.54618 13.5761V3.19205C2.54618 2.93605 2.62625 2.87205 2.70632 2.84005L2.78639 2.79205ZM11.3379 3.11205C10.7934 2.61605 10.1368 2.16805 9.36815 1.78405H11.0656C11.1457 2.20005 11.2258 2.64805 11.3379 3.11205ZM13.3236 10.6481C11.1617 13.3841 8.03899 14.8241 6.05325 14.8241C5.26856 14.8241 4.628 14.1521 4.628 13.3201V8.15205H6.14934C7.71871 8.15205 9.09591 9.30405 9.09591 10.6161V11.4481H9.81654V4.63205H9.09591V5.12805C9.09591 5.60805 8.7436 6.13605 7.97493 6.79205C7.41444 7.25605 7.01409 7.48005 6.22941 7.48005H4.628V3.28805C4.628 2.47205 5.26856 1.78405 6.00521 1.78405H6.96605C8.53542 1.78405 10.8895 3.03205 11.9464 5.04805L11.9945 5.16005L12.619 5.01605L12.587 4.85605C12.3628 3.88005 12.2507 2.79205 12.2507 1.56005V1.08005H0.0319824V1.80005H0.512403C1.15296 1.80005 1.85758 2.42405 1.85758 3.30405V13.3201C1.85758 14.2001 1.15296 14.8241 0.512403 14.8241H0.0319824V15.5121H12.651L12.667 15.3681C12.8112 13.9121 13.2275 12.4561 13.9001 10.9201L13.9642 10.7761L13.4037 10.5521L13.3236 10.6481Z" fill="black"></path>
                                    <path d="M3.0907 18.248L3.05868 18.28C3.02665 18.312 3.01063 18.312 2.94658 18.312H0.640561C0.576504 18.312 0.544476 18.312 0.528462 18.28L0.496434 18.248H0.224196L0 19.32L0.224196 19.416L0.256224 19.352C0.544476 18.84 0.848743 18.6 1.21706 18.6C1.36119 18.6 1.36119 18.6 1.36119 18.792V21.192C1.36119 21.384 1.34518 21.416 1.05692 21.416H0.928813V21.704H2.65833V21.416H2.5142C2.20993 21.416 2.20993 21.384 2.20993 21.192V18.792C2.20993 18.6 2.20993 18.6 2.35406 18.6C2.72238 18.6 3.04266 18.856 3.3149 19.352L3.36294 19.432L3.58714 19.336L3.37896 18.248H3.0907Z" fill="black"></path>
                                    <path d="M6.91802 18.6H7.01411C7.33439 18.6 7.33439 18.632 7.33439 18.824V19.768H5.79704V18.824C5.79704 18.632 5.79704 18.6 6.11732 18.6H6.21341V18.312H4.56396V18.6H4.66005C4.98033 18.6 4.98033 18.632 4.98033 18.824V21.224C4.98033 21.416 4.98033 21.448 4.66005 21.448H4.56396V21.736H6.21341V21.448H6.11732C5.79704 21.448 5.79704 21.416 5.79704 21.224V20.104H7.33439V21.224C7.33439 21.416 7.33439 21.448 7.01411 21.448H6.91802V21.736H8.56747V21.448H8.47138C8.1511 21.448 8.1511 21.416 8.1511 21.224V18.824C8.1511 18.632 8.1511 18.6 8.47138 18.6H8.56747V18.312H6.91802V18.6Z" fill="black"></path>
                                    <path d="M12.6671 20.616C12.3308 21.192 12.0105 21.416 11.466 21.416H11.1297C11.0657 21.416 10.9536 21.416 10.9376 21.4C10.9216 21.384 10.9216 21.288 10.9216 21.192V20.104H11.1297C11.6582 20.104 11.8984 20.296 11.9304 20.744V20.824H12.2027V19.144H11.9465L11.9304 19.224C11.8504 19.624 11.6102 19.784 11.1297 19.784H10.9216V18.6C10.9376 18.6 10.9536 18.6 11.0016 18.6H11.386C11.5621 18.6 11.7062 18.616 11.7703 18.632C11.8664 18.664 11.9625 18.712 12.0906 18.808C12.2187 18.904 12.3788 19.064 12.603 19.32L12.6351 19.352H12.9073L12.4749 18.312H9.68848V18.6H9.78456C10.1048 18.6 10.1048 18.632 10.1048 18.824V21.224C10.1048 21.416 10.1048 21.448 9.78456 21.448H9.68848V21.736H12.6511L12.9553 20.616L12.6831 20.6L12.6671 20.616Z" fill="black"></path>
                                    <path d="M17.5193 19.832V18.824C17.5193 18.6 17.5193 18.584 17.7755 18.584C18.2559 18.584 18.5281 18.808 18.5281 19.192C18.5281 19.624 18.2719 19.832 17.7435 19.832H17.5193ZM17.8716 18.312H16.2862V18.6H16.3823C16.7025 18.6 16.7025 18.632 16.7025 18.824V21.224C16.7025 21.4 16.7025 21.448 16.3983 21.448H16.2542V21.736H17.9837V21.448H17.8395C17.5353 21.448 17.5353 21.416 17.5353 21.224V20.168H17.9196C18.368 20.168 18.6883 20.136 18.9285 20.024C19.2167 19.88 19.3769 19.624 19.3769 19.32C19.3609 18.68 18.8004 18.312 17.8716 18.312Z" fill="black"></path>
                                    <path d="M22.8199 18.6H22.916C23.2362 18.6 23.2362 18.632 23.2362 18.824V19.768H21.6989V18.824C21.6989 18.632 21.6989 18.6 22.0192 18.6H22.1153V18.312H20.4658V18.6H20.5619C20.8822 18.6 20.8822 18.632 20.8822 18.824V21.224C20.8822 21.416 20.8822 21.448 20.5619 21.448H20.4658V21.736H22.1153V21.448H22.0192C21.6989 21.448 21.6989 21.416 21.6989 21.224V20.104H23.2362V21.224C23.2362 21.4 23.2362 21.448 22.916 21.448H22.8199V21.736H24.4693V21.448H24.3732C24.053 21.448 24.053 21.416 24.053 21.224V18.824C24.053 18.632 24.053 18.6 24.3732 18.6H24.4693V18.312H22.8199V18.6Z" fill="black"></path>
                                    <path d="M25.6866 18.6H25.7827C26.1029 18.6 26.1029 18.632 26.1029 18.824V21.224C26.1029 21.4 26.1029 21.448 25.7987 21.448H25.6545V21.736H27.3841V21.448H27.2239C26.9196 21.448 26.9196 21.416 26.9196 21.224V18.824C26.9196 18.648 26.9196 18.6 27.2239 18.6H27.368V18.312H25.6866V18.6Z" fill="black"></path>
                                    <path d="M31.5476 20.6159C31.2113 21.1919 30.8911 21.4159 30.3466 21.4159H29.9623C29.8982 21.4159 29.7861 21.4159 29.7701 21.3999C29.7541 21.3839 29.7541 21.2879 29.7541 21.1919V18.8079C29.7541 18.6159 29.7541 18.5839 30.0744 18.5839H30.1704V18.2959H28.521V18.5839H28.6171C28.9374 18.5839 28.9374 18.6159 28.9374 18.8079V21.2079C28.9374 21.3999 28.9374 21.4319 28.6171 21.4319H28.521V21.7199H31.5476L31.8519 20.5999L31.5797 20.5839L31.5476 20.6159Z" fill="black"></path>
                                    <path d="M34.6383 18.5682C35.2308 18.5682 35.503 19.0482 35.503 20.0242C35.503 21.0002 35.2148 21.4802 34.6383 21.4802C34.0617 21.4802 33.7735 21.0002 33.7735 20.0242C33.7735 19.0322 34.0617 18.5682 34.6383 18.5682ZM34.6383 18.2642C34.1258 18.2642 33.6774 18.4562 33.3571 18.8082C33.0529 19.1442 32.8767 19.5602 32.8767 20.0082C32.8767 20.4562 33.0368 20.8722 33.3571 21.2082C33.6934 21.5762 34.1418 21.7522 34.6543 21.7522C35.1667 21.7522 35.6151 21.5602 35.9514 21.2082C36.2557 20.8722 36.4318 20.4562 36.4318 20.0082C36.4318 19.5602 36.2717 19.1442 35.9514 18.8082C35.6151 18.4562 35.1507 18.2642 34.6383 18.2642Z" fill="black"></path>
                                    <path d="M39.7948 19.8642C39.6186 19.7202 39.3624 19.6242 39.0261 19.4962C38.5297 19.3042 38.3055 19.1922 38.3055 18.9362C38.3055 18.7282 38.4977 18.5842 38.7539 18.5842C39.2824 18.5842 39.5706 19.0802 39.7147 19.4962L39.7307 19.5602H39.971V18.2802H39.7628L39.7307 18.2962C39.6026 18.4082 39.5546 18.4082 39.5386 18.4082C39.5226 18.4082 39.4905 18.3922 39.4585 18.3922C39.3304 18.3442 39.0902 18.2642 38.7379 18.2642C38.0813 18.2642 37.6489 18.6482 37.6489 19.2402C37.6489 19.8162 38.0653 20.1042 38.7058 20.3282C39.3304 20.5522 39.5065 20.7122 39.5065 20.9842C39.5065 21.2722 39.2984 21.4642 38.9461 21.4642C38.4817 21.4642 38.1774 21.1762 37.9212 20.4882L37.9051 20.4242H37.6649V21.7522H37.8731L37.9051 21.7362C38.0333 21.6242 38.0813 21.6242 38.0973 21.6242C38.1133 21.6242 38.1454 21.6402 38.1774 21.6562C38.3055 21.7042 38.5457 21.7842 38.898 21.7842C39.7147 21.7842 40.2112 21.3842 40.2112 20.7282C40.2272 20.3602 40.0991 20.1042 39.7948 19.8642Z" fill="black"></path>
                                    <path d="M43.2219 18.5682C43.8144 18.5682 44.0866 19.0482 44.0866 20.0242C44.0866 21.0002 43.7984 21.4802 43.2219 21.4802C42.6454 21.4802 42.3571 21.0002 42.3571 20.0242C42.3411 19.0322 42.6294 18.5682 43.2219 18.5682ZM41.9248 18.8082C41.6205 19.1442 41.4443 19.5602 41.4443 20.0082C41.4443 20.4562 41.6045 20.8722 41.9248 21.2082C42.2611 21.5762 42.7094 21.7522 43.2219 21.7522C43.7343 21.7522 44.1827 21.5602 44.519 21.2082C44.8233 20.8722 44.9834 20.4562 44.9834 20.0082C44.9834 19.5602 44.8233 19.1442 44.503 18.8082C44.1827 18.4562 43.7183 18.2642 43.2059 18.2642C42.7094 18.2642 42.2611 18.4562 41.9248 18.8082Z" fill="black"></path>
                                    <path d="M47.3374 19.8319V18.8239C47.3374 18.5999 47.3374 18.5839 47.5936 18.5839C48.074 18.5839 48.3463 18.8079 48.3463 19.1919C48.3463 19.6239 48.09 19.8319 47.5616 19.8319H47.3374ZM47.7858 21.4159H47.6416C47.3374 21.4159 47.3374 21.3839 47.3374 21.1919V20.1359H47.7217C48.1701 20.1359 48.4904 20.1039 48.7306 19.9919C49.0188 19.8479 49.179 19.5919 49.179 19.2879C49.179 18.6639 48.6185 18.2959 47.6897 18.2959H46.1043V18.5839H46.2004C46.5207 18.5839 46.5207 18.6159 46.5207 18.8079V21.2079C46.5207 21.3839 46.5207 21.4319 46.2164 21.4319H46.0723V21.7199H47.8018V21.4159H47.7858Z" fill="black"></path>
                                    <path d="M53.0544 20.0723V21.1923C53.0544 21.3683 53.0544 21.4163 52.7341 21.4163H52.638V21.7043H54.2874V21.4163H54.1914C53.8711 21.4163 53.8711 21.3843 53.8711 21.1923V18.7923C53.8711 18.6003 53.8711 18.5683 54.1914 18.5683H54.2874V18.2803H52.638V18.5683H52.7341C53.0544 18.5683 53.0544 18.6003 53.0544 18.7923V19.7363H51.517V18.7923C51.517 18.6003 51.517 18.5683 51.8373 18.5683H51.9334V18.2803H50.2839V18.5683H50.38C50.7003 18.5683 50.7003 18.6003 50.7003 18.7923V21.1923C50.7003 21.3843 50.7003 21.4163 50.38 21.4163H50.2839V21.7043H51.9334V21.4163H51.8373C51.517 21.4163 51.517 21.3843 51.517 21.1923V20.0723H53.0544Z" fill="black"></path>
                                    <path d="M57.218 18.6V18.312H55.3604V18.6H55.4564C55.4724 18.6 55.5045 18.6 55.5205 18.6C55.7607 18.584 55.8248 18.632 55.9208 18.792L56.9137 20.168V21.208C56.9137 21.384 56.9137 21.432 56.6094 21.432H56.4653V21.72H58.1948V21.432H58.0507C57.7464 21.432 57.7464 21.4 57.7464 21.208V20.056L58.5471 19.016C58.7393 18.776 58.8514 18.616 59.1877 18.6H59.2678V18.312H58.0507V18.6H58.1308C58.3069 18.616 58.355 18.648 58.371 18.664C58.371 18.68 58.355 18.728 58.2749 18.84L57.6183 19.688L56.9778 18.808C56.9137 18.728 56.8817 18.68 56.8817 18.632C56.8817 18.632 56.9297 18.584 57.1539 18.584H57.218V18.6Z" fill="black"></path>
                                    <path d="M63.96 19.7359H63.7358V18.7439C63.7358 18.5999 63.7358 18.5999 63.96 18.5999C64.4404 18.5999 64.6005 18.7439 64.6005 19.1599C64.6005 19.5919 64.4244 19.7359 63.96 19.7359ZM63.7358 20.9679V20.0399H63.976C64.5044 20.0399 64.7446 20.2639 64.7446 20.7279C64.7446 21.2239 64.5685 21.3999 64.056 21.3999C63.7518 21.4159 63.7358 21.3679 63.7358 20.9679ZM62.5988 21.4159H62.5027V21.7039H64.2802C65.129 21.7039 65.6254 21.3839 65.6254 20.8079C65.6254 20.4719 65.4813 20.0719 64.8567 19.8959C65.2571 19.7359 65.4653 19.4959 65.4653 19.1759C65.4653 18.6319 64.9368 18.2959 64.0881 18.2959H62.5027V18.5839H62.5988C62.9191 18.5839 62.9191 18.6159 62.9191 18.8079V21.2079C62.9191 21.3839 62.9191 21.4159 62.5988 21.4159Z" fill="black"></path>
                                    <path d="M66.9866 21.416H66.8905V21.704H69.8531L70.1574 20.584L69.8851 20.568L69.8531 20.616C69.5168 21.192 69.1965 21.416 68.6521 21.416H68.3158C68.2517 21.416 68.1396 21.416 68.1236 21.4C68.1076 21.384 68.1076 21.288 68.1076 21.192V20.104H68.3158C68.8442 20.104 69.0844 20.296 69.1165 20.744V20.824H69.3887V19.144H69.1325L69.1165 19.224C69.0364 19.624 68.7962 19.784 68.3158 19.784H68.1076V18.6C68.1236 18.6 68.1396 18.6 68.1877 18.6H68.572C68.7482 18.6 68.8923 18.616 68.9563 18.632C69.0524 18.664 69.1485 18.712 69.2766 18.808C69.4047 18.904 69.5649 19.064 69.7891 19.32L69.8211 19.352H70.0933L69.6609 18.312H66.8745V18.6H66.9706C67.2909 18.6 67.2909 18.632 67.2909 18.824V21.224C67.3069 21.384 67.3069 21.416 66.9866 21.416Z" fill="black"></path>
                                    <path d="M71.4064 21.4163H71.3103V21.7043H72.9597V21.4163H72.8637C72.5434 21.4163 72.5434 21.3843 72.5434 21.1923V20.0723H74.0807V21.1923C74.0807 21.3843 74.0807 21.4163 73.7604 21.4163H73.6644V21.7043H75.3138V21.4163H75.2177C74.8974 21.4163 74.8974 21.3843 74.8974 21.1923V18.7923C74.8974 18.6003 74.8974 18.5683 75.2177 18.5683H75.3138V18.2803H73.6644V18.5683H73.7604C74.0807 18.5683 74.0807 18.6003 74.0807 18.7923V19.7363H72.5434V18.7923C72.5434 18.6003 72.5434 18.5683 72.8637 18.5683H72.9597V18.2803H71.3103V18.5683H71.4064C71.7267 18.5683 71.7267 18.6003 71.7267 18.7923V21.1923C71.7107 21.3843 71.7107 21.4163 71.4064 21.4163Z" fill="black"></path>
                                    <path d="M76.6109 21.4163H76.4668V21.7043H78.1963V21.4163H78.0522C77.7479 21.4163 77.7479 21.3843 77.7479 21.1923V18.7923C77.7479 18.6163 77.7479 18.5683 78.0522 18.5683H78.1963V18.2803H76.5148V18.5683H76.6109C76.9312 18.5683 76.9312 18.6003 76.9312 18.7923V21.1923C76.9312 21.3843 76.9312 21.4163 76.6109 21.4163Z" fill="black"></path>
                                    <path d="M83.3689 18.584V18.312H82.1038V18.6H82.1999C82.5042 18.616 82.5842 18.728 82.5842 19.144V20.456L80.6786 18.312H79.3174V18.6H79.4615C79.7658 18.6 79.7658 18.616 79.7658 18.84V20.872C79.7658 21.256 79.6857 21.384 79.4135 21.416L79.3334 21.432V21.704H80.5985V21.416H80.5024C80.1982 21.4 80.1181 21.288 80.1181 20.872V18.952L82.6323 21.768H82.9526V19.144C82.9526 18.76 83.0326 18.632 83.3049 18.6L83.3689 18.584Z" fill="black"></path>
                                    <path d="M85.6589 20.984V18.728C85.6589 18.584 85.6749 18.584 85.7389 18.584H85.9952C86.8119 18.584 87.2442 19.112 87.2442 20.056C87.2442 20.856 86.8279 21.4 86.1873 21.4H85.9952C85.7069 21.416 85.6589 21.352 85.6589 20.984ZM87.4364 18.664C87.02 18.36 86.5556 18.312 85.9631 18.312H84.4258V18.6H84.5219C84.8421 18.6 84.8421 18.632 84.8421 18.824V21.224C84.8421 21.416 84.8421 21.448 84.5219 21.448H84.4258V21.736H86.3314C86.8599 21.736 87.2282 21.608 87.5485 21.336C87.9329 21 88.125 20.552 88.125 20.04C88.141 19.448 87.9008 18.984 87.4364 18.664Z" fill="black"></path>
                                    <path d="M94.915 18.824C94.915 18.6 94.915 18.584 95.1712 18.584C95.6517 18.584 95.9239 18.808 95.9239 19.192C95.9239 19.624 95.6677 19.832 95.1392 19.832H94.899V18.824H94.915ZM95.2673 18.312H93.6819V18.6H93.778C94.0983 18.6 94.0983 18.632 94.0983 18.824V21.224C94.0983 21.4 94.0983 21.448 93.794 21.448H93.6499V21.736H95.3794V21.448H95.2353C94.931 21.448 94.931 21.416 94.931 21.224V20.168H95.3154C95.7477 20.168 96.084 20.136 96.3242 20.024C96.6125 19.88 96.7726 19.624 96.7726 19.32C96.7566 18.68 96.1961 18.312 95.2673 18.312Z" fill="black"></path>
                                    <path d="M100.872 20.6159C100.536 21.1919 100.216 21.4159 99.6713 21.4159H99.287C99.2229 21.4159 99.1108 21.4159 99.0948 21.3999C99.0788 21.3839 99.0788 21.2879 99.0788 21.1919V18.8079C99.0788 18.6159 99.0788 18.5839 99.3991 18.5839H99.4951V18.2959H97.8457V18.5839H97.9418C98.2621 18.5839 98.2621 18.6159 98.2621 18.8079V21.2079C98.2621 21.3999 98.2621 21.4319 97.9418 21.4319H97.8457V21.7199H100.856L101.161 20.5999L100.888 20.5839L100.872 20.6159Z" fill="black"></path>
                                    <path d="M105.18 20.616C104.844 21.192 104.524 21.416 103.979 21.416H103.643C103.579 21.416 103.467 21.416 103.451 21.4C103.435 21.384 103.435 21.288 103.435 21.192V20.104H103.643C104.171 20.104 104.411 20.296 104.443 20.744V20.824H104.716V19.144H104.459L104.443 19.224C104.363 19.624 104.123 19.784 103.643 19.784H103.451V18.6C103.467 18.6 103.483 18.6 103.531 18.6H103.915C104.091 18.6 104.235 18.616 104.299 18.632C104.395 18.664 104.492 18.712 104.62 18.808C104.748 18.888 104.908 19.064 105.132 19.32L105.164 19.352H105.436L105.004 18.312H102.218V18.6H102.314C102.634 18.6 102.634 18.632 102.634 18.824V21.224C102.634 21.416 102.634 21.448 102.314 21.448H102.218V21.736H105.18L105.484 20.616L105.212 20.6L105.18 20.616Z" fill="black"></path>
                                    <path d="M107.518 20.4242L107.999 19.3522L108.495 20.4242H107.518ZM109.616 20.8722L108.383 18.2642H108.191L108.159 18.2962C108.063 18.4402 107.919 18.5682 107.758 18.7122L107.662 18.7922L107.758 18.8562C107.774 18.8722 107.806 18.8882 107.806 18.9202C107.806 18.9362 107.79 18.9842 107.774 19.0322L106.926 20.9042C106.798 21.1762 106.734 21.3522 106.397 21.4002L106.317 21.4162V21.6882H107.534V21.4962L107.518 21.4002H107.422C107.31 21.4002 107.166 21.3682 107.166 21.2882C107.166 21.2242 107.182 21.1442 107.23 21.0482L107.358 20.7602H108.655L108.799 21.0802C108.831 21.1282 108.895 21.3042 108.911 21.3522C108.895 21.3682 108.847 21.4002 108.607 21.4162H108.527V21.7042H110.257V21.4162H110.112C109.888 21.4162 109.808 21.2722 109.616 20.8722Z" fill="black"></path>
                                    <path d="M113.363 19.8642C113.187 19.7202 112.915 19.6242 112.594 19.4962C112.098 19.3042 111.874 19.1922 111.874 18.9362C111.874 18.7282 112.066 18.5842 112.322 18.5842C112.851 18.5842 113.139 19.0802 113.283 19.4962L113.299 19.5602H113.539V18.2802H113.331L113.299 18.2962C113.171 18.4082 113.107 18.4082 113.107 18.4082C113.091 18.4082 113.059 18.3922 113.027 18.3922C112.899 18.3442 112.659 18.2642 112.306 18.2642C111.65 18.2642 111.217 18.6482 111.217 19.2402C111.217 19.8162 111.634 20.1042 112.274 20.3282C112.899 20.5522 113.075 20.7122 113.075 20.9842C113.075 21.2722 112.867 21.4642 112.514 21.4642C112.05 21.4642 111.746 21.1762 111.49 20.4882L111.474 20.4242H111.233V21.7522H111.441L111.474 21.7362C111.602 21.6242 111.666 21.6242 111.666 21.6242C111.682 21.6242 111.714 21.6402 111.746 21.6562C111.874 21.7042 112.114 21.7842 112.466 21.7842C113.283 21.7842 113.78 21.3842 113.78 20.7282C113.796 20.3602 113.651 20.1042 113.363 19.8642Z" fill="black"></path>
                                    <path d="M117.799 18.5842H117.895C118.199 18.6002 118.28 18.7122 118.28 19.1282V20.3602C118.28 20.7922 118.232 21.0002 117.959 21.1922C117.783 21.3202 117.495 21.3842 117.191 21.3842C116.534 21.3842 116.246 21.0642 116.246 20.2962V18.7762C116.246 18.6002 116.246 18.5522 116.55 18.5522H116.694V18.2642H115.013V18.5522H115.109C115.429 18.5522 115.429 18.5842 115.429 18.7762V20.2322C115.429 20.6482 115.461 21.0162 115.749 21.3202C116.022 21.6082 116.422 21.7362 116.998 21.7362C118.151 21.7362 118.648 21.3202 118.648 20.3442V19.0962C118.648 18.7122 118.728 18.5842 119 18.5522L119.08 18.5362V18.2642H117.815V18.5842H117.799Z" fill="black"></path>
                                    <path d="M121.354 18.8239C121.354 18.5999 121.354 18.5999 121.594 18.5999C122.059 18.5999 122.331 18.8079 122.331 19.1919C122.331 19.6079 122.075 19.8159 121.546 19.8159H121.354V18.8239ZM123.58 21.4159C123.34 21.4159 123.26 21.2879 123.068 20.9199L122.779 20.4079C122.715 20.2959 122.635 20.1519 122.507 20.0399C122.94 19.9119 123.164 19.6559 123.164 19.2719C123.164 18.6799 122.587 18.2959 121.674 18.2959H120.105V18.5839H120.201C120.521 18.5839 120.521 18.6159 120.521 18.8079V21.2079C120.521 21.3839 120.521 21.4319 120.217 21.4319H120.073V21.7199H121.803V21.4319H121.658C121.354 21.4319 121.354 21.3999 121.354 21.2079V20.1359H121.434C121.738 20.1359 121.835 20.2959 122.059 20.7279L122.555 21.7039H123.74V21.3999H123.644C123.628 21.4159 123.612 21.4159 123.58 21.4159Z" fill="black"></path>
                                    <path d="M127.728 20.568L127.696 20.616C127.359 21.192 127.039 21.416 126.495 21.416H126.158C126.094 21.416 125.982 21.416 125.966 21.4C125.95 21.384 125.95 21.288 125.95 21.192V20.104H126.158C126.687 20.104 126.927 20.296 126.959 20.744V20.824H127.231V19.144H126.991L126.975 19.224C126.895 19.624 126.655 19.784 126.174 19.784H125.966V18.6C125.982 18.6 125.998 18.6 126.046 18.6H126.431C126.607 18.6 126.751 18.616 126.815 18.632C126.911 18.664 127.007 18.712 127.135 18.808C127.263 18.904 127.424 19.064 127.648 19.32L127.68 19.352H127.952L127.52 18.312H124.733V18.6H124.829C125.15 18.6 125.15 18.632 125.15 18.824V21.224C125.15 21.416 125.15 21.448 124.829 21.448H124.733V21.736H127.696L128 20.616L127.728 20.568Z" fill="black"></path>
                                    <path d="M67.2909 33.5601C69.2446 33.5601 70.7018 32.2961 70.7018 30.6321C70.7018 29.5601 70.1093 28.9361 69.2606 28.1521C69.0844 27.9761 68.9083 27.8321 68.7481 27.6881C68.1396 27.1761 67.7553 26.8241 67.7553 26.2801C67.7553 25.6881 68.3158 25.3201 69.1965 25.3201C69.8851 25.3201 70.3015 25.6561 70.3015 25.9601C70.3015 26.1041 70.2214 26.1841 70.0933 26.1841C70.0453 26.1841 69.9492 26.1681 69.789 26.0401L69.5969 25.9121L69.6129 26.1361C69.6449 26.6161 69.9171 26.9201 70.3495 26.9201C70.7819 26.9201 71.0541 26.6641 71.0541 26.2481C71.0541 25.4801 70.1894 24.8721 69.0684 24.8721C67.8994 24.8721 67.1147 25.5121 67.1147 26.4721C67.1147 27.2881 67.6432 27.7841 68.2517 28.3601C68.4759 28.5681 68.7161 28.7921 68.9403 29.0481C69.5008 29.6881 69.8371 30.3601 69.8371 30.9201C69.8371 32.1841 68.7641 33.0961 67.3069 33.0961C65.7215 33.0961 64.6165 32.2961 64.6165 31.1601C64.6165 30.3601 65.0969 29.8161 65.8336 29.8161C66.0738 29.8161 66.3781 29.8801 66.7624 30.0081L67.0667 30.1201L66.8905 29.8481C66.6343 29.4481 66.1859 29.2401 65.5934 29.2401C64.5525 29.2401 63.8158 29.9921 63.8158 31.0641C63.7998 32.5841 65.177 33.5601 67.2909 33.5601Z" fill="black"></path>
                                    <path d="M73.7766 29.3198L71.967 29.9278C71.7749 29.9918 71.7268 30.0878 71.7268 30.1678C71.7268 30.2958 71.8069 30.3918 71.919 30.3918C71.935 30.3918 71.983 30.3918 72.0311 30.3758L72.4795 30.2158C72.2713 30.6318 72.1112 30.9998 71.951 31.3358C71.4546 32.4238 71.1503 33.0958 70.734 33.0958C70.7019 33.0958 70.6699 33.0798 70.6058 33.0798C70.5098 33.0798 70.4297 33.1758 70.4297 33.2718C70.4297 33.3678 70.4937 33.4798 70.75 33.4798C70.9261 33.4798 71.0702 33.4478 71.1823 33.4318C71.2624 33.4158 71.3265 33.3998 71.3745 33.3998H71.4065C71.5026 33.3998 71.5987 33.4158 71.7108 33.4478C71.8229 33.4638 71.935 33.4958 72.0631 33.4958C72.4314 33.4958 72.8478 33.2878 72.8478 33.0958C72.8478 32.9998 72.7517 32.9038 72.6716 32.9038C72.6076 32.9038 72.5756 32.9358 72.5275 32.9678C72.4635 33.0158 72.3994 33.0638 72.2873 33.0638C72.1592 33.0638 72.1432 33.0158 72.1432 32.9358C72.1432 32.8718 72.1912 32.7438 72.2553 32.6158L73.7766 29.3198Z" fill="black"></path>
                                    <path d="M73.3921 27.848C73.3921 28.152 73.6803 28.44 73.9846 28.44C74.2568 28.44 74.5611 28.2 74.5611 27.864C74.5611 27.528 74.3049 27.272 73.9846 27.272C73.6323 27.272 73.3921 27.576 73.3921 27.848Z" fill="black"></path>
                                    <path d="M77.3797 32.4883C78.1484 31.4803 78.4687 30.8883 78.4687 30.3923C78.4687 29.7683 78.0844 29.3843 77.4598 29.3843C76.9794 29.3843 76.515 29.5923 76.0186 30.0243L76.2428 29.4003L76.0186 29.4963C75.5542 29.6883 75.1698 29.8163 74.8976 29.9123C74.4172 30.0723 74.273 30.1203 74.273 30.2643C74.273 30.3763 74.3691 30.4563 74.4652 30.4563C74.5613 30.4563 74.6574 30.4243 74.7855 30.3763C74.8655 30.3443 74.9456 30.3123 75.0257 30.2963C74.7374 30.8723 74.5453 31.3683 74.3691 31.7843C74.0809 32.4883 73.9047 32.9523 73.5684 33.1123C73.4883 33.1603 73.4083 33.1763 73.3442 33.2083C73.2161 33.2563 73.104 33.2883 73.104 33.4163C73.104 33.5283 73.2001 33.6083 73.2962 33.6083C73.3923 33.6083 73.4723 33.5763 73.5684 33.5283C73.6805 33.4803 73.8086 33.4323 73.9367 33.4323C74.0168 33.4323 74.1129 33.4483 74.225 33.4643C74.3531 33.4803 74.4972 33.5123 74.6574 33.5123C75.0417 33.5123 75.4581 33.2723 75.4581 33.0963C75.4581 33.0163 75.394 32.9043 75.2819 32.9043C75.2339 32.9043 75.1858 32.9363 75.1378 32.9683C75.0737 33.0163 74.9937 33.0803 74.8655 33.0803C74.7855 33.0803 74.7534 33.0643 74.7534 32.9523C74.7534 32.8563 74.9776 32.1363 75.6342 31.0643C76.0666 30.3603 76.6751 30.0563 76.9634 30.0563C77.3958 30.0563 77.5239 30.2003 77.5239 30.6323C77.5239 31.0323 77.1395 32.0883 76.0986 33.3203L75.8904 33.5603L76.2107 33.4963C76.4349 33.4483 76.563 33.4483 76.6111 33.4483C76.7232 33.4483 76.8193 33.4643 76.9314 33.4963C77.5399 33.6243 78.1484 33.3363 78.2285 32.9203L78.2765 32.6803L78.0683 32.8083C77.9563 32.8723 77.8442 32.9043 77.7 32.9043C77.636 32.9043 77.5719 32.9043 77.5239 32.8883C77.2676 32.8563 77.0755 32.9203 76.9634 32.9843C77.0114 32.9203 77.0595 32.8563 77.1235 32.7763C77.2196 32.6803 77.2997 32.6003 77.3797 32.4883Z" fill="black"></path>
                                    <path d="M82.7283 29.4003L82.5682 29.4323C82.2959 29.4803 82.0718 29.4643 81.7835 29.4323C81.6073 29.4163 81.4312 29.3843 81.255 29.3843C80.038 29.3843 78.917 30.5523 78.917 31.8483C78.917 32.8403 79.5255 33.5123 80.4383 33.5123C81.7034 33.5123 82.36 32.5843 82.36 32.2483C82.36 32.1523 82.2799 32.0883 82.1839 32.0883C82.1038 32.0883 82.0397 32.1523 81.9597 32.2963C81.7835 32.5523 81.4472 33.0483 80.7746 33.0483C80.2141 33.0483 79.8458 32.6003 79.8458 31.9283C79.8458 30.9363 80.5825 29.8803 81.6874 29.8803C81.7675 29.8803 81.9436 29.8963 82.1678 29.9123C82.1678 29.9443 82.1839 29.9923 82.1839 30.0243C82.1839 30.2483 82.0718 30.3603 81.8476 30.3603C81.7995 30.3603 81.7034 30.3443 81.6073 30.3123L81.3832 30.2643L81.4152 30.4243C81.4792 30.7603 81.7194 30.9523 82.0397 30.9523C82.4721 30.9523 82.9045 30.6323 82.9045 30.0243C82.9045 29.8803 82.8564 29.7043 82.7443 29.4803L82.7283 29.4003Z" fill="black"></path>
                                    <path d="M86.5559 30.3603C86.5559 30.7923 85.6911 31.4963 84.6662 31.4963C84.442 31.4963 84.2498 31.4483 84.0577 31.3683C84.378 30.3763 85.2587 29.8483 85.9633 29.8483C86.1875 29.8483 86.5559 29.9283 86.5559 30.3603ZM86.2996 29.3843C84.5541 29.3843 83.0808 30.5363 83.0808 31.8963C83.0808 32.9043 83.7054 33.5283 84.7303 33.5283C85.6911 33.5283 86.716 33.0323 86.716 32.7603C86.716 32.6803 86.6519 32.5843 86.5559 32.5843C86.5078 32.5843 86.4438 32.6163 86.3317 32.6643C86.1235 32.7763 85.7231 32.9843 85.2267 32.9843C84.5061 32.9843 84.0417 32.5363 84.0256 31.8483C84.2819 31.9603 84.5541 32.0083 84.8744 32.0083C86.1875 32.0083 87.4206 31.1603 87.4206 30.2803C87.4206 29.8643 87.2284 29.3843 86.2996 29.3843Z" fill="black"></path>
                                    <path d="M47.5776 29.3678C47.4655 29.3678 47.3694 29.4638 47.3694 29.5758C47.3694 29.6238 47.3694 29.6878 47.3694 29.7678C47.3694 29.8318 47.3694 29.9118 47.3694 29.9918C47.3694 31.5278 46.2965 33.0958 44.2307 33.0958C42.6773 33.0958 41.6364 32.2158 41.6364 30.9038C41.6364 29.7838 42.2449 28.9838 43.5741 28.4238C43.7823 28.3278 43.9584 28.2958 44.1026 28.2638C44.3268 28.2158 44.5189 28.1678 44.5189 27.9438C44.5189 27.7998 44.4068 27.6878 44.2787 27.5438C44.0705 27.3198 43.8143 27.0478 43.8143 26.5518C43.8143 25.8158 44.3748 25.3838 45.3196 25.3838C46.2164 25.3838 46.841 25.9278 46.841 26.4238C46.841 26.6638 46.7289 26.7758 46.5207 26.7758C46.2485 26.7758 46.1043 26.5998 45.9922 26.4718C45.9282 26.3918 45.8641 26.3278 45.784 26.3278C45.6559 26.3278 45.5759 26.4078 45.5759 26.5358C45.5759 26.8238 46.0243 27.5118 46.7129 27.5118C47.2573 27.5118 47.5936 27.1598 47.5936 26.5998C47.5936 25.7838 46.6168 24.9038 45.1595 24.9038C43.7343 24.9038 42.8054 25.5758 42.8054 26.6318C42.8054 27.1438 43.0456 27.5598 43.478 27.8318C41.7005 28.1678 40.5635 29.3038 40.5635 30.8078C40.5635 32.5038 41.9567 33.5918 44.0866 33.5918C46.6328 33.5918 47.8018 31.8158 47.8018 30.1518C47.8338 29.6878 47.8338 29.3678 47.5776 29.3678Z" fill="black"></path>
                                    <path d="M48.0581 32.2159C48.0581 32.9999 48.6506 33.5439 49.4994 33.5439C50.8285 33.5439 51.9175 32.2959 51.9175 30.7599C51.9175 29.9759 51.5652 29.3999 51.325 29.3999C51.1168 29.3999 51.0848 29.5439 51.0848 29.6399C51.0848 29.6879 51.1008 29.7359 51.1168 29.8159C51.1488 29.9759 51.2129 30.2479 51.2129 30.6319C51.2129 31.9599 50.3481 33.1119 49.6275 33.1119C49.1631 33.1119 48.8748 32.8719 48.8748 32.4559C48.8748 32.0879 49.083 31.3039 50.0759 29.6879L50.2841 29.3359L48.4905 30.2959C48.3944 30.3599 48.2983 30.4079 48.2983 30.5199C48.2983 30.6319 48.3784 30.7119 48.4905 30.7119C48.5385 30.7119 48.6026 30.7119 48.6666 30.6639L48.9068 30.5519C48.8908 30.5679 48.8748 30.5839 48.8428 30.6159C48.5866 30.9199 48.0581 31.4799 48.0581 32.2159Z" fill="black"></path>
                                    <path d="M55.7928 30.3599C55.7928 30.7919 54.9281 31.4959 53.9032 31.4959C53.679 31.4959 53.4868 31.4479 53.2946 31.3679C53.6149 30.3759 54.4957 29.8479 55.2003 29.8479C55.4085 29.8479 55.7928 29.9279 55.7928 30.3599ZM56.6576 30.2799C56.6576 29.8799 56.4654 29.3999 55.5206 29.3999C53.775 29.3999 52.3018 30.5519 52.3018 31.9119C52.3018 32.9199 52.9263 33.5439 53.9512 33.5439C54.912 33.5439 55.9369 33.0479 55.9369 32.7759C55.9369 32.6959 55.8569 32.5999 55.7768 32.5999C55.7288 32.5999 55.6647 32.6319 55.5526 32.6799C55.3444 32.7919 54.9441 32.9999 54.4476 32.9999C53.727 32.9999 53.2626 32.5519 53.2466 31.8639C53.5028 31.9759 53.775 32.0239 54.0953 32.0239C55.4085 32.0079 56.6576 31.1599 56.6576 30.2799Z" fill="black"></path>
                                    <path d="M60.501 30.4403L60.3729 30.4883L60.4529 30.6003C60.581 30.7763 60.7732 30.8723 60.9974 30.8723C61.3978 30.8723 61.67 30.6003 61.67 30.1843C61.67 29.7043 61.3177 29.3843 60.7892 29.3843C60.3568 29.3843 59.9405 29.5603 59.4601 29.9283L59.7323 29.4323L57.9868 29.8643C57.8907 29.8803 57.7305 29.9283 57.7305 30.1363C57.7305 30.2643 57.8106 30.3283 57.8907 30.3283C57.9067 30.3283 57.9547 30.3283 58.0508 30.3123L58.4191 30.2323L57.3142 32.3763C57.106 32.7923 56.9779 33.0323 56.4975 33.0323C56.4494 33.0323 56.3854 33.0163 56.3373 33.0163C56.2893 33.0003 56.2573 33.0003 56.2252 33.0003C56.1291 33.0003 56.0491 33.0963 56.0491 33.2083C56.0491 33.3683 56.3373 33.4963 56.6096 33.4963C56.7537 33.4963 56.8978 33.4643 57.0259 33.4483C57.3142 33.4003 57.5544 33.4323 57.7626 33.4803C57.8747 33.5123 57.9868 33.5283 58.0668 33.5283C58.4992 33.5283 58.8996 33.2563 58.8996 33.0483C58.8996 32.9843 58.8355 32.8883 58.7394 32.8883C58.6754 32.8883 58.6273 32.9203 58.5473 32.9683C58.4512 33.0163 58.3391 33.0963 58.227 33.0963C58.0989 33.0963 58.0508 33.0323 58.0508 32.9043C58.0508 32.7923 58.3871 31.7363 59.1558 30.8403C59.7003 30.2003 60.2287 29.9763 60.517 29.9763C60.7412 29.9763 60.7732 30.0723 60.7732 30.1683C60.7572 30.3123 60.6291 30.3923 60.501 30.4403Z" fill="black"></path>
                                </svg>