<svg width="322" height="62" viewBox="0 0 322 62" fill="none" xmlns="http://www.w3.org/2000/svg">
<path d="M48.4974 0V12.1661H20.7897C16.1998 12.4364 12.4198 16.2214 12.4198 20.8175V61.371H0V16.7621C0 7.56999 7.55989 0 16.7398 0H48.4974ZM91.0091 0V24.3321H75.0793C70.4894 24.3321 66.7094 20.5471 66.7094 15.951V0H54.5596V20.0064C54.5596 29.1985 62.1195 36.7685 71.2994 36.7685H91.2791V40.5535C91.2791 45.1496 87.4992 48.9346 82.9092 48.9346H54.0196V61.1006H86.4192C95.599 61.1006 103.159 53.5306 103.159 44.3385V0H91.0091ZM157.617 24.6025V36.7685C157.617 50.2864 146.547 61.371 133.047 61.371H121.228H109.078V49.2049V12.1661V0H121.228H133.047C146.547 0 157.617 11.0846 157.617 24.6025ZM145.197 24.6025C145.197 17.8435 139.797 12.4364 132.777 12.4364H121.228V48.9346H132.777C139.527 48.9346 145.197 43.5274 145.197 36.7685V24.6025ZM254.316 0V48.9346H238.689C234.099 48.9346 230.32 45.1496 230.32 40.5535V0H218.17V44.6089C218.17 53.801 225.73 61.371 234.909 61.371H254.586H266.736V49.2049V0H254.316ZM321.296 0H309.146V24.3321H284.948V0H272.798V61.1006H284.948V36.7685H309.146V61.1006H321.296V36.7685V24.6025V0ZM212.176 44.6089C211.366 54.3417 202.726 61.371 193.007 61.371H175.829H169.619H163.679V24.6025V18.3843C163.679 17.8435 163.679 17.3028 163.679 16.7621C164.219 7.02927 173.129 0 182.849 0H184.907C194.627 0 203.266 7.29963 204.076 16.7621C204.346 20.2768 203.536 23.521 202.186 26.495C208.666 29.7392 212.716 36.7685 212.176 44.6089ZM175.559 24.6025H181.769H185.447H186.257C188.957 24.0618 191.387 21.8989 191.657 19.1953C191.927 15.6807 189.227 12.4364 185.447 12.4364H184.637H181.769C178.259 12.4364 175.559 15.14 175.559 18.6546C175.559 21.4563 175.559 20.8175 175.559 24.6025ZM199.756 42.446C199.486 39.2017 196.517 36.7685 193.277 36.7685H182.039H175.829C175.829 43.2571 175.829 48.9346 175.829 48.9346H187.337H193.547C197.327 48.9346 200.296 45.9606 199.756 42.446Z" fill="#058DF8"/>
</svg>
