<svg width="100" height="40" viewBox="0 0 100 40" fill="none" xmlns="http://www.w3.org/2000/svg">
<g clip-path="url(#clip0_1_30)">
<path d="M37.1599 0H13.4199L0 11.1205L25.2921 40L33.5251 30.6023H30.4389L25.2921 36.4748L3.31817 11.3862L14.2628 2.31178H36.317L39.1981 4.6147H42.8329L37.1599 0Z" fill="white"/>
<path d="M32.5038 28.1975H35.6792L36.7273 27.0461H40.6565V28.1975H43.5421V18.791H40.9776L32.5038 28.1975ZM38.3284 25.2657L40.6387 22.7237V25.2657H38.3284Z" fill="white"/>
<path d="M77.7406 21.2622H81.8393V28.1577H84.8229V21.2622H88.9216V18.7511H77.7406V21.2622Z" fill="white"/>
<path d="M37.4811 18.791H27.8611V28.1931H30.8448V21.302H37.4811V18.791Z" fill="white"/>
<path d="M87.4364 16.4925V14.1054H81.3754V12.7015H86.4151V10.6687H81.3754V9.48184H87.4364V7.09035H81.3754H78.3917V10.4296V16.4925H81.3754H87.4364Z" fill="white"/>
<path d="M53.7775 16.4969V7.09035H51.2309L46.4186 12.5642V7.09035H43.5331V16.4969H46.0841L50.8919 11.023V16.4969H53.7775Z" fill="white"/>
<path d="M94.2646 14.3888C92.4004 14.3888 91.2096 13.2817 91.2096 11.7936C91.2096 10.3056 92.4004 9.22054 94.2646 9.22054C95.781 9.22054 96.8692 9.95571 97.2082 11.0496L100 10.3321C99.3355 8.3658 97.284 6.98848 94.2646 6.98848C90.5183 6.98848 88.2705 9.08325 88.2705 11.7936C88.2705 14.504 90.5005 16.5988 94.2646 16.5988C97.2751 16.5988 99.3222 15.2259 99.9956 13.2684L97.226 12.5554C96.8603 13.6448 95.7765 14.3888 94.2646 14.3888Z" fill="white"/>
<path d="M41.3299 15.6732C41.6329 15.3915 41.8698 15.0472 42.024 14.6645C42.1781 14.2819 42.2457 13.8703 42.2219 13.4588C42.2417 13.0917 42.1859 12.7244 42.0579 12.3794C41.9298 12.0345 41.7322 11.7191 41.4771 11.4526C40.71 10.6732 39.0464 10.6289 38.0831 10.6289H35.6078V9.19397H41.2853V7.04605H32.6063V16.4526H38.2035C39.2739 16.4526 40.5048 16.3862 41.3299 15.6732ZM35.6078 14.4641V12.4889H37.7709C38.098 12.4657 38.4245 12.5413 38.7075 12.7059C38.8187 12.793 38.9074 12.905 38.9664 13.0329C39.0253 13.1607 39.0527 13.3006 39.0464 13.4411C39.0471 13.7092 38.9505 13.9686 38.7744 14.1718C38.5352 14.3765 38.224 14.4784 37.9092 14.4553L35.6078 14.4641Z" fill="white"/>
<path d="M52.7473 28.1975H55.9049L56.7211 27.3118H60.8822V28.1975H63.7767V18.791H61.2301L52.7473 28.1975ZM58.34 25.5182L60.8822 22.7237V25.5182H58.34Z" fill="white"/>
<path d="M69.084 13.0425H73.7178V16.5412H76.6034V7.13907H73.7178V10.5757H69.084V7.13907H66.2029V16.5412H69.084V13.0425Z" fill="white"/>
<path d="M55.4366 22.2675C55.4622 21.5267 55.2314 20.7995 54.7826 20.2072C54.3338 19.6149 53.6942 19.1932 52.9703 19.0124C52.3802 18.8545 51.7706 18.7799 51.1596 18.791H45.3126V28.1931H48.1937V25.6864H51.1596C51.871 25.7242 52.5836 25.6372 53.2646 25.4296C53.9246 25.2101 54.4941 24.7822 54.8862 24.2113C55.2784 23.6404 55.4717 22.9577 55.4366 22.2675ZM51.775 23.3348C51.4128 23.4366 51.0358 23.477 50.66 23.4544H48.1937V21.0629H50.66C51.0435 21.0277 51.4302 21.076 51.7929 21.2046C52.013 21.2936 52.2009 21.4465 52.3322 21.6432C52.4635 21.8399 52.532 22.0714 52.5287 22.3073C52.5336 22.5369 52.4625 22.7617 52.3263 22.9473C52.1902 23.1328 51.9965 23.269 51.775 23.3348Z" fill="white"/>
<path d="M56.4713 15.868C57.1759 16.3109 58.2151 16.5412 60.2399 16.5412C61.6581 16.5412 62.7062 16.4393 63.5001 16.023C63.9389 15.8148 64.3055 15.4817 64.5532 15.0662C64.801 14.6506 64.9188 14.1713 64.8916 13.6891C64.9055 13.4176 64.8592 13.1464 64.756 12.8946C64.6527 12.6428 64.495 12.4166 64.2939 12.2321C63.8984 11.8903 63.4062 11.6784 62.8846 11.6253V11.55C63.3095 11.5157 63.7125 11.3482 64.0353 11.0717C64.2046 10.8956 64.3356 10.6868 64.42 10.4582C64.5044 10.2296 64.5404 9.98618 64.5259 9.74313C64.5348 9.43965 64.4809 9.13759 64.3673 8.8557C64.2538 8.57381 64.0831 8.31812 63.8658 8.10451C63.005 7.26306 61.4619 7.04605 59.7984 7.04605C58.224 7.04605 57.1224 7.3162 56.3687 7.8565C55.9893 8.11987 55.6815 8.47251 55.4729 8.8829C55.2643 9.29328 55.1614 9.7486 55.1734 10.2081H58.0322C58.0388 10.0375 58.082 9.87021 58.1589 9.71747C58.2359 9.56472 58.3447 9.43003 58.4782 9.3224C58.8613 9.07054 59.3178 8.95215 59.7761 8.98582C60.1577 8.97077 60.5385 9.03253 60.8955 9.1674C61.072 9.22369 61.2249 9.3362 61.3306 9.48752C61.4362 9.63884 61.4886 9.82052 61.4797 10.0044C61.4871 10.1668 61.4417 10.3273 61.3501 10.4621C61.2586 10.5969 61.1257 10.6988 60.9713 10.7529C60.5753 10.9113 60.1486 10.9795 59.7225 10.9522V12.5111C60.1672 12.5078 60.6087 12.5859 61.0248 12.7414C61.2047 12.7756 61.3666 12.8716 61.4824 13.0125C61.5982 13.1533 61.6604 13.3301 61.6581 13.512C61.6561 13.6753 61.611 13.8353 61.5272 13.976C61.4435 14.1166 61.3241 14.233 61.1809 14.3135C60.7876 14.4977 60.3515 14.5727 59.9188 14.5306C59.4002 14.5836 58.8786 14.4619 58.4381 14.1851C58.2922 14.0637 58.1762 13.9109 58.0989 13.7382C58.0216 13.5655 57.9851 13.3775 57.9921 13.1887H55.1065V13.2418C55.0708 13.7616 55.1791 14.2811 55.4196 14.7441C55.6602 15.2071 56.0239 15.5958 56.4713 15.868Z" fill="white"/>
<path d="M73.071 22.2276H68.4372V18.791H65.5516V28.1931H68.4372V24.6989H73.071V28.1931H75.9566V18.791H73.071V22.2276Z" fill="white"/>
</g>
<defs>
<clipPath id="clip0_1_30">
<rect width="100" height="40" fill="white"/>
</clipPath>
</defs>
</svg>
