<svg width="160" height="62" viewBox="0 0 160 62" fill="none" xmlns="http://www.w3.org/2000/svg"><path fill-rule="evenodd" clip-rule="evenodd" d="M120.246.16c8.82-.848 17.203 1.723 23.039 6.559 5.78 4.794 9.003 11.767 8.339 19.116-.665 7.347-4.854 14.612-10.767 20.053-5.327 4.901-12.203 8.243-19.297 8.578.189.114.362.249.515.403 1.371 1.376.659 3.855-1.572 5.52-2.234 1.672-5.165 1.912-6.535.536-1.36-1.375-.659-3.854 1.577-5.52a7.377 7.377 0 012-1.068c-6.337-.706-11.93-3.72-16.294-7.869-5.065-4.82-8.53-11.213-9.103-17.77-.567-6.549 2-13.208 6.829-18.377 5.065-5.414 12.445-9.31 21.269-10.161zm-1.427 3.492c4.756-.472 9.299.32 13.138 2.094a65.176 65.176 0 01-5.117 1.915c-3.498 1.159-7.313 2.125-11.215 2.833-.306.056-.605.11-.912.16.266-1.735.658-3.6 1.01-5.316l.264-1.265a29.106 29.106 0 012.832-.42zm14.45 2.754a20.605 20.605 0 013.849 2.694c2.652 2.36 4.551 5.358 5.49 8.682-1.862-.077-3.737-.12-5.566-.121-8.083.001-15.959.76-23.167 2.17a88.26 88.26 0 01.686-8.064 84.776 84.776 0 0012.849-3.13 65.45 65.45 0 005.859-2.231zm9.597 12.417a17.89 17.89 0 01.248 6.154c-.375 2.85-1.373 5.686-2.833 8.36-2.587-1.3-5.532-2.278-8.689-2.903-4.922-.972-10.357-1.086-15.74-.219-.585.09-1.172.202-1.756.314a89.159 89.159 0 01-.257-9.593c.137-.028.274-.057.413-.084 7.146-1.4 14.966-2.152 23.004-2.154 1.824 0 3.716.045 5.61.125zm-3.067 15.36c-1.611 2.728-3.7 5.264-6.098 7.446-4.522 4.121-10.263 6.914-16.055 7.135-1.178-3.613-2.097-7.46-2.74-11.449a90.555 90.555 0 01-.713-5.703 41.254 41.254 0 012.066-.38c5.233-.845 10.518-.733 15.291.207 3.002.596 5.799 1.522 8.249 2.745zm-23.297 14.591c-5.869-.116-10.936-2.797-14.702-6.661a24.921 24.921 0 01-3.058-3.834c2.219-1.662 4.849-3.124 7.717-4.299a44.092 44.092 0 016.608-2.116c.177 1.827.409 3.633.695 5.41.642 4.001 1.561 7.865 2.74 11.5zM98.127 37.278c-1.772-3.051-2.856-6.458-2.987-9.922a10.88 10.88 0 01-.011-.407l.004.008c4.998-2.428 10.964-4.382 17.536-5.78-.07 3.222.03 6.434.291 9.592a45.79 45.79 0 00-7.131 2.255c-2.847 1.17-5.464 2.608-7.702 4.254zm-2.974-11.596c.247-4.6 2.244-9.164 5.527-12.891l.02.099a78.593 78.593 0 007.559-.331 92.026 92.026 0 005.086-.6 89.9 89.9 0 00-.645 8.109c-6.542 1.355-12.504 3.254-17.547 5.614zm6.399-13.832c3.407-3.493 7.919-6.195 13.164-7.492l-.129.614c-.399 1.905-.833 3.986-1.101 5.885a87.656 87.656 0 01-5.546.673 80.233 80.233 0 01-6.388.32z" fill="#D9DADA"/><path fill-rule="evenodd" clip-rule="evenodd" d="M125.529 58.959v-2.144h-.699v-.437h1.872v.438h-.697v2.143h-.476zm1.473 0v-2.58h.712l.427 1.76.422-1.76h.714v2.58h-.442v-2.031l-.467 2.031h-.458l-.467-2.031v2.031h-.441z" fill="#D9DADA"/><path fill-rule="evenodd" clip-rule="evenodd" d="M153.77 48.427c-1.997 0-3.531-.53-4.608-1.587-1.073-1.057-1.612-2.602-1.612-4.638V31.8h3.735v10.164c0 1.127.195 1.971.583 2.524.389.556 1.023.832 1.902.832.859 0 1.489-.265 1.891-.799.402-.53.604-1.385.604-2.557V31.8H160v10.39c0 2.005-.525 3.548-1.571 4.623-1.05 1.075-2.601 1.613-4.659 1.613zm-11.486-11.639c0-.407-.071-.761-.214-1.056-.143-.295-.382-.523-.713-.684a2.46 2.46 0 00-.78-.205 10.57 10.57 0 00-1.067-.045h-1.247v4.384h1.067c.521 0 .961-.034 1.322-.105.365-.067.671-.216.924-.44.238-.206.419-.448.535-.736.115-.284.173-.653.173-1.113zm6.012 11.3h-4.553l-4.137-5.975h-1.343v5.974h-3.715V31.8h5.981c.825 0 1.544.056 2.154.168.614.116 1.179.35 1.697.706a4.03 4.03 0 011.268 1.419c.314.57.471 1.299.471 2.18 0 1.247-.256 2.26-.767 3.036a5.572 5.572 0 01-2.059 1.852l5.003 6.926zm-16.195-.1h-3.208v-4.192h3.208v4.192zm-54.514.052h-4.394l-3.946-6.447-.714 1.087v5.36h-3.637V32.18h3.637v7.053l4.63-7.054h4.212l-5.165 7.36 5.377 8.501zM42.73 37.28c0-.446-.097-.832-.292-1.155-.193-.324-.429-.546-.7-.666a2.815 2.815 0 00-.986-.283c-.312-.026-.74-.037-1.278-.037h-.514v4.753h.252c.345 0 .667-.004.972-.011.305-.008.571-.033.797-.073a2.42 2.42 0 00.617-.21c.216-.103.385-.219.501-.346.245-.262.412-.535.498-.818.09-.288.133-.67.133-1.153zm3.733-.094a6.82 6.82 0 01-.322 2.11c-.212.665-.52 1.225-.922 1.672a6.58 6.58 0 01-.81.763c-.295.237-.62.437-.98.597a5.632 5.632 0 01-1.16.385 6.616 6.616 0 01-1.404.138h-1.906v5.19h-3.637V32.178h5.619c.836 0 1.556.084 2.163.251a4.96 4.96 0 011.647.793c.544.396.966.927 1.264 1.593.299.665.448 1.454.448 2.37zM28.44 41.924L26.962 36.7l-1.48 5.225h2.957zm-8.304 6.116l4.892-15.86h3.966l4.892 15.86H30.14l-.909-3.24H24.69l-.907 3.24h-3.647zm-1.434 0H0V32.18h3.628v12.868h3.909V32.179h3.628v12.869h3.91V32.179h3.627V48.04zm41.785-13.08h1.903v-2.772h-1.903v-.008h-4.464l-4.613 9.082V32.18h-3.328v15.86h3.5l5.574-11.045v8.277h-1.898v2.771h7.113v-2.771h-1.884V34.959z" fill="#00A0E3"/><path d="M83.935 48.067h-3.524v-4.284h3.524v4.284zm7.538.294c-1.135 0-2.131-.119-2.99-.36a14.132 14.132 0 01-2.397-.894v-3.86h.34a8.269 8.269 0 002.457 1.593c.898.369 1.768.555 2.61.555.214 0 .493-.026.843-.075.347-.052.629-.134.84-.242.261-.123.479-.294.66-.517.18-.224.267-.514.267-.879a1.25 1.25 0 00-.438-.99 2.721 2.721 0 00-1.047-.558 28.814 28.814 0 00-1.617-.413c-.575-.13-1.112-.29-1.608-.48-1.149-.444-1.975-1.04-2.47-1.787-.5-.749-.748-1.687-.748-2.815 0-1.518.588-2.75 1.764-3.692 1.172-.942 2.64-1.411 4.4-1.411.884 0 1.761.097 2.635.294.873.197 1.654.461 2.344.797v3.707h-.33c-.55-.517-1.223-.953-2.014-1.306a5.913 5.913 0 00-2.447-.536c-.323 0-.615.026-.877.074-.259.052-.53.153-.816.298a1.67 1.67 0 00-.601.517 1.25 1.25 0 00-.255.767c0 .413.136.744.404.986.269.246.788.466 1.557.66l1.44.36c.463.116.956.276 1.479.48 1.03.406 1.794.954 2.297 1.642.5.685.751 1.593.751 2.721 0 1.612-.577 2.911-1.736 3.894-1.159.98-2.726 1.47-4.697 1.47zm19.742-11.405a6.98 6.98 0 01-.33 2.159c-.217.681-.533 1.254-.944 1.712-.252.283-.53.544-.83.782a4.588 4.588 0 01-1.002.61 5.755 5.755 0 01-1.19.395 6.775 6.775 0 01-1.437.141h-1.951v5.312h-3.725V31.83h5.754c.856 0 1.594.086 2.216.257a5.052 5.052 0 011.685.811c.558.406.989.95 1.295 1.63.306.682.459 1.49.459 2.428zm-3.823.096c0-.457-.099-.852-.299-1.183-.197-.331-.439-.559-.717-.681a2.884 2.884 0 00-1.01-.29 17.223 17.223 0 00-1.308-.038h-.527v4.865h.258c.354 0 .683-.003.996-.01a5.49 5.49 0 00.816-.075c.2-.038.411-.108.632-.216a1.63 1.63 0 00.513-.354c.252-.268.422-.547.51-.837.092-.294.136-.685.136-1.18zm17.672 6.042c0 .808-.139 1.519-.418 2.13a4.29 4.29 0 01-1.125 1.515 5.051 5.051 0 01-1.838 1.023c-.666.205-1.513.305-2.542.305h-5.934V31.83h5.237c1.087 0 1.913.045 2.474.138a4.43 4.43 0 011.577.57 3 3 0 011.189 1.254c.262.525.395 1.127.395 1.813 0 .793-.18 1.496-.544 2.114a3.3 3.3 0 01-1.495 1.366v.086c.914.212 1.648.64 2.198 1.291.551.652.826 1.53.826 2.632zm-4.768-6.67c0-.265-.061-.533-.184-.808a1.148 1.148 0 00-.574-.6 2.129 2.129 0 00-.87-.193 50.533 50.533 0 00-1.499-.015h-.258v3.436h.469c.636 0 1.084-.008 1.339-.023.255-.014.52-.089.792-.227.296-.152.503-.364.615-.632a2.45 2.45 0 00.17-.939zm.935 6.596c0-.503-.092-.894-.279-1.177-.187-.286-.466-.498-.836-.644-.224-.096-.537-.148-.931-.16a60.247 60.247 0 00-1.588-.015h-.686v4.065h.201c.968 0 1.638-.007 2.008-.022.37-.015.751-.112 1.135-.294.34-.16.585-.395.741-.704.156-.309.235-.658.235-1.05zM.27 54.837h3.752v.708H2.535v4.348h-.779v-4.348H.27v-.708zm4.108 2.527c0-.936.237-1.63.713-2.08.396-.374.88-.563 1.451-.563.635 0 1.154.228 1.556.685.404.455.604 1.084.604 1.887 0 .651-.089 1.163-.267 1.536a1.996 1.996 0 01-.777.87 2.112 2.112 0 01-1.116.308c-.645 0-1.167-.226-1.566-.681-.4-.453-.598-1.107-.598-1.962zm.804 0c0 .649.129 1.133.387 1.455.258.323.583.484.973.484.389 0 .712-.162.97-.486.257-.323.386-.817.386-1.48 0-.626-.129-1.1-.388-1.423-.26-.322-.582-.483-.968-.483-.39 0-.715.162-.973.482-.258.32-.387.804-.387 1.451zm4.442-2.527h1.804c.443 0 .773.04.99.12.214.081.4.23.556.445.154.216.233.475.233.777 0 .24-.046.452-.138.63-.09.18-.229.33-.411.451.218.08.397.228.541.445.144.218.215.475.215.774-.028.48-.185.836-.469 1.066-.284.233-.697.348-1.238.348H9.624v-5.056zm.783 2.127h.834c.334 0 .562-.017.687-.057a.716.716 0 00.335-.23.624.624 0 00.147-.416c0-.267-.086-.454-.258-.558-.172-.106-.468-.158-.885-.158h-.86v1.42zm0 2.224h1.03c.443 0 .747-.056.912-.17.166-.111.252-.306.261-.581a.768.768 0 00-.144-.45.612.612 0 00-.372-.262c-.154-.037-.4-.055-.74-.055h-.947v1.518zm6.855.081c-.29.27-.57.46-.836.572-.269.11-.556.166-.864.166-.507 0-.896-.135-1.169-.406-.271-.272-.408-.62-.408-1.04a1.463 1.463 0 01.558-1.172c.168-.124.355-.218.564-.282.153-.044.384-.087.694-.128.632-.083 1.098-.18 1.396-.296l.005-.223c0-.349-.075-.596-.223-.738-.199-.195-.497-.29-.89-.29-.368 0-.64.07-.816.21-.175.142-.304.393-.389.752l-.764-.116c.07-.357.184-.648.343-.868.159-.22.39-.391.691-.51a2.84 2.84 0 011.048-.179c.394 0 .713.052.96.153.246.102.427.23.544.384.116.154.196.347.243.583.026.146.039.41.039.79v1.143c0 .798.016 1.302.05 1.511.033.212.1.415.198.608h-.818a1.948 1.948 0 01-.155-.624zm-.065-1.915c-.285.129-.71.236-1.277.325-.322.05-.55.108-.683.171a.685.685 0 00-.308.28.777.777 0 00-.11.406c0 .23.08.42.237.572.158.151.39.228.693.228a1.5 1.5 0 00.804-.216c.235-.145.408-.343.518-.594.085-.193.126-.48.126-.856v-.316zm2.005 4.477v-6.994h.712v.656c.167-.257.357-.45.57-.578.21-.129.467-.194.768-.194.395 0 .742.112 1.043.334.302.222.53.536.682.94.155.405.232.85.232 1.332 0 .517-.085.983-.256 1.398-.169.414-.415.731-.738.952-.324.22-.663.33-1.02.33-.26 0-.494-.06-.701-.18a1.636 1.636 0 01-.51-.457v2.46H19.2zm.707-4.438c0 .65.12 1.132.36 1.444.241.31.533.466.875.466.347 0 .645-.16.893-.484.248-.322.372-.82.372-1.497 0-.646-.122-1.127-.363-1.448-.242-.32-.532-.481-.867-.481-.334 0-.629.17-.885.511-.257.342-.385.84-.385 1.49zm8.636-2.556h.783v5.056h-.783v-5.056zm-4.376 0h.783v1.974h.99c.646 0 1.145.139 1.494.413.348.275.523.654.523 1.137 0 .42-.145.783-.438 1.082-.29.3-.756.45-1.396.45H24.17v-5.056zm.783 4.35h.82c.496 0 .85-.066 1.061-.2.212-.132.318-.34.318-.622a.85.85 0 00-.235-.586c-.157-.171-.503-.257-1.038-.257h-.926v1.666zm8.69-4.35h3.216v4.35h.498v2.14h-.642v-1.434H33.08v1.434h-.643v-2.14h.412c.55-.818.814-2.268.792-4.35zm.65.708c-.057 1.642-.289 2.856-.695 3.643h2.482v-3.643h-1.787zm4.307-.708h3.635v5.056h-.779v-4.348h-2.072v2.52c0 .587-.018.975-.052 1.162a.862.862 0 01-.288.49c-.156.14-.383.21-.678.21-.183 0-.393-.013-.63-.039v-.713h.343c.162 0 .278-.02.348-.055a.278.278 0 00.14-.174c.023-.08.033-.338.033-.777v-3.332zm8.446 0v5.056h-.779v-1.971h-.45c-.277 0-.481.039-.616.117-.135.078-.331.328-.59.749l-.682 1.105h-.968l.842-1.362c.258-.416.515-.65.77-.704-.447-.068-.777-.243-.994-.53a1.592 1.592 0 01-.323-.984c0-.44.14-.794.424-1.067.282-.273.691-.41 1.227-.41h2.14zm-.779.708h-1.112c-.466 0-.767.08-.902.24a.837.837 0 00-.202.555c0 .302.1.523.298.665.199.141.549.213 1.053.213h.865v-1.673zm4.442-.708h3.644v5.056h-.784v-4.348h-2.076v4.348h-.784v-5.056zm4.817 6.994v-6.994h.712v.656a1.82 1.82 0 01.57-.578c.21-.129.467-.194.769-.194.394 0 .741.112 1.042.334.303.222.53.536.683.94.154.405.231.85.231 1.332 0 .517-.084.983-.255 1.398-.169.414-.415.731-.739.952-.323.22-.663.33-1.019.33-.26 0-.494-.06-.701-.18a1.636 1.636 0 01-.51-.457v2.46h-.783zm.708-4.438c0 .65.12 1.132.36 1.444.24.31.533.466.874.466.347 0 .646-.16.893-.484.248-.322.373-.82.373-1.497 0-.646-.122-1.127-.364-1.448-.242-.32-.53-.481-.866-.481-.334 0-.63.17-.886.511-.256.342-.384.84-.384 1.49zm7.255 1.876c-.291.27-.57.46-.837.572-.269.11-.556.166-.864.166-.507 0-.896-.135-1.169-.406-.271-.272-.408-.62-.408-1.04a1.463 1.463 0 01.558-1.172c.168-.124.355-.218.564-.282.153-.044.384-.087.694-.128.632-.083 1.098-.18 1.396-.296l.005-.223c0-.349-.074-.596-.223-.738-.199-.195-.497-.29-.89-.29-.368 0-.64.07-.816.21-.175.142-.304.393-.389.752l-.764-.116c.07-.357.184-.648.343-.868.159-.22.39-.391.691-.51a2.84 2.84 0 011.048-.179c.395 0 .714.052.96.153.246.102.427.23.544.384.116.154.196.347.243.583.026.146.04.41.04.79v1.143c0 .798.015 1.302.05 1.511.032.212.099.415.197.608h-.818a1.945 1.945 0 01-.155-.624zm-.066-1.915c-.284.129-.71.236-1.277.325-.322.05-.55.108-.683.171a.685.685 0 00-.308.28.777.777 0 00-.11.406c0 .23.08.42.238.572.157.151.388.228.692.228a1.5 1.5 0 00.805-.216c.234-.145.407-.343.517-.594.085-.193.126-.48.126-.856v-.316zm2.926.254v-.671c.33-.004.555-.018.676-.044a.632.632 0 00.342-.228.714.714 0 00.16-.476c0-.233-.07-.418-.21-.556a.745.745 0 00-.547-.206c-.44 0-.749.284-.925.851l-.744-.133c.232-.95.791-1.424 1.678-1.424.493 0 .878.148 1.159.444.279.294.42.647.42 1.056 0 .413-.184.742-.55.987.234.137.407.31.523.52.116.212.174.462.174.751 0 .454-.15.823-.453 1.105-.301.282-.722.423-1.264.423-1.052 0-1.662-.512-1.83-1.538l.735-.17c.067.323.202.574.407.75.203.18.437.267.701.267a.936.936 0 00.66-.244.82.82 0 00.262-.627.823.823 0 00-.166-.514c-.11-.146-.227-.237-.352-.273-.125-.037-.35-.055-.678-.055a7.14 7.14 0 00-.178.005zm3.482-2.771h3.216v4.35h.499v2.14h-.643v-1.434H69.27v1.434h-.644v-2.14h.413c.55-.818.814-2.268.792-4.35zm.651.708c-.058 1.642-.289 2.856-.696 3.643h2.483v-3.643H70.48zm3.929-.708h.783v2.105h2.169v-2.105h.782v5.056h-.782V57.65h-2.169v2.243h-.783v-5.056zm4.912 0h.782v3.857l2.169-3.857h.842v5.056h-.781v-3.832l-2.17 3.832h-.842v-5.056zm4.968 0h.782v2.184c.25 0 .424-.052.524-.156.1-.105.246-.41.44-.915.155-.4.28-.663.374-.79a.72.72 0 01.331-.257c.125-.045.325-.066.6-.066h.157v.708l-.218-.005c-.205 0-.337.035-.395.101-.06.07-.154.278-.279.624-.118.33-.227.558-.326.685a1.3 1.3 0 01-.456.347c.336.1.666.443.991 1.03l.856 1.566h-.86l-.835-1.567c-.171-.313-.32-.521-.447-.62a.715.715 0 00-.457-.15v2.337h-.782v-5.056zm7.107 4.432c-.291.27-.57.46-.837.572-.269.11-.556.166-.864.166-.507 0-.896-.135-1.169-.406-.271-.272-.408-.62-.408-1.04a1.463 1.463 0 01.558-1.172c.168-.124.355-.218.564-.282.153-.044.384-.087.694-.128.632-.083 1.098-.18 1.396-.296l.005-.223c0-.349-.074-.596-.223-.738-.198-.195-.497-.29-.89-.29-.368 0-.64.07-.816.21-.175.142-.304.393-.388.752l-.765-.116c.07-.357.184-.648.343-.868.159-.22.39-.391.692-.51.3-.119.65-.179 1.047-.179.395 0 .713.052.96.153.246.102.427.23.544.384.116.154.196.347.244.583.025.146.038.41.038.79v1.143c0 .798.016 1.302.05 1.511.033.212.1.415.198.608h-.818a1.945 1.945 0 01-.155-.624zm-.066-1.915c-.285.129-.71.236-1.277.325-.322.05-.55.108-.683.171a.685.685 0 00-.308.28.777.777 0 00-.11.406c0 .23.08.42.237.572.158.151.39.228.693.228a1.5 1.5 0 00.805-.216c.234-.145.407-.343.517-.594.085-.193.126-.48.126-.856v-.316z" fill="#00A0E3"/></svg>