<?xml version="1.0" encoding="utf-8"?>
<!-- Generator: Adobe Illustrator 19.0.1, SVG Export Plug-In . SVG Version: 6.00 Build 0)  -->
<svg version="1.1" id="Layer_1" xmlns="http://www.w3.org/2000/svg" xmlns:xlink="http://www.w3.org/1999/xlink" x="0px" y="0px"
	 viewBox="0 0 315.8558044 57.2778015" style="enable-background:new 0 0 315.8558044 57.2778015;" xml:space="preserve" shape-rendering="auto">
<style type="text/css">
	.st0{fill:#25262A;}
	.st1{fill:#e463a0;}
</style>
<g>
	<path class="st0" d="M279.8627014,40.7336998V23.5846996h3.1244812l4.8543091,17.1490002h5.2923889l-5.2923889-17.8306007
		l0.4410095-0.2004986c0.7703857-0.3493996,1.4691772-0.8448009,2.059082-1.4720001
		c1.7814026-1.9102001,2.2052307-4.6137009,2.2052307-7.1311007v-3.8032999c0-2.5373998-0.4782104-5.2781-2.2624207-7.2083998
		c-1.7641907-1.893-4.3187866-2.4256999-6.8190002-2.4256999h-8.969696v40.0715981H279.8627014z M279.8627014,5.4418998h3.6228027
		c1.0453186,0,2.0762939,0.2578001,2.7922974,1.0654001c0.7731934,0.8649001,0.919281,2.2625003,0.919281,3.3651004v4.5019999
		c0,1.1226997-0.1460876,2.5001993-0.919281,3.3823004c-0.7160034,0.8104992-1.7469788,1.0853996-2.7922974,1.0853996h-3.6228027
		V5.4418998z"/>
	<path class="st0" d="M315.8728943,0.663h-5.3669128v31.0846004c0,2.6634979-1.0853882,4.4477005-3.9148865,4.4477005
		c-2.8124084,0-3.8977966-1.7842026-3.8977966-4.4477005V0.663h-5.3669128v25.8810005v3.0872002
		c0.0172119,1.3803997,0,3.1817989,0.2577209,4.5221004C298.5205994,39.0247993,301.7568054,41.25,306.591095,41.25
		c4.834198,0,8.0875854-2.2252007,9.006897-7.0966988c0.2578125-1.3403015,0.2377014-3.1417007,0.2578125-4.5221004
		c0.0170898-1.028101,0.0170898-2.0591011,0.0170898-3.0872002V0.663z"/>
	<polygon class="st0" points="162.2016907,0.6638 162.2016907,56.6156998 184.442688,56.6156998 184.442688,50.3694992
		168.4506989,50.3694992 168.4506989,31.3990993 181.1519928,31.3990993 181.1519928,25.8833008 168.4506989,25.8833008
		168.4506989,6.9127998 184.442688,6.9127998 184.442688,0.6638 	"/>
	<path class="st0" d="M95.8246994,56.6167984h13.546196c3.1445007,0,6.3979111-1.0853996,8.6403046-3.3449974
		c2.259697-2.2625008,3.3451004-5.4958,3.3451004-8.6575012V11.691c0-6.1746001-4.8543015-11.0289001-11.0489044-11.0289001
		H95.8246994V56.6167984z M102.0737,6.5444999h8.0503998c1.3230972,0,2.5917969,0.5327001,3.5111008,1.4520001
		c0.9393997,0.9364996,1.4720993,2.2052002,1.4720993,3.5112v33.4730988c0,1.5265007-0.6072006,2.9785004-1.6926041,4.0639
		c-1.0824966,1.0653992-2.517395,1.6897011-4.0438004,1.6897011H102.0737V6.5444999z"/>
	<path class="st0" d="M38.5093002,56.6165009V34.4844017h5.8451996c3.3651009,0,6.8561974-0.6988029,9.2274971-3.2534008
		c2.4458122-2.6090012,3.0701027-6.3779011,3.0701027-9.8146v-7.6465006c0-3.4568005-0.6444016-7.2256002-3.0701027-9.8347006
		C51.2106972,1.3606,47.6996002,0.6618,44.3544998,0.6618H32.2029991v55.9547005H38.5093002z M38.5093002,6.1403999h5.8652992
		c1.6897011,0,3.3450012,0.4411001,4.5019989,1.7470002c1.2314987,1.3776002,1.4892082,3.4910998,1.4892082,5.2752995v8.6404009
		c0,1.7812996-0.2577095,3.8776989-1.4892082,5.2752991c-1.1397896,1.323101-2.8122978,1.7812996-4.5019989,1.7812996h-5.8652992
		V6.1403999z"/>
	<path class="st0" d="M18.7670994,13.7322998h5.8080006v-0.4237995c0-3.4911003-0.6616001-7.2600002-3.0872917-9.9435005
		C19.1908989,0.8276,16.0291996,0,12.7185993,0C9.2646999,0,6.0657001,0.9021,3.6028082,3.4022999
		c-2.5918083,2.6462002-3.345,6.3234997-3.345,9.9062004c0,2.0046997,0.2748919,3.989399,0.9364918,5.9025002
		c0.5699,1.6523991,1.3603001,3.2705002,2.4085083,4.6852989c2.1306918,2.8122997,4.8141918,5.203701,7.4060001,7.5922012
		c2.5201912,2.3169003,4.7998915,4.6336994,6.2317905,7.7954998c0.7361012,1.6352997,1.1227016,3.0671997,1.1227016,4.8714981
		c0,3.9149017-1.5437012,7.1310005-5.9197006,7.1310005c-4.3559999,0-5.8996-3.2160988-5.8996-7.1310005v-2.336998H0v2.1335983
		c0,3.6028023,0.7704,7.2800026,3.3994999,9.9062004c2.5001001,2.5202026,5.7535,3.4195023,9.2273998,3.4195023
		c3.3450003,0,6.5639992-0.8248024,8.8980999-3.3822021c2.4629993-2.6634979,3.1416988-6.4151993,3.1416988-9.9435005
		c0-3.694397-1.0824986-7.5749969-3.3077984-10.5877991c-2.0590916-2.7751007-4.6137009-5.166399-7.1884003-7.4804993
		c-2.5716915-2.3169003-4.9974003-4.6882-6.4695001-7.8871002c-0.7704-1.6352997-1.1570001-3.0700998-1.1570001-4.8887005
		c0-1.8386002,0.2921-3.9148998,1.5064001-5.3497c1.1569996-1.3975997,2.832408-1.9130998,4.5965996-1.9130998
		c4.4475994,0,6.1201,3.2361999,6.1201,7.2627997V13.7322998z"/>
	<path class="st0" d="M135.6756897,56.6165009V32.0959015h5.478714l7.1310883,24.5205994h6.1573181l-7.4805145-25.2021999
		l1.1571045-0.5327015c1.0309906-0.4783001,1.9674072-1.1197987,2.7406921-1.9473991
		c2.4257202-2.6119003,2.9784088-6.3063011,2.9784088-9.7257996v-5.4385004c0-3.4568005-0.6443024-7.2256002-3.0700073-9.8347006
		C148.3972015,1.3606,144.8860016,0.6618,141.5208893,0.6618h-12.1313934v55.9547005H135.6756897z M135.6756897,6.1403999h5.8624115
		c1.6925964,0,3.365097,0.4411001,4.5220947,1.7470002c1.2142944,1.3776002,1.4721069,3.4910998,1.4721069,5.2752995v6.4322996
		c0,1.7842007-0.2578125,3.8777008-1.4721069,5.275301c-1.1569977,1.3230991-2.8123016,1.7841988-4.5220947,1.7841988h-5.8624115
		V6.1403999z"/>
	<polygon class="st0" points="252.8420868,0.6638 244.8833923,27.9051991 236.941803,0.6638 226.6832886,0.6638
		226.6832886,56.6156998 232.7490997,56.6156998 232.7490997,6.8755999 241.2605896,35.2939987 248.5233917,35.2939987
		257.0319824,6.8755999 257.0319824,56.6156998 263.0976868,56.6156998 263.0976868,0.6638 	"/>
	<rect x="274.4604797" y="50.5513992" class="st1" width="41.3946991" height="6.0657001"/>
	<path class="st0" d="M82.4039001,56.6184998h6.2891006L78.6722946,0.6638h-9.6312943l-9.9979019,55.9547005h6.2661972
		c0.5155106-3.4193993,1.0482025-6.8389015,1.5809021-10.2411995l0.074501-0.478302h13.7866974l0.0716019,0.478302
		C81.3585968,49.7795982,81.8912964,53.1991005,82.4039001,56.6184998 M79.9238052,40.6064987H67.7922974l0.108902-0.6442986
		c1.9503021-12.2604008,3.9721985-22.3155003,5.9569016-34.575798c1.9845963,12.2602997,4.0065002,22.3153992,5.9539948,34.575798
		L79.9238052,40.6064987z"/>
	<path class="st0" d="M213.9444885,56.6184998h6.2690125L210.2128143,0.6638h-9.6313171l-10.017807,55.9547005h6.2862091
		c0.5155029-3.4193993,1.0482025-6.8389015,1.5809021-10.2411995l0.0743866-0.478302h13.7868042l0.0716095,0.478302
		C212.8990936,49.7795982,213.4318085,53.1991005,213.9444885,56.6184998 M211.4642944,40.6064987H199.332901l0.1087952-0.6442986
		c1.9503021-12.2604008,3.9723053-22.3155003,5.9568939-34.575798c1.9847107,12.2602997,4.0066071,22.3153992,5.95401,34.575798
		L211.4642944,40.6064987z"/>
</g>
</svg>
