<svg viewBox="0 0 100 36" fill="none" xmlns="http://www.w3.org/2000/svg">
<path d="M98.71 34.61H1.16V1.16H98.72V34.62L98.71 34.61ZM99.87 0H0V35.77H99.87V0Z" fill="#081D3E"></path>
<path d="M2 2H98V34H2V2Z" fill="#081D3E"></path>
<path d="M64.7301 7.70953C64.7501 7.26953 65.1001 6.91953 65.5401 6.91953H66.6101H66.6401C67.0901 6.91953 67.4601 7.27953 67.4701 7.72953V17.6795C67.4701 18.1395 67.1001 18.4995 66.6501 18.5095L65.5301 18.3495C65.1301 18.2895 64.7501 17.9395 64.7401 17.5095V17.3095M64.7401 20.7795L65.0401 20.8295H65.1101V21.8095C65.1101 22.9995 66.0201 23.8595 67.2101 24.0295L67.4701 24.0695L67.9001 24.1195V22.1295C67.2601 22.1295 67.2201 21.5595 67.2101 21.1895V21.1695L67.4501 21.2095C68.8201 21.2095 69.9301 20.2895 69.9301 18.9195V18.7995V6.97953C69.9301 5.61953 68.8201 4.51953 67.4501 4.51953H64.8001C63.4401 4.51953 62.3301 5.62953 62.3301 6.99953V18.2195C62.3301 19.5795 63.3801 20.5695 64.7401 20.7695" fill="white"></path>
<path d="M9.21977 31.8508L13.8598 4.55078H11.4598L8.70977 20.9908L6.21977 4.55078H3.75977L8.01977 32.7408C8.40977 32.4408 8.80976 32.1508 9.22976 31.8608" fill="white"></path>
<path d="M71.9004 19.8905C71.9004 21.2505 72.8504 22.3105 74.2304 22.6405L77.0204 23.4005C78.3904 23.4005 79.5004 22.3805 79.5004 21.0105V4.49047H78.8904H77.0404V19.7505C77.0404 20.2105 76.6704 20.5805 76.2104 20.5805H76.2004L75.1204 20.2905C74.6704 20.1905 74.3104 19.8905 74.3004 19.4505V19.5705V4.48047H71.9004V19.7705" fill="white"></path>
<path d="M88.47 13.7293V13.7693L88.48 13.7393L92.88 30.4093C93.95 31.0793 94.96 31.7793 95.93 32.5093V4.5293H93.51V23.4493L88.47 4.5693L88.46 4.5293H86.04V26.7393C86.86 27.1193 87.67 27.4993 88.46 27.9093" fill="white"></path>
<path d="M83.98 4.5293H81.54V24.8893C82.37 25.1993 83.18 25.5093 83.98 25.8393" fill="white"></path>
<path d="M17.92 4.5293H15.5V28.0493C16.29 27.6393 17.1 27.2493 17.92 26.8693" fill="white"></path>
<path d="M60.5699 17.7891L56.9699 17.5491V13.2991H59.3799V10.9891H56.9699V6.94906H60.5699V4.53906H54.6299V19.9391C56.6399 19.9891 58.6199 20.1091 60.5699 20.2791" fill="white"></path>
<path d="M33.5 19.3008C31.96 19.6208 29.91 20.1208 29.91 20.1208V14.5608L32.43 14.3408V11.9208L29.91 12.0008V6.95078H33.5V4.55078H27.54V23.3108C29.47 22.7508 31.46 22.2508 33.5 21.8208" fill="white"></path>
<path d="M26.2901 21.0993C24.3601 21.6593 22.7401 22.2693 22.7401 22.2693V4.5293H20.3301V25.8193C22.2401 25.0293 24.2301 24.3193 26.2901 23.6693" fill="white"></path>
<path d="M39.9596 18.2891L37.9796 18.5191V13.3691H39.9596C40.3896 13.3691 40.7296 13.6991 40.7796 14.1191V17.4491C40.7796 17.9091 40.4496 18.2191 39.9596 18.2791M37.9796 6.93906H39.9596C40.3896 6.93906 40.7296 7.26906 40.7796 7.68906V10.1391C40.7796 10.5891 40.4096 10.9591 39.9596 10.9591H37.9796V6.92906V6.93906ZM42.9596 18.2191V14.3991C42.9596 13.3991 42.3696 12.5491 41.5196 12.1591C42.3696 11.7691 42.9496 10.9191 42.9596 9.92906V6.98906C42.9496 5.65906 41.8896 4.57906 40.5696 4.53906H40.4896H35.5996V21.3891C35.5996 21.3891 37.3496 21.0391 40.6796 20.6091C41.9596 20.5091 42.9696 19.5291 42.9696 18.2291" fill="white"></path>
<path d="M47.5599 6.94906H49.5399C49.9699 6.94906 50.3099 7.27906 50.3599 7.69906V10.1491C50.3599 10.6091 49.9899 10.9691 49.5399 10.9691H47.5599M47.5599 13.3191H49.5399C49.9699 13.3191 50.3099 13.6591 50.3599 14.0691V19.9091C50.9499 19.8991 51.5399 19.8891 52.1299 19.8891C52.2599 19.8891 52.3999 19.8891 52.5299 19.8891C52.5299 19.1991 52.5299 18.1891 52.5299 18.1791V14.3991C52.5299 13.3991 51.9399 12.5491 51.0899 12.1591C51.9399 11.7691 52.5199 10.9191 52.5299 9.92906V6.98906C52.5199 5.65906 51.4599 4.57906 50.1399 4.53906H50.0599H45.1699V20.1591C45.9599 20.0991 46.7599 20.0491 47.5599 20.0091V13.3191Z" fill="white"></path>
</svg>
