<svg xmlns="http://www.w3.org/2000/svg" xlink="http://www.w3.org/1999/xlink" version="1.1" x="0px" y="0px" viewBox="0 0 161.57 22.8" space="preserve"><g><g><circle fill="#fff" cx="11.4" cy="11.4" r="11.4"></circle><path class="st1" fill="#0F2954" d="M13.35,10.37c0.74-0.3,1.19-0.77,1.49-1.12c0.57-0.65,0.8-1.44,0.8-2.2c0-0.61-0.17-1.82-1.23-2.66    c-0.73-0.57-1.38-0.84-2.93-0.84h-0.78c-0.03,0-0.05,0-0.08,0H7.37v15.26h9.23v-2.93C16.6,13.08,15.7,11.2,13.35,10.37z     M14.51,17.98h-1.66v-5.09h-1.92v5.1H9.45V4.32l1.51,0c0.57,0,1.42,0.13,2.03,0.88c0.32,0.38,0.51,0.89,0.58,1.4h-2.65v0.75h2.67    c-0.02,0.49-0.12,1.03-0.6,1.61c-0.42,0.52-1.11,1.01-2.08,1.01c-0.01,0-0.01,0-0.02,0v0.76c2.59,0,3.6,1.72,3.6,4.88V17.98z"></path></g><g><path fill="#fff" d="M30.38,9.55V3.54h1.61c0.91,0,1.6,0.64,1.6,1.48c0,0.64-0.36,1.17-0.91,1.37c0.96,0.18,1.29,0.88,1.29,1.55    c0,0.93-0.78,1.61-1.78,1.61H30.38z M31.05,6.1h0.91c0.59,0,0.95-0.38,0.95-0.95c0-0.63-0.45-0.95-1.12-0.95h-0.75V6.1z     M31.98,8.9c0.73,0,1.32-0.36,1.32-1.06c0-0.63-0.58-1.08-1.32-1.08h-0.93V8.9H31.98z"></path><path fill="#fff" d="M38.7,7.82c0,1-0.75,1.73-1.81,1.73h-1.78V3.54h0.67V6.1l1.11-0.01C37.95,6.08,38.7,6.84,38.7,7.82z     M36.79,6.75h-1.01V8.9h1.01c0.73,0,1.24-0.36,1.24-1.06C38.03,7.21,37.54,6.75,36.79,6.75z M39.49,9.55V3.54h0.67v6.01H39.49z"></path><path fill="#fff" d="M41.47,6.54c0-1.73,1.4-3.13,3.13-3.13c1.06,0,1.99,0.52,2.56,1.33l-0.53,0.38    c-0.44-0.64-1.17-1.06-2.03-1.06c-1.4,0-2.46,1.11-2.46,2.48s1.06,2.48,2.46,2.48c0.86,0,1.59-0.42,2.03-1.06l0.53,0.38    c-0.57,0.81-1.5,1.33-2.56,1.33C42.87,9.68,41.47,8.28,41.47,6.54z"></path><path fill="#fff" d="M48.35,3.54h0.67V8.9h2.56V3.54h0.67V8.9h2.56V3.54h0.67v6.01h-7.13V3.54z"></path><path fill="#fff" d="M56.45,9.55l2.52-6.01h0.21l2.52,6.01h-0.75l-0.71-1.73H57.9l-0.7,1.73H56.45z M58.17,7.15h1.79l-0.89-2.19    L58.17,7.15z"></path><path fill="#fff" d="M65.06,7.27C64.5,7.51,64.12,9.6,62.72,9.6c-0.11,0-0.22-0.01-0.35-0.05V8.88c0.08,0.03,0.15,0.03,0.22,0.03    c0.83,0,1.25-1.56,1.73-1.74c-0.87-0.14-1.54-0.86-1.54-1.76c0-1.04,0.85-1.87,1.92-1.87h1.73v6.01h-0.67V7.27H65.06z M65.76,6.61    V4.19h-1c-0.73,0-1.32,0.52-1.32,1.22s0.59,1.2,1.32,1.2H65.76z"></path><path fill="#fff" d="M70.17,3.54h0.67V8.9h2.56V3.54h0.67V8.9h2.56V3.54h0.67v6.01h-7.13V3.54z"></path><path fill="#fff" d="M78.74,9.55V3.54h0.66V6.1h0.64l2.25-2.56h0.81l-2.52,2.88c0.78,0.11,1.37,2.5,2.52,2.5    c0.08,0,0.15-0.02,0.23-0.03v0.67C83.2,9.58,83.08,9.6,82.95,9.6c-1.54,0-2.21-2.85-2.95-2.85H79.4v2.8H78.74z"></path><path fill="#fff" d="M86.77,3.41c1.73,0,3.07,1.4,3.07,3.13s-1.35,3.13-3.07,3.13c-1.73,0-3.07-1.4-3.07-3.13    S85.03,3.41,86.77,3.41z M86.77,9.03c1.4,0,2.4-1.11,2.4-2.48s-1-2.48-2.4-2.48c-1.4,0-2.4,1.11-2.4,2.48S85.37,9.03,86.77,9.03z"></path><path fill="#fff" d="M90,8.88c0.13,0.03,0.15,0.06,0.27,0.06c0.88,0,1.37-1.05,1.37-5.4h3.71v6.01h-0.66V4.17h-2.41    c0,4.41-0.7,5.43-1.88,5.43c-0.15,0-0.23-0.03-0.4-0.05V8.88z"></path><path fill="#fff" d="M96.33,9.55l2.52-6.01h0.21l2.52,6.01h-0.75l-0.71-1.73h-2.34l-0.7,1.73H96.33z M98.05,7.15h1.79l-0.89-2.19    L98.05,7.15z"></path><path fill="#fff" d="M105.12,7.97c0.44,0.64,1.17,1.06,2.03,1.06c1.33,0,2.34-1,2.45-2.28h-3.09V6.1h3.07    c-0.21-1.16-1.18-2.03-2.42-2.03c-0.86,0-1.59,0.42-2.03,1.06l-0.53-0.38c0.57-0.81,1.5-1.33,2.56-1.33c1.73,0,3.13,1.4,3.13,3.13    s-1.4,3.13-3.13,3.13c-1.06,0-1.99-0.52-2.56-1.33L105.12,7.97z"></path><path fill="#fff" d="M111.59,9.55V3.54h0.66V6.1h0.64l2.25-2.56h0.81l-2.52,2.88c0.78,0.11,1.37,2.5,2.52,2.5    c0.08,0,0.15-0.02,0.23-0.03v0.67c-0.12,0.03-0.25,0.05-0.38,0.05c-1.54,0-2.21-2.85-2.95-2.85h-0.59v2.8H111.59z"></path><path fill="#fff" d="M119.62,3.41c1.73,0,3.07,1.4,3.07,3.13s-1.35,3.13-3.07,3.13c-1.73,0-3.07-1.4-3.07-3.13    S117.89,3.41,119.62,3.41z M119.62,9.03c1.4,0,2.4-1.11,2.4-2.48s-1-2.48-2.4-2.48s-2.4,1.11-2.4,2.48S118.22,9.03,119.62,9.03z"></path><path fill="#fff" d="M124.68,6.1h3.67V3.54h0.67v6.01h-0.67v-2.8h-3.67v2.8h-0.67V3.54h0.67V6.1z"></path><path fill="#fff" d="M133.41,3.41c1.73,0,3.07,1.4,3.07,3.13s-1.35,3.13-3.07,3.13c-1.73,0-3.07-1.4-3.07-3.13    S131.68,3.41,133.41,3.41z M133.41,9.03c1.4,0,2.4-1.11,2.4-2.48s-1-2.48-2.4-2.48c-1.4,0-2.4,1.11-2.4,2.48    S132.01,9.03,133.41,9.03z"></path><path fill="#fff" d="M138,3.54h0.27l2.36,4.79l2.39-4.79h0.27l0.54,6.01h-0.68l-0.36-4.04l-2.01,4.04h-0.28l-2.01-4.04l-0.36,4.04    h-0.68L138,3.54z"></path><path fill="#fff" d="M145.78,8.39l3.42-4.85h0.67v6.01h-0.67V4.71l-3.42,4.84h-0.67V3.54h0.67V8.39z"></path><path fill="#fff" d="M151.31,9.55V3.54h0.66V6.1h0.64l2.25-2.56h0.81l-2.52,2.88c0.78,0.11,1.37,2.5,2.52,2.5    c0.08,0,0.15-0.02,0.23-0.03v0.67c-0.12,0.03-0.25,0.05-0.38,0.05c-1.54,0-2.21-2.85-2.95-2.85h-0.59v2.8H151.31z"></path><path fill="#fff" d="M157.49,8.39l3.42-4.85h0.67v6.01h-0.67V4.71l-3.42,4.84h-0.67V3.54h0.67V8.39z"></path></g><g><g><path fill="#fff" d="M31.73,12.8v2.25h2.59V12.8h1.43v6.01h-1.43v-2.46h-2.59v2.46h-1.43V12.8H31.73z"></path><path fill="#fff" d="M37.03,12.8h1.43v3.49l2.83-3.49h1.1v6.01h-1.43v-3.48l-2.83,3.48h-1.1V12.8z"></path><path fill="#fff" d="M45.09,12.8l1.32,2.25h0.34V12.8h1.44v2.25h0.34l1.32-2.25h1.65l-1.8,2.86c0.81,0.27,0.81,1.88,1.72,1.88     c0.09,0,0.2-0.03,0.32-0.08v1.35c-0.22,0.05-0.43,0.1-0.61,0.1c-1.74,0-1.86-2.47-2.65-2.56H48.2v2.46h-1.44v-2.46h-0.28     c-0.79,0.09-0.91,2.56-2.65,2.56c-0.18,0-0.39-0.05-0.61-0.1v-1.35c0.12,0.04,0.22,0.08,0.32,0.08c0.91,0,0.91-1.61,1.71-1.88     l-1.79-2.86H45.09z"></path><path fill="#fff" d="M53.98,12.8v2.25h2.59V12.8H58v6.01h-1.43v-2.46h-2.59v2.46h-1.43V12.8H53.98z"></path><path fill="#fff" d="M59.28,12.8h1.43v3.49l2.83-3.49h1.1v6.01h-1.43v-3.48l-2.83,3.48h-1.1V12.8z"></path><path fill="#fff" d="M67.36,12.8v3.49l2.83-3.49h1.1v6.01h-1.43v-3.48l-2.83,3.48h-1.1V12.8H67.36z M67.74,11.09     c0.18,0.45,0.4,0.57,0.82,0.57c0.41,0,0.63-0.12,0.82-0.57l0.82,0.29c-0.21,0.88-0.88,1.12-1.63,1.12s-1.43-0.29-1.63-1.12     L67.74,11.09z"></path><path fill="#fff" d="M76.31,12.8v2.25h2.59V12.8h1.43v6.01H78.9v-2.46h-2.59v2.46h-1.43V12.8H76.31z"></path><path fill="#fff" d="M84.57,12.67c1.73,0,3.12,1.4,3.12,3.13s-1.39,3.13-3.12,3.13c-1.73,0-3.11-1.4-3.11-3.13     S82.84,12.67,84.57,12.67z M84.57,17.54c1.03,0,1.66-0.76,1.66-1.73s-0.63-1.73-1.66-1.73c-1.02,0-1.65,0.76-1.65,1.73     S83.55,17.54,84.57,17.54z"></path><path fill="#fff" d="M91.2,12.8c0.93,0,1.62,0.66,1.62,1.48c0,0.62-0.37,1.15-0.91,1.38c0.76,0.22,1.19,0.85,1.19,1.54     c0,0.91-0.76,1.61-1.77,1.61H88.8V12.8H91.2z M90.24,15.22h0.58c0.38,0,0.65-0.27,0.65-0.65c0-0.39-0.31-0.64-0.71-0.64h-0.52     V15.22z M90.24,17.68h0.63c0.45,0,0.81-0.27,0.81-0.7c0-0.4-0.36-0.7-0.81-0.7h-0.63V17.68z"></path><path fill="#fff" d="M97.61,14.11h-2.06v4.7h-1.44V12.8h3.5V14.11z"></path><path fill="#fff" d="M101.1,12.67c1.73,0,3.12,1.4,3.12,3.13s-1.39,3.13-3.12,3.13c-1.73,0-3.11-1.4-3.11-3.13     S99.36,12.67,101.1,12.67z M101.1,17.54c1.03,0,1.66-0.76,1.66-1.73s-0.63-1.73-1.66-1.73c-1.02,0-1.65,0.76-1.65,1.73     S100.08,17.54,101.1,17.54z"></path><path fill="#fff" d="M107.6,12.8c1.18,0,2.08,0.9,2.08,2.07c0,1.19-0.96,2.08-2.08,2.08h-0.83v1.86h-1.43V12.8H107.6z      M106.77,15.64h0.67c0.45,0,0.81-0.33,0.81-0.76c0-0.43-0.36-0.76-0.81-0.76h-0.67V15.64z"></path><path fill="#fff" d="M113.44,12.67c1.73,0,3.12,1.4,3.12,3.13s-1.39,3.13-3.12,3.13c-1.73,0-3.11-1.4-3.11-3.13     S111.7,12.67,113.44,12.67z M113.44,17.54c1.03,0,1.66-0.76,1.66-1.73s-0.63-1.73-1.66-1.73c-1.02,0-1.65,0.76-1.65,1.73     S112.42,17.54,113.44,17.54z"></path><path fill="#fff" d="M122.57,12.8v4.7h0.95v2.66h-1.36v-1.36h-4.13v1.36h-1.36v-2.66h0.71c0.61-0.89,0.87-2.42,0.87-4.7H122.57z      M118.86,17.51h2.28V14.1h-1.63C119.51,16.01,119.26,16.79,118.86,17.51z"></path></g></g></g></svg>