<svg width="140" height="25" viewBox="0 0 140 25" fill="none" xmlns="http://www.w3.org/2000/svg">
<path d="M70.3044 4.76812C74.4638 4.76812 77.8116 8.01449 77.9131 12.1739C78.116 16.4348 74.7681 19.9855 70.5073 20.087C70.4058 20.087 70.3044 20.087 70.2029 20.087C66.0435 20.087 62.6957 16.8406 62.5942 12.6812C62.3913 8.42029 65.7391 4.86957 70 4.76812C70.1015 4.76812 70.2029 4.76812 70.3044 4.76812ZM70.3044 0C70.1015 0 70 0 69.7971 0C62.8986 0.202899 57.5217 6.08696 57.8261 12.8841C58.029 19.5797 63.6087 24.9565 70.3044 24.9565C70.5073 24.9565 70.6087 24.9565 70.8116 24.9565C77.7102 24.7536 83.087 18.8696 82.7826 12.0725C82.4783 5.27536 77 0 70.3044 0Z" fill="#EB4523"/>
<path d="M72.7391 9.63765C72.942 10.2463 72.5362 10.855 71.9275 11.0579C71.3188 11.2608 70.7101 10.855 70.5072 10.2464C70.3043 9.63766 70.7101 9.02896 71.3188 8.82606C72.029 8.62316 72.6377 9.02896 72.7391 9.63765Z" fill="#EB4523"/>
<path d="M72.8406 14.7101C73.0435 15.3188 72.6377 15.9275 72.029 16.1304C71.4203 16.3333 70.8116 15.9275 70.6087 15.3188C70.4058 14.7101 70.8116 14.1014 71.4203 13.8985C72.029 13.7971 72.6377 14.1014 72.8406 14.7101Z" fill="#EB4523"/>
<path d="M68.3768 12.2753C68.5797 12.884 68.1739 13.4927 67.5652 13.6956C66.9565 13.8985 66.3478 13.4927 66.1449 12.884C65.942 12.2753 66.3478 11.6666 66.9565 11.4637C67.5652 11.2608 68.1739 11.6666 68.3768 12.2753Z" fill="#EB4523"/>
<path d="M0 23.3333V1.11594H7.30435C12.9855 1.11594 15.7246 5.17391 15.7246 9.13043C15.6232 13.0869 12.8841 16.942 7.4058 16.942H5.57971V23.3333H0ZM10.2464 9.13043C10.2464 7.50724 9.33333 5.78261 7.30435 5.78261H5.37681V12.4783H7.30435C9.23188 12.4783 10.2464 10.8551 10.2464 9.13043Z" fill="#EB4523"/>
<path d="M22.6232 1.11594V16.2319C22.6232 18.058 24.0435 18.8696 25.4638 18.8696C26.8841 18.8696 28.2029 17.9565 28.2029 16.2319V1.11594H33.7826V16.2319C33.7826 21.2029 29.5217 23.6377 25.3623 23.6377C21.2029 23.6377 16.942 21.2029 16.942 16.2319V1.11594H22.6232Z" fill="#EB4523"/>
<path d="M55.4928 5.5797L51.6377 8.42029C47.7826 3.85507 40.3768 5.68116 40.3768 12.3768C40.3768 15.4203 42.4058 18.7681 46.1594 18.7681C48.1884 18.7681 51.1304 18.2609 51.6377 15.2174H43.3188V10.7536H56.8116C56.913 11.8696 56.913 12.1739 56.913 12.3768C56.913 19.6812 52.4493 23.7391 46.058 23.7391C38.7536 23.7391 34.7971 18.1594 34.7971 12.3768C34.7971 6.49275 38.7536 0.913037 46.058 0.913037C49.913 0.913037 52.5507 2.02898 55.4928 5.5797Z" fill="#EB4523"/>
<path d="M97.087 5.9855H89.0725V10.3478H95.5652V15.1159H89.0725V23.3333H83.5942V1.11594H97.087V5.9855Z" fill="#EB4523"/>
<path d="M103.986 1.11594V8.82608L110.275 1.11594H116.768L108.348 11.4638L116.768 23.3333H110.377L104.493 15.1159L103.884 15.7246V23.2319H98.3043V1.11594H103.986Z" fill="#EB4523"/>
<path d="M132.188 17.9565H125.188L123.565 23.3333H117.58L125.087 1.11594H132.391L140 23.3333H134.014L132.188 17.9565ZM128.638 5.78261L126.71 12.9855H130.768L128.841 5.78261H128.638Z" fill="#EB4523"/>
</svg>
