<svg xmlns="http://www.w3.org/2000/svg" xmlns:xlink="http://www.w3.org/1999/xlink" preserveAspectRatio="xMidYMid" width="160" height="24" viewBox="0 0 160 24">
  <defs>
    <style>

      .cls-2 {
        fill: #ffffff;
      }
    </style>
  </defs>
  <path d="M160.000,23.183 C160.000,23.183 155.074,23.201 155.074,23.201 C152.826,23.266 151.050,22.827 149.441,20.100 C149.441,20.100 145.249,12.965 145.249,12.965 C145.249,12.965 145.249,19.683 145.249,19.683 C145.249,21.001 145.451,22.287 146.658,23.183 C146.658,23.183 137.472,23.183 137.472,23.183 C138.683,22.287 138.882,21.001 138.882,19.683 C138.882,19.683 138.882,4.193 138.882,4.193 C138.882,2.876 138.683,1.591 137.472,0.693 C137.472,0.693 146.658,0.693 146.658,0.693 C145.451,1.591 145.249,2.876 145.249,4.193 C145.249,4.193 145.249,11.102 145.249,11.102 C145.249,11.102 150.749,4.193 150.749,4.193 C151.117,3.713 151.385,3.068 151.385,2.522 C151.385,1.850 150.780,1.240 150.045,0.693 C150.045,0.693 158.524,0.693 158.524,0.693 C158.524,0.693 150.682,9.880 150.682,9.880 C150.682,9.880 156.811,20.621 160.000,23.183 ZM129.874,20.074 C129.874,20.074 132.555,20.074 132.555,20.074 C134.097,20.074 135.439,19.307 136.342,18.406 C136.342,18.406 135.003,23.288 135.003,23.288 C135.003,23.288 119.549,23.288 119.549,23.288 C120.756,22.392 120.955,21.106 120.955,19.788 C120.955,19.788 120.955,4.298 120.955,4.298 C120.955,2.981 120.756,1.695 119.549,0.798 C119.549,0.798 132.522,0.798 132.522,0.798 C132.856,0.798 133.093,0.764 133.360,0.668 C133.360,0.668 133.360,5.456 133.360,5.456 C132.488,4.173 131.213,4.009 130.409,4.009 C130.409,4.009 127.325,4.009 127.325,4.009 C127.325,4.009 127.325,9.630 127.325,9.630 C127.325,9.630 132.187,9.630 132.187,9.630 C132.187,9.630 132.187,14.005 132.187,14.005 C131.416,13.006 130.510,12.848 129.807,12.848 C129.807,12.848 127.325,12.848 127.325,12.848 C127.325,12.848 127.325,19.111 127.325,19.111 C127.325,19.788 127.626,20.074 129.874,20.074 ZM113.795,4.460 C113.795,4.460 111.548,4.460 111.548,4.460 C111.548,4.460 111.548,19.788 111.548,19.788 C111.548,21.106 111.751,22.392 112.956,23.288 C112.956,23.288 103.770,23.288 103.770,23.288 C104.975,22.392 105.180,21.106 105.180,19.788 C105.180,19.788 105.180,4.460 105.180,4.460 C105.180,4.460 102.934,4.460 102.934,4.460 C101.290,4.460 100.052,5.009 99.045,5.940 C99.045,5.940 100.350,0.668 100.350,0.668 C100.622,0.764 100.854,0.798 101.192,0.798 C101.192,0.798 116.978,0.798 116.978,0.798 C117.315,0.798 117.550,0.764 117.817,0.668 C117.817,0.668 116.643,5.715 116.643,5.715 C116.174,4.525 114.766,4.460 113.795,4.460 ZM90.967,23.288 C91.936,22.776 92.440,21.906 92.440,20.976 C92.440,20.684 92.239,19.849 92.141,19.627 C92.141,19.627 90.967,16.478 90.967,16.478 C90.967,16.478 83.925,16.478 83.925,16.478 C83.925,16.478 82.752,19.689 82.752,19.689 C82.586,20.174 82.415,20.655 82.415,21.264 C82.415,21.681 82.519,22.548 83.590,23.288 C83.590,23.288 76.483,23.288 76.483,23.288 C77.758,22.004 78.363,21.070 78.999,19.338 C78.999,19.338 84.395,4.364 84.395,4.364 C84.595,3.852 84.732,3.301 84.732,2.663 C84.732,2.050 84.428,1.470 83.424,0.798 C83.424,0.798 91.936,0.798 91.936,0.798 C91.936,0.798 98.878,19.338 98.878,19.338 C99.883,22.035 101.056,22.932 101.658,23.288 C101.658,23.288 90.967,23.288 90.967,23.288 ZM87.445,6.451 C87.445,6.451 84.965,13.264 84.965,13.264 C84.965,13.264 89.859,13.264 89.859,13.264 C89.859,13.264 87.445,6.451 87.445,6.451 ZM68.061,20.815 C68.061,20.107 67.991,19.658 67.924,18.981 C67.924,18.981 66.850,8.509 66.850,8.509 C66.850,8.509 61.959,23.703 61.959,23.703 C60.048,23.032 59.209,22.520 58.405,21.941 C57.634,21.394 57.197,21.070 56.558,19.399 C56.558,19.399 52.369,8.604 52.369,8.604 C52.369,8.604 51.130,19.399 51.130,19.399 C50.929,21.264 51.063,22.392 52.540,23.288 C52.540,23.288 45.801,23.288 45.801,23.288 C46.505,22.646 47.140,21.681 47.444,19.462 C47.444,19.462 49.387,4.909 49.387,4.909 C49.487,4.074 49.788,2.244 48.080,0.798 C48.080,0.798 56.124,0.798 56.124,0.798 C56.124,0.798 61.287,14.132 61.287,14.132 C61.287,14.132 65.579,0.798 65.579,0.798 C65.579,0.798 74.160,0.798 74.160,0.798 C72.885,1.439 72.649,2.532 72.818,4.009 C72.818,4.009 74.395,18.566 74.395,18.566 C74.628,20.749 74.930,21.841 76.170,23.288 C76.170,23.288 66.953,23.288 66.953,23.288 C67.792,22.452 68.061,21.554 68.061,20.815 ZM35.196,13.650 C37.509,12.654 38.615,10.887 38.615,8.444 C38.615,5.265 36.839,4.173 35.196,4.173 C35.196,4.173 34.858,4.173 34.858,4.173 C34.858,4.173 34.858,19.788 34.858,19.788 C34.858,21.106 35.061,22.392 36.268,23.288 C36.268,23.288 27.084,23.288 27.084,23.288 C28.292,22.392 28.492,21.106 28.492,19.788 C28.492,19.788 28.492,4.298 28.492,4.298 C28.492,2.981 28.292,1.695 27.084,0.798 C27.084,0.798 37.977,0.798 37.977,0.798 C42.236,0.798 45.150,3.367 45.150,6.902 C45.150,11.848 40.325,14.162 35.196,13.650 ZM12.444,24.001 C5.571,24.001 -0.000,18.625 -0.000,11.999 C-0.000,5.367 5.571,-0.003 12.444,-0.003 C19.318,-0.003 24.889,5.367 24.889,11.999 C24.889,18.625 19.318,24.001 12.444,24.001 ZM17.945,11.996 C17.945,7.905 16.022,4.592 12.444,4.592 C8.866,4.592 6.944,7.905 6.944,11.996 C6.944,11.999 6.944,11.999 6.944,11.999 C6.944,16.089 8.866,19.405 12.444,19.405 C12.444,19.405 12.446,19.405 12.446,19.405 C16.022,19.405 17.945,16.089 17.945,11.999 C17.945,11.999 17.945,11.999 17.945,11.996 Z" id="path-1" class="cls-2" fill-rule="evenodd"/>
</svg>
