<svg width="160" height="41" viewBox="0 0 160 41" fill="none" xmlns="http://www.w3.org/2000/svg">
<g clip-path="url(#clip0)">
<path d="M62.8531 18.3182C61.7836 18.3182 60.9402 18.0587 60.3229 17.5392C59.7049 17.0191 59.3775 16.2547 59.3394 15.2456L59.3348 15.0663C59.3324 14.9668 59.3312 14.8496 59.3301 14.7178V13.8293C59.3312 13.6518 59.3336 13.5013 59.3371 13.3783L59.3394 13.2916C59.3699 12.2977 59.6991 11.5315 60.3287 10.9927C60.9578 10.4544 61.7989 10.185 62.8531 10.185C63.8998 10.185 64.738 10.4544 65.3664 10.9933C65.9955 11.5315 66.3247 12.2977 66.3551 13.2916L66.3686 13.7368C66.3721 13.8703 66.3745 13.9874 66.3762 14.0899V14.4619C66.3733 14.668 66.3663 14.9293 66.3551 15.2456C66.3176 16.2547 65.992 17.0191 65.3782 17.5386C64.7643 18.0587 63.9227 18.3182 62.8537 18.3182H62.8531ZM62.8531 16.6237C63.2444 16.6237 63.5566 16.5054 63.7903 16.2682C64.024 16.031 64.1476 15.6673 64.1628 15.1782L64.181 14.565C64.1839 14.4326 64.1856 14.3242 64.1856 14.2405L64.1786 13.8188C64.1751 13.6776 64.1698 13.513 64.1628 13.3256C64.1482 12.8359 64.024 12.4728 63.7903 12.2356C63.5566 11.9984 63.2444 11.8795 62.8531 11.8795C62.4537 11.8795 62.1374 11.9984 61.9043 12.2356C61.67 12.4728 61.5464 12.8359 61.5312 13.325L61.5224 13.7122L61.5201 14.2405C61.5201 14.647 61.5236 14.9597 61.5312 15.1776C61.5464 15.6673 61.6706 16.031 61.9037 16.2682C62.1374 16.5054 62.4537 16.6237 62.8526 16.6237H62.8531ZM68.5217 18.2052C68.4385 18.2052 68.3712 18.1788 68.3185 18.1261C68.2657 18.0734 68.2394 18.006 68.2394 17.9229V10.5921C68.2394 10.5089 68.2657 10.4398 68.3185 10.383C68.3712 10.3267 68.4385 10.298 68.5217 10.298H74.8591C74.9411 10.298 75.0114 10.3267 75.0676 10.383C75.1239 10.4392 75.1526 10.5089 75.1526 10.5921V17.9229C75.1526 18.006 75.1239 18.0734 75.0676 18.1261C75.0108 18.1788 74.9417 18.2052 74.8585 18.2052H73.3222C73.2396 18.2052 73.1699 18.1788 73.1131 18.1261C73.0569 18.0734 73.0288 18.006 73.0288 17.9229V12.1846H70.362V17.9229C70.362 18.006 70.3339 18.0734 70.2777 18.1261C70.2209 18.1788 70.1512 18.2052 70.0686 18.2052H68.5211H68.5217ZM79.3076 18.2052C79.2245 18.2052 79.1553 18.1788 79.0985 18.1261C79.0423 18.0734 79.0136 18.006 79.0136 17.9229V12.1395H77.0257C76.9431 12.1395 76.8734 12.1132 76.8166 12.0604C76.7604 12.0077 76.7322 11.9398 76.7322 11.8572V10.5921C76.7322 10.5089 76.7604 10.4398 76.8166 10.383C76.8734 10.3267 76.9431 10.298 77.0257 10.298H83.1599C83.243 10.298 83.3122 10.3267 83.369 10.383C83.4258 10.4392 83.4539 10.5089 83.4539 10.5921V11.8572C83.4539 11.9398 83.4258 12.0077 83.369 12.0604C83.3127 12.1132 83.243 12.1395 83.1599 12.1395H81.172V17.9229C81.172 18.006 81.1438 18.0734 81.087 18.1261C81.0308 18.1788 80.9611 18.2052 80.8785 18.2052H79.3082H79.3076ZM88.3089 18.3182C87.2394 18.3182 86.3959 18.0587 85.7786 17.5392C85.1607 17.0191 84.8333 16.2547 84.7958 15.2456L84.787 14.8449L84.7846 14.2744C84.7846 13.8375 84.7882 13.5101 84.7958 13.2916C84.8256 12.2977 85.1554 11.5315 85.7839 10.9927C86.4129 10.4544 87.254 10.185 88.3083 10.185C89.3556 10.185 90.1931 10.4544 90.8222 10.9933C91.4507 11.5315 91.7804 12.2977 91.8103 13.2916L91.8279 13.865C91.8302 13.988 91.832 14.0952 91.8325 14.1872L91.8314 14.4625C91.829 14.668 91.822 14.9293 91.8103 15.2456C91.7728 16.2547 91.4471 17.0191 90.8333 17.5386C90.2195 18.0587 89.3778 18.3182 88.3089 18.3182V18.3182ZM88.3089 16.6237C88.7001 16.6237 89.0129 16.5054 89.246 16.2682C89.4797 16.031 89.6039 15.6673 89.6191 15.1782L89.639 14.4701C89.6408 14.3799 89.6414 14.3031 89.6414 14.2405L89.639 14.0132C89.6355 13.8357 89.6291 13.6067 89.6191 13.3256C89.6039 12.8359 89.4797 12.4728 89.246 12.2356C89.0129 11.9984 88.7001 11.8795 88.3089 11.8795C87.9094 11.8795 87.5931 11.9984 87.36 12.2356C87.1263 12.4728 87.0022 12.8359 86.9869 13.325L86.9787 13.7122L86.9758 14.2405C86.9758 14.647 86.9793 14.9597 86.9875 15.1776C87.0022 15.6673 87.1263 16.031 87.36 16.2682C87.5931 16.5054 87.9094 16.6237 88.3089 16.6237ZM93.9774 18.2052C93.9025 18.2052 93.8369 18.1771 93.78 18.1208C93.7232 18.064 93.6951 17.9978 93.6951 17.9229V10.5921C93.6951 10.5089 93.7215 10.4398 93.7742 10.383C93.8269 10.3267 93.8948 10.298 93.9774 10.298H97.4683C98.4242 10.298 99.1358 10.4942 99.6032 10.8855C100.07 11.2773 100.303 11.8344 100.303 12.5571C100.303 12.9191 100.207 13.2313 100.015 13.4949C99.8234 13.7584 99.6108 13.9505 99.3765 14.0712C99.6858 14.2065 99.9459 14.4308 100.157 14.743C100.368 15.0558 100.473 15.4078 100.473 15.7991C100.473 16.5599 100.222 17.1509 99.7215 17.5726C99.2207 17.9943 98.5032 18.2052 97.5696 18.2052H93.978H93.9774ZM97.2311 13.4269C97.5093 13.4269 97.7242 13.3519 97.8748 13.2014C98.0253 13.0509 98.1009 12.8547 98.1009 12.6139C98.1009 12.3802 98.0271 12.1905 97.88 12.0435C97.7336 11.897 97.5169 11.8232 97.2311 11.8232H95.8189V13.4269H97.2305H97.2311ZM97.3324 16.6806C97.6264 16.6806 97.8537 16.5956 98.0159 16.4264C98.1776 16.2565 98.259 16.048 98.259 15.7996C98.259 15.5431 98.1758 15.3311 98.0101 15.1612C97.8443 14.9914 97.6188 14.907 97.3324 14.907H95.8189V16.6806H97.3324V16.6806ZM102.549 18.2052C102.474 18.2052 102.409 18.1771 102.352 18.1208C102.295 18.064 102.267 17.9978 102.267 17.9229V10.5803C102.267 10.4978 102.295 10.4298 102.352 10.3771C102.408 10.3244 102.474 10.298 102.549 10.298H104.097C104.18 10.298 104.249 10.3244 104.306 10.3771C104.363 10.4298 104.391 10.4978 104.391 10.5803V12.9865H105.419C106.413 12.9865 107.177 13.2032 107.712 13.6366C108.247 14.0694 108.514 14.7073 108.514 15.5507C108.514 16.3643 108.242 17.0097 107.7 17.4883C107.158 17.9662 106.397 18.2052 105.419 18.2052H102.549V18.2052ZM109.632 18.2052C109.557 18.2052 109.491 18.1771 109.434 18.1208C109.378 18.064 109.349 17.9978 109.349 17.9229V10.5803C109.349 10.4978 109.378 10.4298 109.434 10.3771C109.491 10.3244 109.557 10.298 109.632 10.298H111.247C111.33 10.298 111.398 10.3244 111.45 10.3771C111.503 10.4298 111.53 10.4978 111.53 10.5803V17.9229C111.53 17.9984 111.503 18.064 111.45 18.1208C111.398 18.1771 111.33 18.2052 111.247 18.2052H109.632V18.2052ZM105.374 16.5786C105.675 16.5786 105.907 16.4849 106.068 16.2963C106.23 16.1083 106.311 15.8629 106.311 15.5618C106.311 15.2456 106.23 15.0066 106.068 14.8449C105.906 14.6827 105.675 14.6019 105.374 14.6019H104.391V16.5786H105.374V16.5786ZM113.934 18.2052C113.851 18.2052 113.783 18.1771 113.731 18.1208C113.678 18.064 113.652 17.9943 113.652 17.9117V10.5921C113.652 10.5089 113.68 10.4398 113.736 10.383C113.793 10.3267 113.862 10.298 113.946 10.298H115.482C115.565 10.298 115.634 10.3267 115.69 10.383C115.747 10.4392 115.775 10.5089 115.775 10.5921V15.0083L118.893 10.513C118.983 10.3695 119.112 10.298 119.277 10.298H120.667C120.749 10.298 120.817 10.3267 120.87 10.383C120.923 10.4392 120.949 10.5089 120.949 10.5921V17.9229C120.949 17.9984 120.923 18.064 120.87 18.1208C120.817 18.1771 120.749 18.2052 120.667 18.2052H119.119C119.036 18.2052 118.967 18.1788 118.91 18.1261C118.853 18.0734 118.825 18.006 118.825 17.9229V13.6764L115.707 17.9914C115.662 18.0593 115.611 18.112 115.555 18.1495C115.498 18.187 115.422 18.2058 115.324 18.2058H113.933L113.934 18.2052ZM117.357 9.83531C116.664 9.83531 116.152 9.6842 115.82 9.38314C115.489 9.08209 115.324 8.68614 115.324 8.19707C115.324 8.13674 115.343 8.08579 115.38 8.04479C115.417 8.00379 115.47 7.9827 115.538 7.9827H116.487C116.555 7.9827 116.608 8.0032 116.645 8.04479C116.683 8.08579 116.701 8.13674 116.701 8.19707C116.701 8.58891 116.92 8.78454 117.357 8.78454C117.786 8.78454 118.001 8.58891 118.001 8.19707C118.001 8.13674 118.019 8.08579 118.057 8.04479C118.095 8.00379 118.148 7.9827 118.215 7.9827H119.164C119.232 7.9827 119.284 8.0032 119.322 8.04479C119.36 8.08579 119.379 8.13674 119.379 8.19707C119.379 8.68673 119.213 9.0815 118.882 9.38314C118.55 9.6842 118.042 9.83531 117.357 9.83531ZM125.882 19.7866C125.799 19.7866 125.731 19.7585 125.679 19.7023C125.626 19.6454 125.6 19.5757 125.6 19.4932V16.6126C125.6 16.53 125.626 16.4603 125.679 16.4035C125.731 16.3473 125.799 16.3192 125.882 16.3192H126.085C126.432 16.3192 126.674 16.0158 126.814 15.4096C126.943 14.8467 127.013 14.0741 127.022 13.0925L127.023 10.5803C127.023 10.4978 127.051 10.4298 127.108 10.3771C127.164 10.3244 127.234 10.298 127.316 10.298H132.705C132.787 10.298 132.857 10.3267 132.913 10.383C132.97 10.4392 132.998 10.5089 132.998 10.5921V16.3192H133.518C133.601 16.3192 133.67 16.3473 133.727 16.4035C133.783 16.4603 133.812 16.53 133.812 16.6126V19.4932C133.812 19.5757 133.783 19.6454 133.727 19.7023C133.671 19.7585 133.601 19.7866 133.518 19.7866H131.982C131.899 19.7866 131.829 19.7585 131.773 19.7023C131.716 19.6454 131.688 19.5757 131.688 19.4932V18.2052H127.723V19.4932C127.723 19.5757 127.695 19.6454 127.638 19.7023C127.582 19.7585 127.512 19.7866 127.429 19.7866H125.882V19.7866ZM130.875 16.3192V12.1846H129.068V13.1335C129.068 14.6247 128.905 15.6866 128.581 16.3192H130.875V16.3192ZM135.809 18.2052C135.734 18.2052 135.669 18.1771 135.612 18.1208C135.555 18.064 135.527 17.9978 135.527 17.9229V10.5921C135.527 10.5089 135.553 10.4398 135.606 10.383C135.659 10.3267 135.727 10.298 135.809 10.298H139.3C140.256 10.298 140.968 10.4942 141.435 10.8855C141.902 11.2773 142.135 11.8344 142.135 12.5571C142.135 12.9191 142.039 13.2313 141.847 13.4949C141.655 13.7584 141.443 13.9505 141.208 14.0712C141.518 14.2065 141.778 14.4308 141.988 14.743C142.199 15.0558 142.305 15.4078 142.305 15.7991C142.305 16.5599 142.054 17.1509 141.553 17.5726C141.052 17.9943 140.335 18.2052 139.401 18.2052H135.809V18.2052ZM139.063 13.4269C139.341 13.4269 139.556 13.3519 139.706 13.2014C139.857 13.0509 139.933 12.8547 139.933 12.6139C139.933 12.3802 139.859 12.1905 139.712 12.0435C139.565 11.897 139.349 11.8232 139.062 11.8232H137.651V13.4269H139.062H139.063ZM139.164 16.6806C139.458 16.6806 139.685 16.5956 139.848 16.4264C140.009 16.2565 140.091 16.048 140.091 15.7996C140.091 15.5431 140.008 15.3311 139.842 15.1612C139.676 14.9914 139.451 14.907 139.164 14.907H137.651V16.6806H139.164V16.6806ZM147.375 18.3182C146.305 18.3182 145.462 18.0587 144.844 17.5392C144.227 17.0191 143.899 16.2547 143.862 15.2456L143.857 15.0663C143.852 14.866 143.85 14.6019 143.85 14.2744L143.853 13.701C143.855 13.578 143.856 13.4708 143.859 13.3789L143.862 13.2916C143.892 12.2977 144.221 11.5315 144.85 10.9927C145.479 10.4544 146.32 10.185 147.375 10.185C148.421 10.185 149.259 10.4544 149.888 10.9933C150.517 11.5315 150.846 12.2977 150.877 13.2916L150.89 13.7368C150.895 13.9142 150.898 14.0648 150.899 14.1878L150.898 14.4619C150.895 14.668 150.888 14.9293 150.877 15.2456C150.839 16.2547 150.514 17.0191 149.899 17.5386C149.285 18.0587 148.444 18.3182 147.375 18.3182V18.3182ZM147.375 16.6237C147.767 16.6237 148.079 16.5054 148.312 16.2682C148.546 16.031 148.67 15.6673 148.685 15.1782L148.703 14.565C148.705 14.4654 148.707 14.3799 148.707 14.3078L148.703 13.9201C148.7 13.7578 148.693 13.5599 148.685 13.3256C148.67 12.8359 148.546 12.4728 148.312 12.2356C148.079 11.9984 147.767 11.8795 147.375 11.8795C146.976 11.8795 146.659 11.9984 146.426 12.2356C146.192 12.4728 146.069 12.8359 146.053 13.325L146.046 13.6026C146.044 13.7432 146.042 13.9072 146.042 14.0952L146.043 14.6581C146.045 14.8684 146.049 15.0417 146.053 15.1782C146.068 15.6673 146.192 16.031 146.426 16.2676C146.659 16.5054 146.976 16.6237 147.375 16.6237V16.6237ZM156.24 10.298C157.219 10.298 157.987 10.5206 158.545 10.9646C159.102 11.4091 159.381 12.0599 159.381 12.9191C159.381 13.7772 159.102 14.4191 158.545 14.8449C157.987 15.2702 157.219 15.4834 156.24 15.4834H154.953V17.9229C154.953 17.9984 154.926 18.064 154.874 18.1208C154.821 18.1771 154.753 18.2052 154.67 18.2052H153.044C152.968 18.2052 152.902 18.1771 152.846 18.1208C152.79 18.064 152.761 17.9978 152.761 17.9229V10.5921C152.761 10.5089 152.787 10.4398 152.84 10.383C152.893 10.3267 152.961 10.298 153.044 10.298H156.24V10.298ZM156.184 11.9246H154.919V13.868H156.184C156.492 13.868 156.736 13.7865 156.912 13.6249C157.089 13.4632 157.178 13.2237 157.178 12.9074C157.178 12.6139 157.097 12.3767 156.935 12.1957C156.773 12.0153 156.523 11.9246 156.184 11.9246V11.9246Z" fill="white"/>
<path d="M62.0337 26.7759H62.7741V31.1079H62.0337V27.9491L60.0353 31.1073H59.2949V26.7753H60.0353V29.9382L62.0337 26.7753V26.7759ZM67.5031 31.1079H66.7622V29.2582H64.7719V31.1079H64.0275V26.7759H64.7719V28.6537H66.7622V26.7759H67.5031V31.1079ZM71.9112 27.3769H70.4575V31.1079H69.7171V27.3769H68.2915V26.7759H71.9112V27.3763V27.3769ZM74.4298 31.1881C73.8423 31.1881 73.3644 30.9948 72.996 30.6094C72.6281 30.224 72.4436 29.708 72.4436 29.062V28.9261C72.4436 28.4962 72.5256 28.1125 72.6896 27.7746C72.8536 27.4372 73.0838 27.173 73.3784 26.9821C73.6736 26.7912 73.9934 26.6957 74.3372 26.6957C74.9007 26.6957 75.3388 26.8814 75.651 27.2521C75.9632 27.6235 76.1196 28.1541 76.1196 28.8458V29.1539H73.1846C73.1951 29.5815 73.3199 29.9265 73.5588 30.1895C73.7978 30.4519 74.1012 30.5837 74.4696 30.5837C74.7314 30.5837 74.9528 30.5304 75.1344 30.4232C75.316 30.3166 75.4741 30.1754 75.6106 29.9991L76.0633 30.3511C75.7002 30.9093 75.1555 31.1887 74.4292 31.1887L74.4298 31.1881ZM74.3372 27.3048C74.0385 27.3048 73.7878 27.4132 73.5846 27.6305C73.3819 27.8484 73.2566 28.1529 73.2086 28.5454H75.3786V28.4897C75.357 28.1131 75.2556 27.822 75.0741 27.6147C74.8925 27.4079 74.6471 27.3042 74.3372 27.3042V27.3048ZM80.6354 28.9899C80.6354 29.6494 80.4849 30.1807 80.1833 30.5831C79.8816 30.9872 79.4734 31.1881 78.9579 31.1881C78.432 31.1881 78.0185 31.0212 77.7168 30.6879V32.7736H76.9759V26.7759H77.653L77.6887 27.2562C77.9903 26.8825 78.4091 26.6957 78.9462 26.6957C79.4663 26.6957 79.8781 26.8919 80.1815 27.2843C80.4843 27.6768 80.6354 28.2226 80.6354 28.922V28.9899ZM79.8951 28.9062C79.8951 28.4177 79.7908 28.0317 79.5829 27.7488C79.3744 27.4659 79.0886 27.3242 78.726 27.3242C78.2773 27.3242 77.9411 27.5233 77.7168 27.921V29.9909C77.9382 30.3863 78.2773 30.5837 78.7336 30.5837C79.0886 30.5837 79.3709 30.4431 79.5806 30.1614C79.7902 29.8796 79.8951 29.4614 79.8951 28.9062V28.9062ZM85.1161 31.1085H84.3752V29.2582H82.3861V31.1079H81.6411V26.7759H82.3861V28.6537H84.3758V26.7759H85.1167V31.1079L85.1161 31.1085ZM88.1033 31.1881C87.5158 31.1881 87.0379 30.9948 86.6695 30.6094C86.301 30.224 86.1171 29.708 86.1171 29.062V28.9261C86.1171 28.4962 86.1991 28.1125 86.3631 27.7746C86.5271 27.4372 86.7567 27.173 87.0519 26.9821C87.3471 26.7912 87.6669 26.6957 88.0107 26.6957C88.5742 26.6957 89.0123 26.8814 89.3239 27.2521C89.6367 27.6235 89.7925 28.1541 89.7925 28.8458V29.1539H86.8581C86.8686 29.5815 86.9928 29.9265 87.2323 30.1895C87.4707 30.4519 87.7747 30.5837 88.1431 30.5837C88.4043 30.5837 88.6263 30.5304 88.8079 30.4232C88.9895 30.3166 89.1476 30.1754 89.2841 29.9991L89.7363 30.3511C89.3731 30.9093 88.829 31.1887 88.1027 31.1887L88.1033 31.1881ZM88.0107 27.3048C87.712 27.3048 87.4608 27.4132 87.2581 27.6305C87.0554 27.8484 86.9301 28.1529 86.8815 28.5454H89.0521V28.4897C89.0305 28.1131 88.9291 27.822 88.7476 27.6147C88.566 27.4079 88.32 27.3042 88.0107 27.3042V27.3048ZM93.8685 27.3763H92.4153V31.1079H91.6744V27.3769H90.2488V26.7759H93.8685V27.3763ZM96.1305 28.9343H94.1771V28.3292H96.1305V28.9343V28.9343ZM99.3461 30.1274L100.819 26.7759H101.745V31.1079H101.004V27.9567L99.602 31.1079H99.0895L97.6604 27.8888V31.1079H96.9195V26.7759H97.88L99.3461 30.1274ZM105.608 31.1079C105.565 31.0229 105.531 30.8707 105.504 30.6516C105.16 31.0089 104.748 31.1881 104.271 31.1881C103.843 31.1881 103.494 31.0675 103.219 30.8256C102.946 30.5842 102.809 30.2779 102.809 29.9072C102.809 29.4562 102.981 29.1053 103.324 28.8558C103.667 28.6063 104.15 28.4815 104.771 28.4815H105.491V28.1412C105.491 27.8823 105.415 27.6762 105.259 27.5227C105.105 27.3693 104.876 27.2925 104.575 27.2925C104.311 27.2925 104.089 27.3593 103.911 27.4928C103.731 27.6258 103.642 27.7875 103.642 27.9772H102.897C102.897 27.7605 102.974 27.552 103.127 27.3505C103.281 27.149 103.489 26.9897 103.752 26.872C104.015 26.7548 104.304 26.6963 104.619 26.6963C105.118 26.6963 105.51 26.8204 105.792 27.07C106.075 27.3195 106.222 27.6633 106.233 28.1008V30.0952C106.233 30.4929 106.283 30.8092 106.385 31.044V31.1085H105.608V31.1079ZM104.379 30.5438C104.611 30.5438 104.831 30.4835 105.039 30.3634C105.248 30.2434 105.398 30.087 105.492 29.8949V29.0063H104.912C104.004 29.0063 103.55 29.2717 103.55 29.8029C103.55 30.0348 103.628 30.2164 103.782 30.3476C103.937 30.4782 104.136 30.5438 104.379 30.5438ZM110.192 27.3886H108.195V31.1079H107.45V26.7759H110.192V27.3886ZM113.507 31.1079C113.465 31.0229 113.43 30.8707 113.404 30.6516C113.059 31.0089 112.648 31.1881 112.17 31.1881C111.743 31.1881 111.393 31.0675 111.12 30.8256C110.846 30.5842 110.71 30.2779 110.71 29.9072C110.71 29.4562 110.881 29.1053 111.224 28.8558C111.566 28.6063 112.049 28.4815 112.67 28.4815H113.392V28.1412C113.392 27.8823 113.314 27.6762 113.16 27.5227C113.004 27.3693 112.777 27.2925 112.474 27.2925C112.211 27.2925 111.989 27.3593 111.81 27.4928C111.631 27.6258 111.542 27.7875 111.542 27.9772H110.797C110.797 27.7605 110.874 27.552 111.028 27.3505C111.181 27.149 111.389 26.9897 111.652 26.872C111.915 26.7548 112.204 26.6963 112.519 26.6963C113.018 26.6963 113.409 26.8204 113.692 27.07C113.975 27.3195 114.122 27.6633 114.132 28.1008V30.0952C114.132 30.4929 114.183 30.8092 114.285 31.044V31.1085H113.507V31.1079ZM112.279 30.5438C112.511 30.5438 112.731 30.4835 112.939 30.3634C113.147 30.2434 113.298 30.087 113.392 29.8949V29.0063H112.811C111.903 29.0063 111.45 29.2717 111.45 29.8029C111.45 30.0348 111.527 30.2164 111.682 30.3476C111.837 30.4782 112.036 30.5438 112.279 30.5438V30.5438ZM117.676 27.9608C117.676 27.7582 117.598 27.5977 117.443 27.4788C117.289 27.3599 117.077 27.3001 116.807 27.3001C116.546 27.3001 116.327 27.3687 116.153 27.5051C115.977 27.6404 115.89 27.8009 115.89 27.9854H115.153C115.153 27.6088 115.311 27.3001 115.626 27.06C115.941 26.8199 116.335 26.6998 116.807 26.6998C117.314 26.6998 117.709 26.8087 117.992 27.026C118.275 27.2439 118.416 27.5538 118.416 27.9573C118.416 28.1518 118.358 28.331 118.241 28.4938C118.123 28.6567 117.956 28.7861 117.74 28.8822C118.244 29.0526 118.497 29.3894 118.497 29.8908C118.497 30.289 118.343 30.6036 118.036 30.8361C117.729 31.068 117.319 31.184 116.807 31.184C116.308 31.184 115.896 31.0622 115.572 30.8179C115.248 30.5737 115.085 30.2434 115.085 29.8269H115.822C115.822 30.0378 115.916 30.2188 116.105 30.3693C116.292 30.5204 116.526 30.5954 116.807 30.5954C117.09 30.5954 117.318 30.5304 117.492 30.3992C117.665 30.2685 117.752 30.0993 117.752 29.8908C117.752 29.6483 117.679 29.4737 117.534 29.3683C117.388 29.2629 117.162 29.2102 116.855 29.2102H116.114V28.5858H116.919C117.424 28.5723 117.676 28.3644 117.676 27.9608V27.9608ZM122.26 26.7759H123.001V31.1079H122.26V27.9491L120.263 31.1079H119.522V26.7759H120.263V29.9388L122.26 26.7759H122.26ZM127.73 31.1079H126.989V29.2582H124.999V31.1079H124.254V26.7759H124.999V28.6537H126.989V26.7759H127.73V31.1079ZM130.913 30.5034L131.169 30.1871C131.457 29.8134 131.621 29.2529 131.661 28.5061L131.73 26.7759H134.52V30.5034H135.076V32.3812H134.336V31.1079H131.313V32.3812H130.572L130.576 30.5034H130.913V30.5034ZM131.789 30.5034H133.78V27.4606H132.446L132.402 28.4938C132.357 29.356 132.153 30.0255 131.789 30.5034V30.5034ZM135.966 31.1079V26.7759H137.655C138.232 26.7759 138.674 26.8767 138.983 27.0782C139.291 27.2796 139.445 27.5754 139.445 27.9649C139.445 28.1652 139.385 28.3456 139.265 28.5073C139.145 28.669 138.967 28.7925 138.732 28.8781C138.994 28.9396 139.204 29.0596 139.363 29.2383C139.522 29.4169 139.601 29.6307 139.601 29.879C139.601 30.2767 139.455 30.5807 139.163 30.7916C138.87 31.0024 138.457 31.1079 137.924 31.1079H135.966V31.1079ZM136.706 29.2061V30.5116H137.932C138.241 30.5116 138.473 30.4542 138.626 30.3394C138.78 30.2246 138.857 30.063 138.857 29.855C138.857 29.4222 138.539 29.2061 137.904 29.2061H136.706V29.2061ZM136.706 28.6139H137.664C138.358 28.6139 138.704 28.4107 138.704 28.0048C138.704 27.5994 138.376 27.3898 137.719 27.3763H136.706V28.6139H136.706ZM142.38 31.1881C141.793 31.1881 141.315 30.9948 140.946 30.6094C140.578 30.224 140.394 29.708 140.394 29.062V28.9261C140.394 28.4962 140.476 28.1125 140.64 27.7746C140.804 27.4372 141.034 27.173 141.329 26.9821C141.624 26.7912 141.944 26.6957 142.288 26.6957C142.851 26.6957 143.289 26.8814 143.601 27.2521C143.914 27.6235 144.069 28.1541 144.069 28.8458V29.1539H141.135C141.146 29.5815 141.27 29.9265 141.509 30.1895C141.748 30.4519 142.052 30.5837 142.42 30.5837C142.681 30.5837 142.903 30.5304 143.085 30.4232C143.266 30.3166 143.425 30.1754 143.561 29.9991L144.013 30.3511C143.65 30.9093 143.106 31.1887 142.38 31.1887V31.1881ZM142.288 27.3048C141.989 27.3048 141.738 27.4132 141.535 27.6305C141.332 27.8484 141.207 28.1529 141.158 28.5454H143.329V28.4897C143.307 28.1131 143.206 27.822 143.025 27.6147C142.843 27.4079 142.597 27.3042 142.288 27.3042V27.3048ZM148.586 28.9899C148.586 29.6494 148.435 30.1807 148.134 30.5831C147.832 30.9872 147.423 31.1881 146.908 31.1881C146.382 31.1881 145.969 31.0212 145.667 30.6879V32.7736H144.926V26.7759H145.603L145.639 27.2562C145.941 26.8825 146.36 26.6957 146.896 26.6957C147.417 26.6957 147.829 26.8919 148.132 27.2843C148.434 27.6768 148.586 28.2226 148.586 28.922V28.9899ZM147.845 28.9062C147.845 28.4177 147.741 28.0317 147.533 27.7488C147.325 27.4659 147.039 27.3242 146.676 27.3242C146.228 27.3242 145.891 27.5233 145.667 27.921V29.9909C145.889 30.3863 146.228 30.5837 146.684 30.5837C147.039 30.5837 147.321 30.4431 147.531 30.1614C147.741 29.8796 147.845 29.4614 147.845 28.9062ZM151.324 31.1881C150.737 31.1881 150.26 30.9948 149.891 30.6094C149.522 30.224 149.339 29.708 149.339 29.062V28.9261C149.339 28.4962 149.421 28.1125 149.585 27.7746C149.749 27.4372 149.979 27.173 150.273 26.9821C150.569 26.7912 150.888 26.6957 151.233 26.6957C151.796 26.6957 152.234 26.8814 152.546 27.2521C152.858 27.6235 153.014 28.1541 153.014 28.8458V29.1539H150.079C150.09 29.5815 150.215 29.9265 150.454 30.1895C150.693 30.4519 150.996 30.5837 151.365 30.5837C151.626 30.5837 151.848 30.5304 152.029 30.4232C152.211 30.3166 152.37 30.1754 152.506 29.9991L152.958 30.3511C152.595 30.9093 152.05 31.1887 151.324 31.1887V31.1881ZM151.233 27.3048C150.934 27.3048 150.682 27.4132 150.48 27.6305C150.277 27.8484 150.152 28.1529 150.103 28.5454H152.274V28.4897C152.252 28.1131 152.151 27.822 151.969 27.6147C151.787 27.4079 151.542 27.3042 151.233 27.3042V27.3048ZM156.674 26.7759H157.414V31.1079H156.674V27.9491L154.676 31.1079H153.935V26.7759H154.676V29.9388L156.673 26.7759H156.674ZM156.874 25.1986C156.874 25.5213 156.764 25.7808 156.544 25.9776C156.324 26.1732 156.034 26.2716 155.677 26.2716C155.319 26.2716 155.029 26.1726 154.808 25.9753C154.587 25.7779 154.476 25.5184 154.476 25.1986H155.08C155.08 25.3854 155.131 25.5313 155.233 25.6367C155.334 25.7421 155.482 25.7949 155.677 25.7949C155.864 25.7949 156.01 25.7427 156.115 25.6391C156.221 25.5348 156.273 25.3878 156.273 25.1986H156.874Z" fill="white"/>
<path fill-rule="evenodd" clip-rule="evenodd" d="M13.5681 5.2521V10.0667L0 2.26144L4.81457 0L13.5681 5.2521Z" fill="white"/>
<path fill-rule="evenodd" clip-rule="evenodd" d="M27.137 35.4515V30.4185L40.7051 38.4428L35.8905 40.7036L27.137 35.4515Z" fill="white"/>
<path fill-rule="evenodd" clip-rule="evenodd" d="M17.9445 30.9573L22.7591 33.2633L4.81457 40.7036L0 38.2518L17.9445 30.9573ZM35.8891 0L40.7036 2.26144L22.7591 9.74629L17.9445 7.44033L35.8891 0Z" fill="white"/>
<path fill-rule="evenodd" clip-rule="evenodd" d="M4.81457 0L0 2.26144V38.4422L4.81457 40.7036V0ZM32.2986 18.8202C33.0952 18.8202 33.7418 19.4662 33.7418 20.2628C33.7418 21.0594 33.0952 21.706 32.2986 21.706C31.5021 21.706 30.856 21.0588 30.856 20.2628C30.856 19.4662 31.5026 18.8202 32.2986 18.8202ZM35.8891 0L40.7036 2.26144V38.4422L35.8891 40.7036V0ZM17.9445 7.44033L22.7591 9.74629V33.2633L17.9445 30.9573V7.44033Z" fill="white"/>
</g>
<defs>
<clipPath id="clip0">
<rect width="159.9" height="41" fill="white"/>
</clipPath>
</defs>
</svg>
