<svg width="201" height="44" viewBox="0 0 201 44" fill="none" xmlns="http://www.w3.org/2000/svg">
<path fill-rule="evenodd" clip-rule="evenodd" d="M126.99 13.5833V12.6838L126.8 12.5419V12.3228L125.777 11.8275L122.445 10.2091L122.602 9.80794L122.625 9.74777H122.297L122.255 9.58731L121.985 8.57982H121.576V8.06914H121.817L122.044 7.76211L122.284 7.43657V7.22674H121.368V6.03874C121.805 6.1776 122.32 6.36428 122.989 6.36428C123.321 6.36428 124.231 6.18068 124.447 6.1344L123.903 5.67617L124.477 4.98034C124.279 5.02492 124.08 5.06606 123.881 5.10377C123.554 5.16703 123.178 5.2272 122.989 5.21485C122.539 5.184 122.084 4.91708 121.369 4.7952H121.087V7.22674H120.181V7.45045L120.683 8.06914H120.893V8.57828H120.482L120.384 8.96091L120.18 9.74777H119.853L119.876 9.80948L120.024 10.2029L118.054 11.2382H116.513V12.5373H113.846L114.087 11.6964V11.3863L114.309 11.087C113.273 11.0129 112.235 10.9774 111.196 10.9805C109.986 10.9805 108.871 11.0237 107.976 11.0947L108.178 11.3693V11.6933L108.181 11.6964L108.43 12.5681L106.675 13.7283H106.666L106.675 15.2542L107.134 16.0071L107.325 16.3188V36.7725H114.194V23.6597L114.802 22.6507H114.803L114.806 22.643L115.454 21.5676H115.457V20.3333L116.55 18.6886L117.221 19.3783L117.895 18.684L118.569 19.3783L119.243 18.684L119.918 19.3783L120.553 18.7226L121.622 20.3349V21.5676L122.818 23.581V36.9237C128.666 36.9237 129.252 36.9237 129.252 33.4615V19.801C129.252 16.5996 128.624 14.6479 126.99 13.5833" fill="white"/>
<path fill-rule="evenodd" clip-rule="evenodd" d="M107.496 10.0239L107.501 10.0286C108.728 9.91824 109.96 9.86675 111.193 9.87429C112.57 9.87429 113.826 9.92829 114.777 10.0193V8.42091H114.008L112.003 4.51286V4.38017L112.143 4.23823V4.07314H111.899V3.75686H111.379V1.92857C111.513 1.96714 112.538 2.25566 112.896 2.25566C114.507 2.25566 115.321 1.64777 116.133 1.59223C116.611 1.56137 117.986 1.86994 118.189 1.91931L117.395 0.953486L118.151 0.317829C117.847 0.256114 116.588 0 116.131 0C114.646 0 113.703 0.663429 112.893 0.663429C112.538 0.663429 111.512 0.373371 111.378 0.3348V0.310114H110.892V3.75686H110.369V4.06851H110.116V4.2336L110.253 4.37554V4.50823L108.247 8.41629H107.48V10.0209H107.499L107.496 10.0239Z" fill="white"/>
<path fill-rule="evenodd" clip-rule="evenodd" d="M167.796 30.5856C167.452 30.9681 167.043 31.2819 166.59 31.5113C166.492 31.5638 166.394 31.6039 166.296 31.6455C165.89 31.8132 165.462 31.9172 165.027 31.9541C164.574 31.9904 164.119 31.9503 163.678 31.8353L163.669 31.8322C163.169 31.7053 162.703 31.4671 162.308 31.1353C161.913 30.8035 161.597 30.3867 161.386 29.916C161.125 29.3407 161.023 28.702 161.092 28.0707C161.194 27.1018 161.691 26.21 162.496 25.724L162.512 25.7179C162.918 25.4796 163.379 25.349 163.849 25.3383C163.908 25.3383 163.968 25.3414 164.025 25.3491C164.416 25.397 164.828 25.6083 165.031 25.67C165.249 25.1069 164.846 24.6703 164.158 24.5407C164.002 24.5106 163.843 24.4956 163.684 24.4959V24.4944H163.681C163.529 24.4996 163.378 24.514 163.228 24.5376C163.139 24.5504 163.05 24.5669 162.962 24.587C162.524 24.6224 161.972 24.6286 161.518 24.5098C161.384 24.4763 161.253 24.4255 161.131 24.3586C160.869 24.209 160.802 23.9266 160.879 23.6057C160.986 23.166 161.361 22.6568 161.889 22.3174C162.544 21.9903 163.117 21.9332 163.117 21.9332C163.445 21.9147 163.777 21.9147 164.121 21.9456C164.769 22.0073 165.386 22.1924 165.954 22.4702C165.968 22.481 165.983 22.4856 165.997 22.4933C166.683 22.8372 167.288 23.3303 167.772 23.9387C168.256 24.5472 168.608 25.2567 168.802 26.0187C169.212 27.6511 168.864 29.3976 167.796 30.5856V30.5856ZM166.968 17.2491C164.277 17.2491 162.08 18.4988 160.602 20.6851V17.4435L155.72 17.1797C155.591 17.1689 155.461 17.1637 155.331 17.1643C155.297 17.1643 155.265 17.1674 155.231 17.1689C155.137 17.1709 155.044 17.1761 154.95 17.1843L154.813 17.2013C154.732 17.2107 154.652 17.2225 154.572 17.2368L154.424 17.2692C154.221 17.3147 154.021 17.3766 153.827 17.4543C153.781 17.4728 153.73 17.4914 153.682 17.513C153.607 17.5463 153.534 17.5823 153.461 17.621C153.415 17.641 153.37 17.6642 153.327 17.6904C153.249 17.7336 153.173 17.783 153.096 17.8323L152.983 17.9033C152.8 18.0264 152.63 18.168 152.474 18.326C152.263 18.5347 152.078 18.77 151.923 19.0265C151.064 20.4536 151.197 22.427 152.531 23.581C152.594 23.635 152.659 23.6844 152.725 23.7307L152.8 23.7785C152.844 23.8063 152.887 23.8356 152.932 23.8603L153.023 23.9066C153.065 23.9282 153.107 23.9498 153.15 23.9683L153.247 24.0068C153.29 24.0223 153.332 24.0408 153.373 24.0531L153.475 24.084C153.519 24.0994 153.56 24.1102 153.603 24.1195C153.794 24.1668 153.989 24.1921 154.185 24.1951L154.262 24.1982L154.313 24.1951C154.441 24.1918 154.569 24.181 154.696 24.1627L154.811 24.1457L154.943 24.1148L155.055 24.0886L155.182 24.0485C155.219 24.0362 155.256 24.0254 155.291 24.0099C155.334 23.994 155.376 23.9765 155.418 23.9575C155.452 23.9436 155.484 23.9312 155.518 23.9143C155.561 23.8927 155.603 23.8711 155.645 23.8464C155.675 23.8317 155.705 23.8157 155.734 23.7986C155.78 23.7708 155.824 23.7384 155.867 23.7091L155.936 23.6628C156.002 23.6149 156.065 23.5634 156.124 23.5085L156.141 23.4931C156.222 23.419 156.293 23.3388 156.36 23.257L156.418 23.1876C156.465 23.1222 156.509 23.0542 156.549 22.9839C156.576 22.9376 156.606 22.8898 156.629 22.8389C156.651 22.7972 156.666 22.751 156.683 22.7078C156.806 22.3976 156.87 22.0443 156.834 21.6478C156.76 20.7267 156.097 19.8612 155.172 19.7732C155.121 19.7678 155.07 19.7653 155.018 19.7655H155C154.925 19.7667 154.851 19.7734 154.777 19.7856C154.715 19.7946 154.653 19.807 154.592 19.8226C154.583 19.8411 154.424 19.8674 154.332 19.997C154.276 20.0787 154.244 20.1975 154.295 20.3827C154.353 20.3524 154.414 20.3266 154.477 20.3055L154.523 20.2916C154.635 20.2581 154.752 20.242 154.869 20.2438L154.921 20.2454L154.972 20.2484C155.039 20.2528 155.106 20.2627 155.172 20.2778C155.389 20.3299 155.591 20.434 155.762 20.5817L155.799 20.6187C155.85 20.6679 155.897 20.721 155.939 20.7776C156.291 21.2822 156.317 21.944 156.052 22.4686C155.93 22.7071 155.752 22.9095 155.533 23.0564L155.479 23.0904C155.394 23.1459 155.304 23.1944 155.211 23.2354L155.14 23.2647C155.107 23.2774 155.075 23.2892 155.041 23.3002L154.967 23.3218C154.933 23.3316 154.899 23.3404 154.864 23.348L154.793 23.3635C154.756 23.3698 154.718 23.375 154.68 23.3789L154.617 23.3882C154.492 23.375 154.366 23.374 154.241 23.3851L154.188 23.3774C154.154 23.3725 154.119 23.3668 154.085 23.3604L154.043 23.3527L153.974 23.3357C153.932 23.3248 153.891 23.313 153.85 23.3002L153.776 23.2724C153.712 23.2477 153.648 23.2199 153.586 23.1891C153.55 23.1702 153.514 23.1501 153.478 23.129L153.409 23.0858C153.374 23.0624 153.339 23.0377 153.306 23.0117L153.241 22.9623C153.204 22.9316 153.169 22.8997 153.134 22.8667L153.083 22.8173C153.033 22.7657 152.986 22.7111 152.941 22.6538C152.653 22.2768 152.478 21.8208 152.437 21.3419C152.395 20.863 152.491 20.3821 152.71 19.9584L152.713 19.9538C152.773 19.8411 152.84 19.7378 152.917 19.6359C153.318 19.224 153.821 19.0666 154.29 19.0265C155.031 18.9632 155.683 19.1962 155.683 19.1962C156.649 19.4986 157.394 20.4536 157.488 21.5876C157.488 21.5876 158.295 26.3859 154.085 26.9429V43.2H160.603V35.279C161.776 36.5657 163.445 37.1504 165.453 37.1504C170.606 37.1504 174.015 32.1963 174.015 26.3813C174.015 21.0754 171.894 17.2507 166.969 17.2507" fill="white"/>
<path fill-rule="evenodd" clip-rule="evenodd" d="M165.018 25.8629C164.756 26.6266 164.987 27.4335 165.635 28.5922L166.684 30.3048C167.207 29.7355 167.502 28.9702 167.403 28.1078C167.249 26.8226 166.187 25.8197 165.018 25.8629V25.8629ZM162.594 27.0741C162.485 27.3521 162.437 27.6521 162.455 27.9518C162.473 28.2515 162.556 28.5431 162.697 28.8051L163.777 27.7776C164.462 27.071 164.78 26.5341 164.734 25.9308C163.901 25.667 162.946 26.1777 162.593 27.0741" fill="white"/>
<path fill-rule="evenodd" clip-rule="evenodd" d="M92.1764 20.1081V21.5121H90.5795V19.4554L91.3787 18.2875L92.1764 19.4554V20.1081ZM80.5834 20.6403H78.6656V18.3554C78.6656 17.8092 79.0945 17.1087 79.6252 17.1087C80.1544 17.1087 80.5834 17.8092 80.5834 18.3554V20.6403ZM78.8415 13.4151H79.346V12.1053H78.8415V13.4151ZM79.8798 13.4151H80.3859V12.1053H79.8798V13.4151ZM88.7852 27.1821V36.9283C94.0926 36.9283 94.8733 36.9283 94.8733 33.4121V22.265L94.8964 22.2465V20.6619H93.295V19.4431H93.9846L93.9599 19.4076H93.9846C93.9846 19.4076 93.0126 18.1641 92.8506 17.3479C92.8356 17.2785 92.8274 17.2076 92.8259 17.1365V15.12H92.2875V15.9439H90.3589V15.12H89.8189V17.1057C89.8078 17.305 89.7569 17.5002 89.6692 17.6796C89.5494 17.9394 89.4068 18.1872 89.2434 18.4202C88.8747 18.9602 88.4674 19.4076 88.4674 19.4076H89.0243L88.9935 19.4415H89.157V20.6604H87.1714V22.1647H85.7103V23.669H84.2492V25.1733L82.7896 27.3441V20.6403H82.3916V19.4493H82.3978V19.4184H83.4778L81.3949 14.1835V14.1758H80.9197V12.1053H81.3826C81.3826 10.5701 80.8935 8.1432 80.0372 7.51835V5.71938H79.1932V7.56772C78.4835 8.26355 78.0716 10.6118 78.0716 12.1053H78.3107V14.1758H77.8355L75.748 19.4184H76.8265V19.4153H76.8342V20.6403H76.3852V21.6895L76.3914 21.6972V23.6289L76.3868 23.6258V35.9733C78.1703 36.8141 80.21 37.1181 82.1015 37.2723L88.7852 27.1821Z" fill="white"/>
<path fill-rule="evenodd" clip-rule="evenodd" d="M191.46 27.2314C191.681 27.2314 192.053 27.2052 192.4 27.1851C192.764 27.1682 193.096 27.1573 193.168 27.1944C193.276 27.2622 193.363 27.3589 193.418 27.4735C193.473 27.588 193.495 27.7159 193.482 27.8424C193.473 27.9347 193.47 28.0274 193.471 28.1201C193.466 28.5413 193.48 29.1692 193.343 29.1692C193.168 29.1692 192.96 29.3112 192.996 29.5627C193.03 29.8141 192.786 29.6707 192.786 29.6707C192.786 29.6707 192.439 29.1754 192.104 28.6771L191.481 27.6464C191.403 27.3888 191.46 27.2299 191.46 27.2299V27.2314ZM190.023 16.0796C189.991 16.0945 189.959 16.1058 189.925 16.1136C190.073 16.3034 189.654 16.3635 189.154 16.4468C188.989 16.4746 188.791 16.8156 188.58 16.8943C188.551 16.9062 188.521 16.9117 188.49 16.9104C188.459 16.909 188.429 16.9009 188.401 16.8865C188.238 16.8046 188.112 16.6641 188.048 16.4931C188.048 16.4931 188.025 16.5564 188.006 16.6428C187.985 16.7274 187.979 16.815 187.986 16.902L187.966 16.8757C187.954 17.118 188.068 17.1349 188.086 17.1627C188.102 17.1859 187.842 17.047 187.642 16.9359C187.565 16.8944 187.488 16.8517 187.412 16.8079L187.582 17.0023L187.878 17.3386C187.878 17.3386 187.625 17.3602 187.264 17.3494C186.969 17.3427 186.674 17.3139 186.383 17.263C185.895 17.1735 186.423 17.5253 186.861 17.7907C187.108 17.9372 187.327 18.0576 187.327 18.0576C187.327 18.0576 186.63 17.857 186.371 17.9064C186.46 17.945 186.815 18.2551 186.815 18.2551C186.815 18.2551 185.713 18.1748 185.578 18.1748C185.439 18.1748 186.479 18.5575 186.597 18.5791C186.713 18.5976 186.107 18.8012 185.38 18.559C184.655 18.3152 185.497 19.4893 185.576 19.5896C185.655 19.6915 186.008 20.4182 184.751 20.0942C184.751 20.0942 183.813 18.1347 183.82 17.9758C184.379 17.1458 186.381 14.094 187.034 13.9551C187.989 13.7515 189.223 13.4722 189.223 13.4722C189.223 13.4722 189.611 13.7191 190.291 13.7869L190.023 16.0796V16.0796ZM182.27 14.1325C182.208 14.1356 182.168 14.1881 182.135 14.2668C182.038 14.4967 182.015 14.9503 181.724 14.9564C181.484 14.9642 181.299 14.5723 181.108 14.2884C180.988 14.1094 180.866 13.9706 180.728 14.0076C180.586 14.0431 180.458 13.8209 180.355 13.5401C180.244 13.2147 180.158 12.881 180.097 12.5419C180.097 12.5419 180.142 11.576 180.688 11.5421C181.234 11.5066 181.042 11.5421 181.042 11.5421L181.284 12.2487L181.614 12.2441L181.625 11.5267C181.625 11.5267 182.095 11.6069 182.193 12.0358C182.256 12.3089 182.372 13.085 182.379 13.6142C182.384 13.9104 182.358 14.1279 182.27 14.1325V14.1325ZM178.783 12.4493L177.798 11.9911L177.86 12.9908L177.192 12.1916L176.93 11.4588L176.606 10.5547L175.853 8.45946C176.378 9.09821 176.985 9.76935 177.542 10.3896L178.016 10.9219L178.019 10.9265C178.175 11.1008 178.322 11.2706 178.456 11.4295C178.869 11.917 179.176 12.3181 179.263 12.5712C179.344 12.8573 179.369 13.1565 179.337 13.4521L178.783 12.4493ZM200.486 21.131C200.286 20.7761 200.133 20.881 199.65 20.054C199.506 19.7856 199.383 19.506 199.284 19.2178C199.053 18.596 198.806 17.8709 198.359 17.2908C198.076 16.9288 197.829 16.5386 197.621 16.1259C197.476 15.8374 197.399 15.6168 197.346 15.4779C197.243 15.1909 197.45 14.8608 197.38 14.4288C197.309 13.9968 197.137 13.861 196.862 13.8826C196.749 14.06 196.723 14.4195 196.723 14.4195C196.723 14.4195 196.484 14.1079 196.132 13.844C195.777 13.5771 195.972 14.0785 195.808 14.3609C195.775 14.42 195.746 14.4819 195.722 14.546C195.628 14.7944 195.663 14.9456 195.663 14.9456C195.663 14.9456 195.062 14.617 194.643 14.8623C194.19 15.1277 193.818 14.9456 193.591 14.7605C193.38 14.8284 193.704 15.211 193.704 15.211C193.704 15.211 193.158 15.2264 192.878 15.0444C192.652 15.0783 192.831 15.3622 192.831 15.3622C192.831 15.3622 192.269 15.643 191.781 15.5381C191.751 15.734 191.244 15.8019 191.74 15.8575C191.673 16.0889 191.366 16.1198 191.035 16.0735C190.97 16.0603 190.906 16.0475 190.842 16.0349V16.038L190.948 16.058L190.499 15.984L190.754 13.8008C190.862 13.7966 190.969 13.7889 191.076 13.7777C192.237 13.6419 191.403 12.1531 191.403 12.1531C191.403 12.1531 191.231 12.1407 190.95 12.1268L191.078 11.0314C191.309 11.0006 191.479 10.8972 191.494 10.7537C191.504 10.6226 191.38 10.4976 191.186 10.422C191.467 10.2276 191.838 9.89432 191.877 9.47775C191.942 8.80661 191.244 6.76695 191.244 6.76695C191.244 6.76695 190.183 8.63226 190.121 9.30341C190.081 9.71998 190.387 10.1211 190.623 10.3649C190.421 10.4019 190.274 10.5022 190.262 10.6318C190.246 10.7738 190.396 10.9111 190.617 10.9867L190.487 12.1037C189.27 12.0574 187.179 12.0358 186.383 12.386C185.468 12.7903 183.711 13.1528 183.021 13.2855L182.842 12.7378C182.677 12.224 182.459 11.5082 182.395 11.107C182.384 11.0449 182.377 10.9819 182.376 10.9188C182.369 10.6658 182.289 10.4203 182.145 10.2122L182.125 10.1859C182.013 10.0222 181.881 9.87439 181.733 9.74621C181.625 9.63159 181.539 9.49892 181.478 9.35432C181.293 8.96861 181.143 7.87626 181.143 7.87626C181.143 7.87626 181.014 8.98404 180.796 9.35432C180.731 9.48092 180.637 9.58979 180.523 9.67215C180.327 9.79712 180.133 10.0347 179.989 10.2353C179.968 10.2615 179.952 10.2878 179.934 10.3124L179.931 10.3186C179.873 10.403 179.818 10.4895 179.766 10.5778L179.695 11.198L179.608 11.9294C179.464 11.7015 179.311 11.4802 179.148 11.2659C178.981 11.0425 178.809 10.8229 178.632 10.6071L178.627 10.604C178.547 10.504 178.467 10.4047 178.385 10.3063C177.192 8.88221 175.754 7.39644 175.645 7.06626C175.456 6.49695 175.805 5.37221 175.805 5.37221C175.805 5.37221 173.931 5.80575 175.169 7.57232L175.277 7.71735L176.324 10.6334L176.408 10.8679L176.813 12.0019L176.862 12.5727L176.896 13.4583L176.097 12.8921L176.297 13.9875L175.345 13.5802L175.558 14.5769C175.558 14.5769 176.296 15.4671 176.493 15.714C176.069 16.254 175.679 16.5595 175.853 16.9946C176.003 17.3695 177.134 18.6577 176.967 19.7717V36.774H183.59V29.8481H185.541L187.032 33.0788C188.407 36.0303 189.288 37.0147 192.041 37.0147C193.762 37.0147 195.325 36.649 196.143 35.7387C196.172 35.8529 196.27 36.0087 196.584 35.9856C197.07 35.9485 197.769 35.8776 198.047 35.7341C198.326 35.5921 197.874 35.2311 197.698 35.1601C197.519 35.0713 197.381 34.9164 197.314 34.7282C197.254 34.5739 196.935 34.3918 196.736 34.3239C196.709 34.314 196.681 34.3058 196.654 34.2992C196.479 34.2622 194.633 32.5049 194.318 32.1084C194.22 31.9839 194.127 31.8552 194.04 31.7227C193.878 31.4804 193.728 31.232 193.648 31.0993C193.793 30.9188 193.9 30.7568 193.937 30.6396C193.947 30.6075 193.955 30.5751 193.963 30.5424C194.102 30.4621 194.187 30.3326 194.227 30.1011C194.252 29.9623 194.259 29.7895 194.248 29.5611C194.24 29.3266 194.243 29.0917 194.259 28.8576C194.295 28.2775 194.384 27.6742 194.458 27.3734C194.563 26.9429 194.179 26.298 193.725 25.866C193.383 25.5404 192.439 25.5034 191.882 25.488C191.734 25.4834 191.612 25.4818 191.538 25.4756L191.498 25.4726C191.226 25.4386 191.251 25.1023 191.189 25.1794C191.509 24.6774 191.676 24.0931 191.67 23.4977C191.635 22.4948 191.914 21.9919 192.158 21.7419L192.246 21.6432C192.561 21.2806 193.275 20.3564 193.622 20.162C194.005 19.946 194.318 19.5511 194.457 19.4801C194.597 19.4076 194.807 19.6236 194.91 19.6236C194.969 19.6236 195.055 19.784 195.231 19.9939C195.378 20.1682 195.586 20.3765 195.887 20.557C196.549 20.9504 197.839 21.6679 198.013 21.9564C198.186 22.2434 198.183 22.9469 198.43 22.9963C198.951 23.0981 199.44 23.1043 199.753 22.7448C200.068 22.3853 200.085 22.0243 200.295 21.8823C200.503 21.7373 200.684 21.4812 200.486 21.131V21.131Z" fill="white"/>
<path fill-rule="evenodd" clip-rule="evenodd" d="M24.5484 13.8271C24.4761 14.0734 24.428 14.3267 24.4049 14.5831L24.4018 14.58C24.3853 14.7441 24.3915 14.9099 24.4203 15.0722L24.4234 15.0891C24.479 15.3746 24.6039 15.5751 24.7706 15.5875C24.7752 15.5906 24.7767 15.5875 24.7814 15.5875L24.7829 15.5906L24.786 15.5875C25.0251 15.5906 25.2489 15.1941 25.2874 14.6895C25.3152 14.3316 25.2411 14.0169 25.1115 13.8487C25.5559 13.9567 25.7657 14.2977 25.8321 14.7358C25.9293 15.3453 25.5914 15.9223 24.9033 16.0395C24.2151 16.1522 23.7723 15.6708 23.6767 15.0583C23.5779 14.4504 23.8618 13.9428 24.5484 13.8271ZM23.6489 31.3478C22.5689 31.3478 21.5877 31.2105 20.7113 30.9466C19.4045 30.5501 18.3384 29.862 17.5469 28.9039C16.5009 27.6418 15.9362 25.9077 15.9362 23.7492C15.9362 23.3434 15.9578 22.9546 16.0041 22.5828C16.0766 21.9595 16.2077 21.3871 16.3959 20.8671C16.529 20.4882 16.6991 20.1242 16.9035 19.781C17.4037 18.9115 18.0549 18.1452 18.8244 17.5207C19.4307 16.993 20.0417 16.4407 20.0417 15.4594C20.3904 15.4594 20.7946 16.3018 19.8334 17.405C19.7866 17.4573 19.7442 17.5136 19.7069 17.5731C19.44 17.9943 19.4755 18.4742 19.7995 18.809C19.7995 18.809 19.8566 17.5176 21.0122 17.4312C21.0433 17.4361 21.0741 17.4423 21.1047 17.4497C21.0014 17.5608 20.6141 18.0051 20.8486 18.2489C20.8486 18.2489 21.276 17.4698 22.0551 17.8447C22.8358 18.2196 23.237 19.457 23.237 20.6866V21.4581C23.5116 21.4611 23.9235 21.4658 24.3478 21.4673H24.3494C24.3494 21.4673 24.4157 21.4719 24.5222 21.4673C24.9387 21.4565 26.0033 21.3223 26.4322 20.3796C26.4322 20.3796 26.5433 20.1374 26.5279 20.034L26.3844 19.9476C26.3844 19.9476 24.9094 19.4539 24.4065 17.7799C24.4065 17.7799 24.803 18.2211 26.0311 18.0854C27.2623 17.9496 27.648 17.9357 27.9535 18.1656C28.2559 18.3939 28.6462 18.2088 28.8468 17.9928C29.0866 17.7839 29.2378 17.4915 29.2695 17.1751V17.1257C29.2849 16.874 29.2921 16.6219 29.2911 16.3697V16.2617C29.2891 16.0541 29.2789 15.8467 29.2603 15.6399H28.1726C27.5601 15.2897 26.9599 14.9719 26.8719 14.7667C26.7547 14.4982 27.0309 13.8441 27.2021 13.4815C27.2166 13.4362 27.2368 13.3932 27.2623 13.3534C27.27 13.3457 27.2715 13.3349 27.2777 13.3272L27.324 13.2377C27.3549 13.1575 27.361 13.0896 27.3271 13.0356C27.2777 12.9538 27.1512 12.8967 26.9367 12.8505C26.6343 12.781 26.1638 12.7317 25.4849 12.6653C25.2207 12.641 24.9577 12.605 24.6965 12.5573C24.4214 12.47 24.1435 12.3923 23.8634 12.3243C23.5478 12.2053 23.2461 12.05 22.9639 11.8615C22.2819 11.4141 21.5553 10.7013 20.6403 9.55491C19.349 7.93491 19.1638 6.73611 19.1638 6.73611C19.1638 6.73611 17.9049 7.51371 19.6653 11.0129C19.0296 11.3786 18.8475 9.90206 17.2121 10.1952C16.1877 10.3773 15.8235 11.2814 15.8004 11.3369C15.8837 11.2953 18.2659 10.0317 18.0221 12.1361C17.9882 12.1407 17.9589 12.1485 17.9249 12.1562C15.6461 12.6499 13.7407 13.6373 12.2781 15.0506C12.2071 15.12 12.1377 15.1925 12.0651 15.2666C12.0014 15.2948 11.9337 15.312 11.8646 15.3175C11.3786 15.3746 10.1474 12.9615 9.00411 12.1161C5.96469 9.86966 1.43949 10.0641 0 10.8555C0 10.8555 3.43286 11.3369 4.05154 13.8888C4.50051 15.7341 2.85891 16.9483 2.76634 17.0146C2.89286 16.9791 5.43857 16.2771 6.35503 17.6349C7.47669 19.2981 5.53423 21.3717 5.43857 21.4704C5.5512 21.4149 7.80531 20.2886 8.14937 21.4272C8.3268 22.0073 8.65389 22.4563 8.99794 22.7525C8.97789 23.0765 8.96554 23.4098 8.96554 23.7492C8.96554 27.2191 9.78017 30.2138 11.377 32.4895C13.4352 35.4209 16.794 37.1489 21.3871 37.1489C22.0752 37.1489 22.7417 37.1134 23.382 37.0409C27.3178 36.595 30.1752 34.8038 30.1752 31.8801V30.0471C29.5673 30.2878 28.9502 30.4961 28.3238 30.6751C26.8024 31.1184 25.2295 31.3442 23.6489 31.3462" fill="white"/>
<path fill-rule="evenodd" clip-rule="evenodd" d="M28.5466 19.8581C26.6597 19.7038 28.1732 18.3307 29.1931 19.4955C29.1931 19.4955 28.5821 18.306 27.5746 18.8367C27.2629 19.0018 27.1056 19.2333 27.0809 19.4724V19.4662V19.4817C27.0716 19.6113 27.0361 20.6172 27.9711 21.0091C28.974 21.4257 29.1298 22.1909 29.1298 22.1909C29.1298 22.1909 29.4399 20.9721 28.7364 20.5771C28.7487 20.5771 28.7611 20.5802 28.7749 20.5786C30.398 20.5586 31.4688 22.032 31.4688 22.032C31.4688 22.032 30.4335 20.0109 28.5466 19.8581" fill="white"/>
<path fill-rule="evenodd" clip-rule="evenodd" d="M54.4738 17.8817C54.1683 17.8817 53.9184 17.6657 53.9184 17.4019C53.9184 17.1381 54.1683 16.9236 54.4738 16.9236C54.7824 16.9236 55.0293 17.1381 55.0293 17.4019C55.0293 17.6642 54.7824 17.8802 54.4738 17.8802V17.8817ZM53.2704 18.5421C53.0606 18.5421 52.8878 18.394 52.8878 18.2104C52.8878 18.0283 53.0575 17.8817 53.2719 17.8817C53.4833 17.8817 53.6546 18.0283 53.6546 18.2104C53.6546 18.394 53.4833 18.5421 53.2719 18.5421H53.2704ZM50.6337 23.6104L50.6028 23.6289C49.6462 24.2121 47.4214 25.7796 44.2971 27.5462L44.2802 27.7221L44.2678 27.8455C44.257 27.9535 44.2431 28.06 44.2262 28.1649L44.2107 28.2852C44.1927 28.3916 44.1727 28.4975 44.1506 28.603L44.129 28.711C44.1042 28.823 44.0759 28.9341 44.0441 29.0443C44.0395 29.069 44.0349 29.0937 44.0271 29.1168C43.9543 29.3753 43.8636 29.6279 43.7556 29.8728L43.7109 29.9654C43.6719 30.0483 43.6308 30.1301 43.5874 30.2107C43.5674 30.2508 43.5411 30.2878 43.5195 30.3264C43.481 30.3928 43.4424 30.4591 43.4007 30.5193C43.373 30.5609 43.3437 30.598 43.3143 30.6381C43.2446 30.7332 43.1699 30.8243 43.0906 30.9112C42.9726 31.041 42.8423 31.1583 42.7018 31.2614C42.6617 31.2922 42.6216 31.3216 42.5799 31.3478C42.5287 31.3808 42.4762 31.4117 42.4226 31.4404C42.3794 31.462 42.3377 31.4866 42.293 31.5067C42.2354 31.532 42.1767 31.5547 42.1171 31.5746C42.0723 31.5916 42.0291 31.6101 41.9829 31.624C41.917 31.643 41.85 31.6579 41.7823 31.6687C41.7391 31.678 41.6959 31.6903 41.6511 31.6965C41.5574 31.7083 41.4632 31.715 41.3688 31.7165L41.2994 31.7212C40.2749 31.7212 39.5174 31.1302 39.019 30.2246H39.0159C38.8284 29.8783 38.6804 29.5107 38.5747 29.1292V29.1276C39.9481 28.4569 41.3096 27.7604 42.6586 27.0386C43.1323 26.7825 43.6044 26.5202 44.0781 26.261L44.2971 26.1376C44.3002 26.1376 44.3002 26.1376 44.3018 26.1345C46.0293 25.1776 47.7321 24.1739 49.4086 23.1244C49.5351 23.0441 49.89 22.8312 50.2927 22.5936L50.2958 22.5921L51.0101 22.1662C51.3341 21.9718 51.6087 21.8083 51.7152 21.7373C51.7152 21.7373 52.4851 22.4733 50.6337 23.6104V23.6104ZM38.2785 26.7485C38.2811 26.5566 38.2878 26.3647 38.2985 26.173L38.3047 26.0527C38.3155 25.9138 38.3247 25.7781 38.3417 25.6454L38.3448 25.5991C38.3762 25.3366 38.4236 25.0763 38.4867 24.82L38.5207 24.6919L38.5824 24.4975L38.621 24.3818C38.6537 24.2941 38.6897 24.2076 38.729 24.1226L38.7598 24.0609C38.7969 23.9884 38.8339 23.9158 38.8771 23.848L38.9295 23.7646C38.9681 23.706 39.0067 23.652 39.0468 23.5996L39.1039 23.5286C39.1662 23.4532 39.2332 23.382 39.3045 23.3157C39.3723 23.254 39.4433 23.1984 39.5189 23.146L39.5883 23.0997C39.6501 23.0596 39.7118 23.0225 39.7781 22.987L39.8522 22.9485C40.0327 22.8605 40.2333 22.7942 40.4539 22.7448L40.5465 22.7278C40.6349 22.711 40.7239 22.6976 40.8134 22.6877L40.9106 22.6769C41.1663 22.6555 41.4232 22.6555 41.6789 22.6769C41.7905 22.6875 41.9016 22.702 42.0122 22.7201L42.1803 22.7541L42.2945 22.7849C42.4071 22.8158 42.5105 22.8544 42.6139 22.896C42.9505 23.0443 43.2507 23.2644 43.4933 23.5409C43.4962 23.539 43.4993 23.5375 43.5026 23.5363C44.3511 23.0117 47.4507 21.0816 48.5477 20.1837C48.6017 20.1389 48.648 20.105 48.6989 20.0649L48.8424 19.9538L48.8625 19.9384C48.9456 19.8765 49.03 19.8164 49.1155 19.7578L49.1448 19.7378C49.2219 19.6869 49.2929 19.6406 49.3623 19.5989L49.3932 19.5804C49.4562 19.5446 49.52 19.5101 49.5845 19.477L49.6154 19.4616C49.6694 19.4352 49.7245 19.4111 49.7805 19.3891L49.8051 19.3783C49.8576 19.3598 49.9054 19.3413 49.9502 19.3289L49.9702 19.3243C50.0124 19.3126 50.0551 19.3033 50.0983 19.2965L50.1106 19.295C50.147 19.2901 50.1835 19.2875 50.2202 19.2873H50.2248C50.2665 19.2873 50.3019 19.2904 50.3374 19.2981H50.3436C50.3753 19.3049 50.4062 19.3147 50.4362 19.3274C50.4579 19.3371 50.4786 19.349 50.4979 19.3629L50.5056 19.3675C50.5221 19.3789 50.5376 19.3918 50.5519 19.4061L50.555 19.4107C50.5667 19.4232 50.5776 19.4366 50.5874 19.4508C50.5959 19.4637 50.6036 19.4771 50.6105 19.4909L50.6136 19.4925C50.6177 19.501 50.6213 19.5097 50.6244 19.5187L50.629 19.531C50.629 19.531 50.3714 19.6992 50.3266 19.7208C50.3266 19.7208 50.0211 19.9198 49.0893 20.5046L49.0877 20.5061C48.5477 20.844 47.7994 21.3115 46.7811 21.941L43.8759 23.6952L43.8929 23.6829L43.7633 23.7631L43.697 23.8032L43.4038 23.9806C42.3948 24.5361 39.1826 26.3042 38.2785 26.784V26.7485V26.7485ZM50.663 20.878C50.6821 20.9025 50.6996 20.9282 50.7154 20.9551C50.8635 21.1989 50.9021 21.4473 50.0335 22.0012H50.0319L50.0196 22.0089C49.3778 22.4177 48.7575 22.6615 48.415 22.6692C48.5554 22.6121 48.7143 22.5304 48.8779 22.427C49.3176 22.1462 49.2991 22.0228 49.225 21.8993C49.216 21.8844 49.2063 21.8699 49.1957 21.8561L49.1849 21.8453L49.1618 21.8206C49.1556 21.8176 49.1479 21.816 49.1433 21.8114C49.134 21.8068 49.1263 21.8006 49.1155 21.7975L49.0939 21.7944C49.0846 21.7929 49.0707 21.7898 49.0569 21.7898L49.0245 21.7944C49.0099 21.795 48.9954 21.797 48.9813 21.8006L48.9396 21.816C48.9205 21.8201 48.9018 21.8263 48.8841 21.8345C48.8615 21.8444 48.8394 21.8552 48.8177 21.8669L48.7622 21.8916C48.5582 22.0033 48.3676 22.1395 48.1944 22.2974C48.3533 21.9842 48.8424 21.5275 49.4889 21.1202L49.5166 21.1001L49.5197 21.0986C49.654 21.0144 49.7925 20.9371 49.9347 20.8672C50.0012 20.8362 50.0692 20.8089 50.1384 20.7854C50.1688 20.7745 50.1997 20.7653 50.231 20.7576L50.2711 20.7484C50.2996 20.7423 50.3285 20.7387 50.3575 20.7376H50.3991C50.4289 20.7393 50.4584 20.7445 50.4871 20.753C50.4979 20.753 50.5087 20.7592 50.5179 20.7622C50.5368 20.7709 50.5548 20.7812 50.5719 20.7931L50.5997 20.8116L50.646 20.8579L50.6614 20.878H50.663ZM57.3883 15.066L57.379 15.0645C57.2978 15.0603 57.2166 15.0577 57.1353 15.0568H57.0936C57.0087 15.0568 56.9208 15.0583 56.8298 15.0629C56.8143 15.0629 56.802 15.0629 56.7881 15.066C56.699 15.0715 56.61 15.0792 56.5212 15.0892L56.4641 15.0953C56.3808 15.1061 56.2944 15.1216 56.2111 15.137L56.1247 15.1524C56.046 15.1663 55.9658 15.1879 55.8855 15.2095C55.847 15.2188 55.8115 15.2249 55.7729 15.2357C55.6963 15.2598 55.6201 15.2855 55.5446 15.3129C55.5014 15.3283 55.4566 15.3376 55.4134 15.3561C55.3425 15.3808 55.2746 15.4132 55.2036 15.444C55.1515 15.4651 55.1 15.4877 55.0493 15.5119C54.9845 15.5428 54.9197 15.5798 54.8565 15.6137C54.7978 15.6446 54.7392 15.6739 54.679 15.7078C54.5534 15.7838 54.4309 15.8651 54.3118 15.9516C53.3352 16.6675 51.4421 18.5081 51.4421 18.5081C51.2915 18.3797 51.1071 18.3012 50.9129 18.2829C50.8622 18.278 50.8111 18.2764 50.7602 18.2782L50.6923 18.2813L50.5951 18.289L50.5226 18.3014C50.4653 18.3114 50.4086 18.3248 50.3529 18.3415C50.2949 18.3559 50.2378 18.3734 50.1816 18.394C50.1241 18.4141 50.0675 18.4367 50.0119 18.4618C49.9781 18.4765 49.9447 18.4919 49.9116 18.5081L49.8422 18.539L49.7342 18.5976L49.6771 18.6285C49.6224 18.6581 49.5684 18.689 49.5151 18.721C48.8625 19.1222 48.3363 19.6468 48.3055 19.6684L48.2052 19.582L48.1589 19.5418C48.0649 19.4605 47.9692 19.3813 47.8719 19.3042L47.8164 19.261C47.7198 19.1857 47.6215 19.1127 47.5217 19.042L47.46 18.9988C47.359 18.9297 47.2566 18.8628 47.153 18.7982L47.0866 18.7565C46.9799 18.6925 46.8718 18.6308 46.7626 18.5714L46.6978 18.5344C46.5859 18.4743 46.4727 18.4167 46.3584 18.3616L46.2905 18.3307C46.0292 18.2075 45.7625 18.0968 45.4913 17.999L45.4296 17.9758C45.2967 17.9293 45.163 17.8856 45.0285 17.8447L44.9714 17.8277C44.815 17.7805 44.6576 17.7373 44.4993 17.6981C44.3482 17.6607 44.1964 17.6263 44.0441 17.5948L44.0102 17.5886C43.8463 17.5551 43.6817 17.5253 43.5165 17.4991L43.5057 17.4976C42.2231 17.3036 40.9206 17.2787 39.6315 17.4235L39.5575 17.4328C39.4101 17.451 39.263 17.4715 39.1162 17.4945L38.9959 17.5145C38.8696 17.5353 38.7435 17.5579 38.6179 17.5824L38.4667 17.6148C38.3562 17.6382 38.2462 17.6634 38.1365 17.6904L37.9668 17.7336L37.6721 17.8138L37.4854 17.874C37.3973 17.9 37.3098 17.9283 37.2231 17.9589C37.0778 18.0084 36.9338 18.0619 36.7911 18.1193C36.6521 18.1747 36.5148 18.2344 36.3792 18.2983C36.3081 18.3304 36.2377 18.3639 36.1678 18.3986C36.103 18.4294 36.0444 18.4603 35.9827 18.4927C35.7776 18.6003 35.5768 18.7166 35.381 18.8414C35.3347 18.8692 35.2884 18.9 35.2421 18.9309C35.1658 18.9822 35.0902 19.0346 35.0153 19.0882L34.9011 19.1716C34.8225 19.2317 34.7438 19.2904 34.6682 19.3521L34.5787 19.4261C34.497 19.4937 34.4168 19.5632 34.338 19.6344L34.2763 19.69C34.1914 19.7702 34.1066 19.8489 34.0263 19.9306L33.997 19.9615C33.9054 20.056 33.8158 20.1527 33.7286 20.2516L33.5943 20.4151L33.4755 20.5555C33.4262 20.6188 33.3783 20.6851 33.3305 20.7499C33.2997 20.7916 33.2673 20.8317 33.2379 20.8733C33.1886 20.9428 33.1438 21.0137 33.096 21.0847L33.0158 21.205C32.9686 21.2797 32.9228 21.3553 32.8785 21.4318L32.8075 21.5491C32.6954 21.7485 32.5915 21.9523 32.4958 22.1601L32.4403 22.2789C32.4022 22.3658 32.3651 22.4533 32.3292 22.5412L32.2814 22.663C32.2455 22.7535 32.2111 22.8445 32.178 22.9361L32.1363 23.0596C32.0114 23.4326 31.9073 23.8127 31.8247 24.1982L31.7985 24.3232C31.7772 24.4293 31.7576 24.5358 31.7398 24.6425C31.7144 24.7944 31.6913 24.9466 31.6704 25.0992L31.655 25.2257C31.6404 25.3392 31.6276 25.4529 31.6164 25.5667L31.6056 25.6932C31.5979 25.8105 31.5886 25.9277 31.5825 26.0481C31.5741 26.1832 31.5674 26.3185 31.5624 26.4538L31.5593 26.602C31.5578 26.6884 31.5547 26.7717 31.5547 26.8596C31.5547 27.1126 31.5639 27.358 31.5763 27.6033C31.5794 27.6403 31.5825 27.6758 31.5825 27.7128C31.5979 27.9489 31.6164 28.1834 31.6442 28.4133L31.6411 28.4025L31.6534 28.5136L31.6581 28.5537L31.6611 28.5784C31.6858 28.7604 31.7121 28.9425 31.7429 29.1214L31.7614 29.2171C31.7907 29.376 31.8216 29.5334 31.8571 29.6877C32.0175 30.4185 32.2539 31.1293 32.5622 31.8076C32.8753 32.4937 33.2674 33.1381 33.7301 33.7269L33.7502 33.7531C33.8952 33.9352 34.0449 34.111 34.2022 34.2777L34.2099 34.2869C34.5247 34.6233 34.8641 34.9334 35.2267 35.2126L35.273 35.2497C35.4427 35.3808 35.6186 35.5042 35.7975 35.623L35.8778 35.6724C36.0567 35.7881 36.2403 35.8961 36.4286 35.9964C36.6495 36.1171 36.8755 36.2283 37.1059 36.3297H37.1074C37.8496 36.6526 38.6266 36.8821 39.4217 37.0132C39.6215 37.0461 39.8221 37.0734 40.0234 37.0949L40.045 37.0965C40.4523 37.1412 40.8705 37.1659 41.2994 37.1659C47.1159 37.1659 51.0441 33.0434 51.0441 26.8596L51.041 26.7393C51.0377 26.3151 51.015 25.8914 50.9731 25.4695L50.9561 25.2982C50.9317 25.087 50.9014 24.8766 50.8651 24.6672C50.8589 24.624 50.8497 24.5824 50.8419 24.5392C50.8102 24.3619 50.7742 24.1854 50.7339 24.01L50.7185 23.939C51.2845 23.6544 51.8161 23.306 52.303 22.9006C52.9726 22.3205 53.1825 21.8361 53.2334 21.509C53.2626 21.3561 53.2493 21.1981 53.1948 21.0523C53.1948 21.0523 55.5075 19.8211 56.4842 19.1068C58.4421 17.6781 58.5007 15.3946 58.5022 15.262C58.1396 15.1493 57.765 15.0829 57.3867 15.0645" fill="white"/>
<path fill-rule="evenodd" clip-rule="evenodd" d="M145.639 15.3298C146.032 15.4224 146.421 15.4733 146.796 15.4887C147.752 14.1387 149.044 13.0803 149.044 13.0803L147.162 12.9939L146.639 10.7259L145.227 12.5465L143.49 11.7982C143.49 11.7982 144.219 13.3241 144.523 14.9642C144.869 15.1138 145.244 15.2403 145.637 15.3298H145.639ZM144.61 15.5181C144.644 15.805 144.661 16.0889 144.654 16.3666C145.122 16.5317 145.606 16.6429 146.097 16.6983C146.207 16.4469 146.339 16.1954 146.489 15.9516C145.846 15.8997 145.213 15.7543 144.61 15.5196V15.5181ZM140.475 32.6823C139.529 32.6175 139.012 31.8368 139.077 30.8633C139.134 30.007 139.713 29.305 140.782 29.2233L143.49 29.0643C143.286 30.9651 142.101 32.7981 140.475 32.6823ZM150.179 30.5594C150.124 28.6663 149.852 27.4011 149.622 26.6482C148.515 27.1388 147.461 27.3194 147.461 27.3194C148.091 27.0308 148.64 26.5907 149.059 26.0382C149.477 25.4858 149.753 24.8382 149.86 24.1534C149.983 23.1089 149.755 22.1508 149.755 22.1508L149.761 22.1477C148.672 17.8447 145.599 16.5209 143.176 16.5209C140.487 16.5209 139.125 17.3556 138.872 17.5284H138.869C138.836 17.5343 138.804 17.5404 138.771 17.5469C139.373 17.7106 139.918 18.0471 140.342 18.5175C140.767 18.9879 141.054 19.573 141.171 20.2052C140.004 17.4435 136.971 18.0915 136.517 18.2489C136.077 18.4544 135.661 18.7117 135.277 19.0157C135.154 19.1125 135.036 19.2155 134.924 19.3243C134.313 19.926 133.967 20.6095 133.942 21.293C133.91 21.5192 133.894 21.7477 133.896 21.9765L133.89 21.9811C133.549 22.1165 133.174 22.1274 132.827 22.0119C132.661 21.9522 132.509 21.8561 132.381 21.7302C132.254 21.6043 132.155 21.4515 132.089 21.2822C131.955 20.935 131.952 20.4938 132.16 20.1559C132.277 19.9688 132.443 19.8173 132.64 19.718C132.837 19.6187 133.057 19.5754 133.277 19.5927C132.845 19.3459 132.219 19.4385 131.807 19.8458C131.598 20.0523 131.45 20.317 131.383 20.6079C131.275 21.0557 131.327 21.527 131.531 21.9403C131.734 22.3536 132.075 22.6829 132.495 22.8713C133.009 23.0884 133.58 23.1103 134.107 22.933L134.177 22.9099C134.194 22.9022 134.212 22.8991 134.229 22.8914L134.282 22.8667C134.612 22.7325 135.325 22.4115 135.712 22.0181C136.068 21.7512 136.468 21.3177 136.468 20.7746C136.468 20.7746 136.621 21.2127 137.045 21.6694L137.105 21.7311C137.44 22.1523 137.92 22.6584 138.555 23.1305C139.623 23.918 140.864 24.4175 142.166 24.5839C142.667 24.6471 143.11 24.6564 143.508 24.6317C144.565 24.6317 144.841 24.1226 144.841 24.1226C144.841 25.5312 143.542 25.4278 143.542 25.4278L139.892 25.4834C134.453 25.5682 132.379 27.6125 132.168 30.8062C131.978 33.6482 133.523 36.6907 137.19 36.9499C139.609 37.1196 141.721 36.2139 143.432 34.4967L143.406 37.1551C147.263 37.4282 150.212 37.6364 150.189 35.1293L150.178 30.5594H150.179Z" fill="white"/>
<path fill-rule="evenodd" clip-rule="evenodd" d="M135.379 24.3C135.389 24.3013 135.4 24.3034 135.41 24.3062L135.458 24.3124C135.518 24.3232 135.6 24.3432 135.689 24.3741C135.689 24.3741 135.979 24.4543 136.012 24.3355C136.046 24.2182 136.075 24.0855 135.922 23.9328C135.812 23.8337 135.677 23.7685 135.533 23.7446C135.512 23.743 135.502 23.7399 135.47 23.7384C135.296 23.7244 135.123 23.7717 134.978 23.8726C134.902 23.9238 134.836 23.9903 134.785 24.0683C134.734 24.1462 134.699 24.2339 134.682 24.3262C134.867 24.3108 135.01 24.2969 135.137 24.2923C135.218 24.292 135.299 24.2951 135.381 24.3016L135.379 24.3ZM137.738 24.4358L137.744 24.4327C137.798 24.4163 137.854 24.4029 137.909 24.3926C137.934 24.3863 137.958 24.3822 137.983 24.3802C137.994 24.3784 138.004 24.3768 138.014 24.3756L138.06 24.371C138.163 24.3629 138.267 24.3655 138.369 24.3787C138.492 24.3926 138.634 24.4188 138.818 24.4497C138.807 24.3563 138.779 24.2661 138.734 24.1845C138.689 24.1028 138.628 24.0314 138.556 23.9745C138.398 23.8449 138.199 23.783 137.999 23.8017L137.936 23.8109C137.859 23.8244 137.785 23.8504 137.716 23.8881C137.648 23.9244 137.585 23.9712 137.53 24.0269C137.497 24.0778 137.391 24.2599 137.493 24.3648C137.524 24.3985 137.563 24.4228 137.607 24.4353C137.65 24.4478 137.696 24.448 137.74 24.4358" fill="white"/>
<path fill-rule="evenodd" clip-rule="evenodd" d="M71.2487 15.4301C71.0904 15.5588 70.9256 15.6793 70.755 15.7912C70.7288 15.7912 70.9448 15.4872 71.1669 15.1833C71.1192 15.0424 71.0729 14.9009 71.0281 14.759C70.5128 15.4918 69.8586 16.3589 70.0252 15.7927C70.2567 14.9966 70.556 14.3532 70.7334 14.0092C69.9743 12.5126 68.2247 10.8247 68.2247 10.8247C68.2247 10.8247 69.7969 12.8212 69.3525 17.8663V17.8709C69.1875 19.7393 68.7493 22.0212 67.8483 24.7829C68.5227 22.5347 68.9472 20.2141 69.1134 17.8663C69.2584 15.5458 69.1041 13.0001 68.2247 10.8247C67.7387 11.1441 67.3299 11.6517 66.9858 12.2503C67.6508 13.3288 68.6907 15.0182 68.3204 14.5924C68.1399 14.3856 67.2774 13.3257 66.7297 12.7409C66.1588 13.9212 65.804 15.3283 65.5972 16.3697C65.8549 16.7292 66.2869 17.3294 66.7497 17.8663L66.7544 17.8709C67.1925 18.3801 67.66 18.829 68.0303 18.9571C68.7369 19.2009 66.7343 18.6208 65.426 17.8709L65.4183 17.8663H65.3627V18.937L67.2018 20.9736L65.3627 19.4292V20.1513C65.6775 20.7869 66.2853 21.9194 66.8408 22.39C67.4471 22.9022 66.1527 22.1508 65.3627 21.239V21.5645C65.3627 24.1349 64.7703 26.0913 63.6301 26.909C63.244 27.1864 62.784 27.3325 62.314 27.3271H62.3094C60.4317 27.324 60.3176 25.2597 60.3176 22.5751V17.712H59.4551C59.4554 17.7141 59.4554 17.7161 59.4551 17.7182C59.1861 17.718 58.9172 17.7191 58.6482 17.7213C58.2413 18.816 57.5306 19.7618 56.6055 20.4398C55.905 20.9551 54.6183 21.6864 53.8438 22.1153V26.9059C53.8438 27.1296 53.8515 27.3472 53.8638 27.5616L53.8653 27.5909C53.8777 27.8008 53.8962 28.0044 53.9224 28.2035L53.9271 28.2436C53.9517 28.4395 53.9841 28.6293 54.0196 28.8144L54.0289 28.8592C54.0675 29.0428 54.1107 29.2186 54.16 29.3899L54.1724 29.4393C54.2215 29.6049 54.2771 29.7686 54.339 29.9299L54.356 29.9793C54.4809 30.2983 54.6343 30.6046 54.8142 30.8942L54.8435 30.9405C54.9278 31.07 55.0179 31.1956 55.1135 31.3169L55.1475 31.3586C55.3502 31.6085 55.5789 31.8346 55.8294 32.0328L55.8711 32.0668C56.1304 32.2663 56.4097 32.4365 56.7042 32.5744L56.7505 32.596C56.8955 32.6623 57.0436 32.7225 57.1979 32.7749L57.2473 32.7904C57.4062 32.8428 57.5667 32.8876 57.7348 32.9277L57.7811 32.9369C57.9524 32.974 58.1298 33.0064 58.3119 33.0295L58.3473 33.0341C58.5294 33.0573 58.7192 33.0743 58.9151 33.0835H58.9305C59.3414 33.0999 59.7528 33.0859 60.1617 33.0418C62.2245 32.8166 64.0065 31.7798 65.3565 29.7031V29.7108L65.3581 29.7077L65.3612 29.7031V37.0996H66.0416C71.1021 37.0934 71.8304 36.9499 71.8304 33.5171V19.2425C71.0559 20.0602 69.8864 21.2683 70.34 20.6002C70.7149 20.0448 71.3768 18.8676 71.8304 18.0391V17.8679C71.8304 17.118 71.5403 16.2926 71.2487 15.4317" fill="white"/>
</svg>
