<svg width="250" height="38" viewBox="0 0 250 38" fill="none" xmlns="http://www.w3.org/2000/svg">
<path fill-rule="evenodd" clip-rule="evenodd" d="M194.286 17.4434C194.006 19.1818 193.028 19.4025 191.651 19.4025H189.565L190.268 15.4177H192.225C193.682 15.4177 194.629 15.6373 194.286 17.4434ZM237.339 15.4177H248.857L250 9H235.44C234.286 9 231.373 9.15864 229.803 10.5021C228.082 11.9154 227.555 13.7825 227.291 15.2524C227.04 16.6302 226.825 18.637 227.804 20.1924C228.581 21.5447 230.09 22.2125 230.732 22.3978L238.499 24.4357L238.329 25.3953C238.256 25.7082 237.911 25.9633 237.639 25.9633H213.291L213.7 23.6137H221.825L222.866 17.7906H214.731L215.146 15.4177H225.278L226.385 9H206.961L203.238 30.2111L197.757 23.6125C201.087 22.552 202.505 20.706 203.129 17.1627C204.167 11.2531 200.753 9 194.079 9H173.891L168.605 16.7811H168.445L166.671 9H133.095L134.944 16.7811H141.182L138.407 32.4431H147.589L150.401 16.7811H156.872L157.683 12.5433H157.78L162.39 23.6125L160.649 32.4431H170.446L172.185 23.6125L181.64 12.5478H181.706L178.217 32.4431H187.265L188.565 25.0137H188.721L194.269 32.4431H221.65L225.638 27.7261H225.787L224.943 32.4431H240.941C242.556 32.4431 244.268 32.2035 245.877 30.474C247.257 28.9908 247.719 27.1392 247.948 25.8757C248.12 24.9294 248.241 23.5271 247.859 22.2258C247.305 20.1835 245.66 19.1396 243.822 18.7235L236.428 16.8931L236.595 15.9735C236.656 15.6451 236.953 15.4177 237.339 15.4177Z" fill="white"/>
<path fill-rule="evenodd" clip-rule="evenodd" d="M0 32.4432H14.2187L15.5289 25.0138H1.30906L0 32.4432ZM123.702 9.00009H110.808L100.034 27.3601H99.8974L99.9878 9.00009H87.4191L82.1197 21.3307H81.8922L80.4889 9.00009H67.4882L61.0761 27.3601H60.8143L56.328 9.00009H43.4327L32.2137 28.1267L27.6953 20.7261L38.5482 9.00009H25.0472L16.9888 19.021H2.36628L1.70398 22.7773H16.291L21.4973 32.4432H40.5983L48.5769 16.7967H48.9019L51.1917 25.9646H45.1268L44.957 26.2541L48.4294 32.4432H70.2362L74.0047 19.6201H74.2964L75.4879 32.4432H84.5836L89.8927 19.6201H90.2082L89.6711 32.4432H107.971L115.949 16.7967H116.274L118.563 25.9646H112.443L112.332 26.2541L115.802 32.4432H129.429L123.702 9.00009ZM18.3511 9.00009H4.1335L2.76232 16.7812H16.9788L18.3511 9.00009Z" fill="white"/>
</svg>
