<svg xmlns="http://www.w3.org/2000/svg" xmlns:xlink="http://www.w3.org/1999/xlink" preserveAspectRatio="xMidYMid" width="170" height="27" viewBox="0 0 170 27">
  <defs>
    <style>

      .cls-2 {
        fill: #ffffff;
      }
    </style>
  </defs>
  <path d="M155.377,12.842 C159.740,16.340 164.096,19.847 168.458,23.350 C168.967,23.776 169.509,24.165 170.000,24.615 C166.463,24.637 162.926,24.615 159.391,24.625 C159.141,24.685 158.977,24.471 158.804,24.346 C155.445,21.479 152.046,18.658 148.701,15.777 C146.453,15.752 144.204,15.772 141.956,15.767 C141.949,18.721 141.966,21.675 141.948,24.629 C139.573,24.617 137.196,24.630 134.821,24.622 C134.812,16.911 134.826,9.202 134.816,1.491 C137.194,1.473 139.574,1.488 141.954,1.485 C141.956,4.271 141.954,7.058 141.956,9.846 C144.199,9.846 146.442,9.848 148.686,9.845 C151.784,7.007 154.840,4.126 157.956,1.309 C161.561,1.329 165.164,1.313 168.770,1.318 C168.723,1.382 168.629,1.510 168.583,1.573 C164.185,5.334 159.767,9.073 155.377,12.842 ZM131.606,20.673 C131.162,21.860 130.306,22.898 129.181,23.508 C127.911,24.198 126.440,24.350 125.027,24.524 C121.358,24.832 117.673,24.625 113.997,24.749 C110.771,24.745 107.543,24.749 104.317,24.748 C104.307,25.498 104.340,26.250 104.295,27.000 C102.195,26.975 100.096,26.973 97.996,27.000 C97.949,26.236 97.984,25.471 97.974,24.708 C92.800,24.708 87.626,24.705 82.452,24.710 C79.873,24.643 77.246,24.683 74.746,23.961 C73.306,23.518 72.059,22.476 71.444,21.100 C70.438,18.872 70.468,16.376 70.391,13.986 C70.405,12.938 70.363,11.888 70.426,10.841 C70.445,9.164 70.550,7.455 71.114,5.859 C71.523,4.661 72.321,3.573 73.429,2.925 C74.430,2.286 75.622,2.068 76.780,1.895 C78.603,1.609 80.451,1.741 82.285,1.649 C94.970,1.649 107.655,1.650 120.340,1.647 C122.937,1.737 125.597,1.558 128.116,2.323 C129.515,2.742 130.743,3.723 131.396,5.030 C132.240,6.724 132.387,8.648 132.442,10.507 C132.419,11.668 132.546,12.828 132.452,13.987 C132.429,16.232 132.416,18.544 131.606,20.673 ZM83.956,7.447 C83.013,7.431 82.071,7.482 81.130,7.518 C80.264,7.576 79.319,7.629 78.610,8.184 C77.987,8.659 77.727,9.437 77.603,10.177 C77.433,11.217 77.435,12.274 77.401,13.323 C77.448,14.426 77.431,15.547 77.695,16.626 C77.862,17.277 78.208,17.946 78.852,18.239 C79.655,18.610 80.559,18.651 81.429,18.723 C83.604,18.839 85.785,18.792 87.962,18.744 C91.298,18.749 94.635,18.741 97.971,18.747 C97.978,14.981 97.973,11.214 97.974,7.447 C93.301,7.447 88.628,7.447 83.956,7.447 ZM125.239,10.030 C125.082,9.290 124.783,8.503 124.115,8.075 C123.339,7.578 122.380,7.565 121.490,7.505 C120.717,7.490 119.944,7.432 119.173,7.445 C114.221,7.447 109.269,7.445 104.317,7.447 C104.317,11.254 104.317,15.062 104.317,18.868 C106.542,18.862 108.767,18.799 110.993,18.830 C114.053,18.739 117.114,18.814 120.175,18.782 C121.200,18.736 122.231,18.714 123.239,18.499 C123.685,18.400 124.134,18.237 124.481,17.933 C124.908,17.517 125.107,16.936 125.229,16.368 C125.487,15.093 125.421,13.787 125.431,12.495 C125.434,11.671 125.377,10.843 125.239,10.030 ZM67.128,22.612 C66.482,23.440 65.578,24.069 64.568,24.379 C63.875,24.591 63.143,24.617 62.425,24.625 C54.201,24.619 45.979,24.632 37.756,24.619 C37.768,16.895 37.758,9.169 37.763,1.443 C47.694,1.442 57.625,1.442 67.556,1.443 C67.556,3.280 67.559,5.114 67.554,6.950 C59.891,6.949 52.229,6.950 44.564,6.950 C44.564,8.149 44.564,9.350 44.564,10.548 C50.796,10.548 57.027,10.550 63.258,10.548 C64.089,10.553 64.942,10.658 65.688,11.047 C66.963,11.656 67.813,12.881 68.293,14.166 C68.814,15.534 68.892,17.022 68.764,18.466 C68.577,19.951 68.086,21.436 67.128,22.612 ZM62.887,15.669 C62.537,15.353 62.054,15.231 61.590,15.227 C55.915,15.231 50.241,15.227 44.564,15.229 C44.564,16.484 44.564,17.737 44.564,18.992 C50.296,18.994 56.026,18.991 61.756,18.994 C62.211,19.004 62.679,18.857 63.012,18.542 C63.772,17.772 63.723,16.365 62.887,15.669 ZM24.205,26.200 C22.422,26.192 20.640,26.205 18.857,26.193 C17.246,26.114 15.876,24.675 15.823,23.087 C15.806,21.322 15.808,19.557 15.828,17.794 C15.899,16.196 17.282,14.787 18.899,14.706 C20.668,14.689 22.437,14.703 24.206,14.701 C25.877,14.693 27.411,16.126 27.448,17.794 C27.448,19.560 27.463,21.325 27.456,23.092 C27.423,24.758 25.891,26.243 24.205,26.200 ZM24.203,11.490 C22.756,11.489 21.309,11.489 19.862,11.490 C19.243,11.489 18.602,11.540 18.013,11.315 C16.716,10.863 15.804,9.553 15.818,8.192 C15.819,6.537 15.813,4.879 15.821,3.223 C15.834,1.814 16.848,0.496 18.219,0.122 C18.535,0.025 18.865,-0.009 19.194,-0.002 C20.918,0.008 22.644,-0.007 24.368,0.005 C26.026,0.064 27.480,1.574 27.453,3.222 C27.448,4.934 27.451,6.646 27.451,8.358 C27.433,10.032 25.899,11.540 24.203,11.490 ZM8.514,26.198 C6.731,26.197 4.950,26.198 3.168,26.198 C1.527,26.165 0.092,24.711 0.045,23.092 C0.030,21.327 0.055,19.560 0.057,17.795 C0.102,16.217 1.469,14.827 3.049,14.711 C4.869,14.684 6.690,14.703 8.509,14.703 C10.153,14.726 11.620,16.155 11.665,17.784 C11.685,19.555 11.688,21.327 11.682,23.099 C11.643,24.733 10.165,26.188 8.514,26.198 ZM8.516,11.489 C6.788,11.494 5.062,11.485 3.336,11.492 C1.978,11.535 0.686,10.596 0.249,9.333 C0.142,9.015 0.072,8.686 -0.000,8.359 C-0.000,8.359 -0.000,3.162 -0.000,3.162 C0.107,2.617 0.227,2.061 0.529,1.584 C1.098,0.616 2.208,-0.010 3.340,-0.002 C5.062,0.005 6.786,-0.004 8.511,0.003 C10.205,0.016 11.700,1.538 11.670,3.218 C11.670,4.932 11.675,6.644 11.668,8.356 C11.662,10.000 10.175,11.487 8.516,11.489 Z" id="path-1" class="cls-2" fill-rule="evenodd"/>
</svg>
