<svg width="170" height="31" viewBox="0 0 170 31" fill="none" xmlns="http://www.w3.org/2000/svg">
<g clip-path="url(#clip0_2966_50)">
<g clip-path="url(#clip1_2966_50)">
<path d="M133.631 28.8962L136.435 22.2616C139.08 22.8722 143.991 23.7992 151.266 23.7992C153.701 23.7992 154.945 23.4089 154.945 22.5566C154.945 21.8065 154.654 21.4101 150.55 21.2607C135.199 20.7042 133.763 17.4871 133.763 13.3599C133.763 8.10282 137.257 5.76247 150.286 5.76247C159.256 5.76247 164.877 6.17794 167.305 6.34946C166.983 7.06834 164.714 12.2103 164.714 12.2103C160.513 11.8596 155.311 11.5867 150.995 11.5867C148.097 11.5867 147.555 12.0265 147.555 12.747C147.555 14.097 150.392 14.0604 155.814 14.3555C165.978 14.9066 169.406 16.8689 169.406 22.2456C169.406 26.5894 167.289 30.4933 151.862 30.4933C141 30.4933 133.631 28.8962 133.631 28.8962ZM133.038 6.1787L130.883 12.8422H114.655V14.7H128.969V21.2355H114.655V23.2862H131.44V30.013H102.743V6.1787H133.038ZM84.6448 6.1787V21.5244H101.081L98.2806 30.013H72.5404V6.1787H84.6448ZM70.9068 6.1787L68.7524 12.8422H52.5239V14.7H66.8382V21.2355H52.5239V23.2862H69.3104V30.013H40.6109V6.1787H70.9068ZM11.2749 30.013L0 6.1787H13.7281L20.2574 20.8826L29.038 0H41.682L28.5722 30.013H11.2749Z" fill="white"/>
</g>
</g>
<defs>
<clipPath id="clip0_2966_50">
<rect width="170" height="30.4933" fill="white"/>
</clipPath>
<clipPath id="clip1_2966_50">
<rect width="170" height="30.4933" fill="white"/>
</clipPath>
</defs>
</svg>
