<svg width="120" height="28" viewBox="0 0 120 28" fill="none" xmlns="http://www.w3.org/2000/svg">
<g clip-path="url(#clip0)">
<path d="M42.7493 20.33H40.3393L34.4673 7.506H38.3523L40.7063 12.984C41.0463 13.749 41.4433 14.883 41.6723 15.874C41.8973 14.912 42.2653 13.749 42.6053 12.926L44.8203 7.506H48.2503L42.7493 20.33ZM49.0793 7.508H52.3413V20.273H49.0793V7.507V7.508ZM50.7823 1.012C51.7153 1.012 52.6523 1.748 52.6523 2.912C52.6523 4.217 51.7153 4.958 50.7823 4.958C49.6723 4.958 48.7393 4.217 48.7393 2.911C48.7393 1.748 49.6723 1.011 50.7823 1.011V1.012ZM54.7493 3.96H58.0113V7.505H62.1263V10.571H58.0113V15.221C58.0113 16.614 58.4663 17.523 59.5423 17.523C60.4223 17.523 61.0493 17.125 61.4993 16.786L62.4943 19.307C61.7283 19.93 60.3653 20.557 58.7203 20.557C55.8303 20.557 54.7493 18.685 54.7493 15.423V3.96ZM70.5493 16.529V15.223C69.9803 14.797 69.2443 14.597 68.3103 14.597C67.2303 14.597 66.2673 15.108 66.2673 16.185C66.2673 17.151 67.0573 17.692 68.0813 17.692C69.4443 17.692 70.1523 17.098 70.5493 16.529ZM63.9953 8.415C65.1003 7.76 66.8323 7.195 68.5063 7.195C72.2813 7.195 73.6163 9.123 73.6163 12.501V20.271H70.7793V18.8C70.0953 19.762 68.7363 20.442 67.0043 20.442C64.6743 20.442 63.0043 18.997 63.0043 16.528C63.0043 13.715 65.0763 12.385 67.6553 12.385C68.7893 12.385 69.9273 12.753 70.5493 13.204C70.6353 11.079 70.0663 9.916 68.1673 9.916C66.6933 9.916 65.7563 10.371 64.8183 10.796L63.9953 8.414V8.415ZM75.2603 3.96H78.5233V7.505H82.6373V10.571H78.5233V15.221C78.5233 16.614 78.9773 17.523 80.0533 17.523C80.9333 17.523 81.5563 17.125 82.0113 16.786L83.0053 19.307C82.2403 19.93 80.8773 20.557 79.2313 20.557C76.3363 20.557 75.2603 18.685 75.2603 15.423V3.96ZM86.2963 12.699H92.5633C92.5933 11.139 91.5153 9.915 89.6403 9.915C87.6843 9.915 86.6353 11.025 86.2963 12.699ZM94.7783 18.995C93.5013 20.075 91.6833 20.583 89.8983 20.583C85.7843 20.583 83.0333 17.914 83.0333 13.89C83.0333 10.173 85.5883 7.193 89.7833 7.193C93.0753 7.193 95.8263 9.547 95.8263 13.124C95.8263 13.919 95.7693 14.402 95.6303 14.881H86.4063C86.6933 16.813 88.2243 17.861 90.2383 17.861C91.7983 17.861 93.1043 17.291 93.8413 16.698L94.7783 18.995ZM104.252 13.35L109.615 20.27H105.415L100.367 13.604L104.931 7.504H109.046L104.252 13.35V13.35ZM97.0473 3.96H100.309V20.269H97.0473V3.959V3.96ZM116.933 16.529V15.223C116.364 14.797 115.627 14.597 114.693 14.597C113.613 14.597 112.651 15.108 112.651 16.185C112.651 17.151 113.441 17.692 114.464 17.692C115.827 17.692 116.536 17.098 116.933 16.529ZM110.379 8.415C111.484 7.76 113.216 7.195 114.89 7.195C118.664 7.195 119.999 9.123 119.999 12.501V20.271H117.159V18.8C116.479 19.762 115.119 20.442 113.388 20.442C111.058 20.442 109.388 18.997 109.388 16.528C109.388 13.715 111.46 12.385 114.038 12.385C115.173 12.385 116.311 12.753 116.933 13.204C117.019 11.079 116.45 9.916 114.55 9.916C113.077 9.916 112.14 10.371 111.202 10.796L110.379 8.414V8.415ZM16.0553 9.125C15.767 9.29083 15.4403 9.37811 15.1078 9.37811C14.7752 9.37811 14.4485 9.29083 14.1603 9.125L4.98626 3.832L5.88226 2.284C6.28237 1.58997 6.85815 1.01351 7.55171 0.612577C8.24527 0.211645 9.03216 0.000371588 9.83326 0L20.3793 0C22.0083 0 23.5143 0.872 24.3293 2.284L25.2263 3.832L16.0563 9.125H16.0553ZM28.9273 10.245L29.6023 11.415C30.0025 12.1082 30.2132 12.8946 30.2132 13.695C30.2132 14.4954 30.0025 15.2818 29.6023 15.975L24.3303 25.113C23.9297 25.806 23.3536 26.3813 22.66 26.7808C21.9664 27.1804 21.1797 27.3901 20.3793 27.389H9.83326C9.03295 27.3901 8.24648 27.1803 7.55304 26.7807C6.8596 26.3812 6.28368 25.8059 5.88326 25.113L0.60926 15.976C0.208851 15.2827 -0.00195312 14.4961 -0.00195312 13.6955C-0.00195313 12.8949 0.208851 12.1083 0.60926 11.415L1.28926 10.245L10.4553 15.537C11.8692 16.3527 13.4729 16.782 15.1053 16.782C16.7376 16.782 18.3413 16.3527 19.7553 15.537L28.9253 10.244L28.9273 10.245Z" fill="white"/>
</g>
<defs>
<clipPath id="clip0">
<rect width="120" height="28" fill="white"/>
</clipPath>
</defs>
</svg>
