<svg width="210" height="30" viewBox="0 0 210 30" fill="none" xmlns="http://www.w3.org/2000/svg">
<g clip-path="url(#clip0)">
<path fill-rule="evenodd" clip-rule="evenodd" d="M14.602 0C22.669 0 29.212 6.537 29.212 14.597C29.212 22.657 22.669 29.193 14.602 29.193C14.0822 29.1926 13.5628 29.1645 13.046 29.109L24.86 8.707H1.234C3.5 3.579 8.632 0 14.602 0ZM20.13 11.432L10.233 28.527C9.35618 28.2527 8.50737 27.8957 7.698 27.461L15.4 14.158L0 14.16C0.028 13.227 0.144 12.315 0.34 11.433H20.13V11.432ZM10.67 16.884L5.421 25.948C2.60961 23.6808 0.739567 20.451 0.173 16.884H10.67V16.884ZM47.88 8.622C51.295 8.622 53.438 9.6 53.438 13.655H49.982C49.982 12.137 49.213 11.493 47.215 11.493H42.78C40.47 11.493 39.992 11.888 39.992 14.153V17.731C39.992 19.935 40.804 20.351 42.78 20.351H47.215C49.275 20.351 49.982 19.976 49.982 18.229H53.46C53.438 22.076 52.502 23.219 48.235 23.219H41.8C37.803 23.219 36.533 21.993 36.533 18.125V14.03C36.533 9.808 37.887 8.622 42.133 8.622H47.878H47.88ZM138.543 8.707V11.575H129.613V23.137H126.158V8.707H138.543ZM160.773 8.707L165.602 16.836L170.161 8.706H174.262L167.538 19.56C165.561 22.762 164.77 23.137 162.293 23.137H160.94V20.413H161.627C163.125 20.413 163.625 20.018 163.625 19.539C163.625 19.352 163.542 19.124 163.375 18.873L156.693 8.707H160.773V8.707ZM150.869 8.707C154.513 8.707 155.948 10.119 155.948 13.759C155.948 17.418 154.47 18.873 150.911 18.873H144.479V23.137H141.023V8.707H150.869V8.707ZM191.68 8.707V23.137H188.224V11.575H179.294V23.137H175.839V8.707H191.68ZM210.001 8.707V23.137H206.545V11.575H197.616V23.137H194.161V8.707H210H210.001ZM70.612 8.707V11.431H59.308V14.591H70.257V17.106H59.307V20.413H70.611V23.137H55.852V8.707H70.612ZM83.497 8.707C86.703 8.707 88.473 9.662 88.473 12.324C88.473 14.653 87.848 15.152 86.683 15.527C88.119 16.004 89.035 16.627 89.035 18.895C89.035 21.993 87.473 23.137 84.205 23.137H73.09V8.707H83.497ZM106.273 8.707V11.431H94.969V14.591H105.918V17.106H94.968V20.413H106.272V23.137H91.514V8.707H106.272H106.273ZM118.599 8.707C122.242 8.707 123.678 10.119 123.678 13.759C123.678 17.418 122.2 18.873 118.64 18.873H112.209V23.137H108.753V8.707H118.599ZM83.601 17.107H76.544V20.413H83.476C85.329 20.413 85.578 19.997 85.578 18.728C85.578 17.626 85.392 17.106 83.601 17.106V17.107ZM150.245 11.575H144.479V16.005H150.245C151.993 16.005 152.493 15.319 152.493 13.759C152.493 12.345 152.056 11.575 150.245 11.575ZM117.974 11.575H112.209V16.005H117.974C119.723 16.005 120.222 15.319 120.222 13.759C120.222 12.345 119.786 11.575 117.974 11.575ZM83.58 11.431H76.544V14.549H83.6C84.537 14.549 85.016 13.82 85.016 12.865C85.016 11.991 84.536 11.431 83.579 11.431H83.58Z" fill="white"/>
</g>
<defs>
<clipPath id="clip0">
<rect width="210" height="30" fill="white"/>
</clipPath>
</defs>
</svg>
