<svg xmlns="http://www.w3.org/2000/svg" xmlns:xlink="http://www.w3.org/1999/xlink" preserveAspectRatio="xMidYMid" width="140" height="79" viewBox="0 0 140 79">
  <defs>
    <style>

      .cls-2 {
        fill: #ffffff;
      }
    </style>
  </defs>
  <path d="M139.631,13.876 C139.196,14.762 138.833,15.754 138.022,16.374 C137.275,16.428 136.525,16.409 135.778,16.370 C135.180,16.305 134.485,16.178 134.116,15.656 C133.755,14.242 133.807,12.662 134.658,11.425 C134.272,10.926 133.930,10.389 133.518,9.911 C132.975,9.604 132.312,9.695 131.739,9.479 C131.199,9.267 130.896,8.647 130.967,8.088 C131.105,7.501 131.505,7.036 131.927,6.628 C133.192,6.661 134.408,7.046 135.611,7.395 C135.893,7.460 136.099,7.676 136.328,7.838 C137.448,8.722 138.737,9.464 139.544,10.674 C140.169,11.620 140.109,12.880 139.631,13.876 ZM131.987,15.182 C131.703,16.403 130.717,17.386 129.547,17.796 C127.844,18.432 125.713,17.811 124.728,16.257 C124.142,15.396 124.019,14.274 124.313,13.286 C124.708,12.084 125.756,11.157 126.968,10.820 C128.430,10.402 130.131,10.816 131.149,11.966 C131.941,12.810 132.285,14.059 131.987,15.182 ZM126.747,11.425 C125.506,11.930 124.559,13.224 124.703,14.592 C124.818,16.272 126.442,17.573 128.090,17.546 C129.466,17.586 130.846,16.731 131.345,15.436 C131.726,14.498 131.568,13.375 130.969,12.562 C130.042,11.279 128.196,10.793 126.747,11.425 ZM130.056,16.195 C129.896,16.182 129.570,16.155 129.408,16.141 C128.991,15.640 128.809,14.970 128.325,14.521 C128.010,14.444 127.681,14.479 127.362,14.465 C127.360,15.028 127.360,15.594 127.360,16.157 C127.172,16.157 126.795,16.160 126.607,16.162 C126.603,14.866 126.605,13.573 126.603,12.280 C127.514,12.296 128.465,12.167 129.339,12.498 C129.635,12.681 129.893,12.980 129.839,13.355 C129.875,13.854 129.356,14.086 128.957,14.215 C129.439,14.743 129.745,15.398 130.171,15.968 C130.265,16.066 130.306,16.193 130.263,16.324 C130.263,16.324 130.056,16.195 130.056,16.195 ZM129.011,13.562 C129.011,13.454 129.011,13.240 129.011,13.132 C128.576,12.689 127.915,12.829 127.362,12.804 C127.360,13.192 127.360,13.579 127.360,13.968 C127.917,13.928 128.601,14.039 129.011,13.562 ZM125.064,10.365 C123.586,11.250 122.203,12.317 121.121,13.666 C120.591,14.130 120.687,14.883 120.418,15.478 C120.233,16.026 119.905,16.738 120.364,17.232 C121.492,18.149 122.641,19.044 123.790,19.938 C124.065,20.220 124.497,20.200 124.847,20.081 C125.396,19.867 125.804,19.426 126.251,19.060 C127.358,19.027 128.475,18.836 129.579,19.046 C130.596,19.164 131.672,19.788 131.918,20.840 C131.997,21.142 131.781,21.395 131.551,21.547 C131.082,21.847 130.521,21.950 129.979,22.013 C127.400,22.343 124.808,21.855 122.222,21.988 C121.901,22.397 121.592,22.813 121.277,23.225 C121.463,27.188 121.607,31.178 122.416,35.075 C122.476,35.449 122.639,35.832 122.553,36.217 C122.070,38.352 122.362,40.554 122.372,42.721 C122.518,42.854 122.681,42.968 122.860,43.060 C123.492,43.112 124.030,42.521 124.670,42.717 C126.002,43.012 127.364,43.340 128.740,43.180 C129.322,43.141 129.852,42.875 130.398,42.692 C131.587,42.796 132.996,42.881 133.818,43.871 C134.237,44.340 134.054,45.016 134.239,45.578 C134.398,46.199 134.727,46.985 134.241,47.547 C133.787,47.944 133.219,48.175 132.709,48.487 C132.098,48.805 131.541,49.285 130.828,49.343 C127.839,49.794 124.835,49.187 121.836,49.260 C120.483,49.285 119.121,49.503 117.860,50.009 C117.151,49.776 116.504,49.360 115.766,49.225 C115.309,49.144 114.892,49.387 114.521,49.614 C113.476,49.275 112.398,49.580 111.420,49.969 C110.605,50.302 109.719,50.416 108.845,50.318 C108.461,50.456 108.061,50.624 107.646,50.553 C106.935,50.458 106.291,50.086 105.571,50.042 C105.096,49.996 104.725,50.337 104.310,50.502 C103.125,50.543 102.158,49.626 100.984,49.626 C100.571,49.609 100.210,49.826 99.891,50.061 C97.599,49.557 95.176,48.973 92.853,49.634 C92.299,49.801 91.715,49.745 91.152,49.847 C90.299,49.990 89.494,50.325 88.643,50.477 C86.416,49.815 84.079,49.815 81.783,49.622 C81.320,49.576 80.813,49.574 80.436,49.266 C79.819,48.819 79.224,48.302 78.845,47.634 C78.672,46.721 79.151,45.846 79.719,45.166 C80.290,44.509 80.922,43.902 81.487,43.238 C83.476,42.916 85.390,42.201 87.411,42.062 C88.391,41.947 89.371,42.114 90.341,42.251 C91.000,41.583 91.646,40.903 92.299,40.232 C91.963,38.676 91.704,36.926 92.503,35.464 C92.810,34.830 93.402,34.426 93.892,33.948 C94.063,33.566 93.975,33.123 93.748,32.786 C93.247,32.054 92.411,31.598 92.009,30.796 C91.855,30.480 91.817,30.081 91.978,29.762 C92.207,29.496 92.488,29.276 92.732,29.022 C93.679,28.049 94.240,26.758 94.476,25.433 C94.820,23.570 94.630,21.668 94.570,19.790 C95.126,19.243 95.727,18.559 95.646,17.721 C95.456,17.226 95.032,16.848 94.905,16.320 C94.597,15.145 94.903,13.928 94.830,12.735 C94.697,10.471 94.499,8.208 94.403,5.940 C93.748,5.584 93.072,6.094 92.395,6.027 C91.965,5.898 91.596,5.613 91.150,5.534 C89.784,5.202 88.376,5.455 86.996,5.511 C86.070,6.254 84.800,6.391 83.676,6.081 C82.544,5.765 81.466,5.266 80.430,4.717 C79.408,3.908 79.312,2.469 79.558,1.284 C81.143,0.269 83.072,-0.020 84.923,0.001 C86.456,-0.020 87.980,0.161 89.511,0.230 C90.236,0.163 90.674,0.831 91.208,1.203 C92.881,1.243 94.511,0.739 96.183,0.777 C97.218,0.766 98.288,1.055 99.088,1.729 C99.979,2.580 100.394,3.817 100.473,5.023 C100.621,7.177 100.024,9.296 100.087,11.450 C99.937,11.672 99.772,11.893 99.687,12.151 C99.555,12.982 99.995,13.785 99.883,14.621 C99.835,14.937 99.626,15.195 99.480,15.471 C99.904,17.867 99.384,20.408 100.321,22.711 C99.176,25.367 99.739,28.315 99.449,31.106 C99.662,31.530 99.883,31.969 99.899,32.455 C100.010,33.828 99.234,35.090 99.341,36.460 C99.368,36.963 99.595,37.418 99.801,37.870 C100.483,39.375 100.377,41.138 101.234,42.579 C101.486,42.974 101.776,43.390 102.214,43.600 C103.186,43.760 103.820,42.816 104.712,42.652 C105.284,42.571 105.648,43.087 106.036,43.411 C106.562,43.920 107.342,44.232 108.071,44.024 C108.887,43.775 109.500,43.087 110.342,42.904 C110.751,42.800 111.199,42.879 111.539,43.134 C112.092,43.509 112.728,43.723 113.374,43.879 C113.683,43.945 114.016,44.060 114.331,43.920 C115.251,43.677 116.108,43.195 116.750,42.488 C116.736,41.207 116.287,39.726 117.199,38.639 C117.382,36.797 117.136,34.950 117.163,33.106 C117.130,31.501 117.330,29.885 117.851,28.363 C117.332,27.009 117.726,25.519 117.309,24.144 C117.151,23.643 116.829,23.177 116.364,22.915 C115.574,22.439 114.669,22.042 113.725,22.158 C113.120,22.177 112.596,22.489 112.061,22.724 C110.845,22.874 109.594,22.830 108.401,22.545 C107.277,22.254 106.147,21.682 105.505,20.678 C105.319,19.933 105.861,19.185 106.585,19.014 C108.436,18.451 110.394,19.037 112.263,18.603 C112.824,18.478 113.320,18.058 113.925,18.168 C115.067,18.237 115.916,19.231 117.063,19.258 C117.749,18.985 117.935,18.168 117.970,17.509 C117.999,16.919 117.680,16.397 117.588,15.829 C117.955,14.465 118.158,12.980 119.065,11.841 C119.361,11.433 119.828,11.205 120.176,10.851 C120.491,10.371 120.408,9.755 120.598,9.231 C120.875,8.741 121.381,8.433 121.880,8.198 C123.062,7.634 124.451,7.634 125.575,6.929 C126.372,6.418 127.337,6.146 128.284,6.181 C129.041,6.193 129.466,6.907 129.725,7.520 C129.624,8.029 129.251,8.431 128.824,8.695 C127.664,9.450 126.284,9.735 125.064,10.365 ZM75.742,49.404 C74.343,49.716 73.025,50.518 71.549,50.368 C71.084,50.298 70.546,50.235 70.237,49.844 C69.209,48.649 68.300,47.314 67.824,45.800 C67.762,45.499 67.522,45.274 67.247,45.166 C66.440,45.434 66.039,46.270 65.330,46.690 C64.765,47.118 63.975,47.160 63.497,47.713 C61.863,49.335 59.421,49.921 57.175,49.672 C56.695,49.643 56.203,49.456 55.732,49.632 C53.307,50.358 50.780,49.641 48.444,48.919 C47.948,48.728 47.345,48.707 46.974,48.283 C45.929,47.245 44.712,46.386 43.763,45.253 C43.118,44.480 42.662,43.488 42.770,42.465 C42.814,42.059 43.191,41.795 43.269,41.398 C43.237,40.735 42.612,40.219 42.741,39.537 C43.106,38.814 44.063,38.970 44.603,38.458 C45.765,37.479 45.564,35.678 46.726,34.684 C48.874,34.715 50.717,33.380 52.827,33.208 C53.465,33.168 54.126,33.258 54.710,33.526 C55.303,33.798 55.469,34.794 54.908,35.177 C54.081,35.880 52.988,36.106 51.945,36.285 C50.659,36.508 49.460,37.092 48.400,37.843 C47.573,38.444 46.828,39.215 46.442,40.176 C46.079,41.032 46.152,42.039 46.555,42.866 C47.602,44.193 49.122,45.077 50.707,45.619 C52.414,46.222 54.224,46.426 56.009,46.667 C57.094,45.482 58.829,45.802 60.209,45.291 C61.022,45.047 61.341,44.157 62.065,43.777 C63.316,43.049 64.765,42.698 66.204,42.617 C66.634,42.126 67.017,41.575 67.161,40.926 C67.562,39.302 66.963,37.666 67.013,36.034 C67.157,35.389 67.822,34.890 67.672,34.179 C67.518,33.865 67.180,33.576 66.809,33.678 C66.223,33.836 65.741,34.381 65.099,34.289 C62.290,33.921 59.558,34.990 56.756,34.923 C56.243,34.557 55.786,33.780 56.303,33.229 C56.812,32.678 57.434,32.089 58.228,32.048 C58.749,32.000 59.194,32.378 59.706,32.387 C60.338,32.106 60.455,31.224 61.149,31.045 C61.690,31.062 62.104,31.490 62.634,31.557 C63.483,31.711 64.315,31.391 65.109,31.135 C65.781,30.891 66.538,30.783 67.074,30.274 C67.858,29.540 68.139,28.463 68.467,27.479 C68.752,26.735 68.431,25.895 67.945,25.311 C66.669,23.893 64.671,23.479 63.297,22.181 C61.854,22.098 60.313,22.393 58.964,21.734 C58.555,21.485 58.063,21.574 57.609,21.560 C55.751,21.572 53.797,21.447 52.064,22.235 C51.549,22.437 51.313,22.976 50.928,23.331 C50.217,24.046 49.389,24.730 49.118,25.745 C49.806,26.201 50.763,25.681 51.370,26.282 C52.010,27.303 51.311,28.750 50.142,28.951 C49.274,29.122 48.475,29.642 47.566,29.557 C47.097,29.544 46.749,29.143 46.624,28.725 C46.169,27.384 45.725,25.999 45.760,24.566 C45.779,23.666 46.234,22.809 46.916,22.231 C48.085,21.216 49.583,20.730 50.959,20.069 C52.865,19.056 55.123,18.946 57.219,19.285 C57.965,19.231 58.726,19.200 59.454,19.414 C60.065,19.601 60.707,19.505 61.335,19.565 C62.042,19.684 62.722,19.956 63.445,19.963 C64.090,20.002 64.721,19.628 65.360,19.861 C67.372,20.351 68.950,21.842 70.281,23.346 C71.104,26.236 71.557,29.278 71.196,32.280 C71.050,33.597 70.742,34.888 70.393,36.163 C70.985,37.624 71.117,39.379 70.366,40.806 C70.295,42.072 70.322,43.342 70.270,44.609 C70.944,45.490 72.174,45.833 73.227,45.542 C74.184,45.091 74.070,43.715 75.029,43.257 C75.540,43.099 76.088,43.174 76.618,43.184 C77.026,43.195 77.450,43.345 77.710,43.677 C77.944,44.769 78.079,45.912 77.898,47.025 C77.717,48.127 76.897,49.225 75.742,49.404 ZM38.577,48.871 C38.458,49.056 38.349,49.248 38.256,49.447 C37.321,49.832 36.402,49.318 35.509,49.081 C34.996,48.936 34.513,49.169 34.075,49.408 C32.882,49.085 31.685,48.784 30.496,48.455 C29.854,47.524 29.187,46.607 28.547,45.673 C28.286,45.351 28.294,44.925 28.232,44.538 C27.863,41.490 28.065,38.410 28.259,35.358 C28.053,34.324 26.858,34.104 26.205,33.435 C25.911,33.181 25.878,32.698 25.479,32.559 C24.157,31.887 23.094,30.733 21.628,30.345 C20.971,30.155 20.281,30.278 19.641,30.467 C18.715,29.812 17.560,30.191 16.521,30.197 C16.046,30.241 15.635,29.950 15.182,29.900 C14.582,30.076 13.915,30.501 13.790,31.156 C13.591,34.842 13.277,38.591 14.077,42.234 C14.150,42.679 14.505,43.022 14.565,43.471 C14.678,44.097 14.649,44.887 15.301,45.237 C15.791,45.249 16.290,45.126 16.774,45.245 C17.253,45.351 17.656,45.650 18.100,45.842 C19.032,46.004 20.004,45.815 20.919,46.087 C21.238,46.170 21.540,46.368 21.701,46.663 C22.329,47.817 21.624,49.524 20.300,49.780 C19.180,49.865 18.273,48.863 17.143,49.040 C16.640,49.133 16.384,49.653 15.906,49.774 C15.283,49.801 14.768,49.377 14.194,49.200 C13.635,49.227 13.091,49.383 12.536,49.454 C9.306,49.923 6.022,49.890 2.780,49.578 C1.931,49.499 1.397,48.674 1.259,47.900 C1.305,46.981 1.927,46.143 2.767,45.781 C4.014,45.203 5.415,45.183 6.735,44.877 C7.219,44.765 7.680,44.569 8.164,44.457 C9.092,44.334 9.780,43.384 9.700,42.471 C9.773,39.868 9.917,37.267 9.984,34.663 C9.650,34.193 9.388,33.661 9.336,33.079 C9.212,31.819 9.761,30.617 9.746,29.361 C9.776,28.590 9.452,27.866 9.400,27.103 C9.256,25.799 9.319,24.408 8.672,23.223 C8.537,22.930 8.297,22.645 8.376,22.300 C8.391,21.445 9.004,20.782 9.256,20.000 C9.456,19.486 9.283,18.852 8.843,18.515 C8.176,17.915 7.307,17.388 7.079,16.459 C6.917,15.816 7.436,15.328 7.584,14.748 C5.957,14.425 4.195,14.654 2.682,13.876 C2.225,13.635 1.622,13.841 1.222,13.467 C0.678,13.011 0.377,12.350 -0.000,11.768 C0.125,11.013 0.069,10.225 0.336,9.497 C0.552,8.940 1.074,8.437 1.706,8.443 C3.307,8.350 4.890,7.919 6.502,8.059 C6.988,8.083 7.480,8.304 7.959,8.125 C9.325,7.784 10.774,7.961 12.115,7.485 C14.240,6.948 16.294,8.046 18.406,8.090 C19.192,8.133 19.937,7.855 20.688,7.670 C21.470,7.772 21.880,8.560 22.583,8.826 C22.998,8.886 23.254,8.487 23.534,8.258 C25.698,8.668 27.980,8.551 30.042,9.416 C30.634,9.697 31.322,9.606 31.927,9.849 C32.799,10.157 33.499,10.805 34.035,11.539 C35.046,12.928 35.597,14.592 36.608,15.981 C36.623,17.709 37.545,19.333 37.296,21.075 C37.238,21.649 36.800,22.115 36.808,22.703 C36.731,23.593 36.139,24.313 35.770,25.096 C35.660,25.398 35.363,25.548 35.107,25.701 C33.533,26.627 32.473,28.205 30.882,29.105 C30.515,29.313 30.115,29.450 29.740,29.644 C29.368,29.889 29.177,30.388 29.358,30.813 C29.612,31.415 30.071,31.906 30.342,32.503 C30.540,32.944 30.976,33.208 31.226,33.613 C31.743,34.437 31.831,35.433 31.969,36.370 C32.081,37.231 32.438,38.048 32.459,38.922 C32.530,40.706 31.869,42.523 32.450,44.276 C33.426,45.058 34.646,45.648 35.929,45.555 C36.256,45.428 36.456,45.097 36.777,44.954 C37.392,44.686 38.093,44.744 38.729,44.904 C39.219,45.081 39.621,45.432 40.082,45.671 C40.529,45.935 41.054,46.272 41.096,46.844 C41.146,47.283 41.150,47.842 40.706,48.092 C40.032,48.439 39.152,48.322 38.577,48.871 ZM29.531,21.925 C30.017,21.605 30.580,21.235 30.630,20.595 C30.635,20.529 30.637,20.464 30.637,20.398 C30.636,20.138 30.595,19.883 30.537,19.630 C30.493,19.440 30.440,19.251 30.386,19.062 C30.279,18.684 30.171,18.307 30.139,17.919 C30.128,17.790 30.125,17.659 30.134,17.528 C30.146,17.287 30.217,17.061 30.307,16.843 C30.375,16.679 30.454,16.519 30.528,16.358 C30.553,16.304 30.578,16.251 30.601,16.197 C30.492,16.101 30.368,16.043 30.236,16.003 C30.171,15.983 30.103,15.968 30.035,15.954 C29.967,15.941 29.898,15.929 29.829,15.918 C29.657,15.888 29.488,15.855 29.338,15.780 C29.248,15.735 29.165,15.674 29.093,15.590 C28.856,15.343 28.595,15.132 28.319,14.945 C28.111,14.804 27.895,14.677 27.673,14.558 C27.378,14.399 27.073,14.254 26.768,14.110 C26.615,14.039 26.463,13.967 26.311,13.894 C26.083,13.786 25.858,13.674 25.638,13.554 C25.535,13.661 25.431,13.772 25.322,13.875 C25.249,13.943 25.173,14.008 25.092,14.065 C24.971,14.151 24.838,14.220 24.689,14.259 C24.425,14.322 24.162,14.343 23.898,14.338 C23.767,14.335 23.635,14.326 23.503,14.313 C23.372,14.300 23.240,14.283 23.108,14.265 C22.581,14.189 22.054,14.083 21.526,14.091 C21.277,14.121 21.042,14.216 20.805,14.303 C20.746,14.325 20.687,14.346 20.627,14.366 C20.448,14.424 20.266,14.467 20.072,14.463 C19.895,14.481 19.724,14.455 19.555,14.414 C19.274,14.345 19.000,14.233 18.713,14.211 C18.078,14.623 17.342,14.794 16.644,15.057 C16.412,15.145 16.183,15.243 15.964,15.363 C15.889,18.308 15.729,21.250 15.658,24.192 C15.670,24.209 15.685,24.229 15.701,24.252 C15.734,24.298 15.773,24.352 15.806,24.398 C15.823,24.421 15.838,24.442 15.850,24.458 C15.903,24.448 15.957,24.438 16.011,24.426 C16.386,24.345 16.760,24.231 17.147,24.273 C17.610,24.313 18.039,24.476 18.429,24.714 C18.624,24.832 18.809,24.969 18.983,25.118 C19.157,25.267 19.320,25.429 19.472,25.595 C19.546,25.667 19.617,25.748 19.690,25.830 C19.836,25.993 19.987,26.158 20.175,26.249 C20.269,26.294 20.373,26.321 20.489,26.319 C20.808,26.332 21.088,26.226 21.357,26.083 C21.434,26.042 21.510,25.998 21.585,25.953 C21.623,25.930 21.661,25.907 21.698,25.885 C21.886,25.770 22.074,25.655 22.272,25.567 C22.311,25.550 22.351,25.533 22.391,25.519 C22.598,25.508 22.808,25.526 23.018,25.540 C23.157,25.549 23.297,25.557 23.435,25.553 C23.642,25.546 23.846,25.514 24.043,25.421 C24.638,25.197 25.181,24.762 25.749,24.422 C26.317,24.082 26.910,23.837 27.606,23.996 C28.624,23.847 29.491,22.967 29.531,21.925 ZM28.624,55.190 C41.832,55.201 55.038,55.163 68.243,55.215 C78.809,55.215 89.373,55.213 99.939,55.213 C111.608,55.261 123.279,55.228 134.948,55.236 C134.940,63.154 134.950,71.072 134.942,78.990 C128.209,78.988 121.475,79.013 114.742,78.967 C101.885,78.957 89.027,78.992 76.167,78.946 C63.379,78.938 50.588,78.967 37.799,78.922 C25.419,78.915 13.039,78.938 0.659,78.903 C0.653,70.995 0.663,63.088 0.659,55.180 C9.982,55.151 19.303,55.151 28.624,55.190 ZM119.215,75.287 C119.213,73.799 119.235,72.311 119.240,70.824 C119.242,70.328 119.242,69.832 119.238,69.336 C119.732,69.348 120.234,69.335 120.730,69.375 C120.928,69.390 121.126,69.415 121.321,69.452 C121.419,69.471 121.516,69.493 121.613,69.519 C121.890,69.605 122.131,69.750 122.348,69.928 C122.710,70.225 123.005,70.614 123.290,70.981 C124.307,72.380 125.233,73.844 126.196,75.283 C127.556,75.287 128.918,75.293 130.279,75.279 C129.919,74.741 129.575,74.193 129.232,73.644 C129.003,73.279 128.774,72.913 128.541,72.550 C128.191,72.006 127.830,71.469 127.443,70.949 C127.213,70.645 126.956,70.363 126.679,70.103 C126.215,69.667 125.694,69.290 125.147,68.964 C125.854,68.843 126.573,68.662 127.218,68.343 C127.347,68.279 127.473,68.209 127.595,68.134 C127.840,67.983 128.070,67.807 128.279,67.602 C128.630,67.259 128.909,66.860 129.118,66.427 C129.188,66.282 129.250,66.134 129.304,65.982 C129.358,65.831 129.405,65.676 129.443,65.520 C129.870,63.798 129.365,61.812 127.985,60.667 C127.770,60.490 127.539,60.345 127.298,60.225 C127.056,60.105 126.804,60.010 126.544,59.935 C126.273,59.857 125.993,59.800 125.710,59.758 C125.368,59.706 125.021,59.675 124.676,59.654 C124.579,59.648 124.482,59.642 124.386,59.638 C124.205,59.628 124.026,59.621 123.848,59.613 C121.856,59.599 119.862,59.605 117.869,59.607 C117.205,59.608 116.541,59.608 115.876,59.607 C115.872,60.914 115.871,62.221 115.872,63.528 C115.872,64.835 115.873,66.142 115.874,67.449 C115.876,70.063 115.876,72.677 115.860,75.291 C116.978,75.279 118.097,75.289 119.215,75.287 ZM96.083,75.274 C99.275,75.271 102.466,75.262 105.657,75.289 C105.659,74.347 105.653,73.409 105.630,72.469 C102.508,72.463 99.386,72.465 96.265,72.467 C96.261,71.293 96.265,70.118 96.261,68.943 C99.072,68.947 101.882,68.937 104.693,68.947 C104.687,68.007 104.687,67.069 104.691,66.130 C101.882,66.132 99.072,66.128 96.263,66.132 C96.266,65.510 96.263,64.887 96.262,64.264 C96.262,64.264 96.262,64.263 96.262,64.262 C96.262,63.951 96.262,63.639 96.263,63.328 C96.264,63.016 96.266,62.704 96.271,62.393 C99.291,62.397 102.308,62.397 105.327,62.393 C105.325,61.455 105.327,60.520 105.325,59.582 C101.188,59.580 97.050,59.588 92.913,59.578 C92.911,59.578 92.909,59.578 92.908,59.578 C92.901,63.501 92.912,67.426 92.905,71.350 C92.902,72.659 92.898,73.967 92.891,75.274 C93.955,75.276 95.019,75.275 96.083,75.274 ZM67.067,68.588 C67.087,68.764 67.112,68.940 67.141,69.115 C67.199,69.465 67.276,69.812 67.371,70.153 C67.466,70.493 67.580,70.828 67.712,71.155 C67.787,71.350 67.871,71.540 67.964,71.726 C68.010,71.819 68.059,71.910 68.110,72.001 C68.262,72.272 68.432,72.533 68.619,72.781 C68.682,72.864 68.746,72.945 68.812,73.026 C68.944,73.186 69.083,73.340 69.228,73.488 C69.737,74.006 70.324,74.449 70.963,74.796 C71.168,74.904 71.381,74.996 71.596,75.079 C71.783,75.151 71.972,75.218 72.165,75.274 C72.557,75.388 72.959,75.469 73.363,75.531 C73.403,75.537 73.443,75.543 73.482,75.548 C73.752,75.586 74.023,75.616 74.293,75.638 C75.059,75.686 75.830,75.674 76.595,75.602 C77.871,75.484 79.132,75.201 80.334,74.761 C80.978,74.527 81.579,74.192 82.139,73.800 C82.326,73.670 82.508,73.532 82.686,73.391 C82.686,71.261 82.682,69.134 82.686,67.007 C81.476,67.003 80.267,67.001 79.058,67.001 C77.848,67.000 76.639,67.002 75.429,67.005 C75.434,67.226 75.436,67.447 75.436,67.668 C75.436,67.670 75.436,67.672 75.436,67.674 C75.436,67.898 75.434,68.121 75.431,68.344 C75.425,68.791 75.415,69.237 75.406,69.683 C75.570,69.686 75.734,69.687 75.898,69.687 C77.047,69.689 78.197,69.645 79.343,69.729 C79.337,70.068 79.333,70.407 79.332,70.746 C79.330,71.085 79.331,71.425 79.333,71.765 C77.863,72.740 76.046,73.363 74.272,73.014 C74.099,72.985 73.929,72.945 73.761,72.894 C73.009,72.666 72.323,72.226 71.795,71.644 C71.736,71.579 71.679,71.513 71.625,71.445 C71.406,71.172 71.221,70.874 71.077,70.554 C70.978,70.340 70.898,70.119 70.828,69.895 C70.771,69.710 70.722,69.524 70.682,69.335 C70.632,69.098 70.592,68.858 70.564,68.617 C70.548,68.484 70.536,68.350 70.525,68.216 C70.505,67.948 70.495,67.679 70.491,67.413 C70.498,66.702 70.558,65.971 70.750,65.282 C70.865,64.868 71.028,64.469 71.255,64.098 C71.375,63.899 71.513,63.712 71.666,63.538 C72.327,62.785 73.263,62.279 74.257,62.125 C74.574,62.077 74.902,62.045 75.230,62.037 C75.313,62.036 75.395,62.035 75.477,62.037 C75.794,62.042 76.110,62.072 76.417,62.133 C76.510,62.151 76.601,62.171 76.692,62.196 C76.892,62.249 77.087,62.319 77.276,62.403 C77.531,62.517 77.774,62.660 77.998,62.840 C78.435,63.168 78.722,63.624 78.969,64.101 C79.051,64.260 79.128,64.421 79.206,64.581 C80.292,64.312 81.405,64.167 82.502,63.946 C82.365,63.435 82.172,62.934 81.921,62.466 C81.837,62.310 81.747,62.157 81.651,62.009 C81.458,61.713 81.239,61.435 80.994,61.182 C80.748,60.928 80.476,60.699 80.177,60.501 C79.176,59.833 78.023,59.496 76.838,59.360 C75.916,59.255 74.973,59.270 74.065,59.347 C73.320,59.403 72.584,59.573 71.888,59.843 C71.748,59.898 71.611,59.956 71.475,60.018 C71.203,60.142 70.938,60.282 70.683,60.436 C70.428,60.591 70.181,60.760 69.946,60.943 C69.241,61.493 68.635,62.169 68.181,62.946 C67.825,63.562 67.552,64.219 67.360,64.900 C67.215,65.410 67.115,65.934 67.059,66.463 C66.985,67.168 66.989,67.883 67.067,68.588 ZM43.467,75.260 C44.488,75.258 45.512,75.256 46.536,75.256 C46.511,71.935 46.540,68.616 46.605,65.300 C48.655,68.621 50.713,71.939 52.771,75.258 C53.440,75.257 54.110,75.257 54.779,75.257 C55.449,75.257 56.119,75.257 56.789,75.254 C56.796,72.639 56.795,70.024 56.797,67.409 C56.800,64.795 56.805,62.180 56.823,59.565 C56.300,59.564 55.778,59.565 55.256,59.566 C54.733,59.567 54.211,59.567 53.688,59.565 C53.686,60.032 53.685,60.500 53.685,60.967 C53.684,62.369 53.691,63.771 53.693,65.173 C53.695,66.575 53.692,67.976 53.672,69.378 C53.665,69.845 53.656,70.312 53.645,70.779 C51.347,67.042 49.030,63.316 46.747,59.571 C45.652,59.557 44.555,59.582 43.463,59.544 C43.469,64.782 43.458,70.020 43.467,75.260 ZM29.871,75.233 C30.989,75.233 32.104,75.233 33.222,75.235 C33.229,72.620 33.232,70.005 33.232,67.391 C33.232,67.387 33.232,67.384 33.232,67.381 C33.232,64.769 33.228,62.158 33.222,59.546 C32.102,59.551 30.982,59.542 29.863,59.555 C29.860,60.859 29.857,62.162 29.855,63.466 C29.853,64.775 29.851,66.085 29.850,67.394 C29.850,70.007 29.854,72.620 29.871,75.233 ZM12.776,59.549 C10.257,59.549 7.740,59.549 5.223,59.549 C5.227,62.161 5.228,64.773 5.228,67.385 C5.228,67.387 5.228,67.388 5.228,67.390 C5.228,70.003 5.227,72.617 5.226,75.231 C6.343,75.243 7.461,75.222 8.579,75.241 C8.574,73.243 8.576,71.247 8.576,69.251 C9.361,69.261 10.149,69.282 10.920,69.425 C11.018,69.455 11.111,69.492 11.201,69.535 C11.700,69.772 12.085,70.188 12.427,70.624 C12.516,70.737 12.602,70.851 12.687,70.964 C13.679,72.361 14.615,73.796 15.562,75.227 C16.238,75.233 16.914,75.235 17.590,75.235 C17.593,75.235 17.596,75.235 17.599,75.235 C18.278,75.234 18.957,75.231 19.637,75.225 C19.278,74.683 18.936,74.132 18.594,73.581 C18.366,73.213 18.137,72.846 17.903,72.482 C17.553,71.937 17.191,71.399 16.801,70.881 C16.570,70.572 16.312,70.286 16.034,70.023 C15.848,69.847 15.653,69.681 15.450,69.525 C15.146,69.290 14.825,69.077 14.492,68.885 C14.941,68.816 15.395,68.717 15.832,68.572 C16.269,68.427 16.688,68.237 17.069,67.987 C17.323,67.820 17.560,67.627 17.772,67.402 C17.945,67.218 18.098,67.020 18.232,66.810 C18.298,66.706 18.361,66.598 18.418,66.488 C18.648,66.049 18.802,65.572 18.883,65.081 C19.065,63.975 18.876,62.798 18.344,61.821 C18.311,61.758 18.277,61.696 18.240,61.636 C17.770,60.844 17.011,60.231 16.139,59.933 C16.005,59.888 15.868,59.849 15.729,59.819 C15.487,59.764 15.243,59.719 14.998,59.684 C14.508,59.613 14.014,59.577 13.518,59.561 C13.271,59.552 13.023,59.549 12.776,59.549 ZM14.023,66.460 C12.222,66.735 10.389,66.587 8.572,66.620 C8.581,65.196 8.576,63.774 8.576,62.349 C10.184,62.358 11.794,62.320 13.402,62.379 C14.107,62.395 14.866,62.701 15.218,63.347 C15.798,64.456 15.370,66.171 14.023,66.460 ZM123.087,62.403 C123.898,62.451 124.822,62.376 125.475,62.950 C126.109,63.478 126.182,64.387 126.040,65.146 C125.871,65.930 125.145,66.525 124.351,66.579 C122.651,66.760 120.939,66.672 119.236,66.695 C119.238,65.275 119.240,63.855 119.234,62.435 C120.516,62.368 121.803,62.414 123.087,62.403 Z" id="path-1" class="cls-2" fill-rule="evenodd"/>
</svg>
