<svg xmlns="http://www.w3.org/2000/svg" xmlns:xlink="http://www.w3.org/1999/xlink" preserveAspectRatio="xMidYMid" width="160" height="49" viewBox="0 0 160 49">
  <defs>
    <style>

      .cls-2 {
        fill: #ffffff;
      }
    </style>
  </defs>
  <path d="M154.090,34.677 C154.090,34.677 154.090,21.494 154.090,21.494 C154.090,17.506 151.629,15.851 148.903,15.851 C145.796,15.851 143.041,17.635 143.041,21.802 C143.041,21.802 143.041,34.677 143.041,34.677 C143.041,34.677 137.131,34.677 137.131,34.677 C137.131,34.677 137.131,0.631 137.131,0.631 C137.131,0.631 143.041,0.631 143.041,0.631 C143.041,0.631 143.041,13.140 143.041,13.140 C143.041,13.140 145.304,10.015 150.226,10.015 C156.415,10.015 160.000,14.657 160.000,20.592 C160.000,20.592 160.000,34.677 160.000,34.677 C160.000,34.677 154.090,34.677 154.090,34.677 ZM124.738,29.575 C128.447,29.575 130.816,26.467 130.816,26.467 C130.816,26.467 134.980,30.605 134.980,30.605 C134.980,30.605 131.583,35.342 124.836,35.342 C117.201,35.342 111.999,29.475 111.999,22.558 C111.999,15.420 117.879,10.015 124.812,10.015 C131.514,10.015 134.945,14.789 134.945,14.789 C134.945,14.789 130.822,18.929 130.822,18.929 C130.822,18.929 128.434,15.816 124.784,15.816 C120.738,15.816 117.972,18.938 117.972,22.650 C117.972,26.568 120.915,29.575 124.738,29.575 ZM98.110,30.057 C101.846,30.057 104.829,26.811 104.829,26.811 C104.829,26.811 108.779,30.802 108.779,30.802 C108.779,30.802 105.237,35.339 98.035,35.339 C90.315,35.339 85.391,30.047 85.391,22.857 C85.391,15.901 90.299,10.020 97.912,10.020 C106.295,10.020 110.054,16.895 110.054,23.446 C110.054,23.446 110.054,25.088 110.054,25.088 C110.054,25.088 91.638,25.088 91.638,25.088 C92.507,28.303 94.996,30.057 98.110,30.057 ZM103.854,20.249 C103.232,16.739 100.447,15.270 97.725,15.270 C94.107,15.270 91.968,17.782 91.477,20.249 C91.477,20.249 103.854,20.249 103.854,20.249 ZM81.370,34.660 C81.370,34.660 75.460,34.660 75.460,34.660 C75.460,34.660 75.460,16.099 75.460,16.099 C75.460,16.099 72.291,16.099 72.291,16.099 C72.291,16.099 72.291,10.742 72.291,10.742 C72.291,10.742 75.460,10.742 75.460,10.742 C75.460,10.742 75.460,3.397 75.460,3.397 C75.460,3.397 81.370,3.397 81.370,3.397 C81.370,3.397 81.370,10.742 81.370,10.742 C81.370,10.742 84.625,10.742 84.625,10.742 C84.625,10.742 84.625,16.099 84.625,16.099 C84.625,16.099 81.370,16.099 81.370,16.099 C81.370,16.099 81.370,34.660 81.370,34.660 ZM66.754,7.896 C64.593,7.896 62.841,6.129 62.841,3.948 C62.841,1.768 64.593,-0.000 66.754,-0.000 C68.916,-0.000 70.668,1.768 70.668,3.948 C70.668,6.129 68.916,7.896 66.754,7.896 ZM48.725,35.322 C41.549,35.322 35.845,30.150 35.845,22.642 C35.845,15.914 41.088,10.036 48.666,10.036 C50.943,10.036 52.762,10.742 52.762,10.742 C52.762,10.742 61.156,10.742 61.156,10.742 C61.156,10.742 61.156,15.581 61.156,15.581 C61.156,15.581 59.518,16.147 59.518,16.147 C59.518,16.147 61.444,18.138 61.444,22.625 C61.444,30.245 55.535,35.322 48.725,35.322 ZM48.596,15.788 C44.839,15.788 41.851,18.812 41.851,22.674 C41.851,26.197 44.498,29.560 48.703,29.560 C52.263,29.560 55.481,26.651 55.481,22.663 C55.481,18.902 52.562,15.788 48.596,15.788 ZM48.662,43.238 C52.221,43.238 55.439,40.307 55.439,36.319 C55.439,36.319 61.403,36.319 61.403,36.319 C61.403,43.939 55.493,49.000 48.683,49.000 C41.507,49.000 35.803,43.828 35.803,36.319 C35.803,36.319 41.799,36.319 41.799,36.319 C41.799,39.842 44.456,43.238 48.662,43.238 ZM21.097,35.322 C13.922,35.322 8.217,30.150 8.217,22.642 C8.217,15.914 13.461,10.036 21.039,10.036 C28.920,10.036 33.817,16.218 33.817,22.625 C33.817,30.245 27.907,35.322 21.097,35.322 ZM20.969,15.788 C17.212,15.788 14.224,18.812 14.224,22.674 C14.224,26.197 16.870,29.560 21.076,29.560 C24.635,29.560 27.853,26.651 27.853,22.663 C27.853,18.902 24.934,15.788 20.969,15.788 ZM-0.000,0.718 C-0.000,0.718 5.910,0.718 5.910,0.718 C5.910,0.718 5.910,34.660 5.910,34.660 C5.910,34.660 -0.000,34.660 -0.000,34.660 C-0.000,34.660 -0.000,0.718 -0.000,0.718 ZM69.722,34.660 C69.722,34.660 63.812,34.660 63.812,34.660 C63.812,34.660 63.812,10.742 63.812,10.742 C63.812,10.742 69.722,10.742 69.722,10.742 C69.722,10.742 69.722,34.660 69.722,34.660 Z" id="path-1" class="cls-2" fill-rule="evenodd"/>
</svg>
