<svg width="120" height="29" viewBox="0 0 120 29" fill="none" xmlns="http://www.w3.org/2000/svg">
<path fill-rule="evenodd" clip-rule="evenodd" d="M7.3 4.4C8.5 4.4 9.5 3.4 9.5 2.2C9.5 1 8.5 0 7.3 0C6.1 0 5.2 1 5.2 2.2C5.2 3.4 6.1 4.4 7.3 4.4V4.4ZM98.6 11C99.6 12.3 99.7 12.9 99.7 12.9L102.5 12.2C101 9 99 7 95.4 7C91.3 7 88.2 10.3 88.2 14.3C88.2 18.3 91.3 21.6 95.4 21.6C99.1 21.6 101 19.6 102.5 16.5L99.7 15.8C99.7 15.8 99.6 16.4 98.6 17.7C97.9 18.4 97.1 19 95.4 19C92.9 19 91.1 16.9 91.1 14.4C91.1 11.9 93 9.8 95.4 9.8C97.1 9.7 97.9 10.3 98.6 11V11ZM117.1 7.3H120V21.5H117.1V19.4C116.3 20.6 114.7 21.5 112.8 21.5C109.1 21.5 106.5 18.2 106.5 14.2C106.5 10.2 109.1 6.9 112.8 6.9C114.7 6.9 116.2 7.8 117.1 9V7.3ZM113.3 18.9C115.6 18.9 117.1 16.8 117.1 14.3C117.1 11.8 115.5 9.7 113.3 9.7C111 9.7 109.5 11.8 109.5 14.3C109.5 16.8 111 18.9 113.3 18.9ZM78.2 4.4C79.4 4.4 80.4 3.4 80.4 2.2C80.4 1 79.4 0 78.2 0C77 0 76 1 76 2.2C76 3.4 77 4.4 78.2 4.4ZM80.1 18.7V7.3H73.1V10H77.2V18.7H72.6V21.4H84.6V18.7H80.1V18.7ZM57.2 7.3H54.3V28.6H57.2V19.5C58 20.7 59.6 21.6 61.5 21.6C65.2 21.6 67.8 18.3 67.8 14.3C67.8 10.3 65.2 7 61.5 7C59.6 7 58.1 7.9 57.2 9.1V7.3ZM61 18.9C58.7 18.9 57.2 16.8 57.2 14.3C57.2 11.8 58.8 9.7 61 9.7C63.3 9.7 64.8 11.8 64.8 14.3C64.9 16.8 63.3 18.9 61 18.9ZM44.6 7C43.2 7 42.1 7.6 41.3 9.3C40.9 7.8 39.7 7 38.6 7C37 7 36.2 8.1 35.8 9.1V7.3H32.9V21.3H35.8V14C35.8 11.3 36.3 9.6 37.6 9.6C39.1 9.6 39.2 10.8 39.2 13.4V21.3H42V13.8C42 11.3 42.5 9.7 43.8 9.7C45.3 9.7 45.4 10.9 45.4 13.5V21.4H48.3V13.3C48.3 8.9 47.1 7 44.6 7V7ZM20.4 21.6C22.4 21.6 23.6 20.4 24.2 19.4V21.3H27V7.3H24.1V14.3C24.1 17.3 22.6 18.9 20.9 18.9C18.7 18.9 17.9 17.5 17.9 15.1V7.3H15V14.9C15 19.2 16.9 21.6 20.4 21.6V21.6ZM4.9 29H0V26.4H5.3C5.9 26.4 6.4 25.9 6.4 25.3V9.9H2.3V7.3H9.3V26.1C9.3 27.7 8 29 6.4 29H4.9Z" fill="white"/>
</svg>
