<?xml version="1.0" encoding="UTF-8"?> <svg xmlns="http://www.w3.org/2000/svg" width="120" height="80" viewBox="0 0 120 80" fill="none"> <path fill-rule="evenodd" clip-rule="evenodd" d="M118.982 16.8678L89.8777 0.256425C89.2734 -0.0834849 88.4938 -0.0858619 87.8839 0.251671L60.0004 16.1753L32.1145 0.251671C31.5078 -0.0858619 30.729 -0.0834849 30.1231 0.256425L1.01654 16.8678C0.390606 17.222 0 17.8804 0 18.5975V66.8204C0 67.7727 0.681959 68.5904 1.62886 68.7687L60.8224 79.9635C60.9481 79.9881 61.0706 80 61.1994 80C61.6597 80 62.1135 79.8407 62.4737 79.546C62.9363 79.168 63.1997 78.6079 63.1997 78.016V69.6799H117.997C119.102 69.6799 120 68.7917 120 67.6967V18.5975C120 17.8804 119.612 17.222 118.982 16.8678ZM115.994 65.7135H61.1994C60.0908 65.7135 59.1928 66.6009 59.1928 67.6967V75.6184L3.9853 65.1786H4.00611V19.7543L31.1116 4.25786L59.0311 20.2162C59.6386 20.5537 60.3638 20.5514 60.9721 20.2099L88.8892 4.25786L115.994 19.7543V65.7135Z" fill="white"></path> <path fill-rule="evenodd" clip-rule="evenodd" d="M62.8565 34.2896L64.8499 30.1817H66.585V34.2896H62.8565ZM67.9777 27.1698H64.805C63.6808 27.1698 62.8486 27.5916 62.3928 28.3961L56.2025 40.7547H58.1014C59.1705 40.7547 59.8491 40.5446 60.3554 39.4421L61.4819 37.1207H66.585V38.8933C66.585 39.5903 66.8291 40.7547 68.4792 40.7547H69.8734V29.0344C69.8734 28.3383 69.627 27.1698 67.9777 27.1698Z" fill="white"></path> <path fill-rule="evenodd" clip-rule="evenodd" d="M48.9134 27.1706C48.2534 27.1706 47.1366 27.4116 47.0886 29.0368V30.1848L51.7853 30.184V40.7547H55.1284V30.184H57.4564L58.0476 30.1815C58.5515 30.1815 59.3211 30.0415 59.6787 29.255L60.7595 27.1698L48.9134 27.1706Z" fill="white"></path> <path fill-rule="evenodd" clip-rule="evenodd" d="M38.1586 35.2607H41.0153C42.0163 35.2607 42.4725 34.5799 42.7569 33.9855C42.9873 33.505 43.5198 32.4269 43.5198 32.4269H38.1594V30.1827H45.4556V29.0345C45.4556 27.831 44.7982 27.1698 43.5992 27.1698H36.6952C36.0587 27.1698 34.9822 27.4108 34.9367 29.0354V38.8908C34.9367 39.451 35.1201 40.7547 36.8093 40.7547H43.7148C44.91 40.7547 45.5696 40.0919 45.5696 38.8908V37.7459H38.1586V35.2607Z" fill="white"></path> <path fill-rule="evenodd" clip-rule="evenodd" d="M18.6202 38.8889V31.9467L22.2649 36.3206L22.3085 36.3735H22.3134C22.6403 36.704 23.0847 36.8937 23.5423 36.8937C24.0105 36.8937 24.445 36.7097 24.7736 36.3735L28.4643 31.9467V38.8889C28.4643 39.5857 28.7239 40.7547 30.4637 40.7547H31.8987V29.0364C31.8987 27.8324 31.1948 27.1698 29.9199 27.1698L28.4848 27.1714L23.5423 33.0961L18.6013 27.1714L17.1679 27.1698C15.893 27.1698 15.1899 27.8324 15.1899 29.0364V40.7547H16.6249C18.3614 40.7547 18.6202 39.5857 18.6202 38.8889Z" fill="white"></path> <path fill-rule="evenodd" clip-rule="evenodd" d="M81.7748 30.1825H80.0916L75.5461 39.443C75.0383 40.5455 74.3613 40.7547 73.2921 40.7547H71.3924L77.5836 28.3961C78.0387 27.5916 78.8717 27.1698 79.9939 27.1698H83.1683C84.8176 27.1698 85.0633 28.3383 85.0633 29.0344V40.7547H83.669C82.0196 40.7547 81.7748 39.5903 81.7748 38.8942V30.1825Z" fill="white"></path> <path fill-rule="evenodd" clip-rule="evenodd" d="M96.9648 30.1825H95.2808L90.7359 39.443C90.2281 40.5455 89.5511 40.7547 88.4812 40.7547H86.5823L92.7733 28.3961C93.2284 27.5916 94.0613 27.1698 95.184 27.1698H98.3582C100.007 27.1698 100.253 28.3383 100.253 29.0344V40.7547H98.8589C97.2088 40.7547 96.9648 39.5903 96.9648 38.8942V30.1825Z" fill="white"></path> <path fill-rule="evenodd" clip-rule="evenodd" d="M76.5821 44.8594L72.8921 50.7228V45.4359C72.8921 44.3636 72.2751 43.7736 71.1531 43.7736H69.8734V55.8491H72.8283L77.4922 48.4325V54.1851C77.4922 54.8075 77.7152 55.8491 79.2432 55.8491H80.5063V43.7736H78.7876C77.757 43.7736 76.9927 44.1508 76.5821 44.8594Z" fill="white"></path> <path fill-rule="evenodd" clip-rule="evenodd" d="M46.3187 53.2642C44.2688 53.2642 42.6602 51.7146 42.6602 49.7362C42.6602 47.8355 44.2688 46.3456 46.3187 46.3456C48.3819 46.3456 49.9972 47.8355 49.9972 49.7362C49.9972 51.7146 48.3819 53.2642 46.3187 53.2642ZM46.3187 43.7736C42.4927 43.7736 39.4937 46.3947 39.4937 49.7377C39.4937 53.1645 42.4927 55.8491 46.3187 55.8491C50.1581 55.8491 53.1646 53.1645 53.1646 49.7377C53.1646 46.3947 50.1581 43.7736 46.3187 43.7736Z" fill="white"></path> <path fill-rule="evenodd" clip-rule="evenodd" d="M36.2492 47.8153C36.2492 48.7358 35.6834 49.2222 34.6155 49.2222H32.1027V46.456H34.6316C35.7046 46.456 36.2492 46.913 36.2492 47.8153ZM34.8374 43.7736H30.7019C30.0236 43.7736 28.8819 44.0021 28.8608 45.5442V55.8491H32.1027V51.8959H34.8374C37.5797 51.8959 39.4937 50.217 39.4937 47.8106C39.4937 45.4335 37.5797 43.7736 34.8374 43.7736Z" fill="white"></path> <path fill-rule="evenodd" clip-rule="evenodd" d="M65.3651 49.024C65.3651 50.4475 64.5361 51.3361 63.0258 51.5407V46.5677C64.5361 46.7675 65.3651 47.6343 65.3651 49.024ZM57.6768 49.024C57.6768 47.6327 58.5128 46.7659 60.0325 46.5677V51.5415C58.5128 51.3385 57.6768 50.4499 57.6768 49.024ZM63.0258 43.8278V42.4043L63.0195 42.2641H61.7475C60.6802 42.2641 60.0739 42.8184 60.0263 43.8278C56.7752 44.0832 54.6835 46.1125 54.6835 49.024C54.6835 51.9749 56.7798 54.0292 60.0325 54.2846V55.8491H63.0258V54.2846C66.2675 54.0292 68.3544 51.9749 68.3544 49.024C68.3544 46.1077 66.2675 44.08 63.0258 43.8278Z" fill="white"></path> <path fill-rule="evenodd" clip-rule="evenodd" d="M24.0838 43.7736H16.902C16.2696 43.7736 15.2072 44.0053 15.1899 45.5515V55.8491H18.2086V46.45H22.8048V54.185C22.8048 54.8074 23.0301 55.8491 24.5587 55.8491H25.8228V45.4384C25.8228 44.366 25.2053 43.7736 24.0838 43.7736Z" fill="white"></path> <path fill-rule="evenodd" clip-rule="evenodd" d="M91.2534 46.4512H89.7586L85.7176 54.6826C85.2657 55.6624 84.664 55.8491 83.7136 55.8491H82.0253L87.5282 44.8641C87.9334 44.1484 88.6728 43.7736 89.6699 43.7736H92.4928C93.9578 43.7736 94.1772 44.8119 94.1772 45.4319V55.8491H92.9386C91.4728 55.8491 91.2534 54.8139 91.2534 54.1947V46.4512Z" fill="white"></path> <path fill-rule="evenodd" clip-rule="evenodd" d="M102.813 53.1722H100.46V50.111H102.795C103.979 50.111 104.604 50.648 104.604 51.6673C104.604 52.6653 104.002 53.1722 102.813 53.1722ZM102.973 47.4342H100.46L100.455 45.4287C100.455 44.8095 100.208 43.7736 98.588 43.7736H97.2152V54.1939C97.2152 54.7443 97.4184 55.6245 98.6024 55.8111C98.7642 55.8388 98.92 55.8491 99.0564 55.8491H102.973C105.843 55.8491 107.848 54.1306 107.848 51.6665C107.848 49.1747 105.843 47.4342 102.973 47.4342Z" fill="white"></path> </svg> 