<svg xmlns="http://www.w3.org/2000/svg" width="182" height="38" fill="none" viewBox="0 0 182 38"><path fill="#fff" fill-rule="evenodd" d="M112.965 3.783l-.617.623s-.762.685-.762 1.5v26.28c0 .814.762 1.499.762 1.499l.617.623s.743.734 1.451.734h1.995V3.049h-1.995c-.708 0-1.451.734-1.451.734zm8.164 24.458h-2.541c-.631 0-1.142.516-1.142 1.152V38h4.825v-8.607c0-.636-.511-1.152-1.142-1.152zm6.989-10.134V5.906c0-.815-.762-1.5-.762-1.5l-.617-.623s-.744-.734-1.451-.734h-1.995v15.057h-.027a.537.537 0 00-.533.537v.74c0 .296.24.537.533.537h.027v15.122h1.995c.707 0 1.451-.734 1.451-.734l.617-.623s.762-.685.762-1.5V19.92a.535.535 0 00.527-.535v-.741a.535.535 0 00-.527-.536zm-10.672-9.5c0 .635.511 1.151 1.142 1.151h2.541c.631 0 1.142-.516 1.142-1.151V0h-4.825v8.607zm20.251 7.744h-2.923a1.23 1.23 0 00-1.221 1.231v2.949c0 .665.539 1.21 1.199 1.21h2.945c.659 0 1.199-.545 1.199-1.21v-2.97c0-.666-.54-1.21-1.199-1.21zm11.757.647h5.121V7.703h-5.121v9.295zm9.184-12.592l-.617-.623s-.743-.734-1.451-.734h-10.799c-.631 0-1.141.516-1.281 1.151v29.69c.14.636.65 1.152 1.281 1.152h2.542c.63 0 1.141-.516 1.141-1.151V21.652h1.24l3.594 12.239c.187.635.85 1.15 1.48 1.15h2.741c.63 0 .99-.515.803-1.15l-3.594-12.239h.852c.708 0 1.451-.734 1.451-.734l.617-.622s.762-.685.762-1.5V5.906c0-.815-.762-1.5-.762-1.5zm22.221-1.357h-2.542c-.631 0-1.142.516-1.281 1.151v26.137h-5.74V4.2c0-.635-.512-1.15-1.142-1.15h-2.542c-.631 0-1.141.515-1.28 1.15v27.923c0 .713.727 1.463.727 1.463l.618.622s.679.769 1.487.769h10.004c.808 0 1.487-.77 1.487-.77l.617-.621s.728-.75.728-1.463V4.2c0-.635-.511-1.15-1.141-1.15zM27.256 17h5.26V7.702h-5.26v9.295zm9.323-12.593l-.617-.623s-.743-.734-1.45-.734h-10.94c-.63 0-1.14.516-1.14 1.151v29.69c0 .636.51 1.152 1.14 1.152h2.543c.63 0 1.142-.516 1.142-1.151v-12.24h1.417l3.594 12.239c.187.635.85 1.15 1.48 1.15h2.74c.631 0 .99-.515.804-1.15l-3.595-12.239h.814c.708 0 1.451-.734 1.451-.734l.617-.622s.762-.685.762-1.5V5.906c0-.815-.762-1.5-.762-1.5zm34.98 12.592h5.322V7.703h-5.323v9.295zm9.384-12.592l-.617-.623s-.744-.734-1.45-.734H67.874c-.63 0-1.14.516-1.14 1.151v29.69c0 .636.51 1.152 1.14 1.152h2.543c.63 0 1.14-.516 1.14-1.151v-12.24h7.319c.706 0 1.45-.734 1.45-.734l.617-.622s.762-.685.762-1.5V5.906c0-.815-.762-1.5-.762-1.5zM103.05 25.5h-2.483c-.647 0-1.171.53-1.171 1.181v3.718h-5.852V7.692h5.851v3.719c0 .652.524 1.18 1.171 1.18h2.483c.646 0 1.171-.528 1.171-1.18V5.906c0-.815-.763-1.5-.763-1.5l-.616-.623s-.744-.734-1.451-.734h-9.839c-.808 0-1.487.77-1.487.77l-.617.622s-.728.75-.728 1.463v26.284c0 .713.728 1.463.728 1.463l.617.622s.679.769 1.487.769h9.84c.707 0 1.45-.734 1.45-.734l.617-.623s.763-.685.763-1.5V26.68c0-.652-.525-1.18-1.171-1.18zM14.845 3.05h-2.74c-.632 0-1.294.516-1.48 1.151L6.94 16.741H4.825V4.201c0-.636-.511-1.152-1.142-1.152H1.142A1.148 1.148 0 000 4.2v29.69c0 .636.511 1.152 1.142 1.152h2.541c.631 0 1.142-.516 1.142-1.151V21.395h2.13l3.67 12.496c.186.635.848 1.15 1.48 1.15h2.74c.63 0 .99-.515.803-1.15l-4.36-14.845L15.649 4.2c.187-.635-.173-1.15-.803-1.15zm43.248 0H46.25c-.63 0-1.142.516-1.142 1.151v29.69c0 .636.511 1.152 1.142 1.152h11.844c.603 0 1.092-.493 1.092-1.101V31.49c0-.608-.489-1.1-1.092-1.1h-8.16v-8.994h7.735c.603 0 1.092-.492 1.092-1.1v-2.453c0-.608-.489-1.1-1.092-1.1h-7.736V7.702h8.161c.603 0 1.092-.493 1.092-1.1V4.15c0-.608-.489-1.1-1.092-1.1z" clip-rule="evenodd"/></svg>