<svg width="150" height="33" viewBox="0 0 150 33" fill="none" xmlns="http://www.w3.org/2000/svg">
<g clip-path="url(#clip0_2970_301)">
<path d="M55.3929 20.6184V20.6213C55.3929 21.6502 55.2431 22.5743 54.9417 23.3899C54.6403 24.2045 54.1872 24.9107 53.5801 25.5036C52.9859 26.0946 52.2942 26.5367 51.5081 26.8309C50.7206 27.1254 49.8395 27.2725 48.8692 27.2725H42.6555C42.5615 27.2725 42.466 27.2589 42.3753 27.2255C42.2908 27.1945 42.2114 27.1461 42.1434 27.077C42.0753 27.0084 42.0291 26.9286 41.9993 26.845C41.9672 26.7543 41.954 26.6594 41.954 26.5673V3.97701C41.954 3.88492 41.9672 3.79002 41.9993 3.69935C42.0295 3.61525 42.0758 3.53585 42.1434 3.46726C42.2119 3.39773 42.2913 3.3498 42.3749 3.31879C42.4665 3.28591 42.562 3.27181 42.656 3.27181H48.6406C49.6411 3.27181 50.5425 3.41229 51.3399 3.69512C52.137 3.97748 52.8299 4.40267 53.4148 4.97256C54.011 5.53211 54.4565 6.20488 54.7527 6.98571C55.0494 7.76938 55.1967 8.66157 55.1967 9.6571C55.1967 10.3059 55.1245 10.912 54.9785 11.4734C54.8335 12.0311 54.6157 12.5432 54.3238 13.0065C54.0563 13.4486 53.7294 13.8394 53.3463 14.1787C53.0487 14.4418 52.7175 14.6738 52.3523 14.874C52.7421 15.091 53.0974 15.3466 53.4162 15.6402C53.822 16.0138 54.1698 16.4484 54.4579 16.943C54.7598 17.45 54.988 18.0105 55.1434 18.6231C55.2984 19.2339 55.3815 19.8987 55.3924 20.6142L55.3933 20.6171L55.3929 20.6184ZM35.075 0.0850369L35.3609 0.0483912C35.616 0.015504 35.7487 0 35.8508 0C36.1328 0.000939636 36.1924 0.0808085 36.2788 0.244775C36.3525 0.383372 36.3109 0.657276 36.1989 0.945276C36.1154 1.16045 35.9967 1.41415 35.8782 1.61758L35.6911 1.95632C34.9985 3.2455 34.2413 4.41394 33.4589 5.40995C32.669 6.41584 31.8513 7.24929 31.0458 7.85959C30.0863 8.58684 28.5425 9.33436 26.6764 10.0071C24.8246 10.6747 22.6505 11.2728 20.414 11.7069L20.2142 11.7459C20.4755 12.2975 20.7018 12.8467 20.8898 13.3865C21.1732 14.2012 21.3702 14.9943 21.4723 15.7422C21.5332 16.189 21.5634 16.6846 21.5629 17.2071C21.562 17.7305 21.5314 18.2759 21.4699 18.8209C21.4071 19.3795 21.3259 19.9142 21.1969 20.5781C21.0679 21.241 20.8917 22.0274 20.6394 23.0916C20.0361 25.6526 19.4224 28.206 18.7956 30.7618C18.6009 31.5507 18.42 32.2079 18.3756 32.2558L18.3548 32.2761C18.0623 32.5457 17.906 32.6289 17.7308 32.0999L17.6825 31.9265C17.6443 31.8588 17.6088 31.7644 17.5743 31.6385C17.4199 30.9982 17.2734 30.3573 17.1274 29.7151C16.8742 28.6105 16.6073 27.4284 16.3201 26.1364C16.0116 24.7481 15.7177 23.4134 15.4324 22.0993C15.1026 20.5813 14.8976 19.3758 14.8036 18.3295C14.7086 17.2757 14.7285 16.3924 14.849 15.5261C14.9728 14.6348 15.2453 13.6581 15.637 12.6724C15.7593 12.3647 15.893 12.0551 16.0385 11.7464L15.9228 11.7238C13.6864 11.2897 11.5123 10.6917 9.66041 10.024C7.79482 9.35129 6.2505 8.60378 5.29102 7.87652C4.48932 7.26857 3.66731 6.42946 2.87602 5.42264C2.08897 4.42146 1.33263 3.25772 0.658013 1.99579L0.560695 1.81491C0.451094 1.66879 0.302282 1.38079 0.189375 1.11816C0.0547352 0.806205 -0.033607 0.478275 0.0122176 0.337799C0.075994 0.139536 0.118512 0.0389949 0.417079 0.0173833C0.507784 0.0112756 0.621637 0.0239607 0.841313 0.0507404C1.87874 0.175242 3.099 0.413909 4.35374 0.729159C5.60517 1.04347 6.89535 1.43576 8.07684 1.868C9.81774 2.50507 11.3975 3.23423 12.8128 4.05359C14.1503 4.82832 15.3445 5.68574 16.3942 6.62632L17.1374 5.35217L16.1486 3.65331C16.0427 3.47195 15.9889 3.37846 15.953 3.29859C15.8793 3.13557 15.8907 3.07872 15.9129 2.96643C15.9984 2.49568 16.1014 1.94411 16.1632 1.48228C16.279 0.805265 16.3404 0.471227 16.9767 1.52503C17.1081 1.74256 17.341 2.14284 17.8035 2.93777L18.1729 3.5725L19.2784 1.67913C19.5245 1.26053 19.6412 1.18441 19.7909 1.18441C19.9705 1.18441 20.0895 1.24736 20.159 1.45127C20.1722 1.48885 20.1807 1.52785 20.1901 1.58235C20.2705 2.03572 20.3503 2.48674 20.4165 2.94247C20.4688 3.05523 20.483 3.13651 20.3366 3.40618C20.2629 3.54243 20.1178 3.79096 19.8288 4.28756L19.2094 5.3517L19.9431 6.61034C20.9923 5.66976 22.1871 4.81188 23.524 4.03762C24.9398 3.21778 26.5191 2.48909 28.2604 1.85155C29.2724 1.48134 30.3655 1.13978 31.4516 0.850369C32.5368 0.561433 33.6224 0.323235 34.6192 0.158799C34.7217 0.141415 34.9815 0.0840975 35.0755 0.0840975L35.075 0.0850369ZM16.4562 10.8542L16.4741 10.8805C16.6584 10.5385 16.8558 10.2002 17.0636 9.86903L16.7699 9.50302C16.5634 9.25355 16.3253 8.97774 16.1571 8.80016L15.9927 8.62583C15.6388 8.24862 15.1556 7.81355 14.6137 7.37758C14.0662 6.93684 13.4596 6.49665 12.8686 6.11515C11.449 5.19901 9.76293 4.36649 7.93894 3.66834C6.28309 3.03456 4.50917 2.5093 2.71398 2.13015C2.87979 2.40594 3.07302 2.71649 3.23741 2.96878C3.74952 3.75244 4.26587 4.44166 4.78317 5.03081C5.29527 5.61433 5.8102 6.10294 6.32419 6.49194C7.10461 7.08297 8.38438 7.70786 9.96463 8.29279C11.5605 8.88332 13.4591 9.42975 15.4593 9.85818L15.6403 9.89952C15.7433 9.92723 15.8146 9.96387 15.868 10.017C16.047 10.195 16.322 10.6597 16.4562 10.8542ZM19.7966 10.9214L19.8075 10.9421C19.9898 10.6771 20.2445 10.2406 20.4623 10.008C20.5142 9.95357 20.5898 9.91175 20.6947 9.88403L20.8765 9.84173C22.8773 9.4133 24.7759 8.86638 26.3712 8.27634C27.9515 7.69189 29.2313 7.067 30.0122 6.4755C30.5262 6.08603 31.0411 5.59741 31.5532 5.0139C32.0705 4.42427 32.5868 3.736 33.0985 2.95187C33.2629 2.69958 33.4561 2.38949 33.6219 2.11324C31.8267 2.49238 30.0533 3.01764 28.3974 3.65143C26.5734 4.34958 24.8869 5.18209 23.4677 6.09824C22.8768 6.47973 22.2716 6.91998 21.7236 7.36016C21.1812 7.79613 20.697 8.23168 20.3446 8.60751L20.1788 8.78371C20.0191 8.95237 19.8514 9.14219 19.6837 9.34327C19.5236 9.53592 19.3667 9.73369 19.2217 9.92869L19.3979 10.219C19.5259 10.4332 19.6752 10.6949 19.7966 10.9214ZM18.4512 7.6059L18.1729 7.12901L17.6986 7.94177L17.9027 8.18613C17.9121 8.19691 17.9013 8.18938 17.9079 8.19505C17.9466 8.22601 18.0255 8.31435 18.112 8.41915L18.1615 8.48164L18.2296 8.39848C18.3113 8.29887 18.3841 8.21758 18.4228 8.1833L18.6377 7.92539L18.4512 7.6059ZM18.8357 12.8707C18.6217 12.3901 18.3817 11.9146 18.1247 11.4636C17.8673 11.916 17.6268 12.3962 17.4147 12.8782C17.1576 13.4617 16.9423 14.0495 16.7882 14.5935C16.5152 15.5623 16.3919 16.5648 16.4235 17.7577C16.4552 18.9637 16.6465 20.375 17.0004 22.1505C17.1161 22.7341 17.341 23.7963 17.598 24.991L18.1044 27.3171C18.3685 26.2027 18.6264 25.0864 18.8853 23.9706C19.0318 23.3303 19.1479 22.8139 19.2047 22.5466C19.2047 22.4155 19.3936 21.6379 19.4196 21.5059C19.7173 19.9884 19.8717 18.7425 19.8845 17.6487C19.8973 16.5667 19.7721 15.6243 19.5103 14.7025C19.3441 14.1171 19.1121 13.4918 18.8357 12.8707ZM149.979 10.8603C149.943 11.1901 149.726 11.6787 149.676 12.0222C149.649 12.1152 149.607 12.2082 149.544 12.2886C149.522 12.3187 149.496 12.3468 149.467 12.3726L149.694 12.4732H149.314C149.224 12.5136 149.131 12.5291 149.041 12.5263C148.942 12.5235 148.845 12.4981 148.756 12.4629L148.459 12.352L148.285 12.3069C148.133 12.274 147.981 12.2566 147.829 12.2557C147.712 12.2665 147.572 12.2895 147.456 12.2895C146.996 12.2989 146.576 12.4032 146.197 12.6029C145.815 12.804 145.472 13.1037 145.167 13.5035C144.857 13.9094 144.623 14.3661 144.467 14.8745C144.31 15.3837 144.23 15.948 144.23 16.5677V26.5673C144.23 26.6594 144.217 26.7543 144.185 26.8445C144.155 26.9286 144.108 27.0084 144.04 27.077C143.972 27.1461 143.892 27.1945 143.809 27.2255C143.717 27.2584 143.622 27.2725 143.528 27.2725H142.449C142.355 27.2725 142.259 27.2589 142.168 27.2255C142.085 27.1945 142.005 27.1465 141.937 27.077C141.869 27.0084 141.822 26.929 141.792 26.845C141.76 26.7543 141.747 26.6594 141.747 26.5673V10.4882C141.747 10.3961 141.76 10.3012 141.792 10.2106C141.823 10.126 141.87 10.047 141.937 9.97846C142.005 9.90892 142.085 9.86101 142.168 9.82998C142.259 9.79714 142.355 9.78304 142.449 9.78304H143.528C143.622 9.78304 143.718 9.79666 143.809 9.82998C143.894 9.86101 143.972 9.9094 144.041 9.97846C144.109 10.047 144.155 10.1269 144.185 10.2111C144.217 10.3008 144.231 10.3961 144.231 10.4882V11.566C144.32 11.4373 144.413 11.3146 144.511 11.1981C144.749 10.9158 145.011 10.6677 145.299 10.4558C145.658 10.1885 146.047 9.98696 146.462 9.85258C146.876 9.7182 147.317 9.65053 147.78 9.65053C148.139 9.65053 148.473 9.68343 148.779 9.74965C149.085 9.81636 149.365 9.91832 149.615 10.0555C149.689 10.0898 149.757 10.1359 149.815 10.1941C149.871 10.2509 149.917 10.3186 149.95 10.3976C149.982 10.4755 149.997 10.5577 150 10.6395C150.001 10.7124 149.994 10.7875 149.979 10.8603ZM129.669 27.1922C129 26.9614 128.395 26.6143 127.859 26.152L127.855 26.1491C127.329 25.6854 126.91 25.1446 126.601 24.5297C126.292 23.9133 126.09 23.2226 125.998 22.462C125.932 21.9978 125.881 21.4364 125.849 20.7796C125.815 20.1176 125.799 19.3664 125.799 18.5287C125.799 17.6802 125.815 16.9238 125.849 16.2613C125.881 15.6041 125.932 15.0478 125.998 14.5953C126.09 13.8347 126.292 13.1441 126.601 12.5277C126.911 11.9122 127.329 11.3715 127.855 10.9082L127.859 10.9054C128.397 10.4417 129.004 10.0945 129.677 9.86385C130.352 9.63318 131.092 9.51802 131.897 9.51802C132.69 9.51802 133.42 9.63643 134.086 9.87415C134.751 10.1115 135.348 10.4676 135.875 10.9425C136.409 11.4044 136.835 11.9414 137.15 12.5507C137.466 13.1615 137.67 13.8437 137.763 14.5944C137.818 14.9825 137.86 15.5073 137.887 16.1645C137.915 16.8289 137.929 17.6177 137.929 18.5287C137.929 19.4392 137.915 20.228 137.887 20.8924C137.86 21.5491 137.818 22.0734 137.762 22.4616C137.67 23.2245 137.466 23.9152 137.15 24.5311C136.835 25.1466 136.408 25.6877 135.87 26.152C135.332 26.6147 134.728 26.9614 134.059 27.1922C133.388 27.4237 132.655 27.5388 131.864 27.5388C131.072 27.5388 130.34 27.4237 129.669 27.1922ZM134.218 24.3765L134.542 24.0073V24.0462C134.721 23.8376 134.872 23.6079 134.994 23.358C135.181 22.9718 135.301 22.5344 135.351 22.0453C135.383 21.7324 135.407 21.2823 135.423 20.695C135.439 20.1261 135.447 19.404 135.447 18.5282C135.447 17.6524 135.439 16.9299 135.423 16.3614C135.407 15.7746 135.383 15.3245 135.351 15.0111C135.301 14.5221 135.181 14.0847 134.994 13.6985C134.807 13.3142 134.552 12.9792 134.231 12.6926L134.218 12.6804C133.91 12.3985 133.562 12.1852 133.174 12.0424C132.781 11.8977 132.344 11.8248 131.864 11.8248C131.384 11.8248 130.948 11.8977 130.555 12.0424C130.163 12.1866 129.812 12.4022 129.502 12.6879C129.189 12.975 128.943 13.3104 128.762 13.6942C128.578 14.0814 128.462 14.5197 128.411 15.0102C128.379 15.3231 128.355 15.7709 128.339 16.3535C128.323 16.9228 128.315 17.6482 128.315 18.5282C128.315 19.4082 128.323 20.1331 128.339 20.703C128.355 21.2856 128.379 21.7333 128.411 22.0453C128.462 22.5362 128.578 22.9746 128.762 23.3612C128.943 23.7456 129.19 24.081 129.502 24.3681C129.812 24.6542 130.163 24.8703 130.555 25.0141C130.948 25.1587 131.385 25.2316 131.864 25.2316C132.344 25.2316 132.78 25.1587 133.174 25.0141C133.562 24.8712 133.909 24.6589 134.218 24.3765ZM119.69 26.8459C119.657 26.7552 119.644 26.6603 119.644 26.5682V3.97795C119.644 3.88586 119.657 3.79096 119.69 3.70029C119.719 3.61666 119.766 3.53726 119.833 3.46867C119.903 3.39866 119.981 3.35027 120.066 3.31973C120.157 3.28638 120.252 3.27275 120.346 3.27275H121.425C121.519 3.27275 121.615 3.28638 121.706 3.31973C121.79 3.35074 121.87 3.39913 121.938 3.4682C122.005 3.53726 122.052 3.61666 122.082 3.70029C122.114 3.79096 122.127 3.88586 122.127 3.97795V26.5682C122.127 26.6603 122.114 26.7552 122.082 26.8459C122.052 26.9295 122.005 27.0089 121.938 27.0775C121.87 27.1475 121.79 27.1959 121.706 27.2265C121.615 27.2593 121.519 27.2734 121.425 27.2734H120.346C120.252 27.2734 120.157 27.2598 120.066 27.2265C119.981 27.1954 119.903 27.147 119.834 27.0785C119.766 27.0089 119.719 26.9295 119.69 26.8459ZM107.665 27.1917C106.996 26.961 106.391 26.6143 105.854 26.1515L105.851 26.1487C105.325 25.685 104.906 25.1442 104.597 24.5292C104.287 23.9128 104.086 23.2221 103.994 22.4616C103.928 21.9973 103.878 21.4355 103.844 20.7791C103.812 20.1171 103.794 19.3664 103.794 18.5282C103.794 17.6797 103.812 16.9233 103.844 16.2609C103.877 15.6041 103.928 15.0474 103.994 14.5949C104.086 13.8343 104.287 13.1437 104.597 12.5272C104.907 11.9118 105.325 11.371 105.851 10.9078L105.854 10.9049C106.392 10.4412 107 10.094 107.673 9.86336C108.348 9.6327 109.088 9.5176 109.893 9.5176C110.685 9.5176 111.416 9.63594 112.082 9.87366C112.747 10.111 113.344 10.4671 113.871 10.9421C114.405 11.4035 114.831 11.9409 115.145 12.5502C115.462 13.161 115.666 13.8437 115.759 14.594C115.814 14.9825 115.855 15.5068 115.883 16.1641C115.911 16.8284 115.924 17.6173 115.924 18.5282C115.924 19.4388 115.911 20.2275 115.883 20.8919C115.855 21.5487 115.813 22.073 115.758 22.4611C115.665 23.2241 115.462 23.9152 115.146 24.5311C114.831 25.1466 114.404 25.6873 113.865 26.1515C113.328 26.6143 112.723 26.961 112.054 27.1917C111.384 27.4233 110.651 27.5384 109.859 27.5384C109.067 27.5384 108.335 27.4238 107.665 27.1917ZM112.219 24.3704L112.492 24.0988C112.692 23.8757 112.858 23.6286 112.99 23.358C113.177 22.9718 113.297 22.5344 113.347 22.0453C113.379 21.7333 113.403 21.2847 113.419 20.7006C113.435 20.1308 113.443 19.4068 113.443 18.5282C113.443 17.6497 113.435 16.9262 113.419 16.3567C113.403 15.7718 113.379 15.3236 113.347 15.0111C113.297 14.5221 113.177 14.0847 112.99 13.6985C112.803 13.3156 112.549 12.9801 112.226 12.6926L112.217 12.6837C111.908 12.3999 111.559 12.1857 111.169 12.0424C110.777 11.8977 110.34 11.8248 109.859 11.8248C109.38 11.8248 108.944 11.8977 108.551 12.0424C108.159 12.1866 107.808 12.4022 107.497 12.6879C107.186 12.9745 106.938 13.3104 106.756 13.6942C106.574 14.0814 106.456 14.5197 106.406 15.0102C106.374 15.3231 106.35 15.7736 106.333 16.3609C106.318 16.9294 106.31 17.652 106.31 18.5278C106.31 19.4035 106.318 20.1261 106.333 20.6945C106.35 21.2818 106.374 21.7324 106.406 22.0453C106.456 22.5357 106.574 22.9736 106.756 23.3603C106.938 23.7446 107.186 24.08 107.497 24.3671C107.808 24.6532 108.159 24.8689 108.551 25.0131C108.944 25.1578 109.38 25.2306 109.859 25.2306C110.34 25.2306 110.776 25.1578 111.169 25.0131C111.559 24.8698 111.908 24.6556 112.217 24.3723L112.219 24.3695V24.3704ZM91.0348 26.1515L91.0223 26.1397C90.5011 25.668 90.0864 25.1244 89.7781 24.5114C89.4691 23.8964 89.268 23.2123 89.1753 22.462C89.0986 21.9217 89.0405 21.3194 89.0018 20.6589C88.9631 19.9922 88.9431 19.2705 88.9431 18.4949C88.9431 17.8512 88.9624 17.1986 89.0011 16.5385C89.0392 15.886 89.0972 15.2325 89.1733 14.5789L89.1746 14.5625C89.2673 13.8221 89.4684 13.1483 89.7781 12.5437C90.0878 11.9399 90.5053 11.4048 91.032 10.9416C91.5684 10.4671 92.1712 10.1115 92.8355 9.87415C93.4998 9.63691 94.2256 9.51802 95.0081 9.51802C95.7871 9.51802 96.5094 9.62751 97.173 9.84643C97.8346 10.0649 98.4346 10.3929 98.9717 10.8312C99.5191 11.2691 99.956 11.7638 100.279 12.3125C100.602 12.8618 100.812 13.4659 100.906 14.1223C100.944 14.3614 101.008 14.601 101.008 14.8411C101.008 14.9247 100.993 15.0074 100.962 15.0854C100.933 15.1606 100.888 15.231 100.827 15.2926C100.77 15.3508 100.704 15.3964 100.633 15.4307C100.566 15.4636 100.494 15.4871 100.422 15.5035C100.181 15.5594 99.5198 15.5796 99.2592 15.5796C99.1728 15.5796 99.0864 15.5674 99.0035 15.5406C98.924 15.5139 98.8479 15.4734 98.7816 15.418C98.7166 15.364 98.6647 15.2987 98.624 15.2268C98.5811 15.1535 98.5528 15.0722 98.5341 14.9877C98.5154 14.9097 98.5244 14.8218 98.5244 14.742C98.5244 14.7156 98.521 14.6771 98.512 14.6269L98.4664 14.4126C98.3993 14.0616 98.2721 13.7356 98.0834 13.4359C97.8947 13.1356 97.6424 12.8598 97.3258 12.6085L97.2511 12.5549V12.5488C96.9567 12.3182 96.6318 12.1415 96.2765 12.0217C95.8928 11.8915 95.4691 11.8263 95.0067 11.8263C94.5283 11.8263 94.0935 11.9014 93.7016 12.0508C93.3117 12.1993 92.9613 12.4225 92.6502 12.7189L92.5984 12.7687C92.3198 13.045 92.0965 13.3616 91.9299 13.7191C91.7509 14.1016 91.6362 14.5324 91.5857 15.0131C91.5318 15.5261 91.491 16.0758 91.464 16.6607C91.4385 17.2376 91.4246 17.8611 91.4246 18.5296C91.4246 19.2203 91.4385 19.8545 91.464 20.4315C91.491 21.0145 91.5318 21.5529 91.5857 22.0438L91.5871 22.0618C91.6382 22.5475 91.7523 22.9821 91.9293 23.3654C92.1055 23.7498 92.3454 24.0838 92.6461 24.37C92.9564 24.6556 93.3069 24.8712 93.6982 25.015C94.0908 25.1597 94.5269 25.2325 95.0067 25.2325C95.5023 25.2325 95.9502 25.1639 96.3498 25.0286C96.7472 24.8943 97.1011 24.6927 97.4115 24.4268C97.7364 24.1472 97.9873 23.8428 98.1664 23.5139C98.3433 23.1912 98.4504 22.8426 98.4912 22.4685C98.4912 22.3845 98.4822 22.2943 98.4988 22.212C98.5154 22.1247 98.5438 22.0378 98.5866 21.9579C98.6274 21.8822 98.6806 21.8132 98.7491 21.7568C98.8223 21.6966 98.9032 21.6568 98.9882 21.6332C99.0746 21.6097 99.1645 21.6046 99.2537 21.6126L100.322 21.6783C100.412 21.6807 100.497 21.7 100.575 21.7366C100.651 21.7723 100.718 21.8235 100.773 21.8893C100.837 21.9457 100.886 22.0129 100.92 22.0857C100.957 22.1679 100.975 22.2572 100.975 22.3492C100.975 22.555 100.949 22.7077 100.924 22.9177L100.905 22.9365C100.822 23.6009 100.622 24.2111 100.304 24.766C99.9892 25.3185 99.5585 25.8142 99.0152 26.2506L99.0028 26.2605C98.4643 26.688 97.8615 27.0079 97.1951 27.2203C96.5274 27.4331 95.7968 27.5393 95.0067 27.5393C94.2249 27.5393 93.5011 27.4242 92.8362 27.1926C92.1733 26.9619 91.5712 26.6152 91.0334 26.1524L91.0348 26.1515ZM85.0023 22.5461L85.0154 22.5485C85.0659 22.5588 85.117 22.5743 85.1668 22.5964C85.2173 22.6189 85.2677 22.6494 85.3134 22.6884C85.3562 22.7242 85.3908 22.7636 85.4184 22.8055C85.444 22.843 85.4647 22.8848 85.4813 22.929C85.5187 23 85.5415 23.0751 85.5498 23.1512C85.5594 23.233 85.5532 23.3175 85.5325 23.4007L85.5283 23.4181C85.3424 24.0429 85.0742 24.6077 84.7244 25.1113C84.3746 25.615 83.9426 26.0571 83.4297 26.4357L83.4069 26.4527C82.9085 26.8125 82.3611 27.0832 81.7659 27.2636C81.1597 27.4472 80.5058 27.5393 79.8062 27.5393C79.0141 27.5393 78.2841 27.4271 77.6198 27.2015C76.9576 26.977 76.3617 26.6387 75.8343 26.1872L75.826 26.1801C75.3117 25.7169 74.9011 25.1832 74.5922 24.5818C74.2846 23.98 74.0772 23.3077 73.9735 22.5691C73.9293 22.2971 73.8926 22.004 73.865 21.6915C73.8366 21.387 73.8173 21.0563 73.8062 20.7002C73.7958 20.3455 73.7876 19.9842 73.782 19.6177C73.7758 19.224 73.773 18.8618 73.773 18.5291C73.773 17.6327 73.7848 16.8556 73.8069 16.1998C73.8283 15.558 73.8615 15.0502 73.9051 14.6781L73.9064 14.663C73.9984 13.9123 74.1995 13.2282 74.5085 12.6127C74.8189 11.9973 75.235 11.4514 75.759 10.9783C76.2961 10.492 76.8988 10.1265 77.5631 9.88355C78.2281 9.64023 78.9539 9.5185 79.7392 9.5185C80.5776 9.5185 81.3449 9.64258 82.0389 9.89205C82.7316 10.1415 83.3488 10.5155 83.8859 11.0144C84.423 11.5124 84.8433 12.0884 85.1468 12.7387C85.4502 13.3893 85.6369 14.1138 85.7053 14.9088C85.7378 15.2757 85.7627 15.7939 85.7793 16.4615C85.7958 17.138 85.8048 17.9386 85.8048 18.8613C85.8048 18.9543 85.7917 19.0492 85.7592 19.1394C85.7295 19.2236 85.6825 19.3024 85.6147 19.3711C85.5463 19.4401 85.4668 19.4885 85.3825 19.5196C85.2919 19.5524 85.1965 19.5665 85.1025 19.5665H76.2553C76.256 20.1566 76.2615 20.6438 76.2705 21.0281C76.2809 21.4688 76.2975 21.8099 76.3189 22.05C76.368 22.5391 76.4855 22.976 76.6687 23.3622C76.8498 23.7465 77.0979 24.0815 77.4097 24.3685C77.72 24.6542 78.0753 24.8698 78.4763 25.0141C78.8799 25.1587 79.3334 25.2321 79.8373 25.2321C80.2486 25.2321 80.6295 25.179 80.9799 25.0737C81.3283 24.9694 81.6491 24.8125 81.9401 24.6053C82.2456 24.385 82.5041 24.1303 82.715 23.8414C82.9265 23.552 83.0917 23.2259 83.2099 22.8651C83.2355 22.7862 83.2721 22.7096 83.3205 22.64C83.373 22.5658 83.4387 22.501 83.5223 22.4522C83.6011 22.4056 83.6848 22.3788 83.7691 22.368C83.8548 22.3582 83.9412 22.3638 84.0249 22.3812L85.0009 22.5466L85.0023 22.5461ZM78.4417 12.0494C78.047 12.1979 77.6938 12.421 77.3827 12.717C77.0799 13.005 76.8394 13.3381 76.6631 13.7168C76.4848 14.0988 76.3693 14.5301 76.3189 15.0097C76.2981 15.2399 76.2829 15.5632 76.2726 15.978C76.2629 16.3535 76.2567 16.8026 76.256 17.3241H83.3226C83.3205 16.9134 83.3115 16.5245 83.2977 16.1598C83.2818 15.7422 83.2576 15.3583 83.2265 15.0097C83.176 14.5315 83.0592 14.1021 82.876 13.7206C82.697 13.3456 82.4523 13.0159 82.1468 12.7316L82.1295 12.7165C81.8191 12.4201 81.4687 12.1969 81.0788 12.0485C80.6869 11.8991 80.2521 11.8239 79.773 11.8239C79.2823 11.8239 78.8385 11.8991 78.4417 12.0485V12.0494ZM69.8011 22.5461L69.815 22.5485C69.8661 22.5592 69.92 22.5757 69.9726 22.5997C70.021 22.6212 70.0673 22.6504 70.1122 22.6884C70.1551 22.7242 70.1896 22.7636 70.218 22.8055C70.2435 22.8435 70.2643 22.8863 70.2809 22.9313C70.3168 23.0018 70.3396 23.0761 70.3486 23.1512C70.3583 23.233 70.3521 23.3171 70.3313 23.4007L70.3272 23.4181C70.1419 24.0429 69.8737 24.6077 69.5233 25.1108C69.1735 25.614 68.7415 26.0566 68.2289 26.4353L68.2062 26.4522C67.7079 26.8121 67.1607 27.0827 66.565 27.2631C65.9589 27.4468 65.3046 27.5388 64.605 27.5388C63.8128 27.5388 63.0833 27.4266 62.4191 27.2011C61.7568 26.9765 61.1606 26.6382 60.6334 26.1868L60.6253 26.1797C60.1114 25.7169 59.6994 25.1832 59.3914 24.5813C59.0833 23.9795 58.8764 23.3072 58.7725 22.5686C58.7271 22.2901 58.6898 21.9969 58.6629 21.6915C58.636 21.3781 58.6161 21.0474 58.6053 20.6997C58.5831 19.9725 58.5717 19.248 58.5717 18.5291C58.5717 17.6327 58.5831 16.8556 58.6053 16.1998C58.6275 15.5505 58.661 15.0375 58.7054 14.6649L58.7064 14.6593C58.7985 13.9099 58.9993 13.2272 59.3078 12.6132C59.6182 11.9973 60.0352 11.4518 60.5592 10.9783C61.0968 10.4915 61.6991 10.1265 62.3634 9.88355C63.0276 9.64023 63.7541 9.5185 64.5393 9.5185C65.3774 9.5185 66.1446 9.64258 66.8385 9.89205C67.5316 10.141 68.1486 10.5155 68.6867 11.0144C69.2233 11.5124 69.6435 12.0884 69.9463 12.7387C70.2498 13.3893 70.4364 14.1138 70.5055 14.9088C70.538 15.2757 70.5629 15.7944 70.5795 16.4624C70.5954 17.139 70.6044 17.939 70.6044 18.8613C70.6044 18.9543 70.5912 19.0492 70.5594 19.1394C70.529 19.2236 70.482 19.3029 70.415 19.3711C70.3465 19.4406 70.267 19.4885 70.182 19.5196C70.0922 19.5524 69.9961 19.5665 69.9021 19.5665H61.0543C61.0553 20.1402 61.0609 20.6288 61.0703 21.0319C61.0812 21.4772 61.0968 21.8165 61.1176 22.0481C61.1681 22.5381 61.2853 22.9765 61.4681 23.3627C61.6505 23.7474 61.898 24.0824 62.2094 24.369C62.5192 24.6547 62.875 24.8708 63.2756 25.0145C63.6795 25.1592 64.133 25.2325 64.6371 25.2325C65.0486 25.2325 65.4294 25.1794 65.7799 25.0742C66.1281 24.9699 66.4483 24.813 66.7398 24.6058C67.045 24.3859 67.3034 24.1308 67.5146 23.8418C67.7258 23.5524 67.8906 23.2264 68.0092 22.8656C68.0371 22.781 68.0763 22.6993 68.1297 22.6274C68.1802 22.5592 68.2431 22.4996 68.3206 22.454C68.3999 22.407 68.484 22.3798 68.5686 22.3694C68.6541 22.3596 68.741 22.3652 68.8246 22.3826L69.8011 22.548V22.5461ZM63.2401 12.0494C62.8452 12.1979 62.4923 12.421 62.1815 12.717C61.8782 13.005 61.6382 13.3381 61.461 13.7168C61.2829 14.0988 61.1676 14.5301 61.1171 15.0097C61.0963 15.2414 61.0808 15.566 61.0699 15.9832C61.0604 16.3577 61.0548 16.8049 61.0538 17.3245H68.1212C68.1188 16.9144 68.1103 16.5263 68.0961 16.1622C68.0801 15.7436 68.056 15.3593 68.0253 15.0102C67.9747 14.532 67.8576 14.1026 67.6747 13.7211C67.4934 13.3424 67.2462 13.0097 66.9364 12.7241L66.9283 12.7175C66.6175 12.421 66.267 12.1979 65.8763 12.0494C65.4841 11.9 65.0495 11.8248 64.571 11.8248C64.0801 11.8248 63.6365 11.9 63.2401 12.0494ZM51.6475 6.70055L51.5875 6.64511V6.639C51.2474 6.29838 50.8449 6.03857 50.3791 5.86192C49.8854 5.67447 49.3171 5.57956 48.6726 5.57956H44.4365V13.8037H48.6726C49.3208 13.8037 49.891 13.7135 50.3862 13.5359C50.8765 13.3602 51.2961 13.0971 51.647 12.7504C52.0089 12.3928 52.2834 11.9672 52.4667 11.4734C52.6519 10.9754 52.7459 10.4036 52.7459 9.75857C52.7459 9.0891 52.6519 8.50092 52.4662 7.9921C52.2834 7.48984 52.0103 7.06092 51.6513 6.70477L51.6475 6.70149V6.70055ZM51.7651 17.2179L51.715 17.1644C51.3621 16.7904 50.9479 16.5071 50.4707 16.3154C49.9667 16.1129 49.3903 16.0109 48.7383 16.0109H44.4365V24.9328H48.8036C49.446 24.9328 50.0157 24.8332 50.5132 24.6359C51.0069 24.4404 51.4354 24.1459 51.7996 23.7563C52.1648 23.3654 52.4417 22.9008 52.6268 22.3615C52.8139 21.8174 52.9089 21.193 52.9089 20.4883C52.9089 19.784 52.8115 19.1611 52.6197 18.618C52.4298 18.08 52.1455 17.6154 51.7698 17.2235L51.7651 17.2179Z" fill="white"/>
</g>
<defs>
<clipPath id="clip0_2970_301">
<rect width="150" height="32.4885" fill="white"/>
</clipPath>
</defs>
</svg>
