<svg width="135" height="36" viewBox="0 0 135 36" fill="none" xmlns="http://www.w3.org/2000/svg">
<mask id="mask0_2965_26" style="mask-type:luminance" maskUnits="userSpaceOnUse" x="0" y="0" width="135" height="36">
<path d="M134.289 0H0.221802V36H134.289V0Z" fill="white"/>
</mask>
<g mask="url(#mask0_2965_26)">
<path d="M93.1934 25.126C93.5858 24.6588 94.0861 24.2941 94.6509 24.0635C95.2158 23.8328 95.8283 23.7431 96.4356 23.802C97.43 23.855 98.4245 23.7608 99.413 23.8785C101.243 24.0903 102.149 25.2437 101.831 27.056C101.331 29.8746 100.802 32.6814 100.284 35.4941C100.231 35.8 100.137 35.9648 99.7602 35.9589C98.6245 35.9295 97.4889 35.9295 96.3591 35.9589C95.9413 35.9589 95.8589 35.8471 95.9354 35.4529C96.4297 32.8814 96.8828 30.2982 97.383 27.7268C97.4594 27.3149 97.383 27.2031 96.9828 27.2267C96.5069 27.2639 96.0288 27.2639 95.5529 27.2267C95.1175 27.1914 94.9645 27.3326 94.8645 27.7798C94.429 30.2629 93.9348 32.7402 93.5288 35.2234C93.4287 35.8118 93.211 35.9942 92.6285 35.9648C91.6399 35.9177 90.6396 35.9177 89.6451 35.9648C89.0861 35.9648 89.0567 35.7883 89.1391 35.3117C89.651 32.6402 90.1394 29.9687 90.6455 27.2325C89.8746 27.2325 89.145 27.2325 88.4094 27.2325C88.0152 27.2325 88.0976 27.5444 88.0623 27.7386C87.5994 30.1943 87.1522 32.652 86.7206 35.1116C86.5677 35.9413 86.5853 35.9472 85.7439 35.9472C84.7494 35.9472 83.755 35.9472 82.7605 35.9472C82.3839 35.9472 82.2251 35.8824 82.3016 35.4588C82.8429 32.6108 83.3254 29.751 83.9021 26.9089C84.314 24.92 85.8321 23.8726 88.2035 23.8079C89.1391 23.8079 90.0747 23.8079 91.0103 23.8079C91.4623 23.7946 91.9086 23.9119 92.2958 24.1457C92.6829 24.3794 92.9946 24.7198 93.1934 25.126Z" fill="white"/>
<path d="M57.6523 23.1489C56.7991 23.1489 55.94 23.1489 55.0868 23.1489C54.7219 23.1489 54.5454 23.243 54.4983 23.6137C54.4388 24.0668 54.3563 24.5165 54.2512 24.9612C54.1453 25.3967 54.3042 25.5026 54.7278 25.4967C56.3813 25.4967 58.0289 25.4967 59.6824 25.4967C60.1708 25.4967 60.2708 25.6379 60.1531 26.0851C59.9413 27.0972 59.7589 28.1152 59.5647 29.1332C59.5 29.5333 59.3529 29.6804 58.9115 29.6745C57.2581 29.6451 55.6105 29.6745 53.957 29.6745C53.4568 29.6745 53.3215 29.8511 53.245 30.263C52.9508 32.0283 52.6036 33.7406 52.3035 35.4823C52.2388 35.8354 52.1446 35.9943 51.7445 35.9825C50.4323 35.9531 49.1201 35.9825 47.8079 35.9825C47.4549 35.9825 47.3784 35.9001 47.4431 35.5412C48.2375 31.3045 49.0024 27.0619 49.7968 22.8252C49.9693 21.7621 50.5158 20.7955 51.3379 20.0996C52.16 19.4038 53.2036 19.0244 54.2806 19.0299C56.5108 18.9769 58.7409 19.0299 60.9652 19.0299C61.3359 19.0299 61.4065 19.1476 61.3417 19.483C61.1299 20.5716 60.924 21.666 60.7533 22.7664C60.6945 23.1077 60.5591 23.2254 60.2061 23.2136C59.3529 23.2136 58.4938 23.2136 57.6347 23.2136" fill="white"/>
<path d="M107.663 35.9235C106.65 35.9738 105.634 35.9403 104.626 35.8235C103.038 35.5351 102.226 34.5642 102.473 32.9696C102.873 30.3805 103.373 27.8091 103.856 25.2318C104.12 23.8019 104.144 23.8078 105.621 23.8078C106.415 23.8078 107.216 23.8078 108.004 23.8078C108.381 23.8078 108.469 23.8784 108.392 24.2785C107.904 26.8323 107.457 29.392 106.962 31.9281C106.874 32.4106 106.962 32.5165 107.445 32.5165C108.06 32.4831 108.677 32.4831 109.293 32.5165C109.728 32.5165 109.881 32.4106 109.987 31.9634C110.417 29.4979 110.911 27.0441 111.317 24.5786C111.423 23.949 111.64 23.7725 112.258 23.8019C113.265 23.8607 114.283 23.8372 115.295 23.8019C115.736 23.8019 115.783 23.9549 115.712 24.3315C115.195 27.0794 114.694 29.8333 114.182 32.5695C113.794 34.6407 112.335 35.8117 110.011 35.9058C109.24 35.9353 108.463 35.9058 107.657 35.9058" fill="white"/>
<path d="M117.401 35.9472C116.813 35.9472 116.224 35.9472 115.671 35.9472C115.365 35.9472 115.271 35.9002 115.342 35.553C115.859 32.805 116.354 30.0512 116.86 27.315C117.319 24.8142 117.795 22.3251 118.231 19.8184C118.337 19.23 118.472 18.924 119.172 18.9888C120.102 19.0711 121.038 18.9888 121.973 18.9888C122.744 18.9888 122.738 18.9888 122.597 19.7243C122.167 22.0074 121.755 24.2905 121.332 26.5736C120.785 29.5157 120.22 32.5049 119.69 35.4706C119.619 35.8531 119.496 35.9708 119.102 35.9531C118.513 35.9531 117.925 35.9531 117.372 35.9531" fill="white"/>
<path d="M81.0128 23.8137C81.6719 23.8137 82.325 23.8137 82.9782 23.8137C83.3077 23.8137 83.3959 23.9138 83.3312 24.2374C83.1606 25.0906 83.0017 25.9497 82.8605 26.8088C82.8016 27.1501 82.6604 27.256 82.3074 27.2443C81.4541 27.2148 80.6009 27.2443 79.7418 27.2443C79.3593 27.2443 79.2005 27.3207 79.1534 27.7385C78.7121 30.257 78.2237 32.7755 77.7823 35.2939C77.6941 35.8059 77.5411 36.0236 76.9703 35.9883C75.8994 35.9294 74.8226 35.9883 73.7516 35.9883C73.3868 35.9883 73.3162 35.8647 73.375 35.5352C73.9046 32.7049 74.3871 29.8686 74.9579 27.0501C75.3757 24.9729 76.9056 23.8902 79.3005 23.849C79.8889 23.849 80.4773 23.849 81.0305 23.849" fill="white"/>
<path d="M70.739 23.8843C68.8555 23.7241 66.9618 23.7241 65.0783 23.8843C64.1662 23.9372 63.3003 24.3033 62.627 24.9209C61.9537 25.5384 61.5143 26.3695 61.383 27.2737C61.0535 29.0272 60.7298 30.7925 60.4121 32.5695C60.0884 34.3348 60.924 35.547 62.7187 35.8588C63.7251 35.9662 64.7382 35.9957 65.7491 35.9471C66.5435 35.9471 67.3379 35.9824 68.1381 35.9471C70.3624 35.8353 71.9158 34.6231 72.316 32.6342C72.6867 30.869 73.0103 29.0507 73.3163 27.2501C73.6399 25.3142 72.7279 24.0667 70.7331 23.9079L70.739 23.8843ZM68.909 27.6208C68.6226 29.1586 68.3402 30.6983 68.0616 32.24C68.0263 32.4283 67.9439 32.5224 67.7498 32.5224H64.7488C65.0665 30.8395 65.3725 29.2214 65.6608 27.6032C65.7079 27.3325 65.8138 27.2442 66.0786 27.2442C66.9142 27.2442 67.7439 27.2442 68.5794 27.2442C68.8737 27.2442 68.9619 27.3384 68.909 27.6208Z" fill="white"/>
<path d="M131.735 23.8786C130.429 23.7256 129.117 23.8786 128.034 23.808C126.687 23.808 125.575 23.808 124.462 23.808C124.068 23.808 123.874 23.9198 123.839 24.3199C123.729 25.1045 123.586 25.8891 123.409 26.6736C123.315 27.1032 123.374 27.2621 123.868 27.2621C125.698 27.2326 127.528 27.2621 129.358 27.2621C129.817 27.2621 129.876 27.4092 129.805 27.8093C129.641 28.7037 129.658 28.7037 128.758 28.7037C127.663 28.7037 126.569 28.7037 125.475 28.7037C124.673 28.6725 123.883 28.9064 123.228 29.3691C122.573 29.8318 122.089 30.4976 121.85 31.2634C121.716 31.7834 121.62 32.3124 121.561 32.8462C121.367 34.5174 122.15 35.6472 123.862 35.859C125.855 36.1132 127.872 36.1132 129.864 35.859C130.684 35.772 131.454 35.4207 132.056 34.8582C132.659 34.2956 133.063 33.5523 133.206 32.7403C133.599 30.8966 133.94 29.043 134.23 27.1797C134.53 25.3085 133.612 24.1493 131.735 23.9374V23.8786ZM129.123 31.534C129.087 31.8165 129.064 32.046 129.029 32.2284C128.887 33.0345 128.658 33.0345 127.387 33.0345C126.993 33.0345 126.593 33.0345 126.21 33.0345C125.939 33.0345 125.851 32.9404 125.91 32.6815C125.992 32.2755 126.075 31.8636 126.134 31.4517C126.175 31.1928 126.334 31.1457 126.557 31.1457C127.31 31.1457 128.069 31.1457 128.823 31.1457C129.135 31.1457 129.17 31.2457 129.135 31.534" fill="white"/>
<path d="M40.7801 18.1839C40.789 17.5479 40.6022 16.9247 40.2451 16.3984C38.5199 13.4339 36.7946 10.4715 35.0694 7.51141C34.0195 5.65912 32.8894 3.81351 31.8329 1.96121C31.5574 1.42574 31.1408 0.975751 30.6281 0.659892C30.1155 0.344032 29.5262 0.174319 28.924 0.1691C26.2492 0.108917 23.5745 0.0621079 20.9398 0.1691C20.037 1.17215 20.037 1.17215 20.7459 2.35575C20.8729 2.56973 21 2.78371 21.127 3.02444C22.3663 4.99042 23.6123 6.95416 24.865 8.91568L27.5398 13.1151C27.3994 13.3625 27.1988 13.2622 27.0383 13.2622C25.8614 13.2622 24.6845 13.2622 23.5143 13.2622C23.366 13.2518 23.2172 13.2727 23.0776 13.3236C22.938 13.3746 22.8107 13.4544 22.7041 13.5579C22.5974 13.6614 22.5138 13.7863 22.4587 13.9243C22.4035 14.0623 22.3782 14.2104 22.3842 14.3589C22.3842 15.6227 22.3842 16.8866 22.3842 18.1504C22.3842 19.0732 22.3842 19.996 22.3842 20.9255C22.3591 21.0949 22.3736 21.2679 22.4264 21.4308C22.4793 21.5937 22.5692 21.7421 22.689 21.8645C22.8088 21.9869 22.9553 22.0799 23.117 22.1363C23.2788 22.1926 23.4513 22.2108 23.6213 22.1894C24.8851 22.1894 26.1489 22.1894 27.4128 22.1894C27.9009 22.1894 28.0815 22.2295 27.7605 22.7578C27.0249 23.8678 26.3161 24.9912 25.6274 26.1012C25.527 26.2878 25.3739 26.4405 25.1871 26.5404C25.0004 26.6404 24.7883 26.683 24.5775 26.663C21.7088 26.663 18.8401 26.663 15.978 26.663C16.391 27.5412 16.8858 28.3785 17.4559 29.1639C18.5258 30.7487 19.5422 32.367 20.4984 34.032C20.9866 34.888 20.8595 35.2223 19.9835 35.7038C20.0488 35.7241 20.1161 35.7375 20.1841 35.7439C23.2134 35.7439 26.2359 35.7439 29.2651 35.7439C29.7465 35.7371 30.2188 35.6114 30.6399 35.3781C31.061 35.1448 31.418 34.811 31.6791 34.4065C31.9519 34.0473 32.2063 33.6746 32.4414 33.2898C35.0895 28.7916 37.733 24.2913 40.3722 19.7887C40.6901 19.2919 40.8379 18.7052 40.7935 18.117" fill="white"/>
<path d="M56.4166 10.7685C55.5987 10.7685 54.7808 10.8096 53.9688 10.7685C53.4686 10.7331 53.3392 10.945 53.2686 11.3569C52.9685 13.1222 52.6213 14.8286 52.3212 16.5704C52.2565 16.9469 52.1388 17.0587 51.7328 17.0529C50.4421 17.0607 49.1398 17.0646 47.8256 17.0646C47.4725 17.0646 47.4078 16.9823 47.4725 16.6292C48.2669 12.3749 49.026 8.11465 49.8263 3.8662C49.9856 2.8501 50.4963 1.92207 51.2693 1.24364C52.0424 0.565211 53.0289 0.17935 54.0571 0.153223C56.4108 0.05319 58.7645 0.117917 61.1182 0.100264C61.4065 0.100264 61.4477 0.206181 61.4065 0.453321C61.1947 1.63018 60.9711 2.75407 60.7769 3.90739C60.7122 4.28398 60.465 4.24868 60.1885 4.24868C58.4938 4.24868 56.805 4.24868 55.1162 4.24868C54.7161 4.24868 54.5278 4.36636 54.5278 4.75473C54.4734 5.20857 54.3908 5.6586 54.2807 6.10223C54.1747 6.50824 54.2807 6.66123 54.7161 6.65535C56.3872 6.65535 58.0584 6.65535 59.7295 6.65535C60.1649 6.65535 60.2767 6.76715 60.1885 7.1967C59.9766 8.22645 59.7883 9.26208 59.6 10.2977C59.5353 10.6625 59.4235 10.845 59.0116 10.8214C58.1584 10.7861 57.2993 10.8214 56.4461 10.8214" fill="white"/>
<path d="M95.1351 17.0645C93.9936 17.0057 92.599 17.1645 91.2162 16.9762C89.3391 16.7232 88.4388 15.4758 88.786 13.6163C89.1155 11.851 89.4215 10.0858 89.7687 8.32048C89.8918 7.47031 90.2958 6.68578 90.9164 6.09182C91.537 5.49787 92.3385 5.12864 93.1933 5.04294C95.1691 4.8034 97.1665 4.8034 99.1423 5.04294C100.849 5.243 101.737 6.54343 101.443 8.23221C101.39 8.52643 101.314 8.82064 101.278 9.10897C101.031 11.0684 99.4542 12.0864 97.7477 12.1806C96.5356 12.2394 95.3234 12.2394 94.1112 12.1806C93.5228 12.1806 93.311 12.3277 93.2521 12.8926C93.1698 13.634 93.1403 13.6281 93.8935 13.6281C95.7471 13.6281 97.5947 13.6281 99.4424 13.6281C99.8661 13.6281 99.9896 13.6987 99.872 14.1518C99.6837 14.9226 99.5777 15.7111 99.4483 16.5055C99.3836 16.8998 99.26 17.0939 98.7775 17.0939C97.6477 17.0469 96.512 17.0939 95.1292 17.0939L95.1351 17.0645ZM97.1475 7.89681C96.3649 7.89681 95.5941 7.93211 94.8291 7.89681C94.2937 7.8615 94.1289 8.0498 94.0524 8.56762C93.87 9.82685 93.8406 9.83274 95.088 9.82097C95.6765 9.82097 96.4414 10.074 96.7474 9.72093C97.0534 9.36788 97.0298 8.54408 97.1475 7.90858" fill="white"/>
<path d="M83.0488 4.9076C83.9609 4.9429 84.8729 4.87229 85.7909 4.98998C87.6915 5.243 88.5447 6.33159 88.2152 8.20279C87.7209 11.0214 87.1854 13.8282 86.6735 16.6408C86.6205 16.9409 86.5088 17.0704 86.1733 17.0645C84.9965 17.0449 83.8196 17.0449 82.6428 17.0645C82.2956 17.0645 82.2603 16.9586 82.3191 16.6467C82.8134 14.0518 83.2783 11.4568 83.7726 8.86183C83.8432 8.49112 83.8314 8.32636 83.3783 8.3499C82.7239 8.39319 82.0674 8.39319 81.413 8.3499C80.954 8.32048 80.8245 8.49112 80.7363 8.9089C80.3008 11.3685 79.8242 13.8282 79.4064 16.2937C79.3064 16.8821 79.124 17.1234 78.4826 17.0763C77.4764 17.0057 76.4525 17.041 75.4404 17.0763C75.058 17.0763 74.9108 17.0116 74.9873 16.582C75.5228 13.7752 76.0171 10.9566 76.5584 8.14983C76.7006 7.31716 77.1173 6.55602 77.7422 5.98764C78.3671 5.41926 79.1642 5.07635 80.0066 5.01351C81.0142 4.92603 82.0258 4.89263 83.037 4.91348" fill="white"/>
<path d="M120.72 4.91357C121.773 4.91357 122.832 4.91357 123.88 4.91357C124.18 4.91357 124.309 4.91357 124.221 5.30782C124.025 6.1385 123.873 6.97923 123.768 7.82629C123.715 8.32057 123.486 8.36764 123.08 8.36176C121.585 8.36176 120.096 8.36176 118.602 8.36176C118.485 8.38104 118.373 8.42429 118.274 8.48879C118.174 8.55329 118.089 8.63766 118.024 8.73658C117.959 8.83549 117.915 8.94683 117.895 9.06359C117.875 9.18035 117.879 9.30001 117.907 9.41505C117.996 9.57392 118.154 9.50919 118.284 9.51508C119.061 9.51508 119.837 9.51508 120.638 9.51508C122.167 9.58569 123.58 10.486 123.127 12.5926C122.891 13.6341 122.791 14.7168 122.02 15.5347C121.555 16.0383 120.987 16.4357 120.354 16.6998C119.722 16.9638 119.04 17.0882 118.354 17.0646C116.448 17.094 114.536 17.0646 112.623 17.0646C112.247 17.0646 112.141 16.9822 112.229 16.6056C112.411 15.7759 112.588 14.9345 112.694 14.0872C112.747 13.6753 112.935 13.6282 113.282 13.6282C114.895 13.6282 116.507 13.6282 118.119 13.6282C118.513 13.6282 118.972 12.8515 118.772 12.5161C118.684 12.369 118.519 12.4454 118.396 12.4396C117.619 12.4396 116.842 12.4396 116.042 12.4396C114.082 12.3395 113.206 11.2215 113.559 9.30913C113.629 8.91488 113.706 8.52652 113.788 8.13227C114.206 6.0257 115.442 4.97242 117.601 4.93123C118.637 4.93123 119.667 4.93123 120.702 4.93123" fill="white"/>
<path d="M112.929 4.9075C112.729 6.00197 112.535 7.0376 112.341 8.07324C112.282 8.44983 112.023 8.36157 111.805 8.36157H107.21C106.792 8.36157 106.339 9.09122 106.533 9.45016C106.615 9.60315 106.78 9.53254 106.904 9.53254C107.68 9.53254 108.457 9.53254 109.257 9.53254C111.211 9.63257 112.094 10.7506 111.752 12.663C111.752 12.7983 111.676 12.9336 111.664 13.069C111.364 15.7993 109.546 16.9467 107.127 17.0291C105.156 17.0938 103.185 17.0291 101.243 17.0291C100.872 17.0291 100.825 16.9232 100.902 16.5819C101.084 15.7522 101.243 14.9108 101.361 14.0634C101.414 13.6751 101.567 13.5868 101.949 13.5927C103.561 13.5927 105.174 13.5927 106.786 13.5927C106.903 13.5683 107.013 13.52 107.11 13.4509C107.207 13.3818 107.289 13.2933 107.35 13.1911C107.412 13.0889 107.451 12.9751 107.467 12.8569C107.482 12.7386 107.472 12.6185 107.439 12.5041C107.357 12.3511 107.198 12.4041 107.074 12.4041C106.298 12.4041 105.521 12.4041 104.721 12.4041C102.849 12.304 101.778 11.1154 102.243 9.32659C102.408 8.6499 102.461 7.94967 102.691 7.29063C102.859 6.68027 103.21 6.13566 103.695 5.72898C104.181 5.3223 104.779 5.07275 105.409 5.01341C107.904 4.74274 110.411 4.97222 112.959 4.88984" fill="white"/>
<path d="M71.4215 17.0644C70.6044 17.0867 69.7867 17.0553 68.9737 16.9703C67.2084 16.6937 66.3022 15.5639 66.6199 13.7869C67.3025 10.0033 67.9969 6.20792 68.6853 2.41844C68.7324 2.15365 68.8148 2.01831 69.1384 2.01831C70.3153 2.01831 71.5274 2.01831 72.716 2.01831C73.0809 2.01831 73.0926 2.14188 73.0279 2.43609C72.8808 3.11279 72.7808 3.80125 72.6278 4.47794C72.5454 4.83688 72.6278 4.91926 72.9985 4.91337C73.8929 4.91337 74.7638 4.91337 75.6876 4.91337C76.023 4.91337 76.0995 5.01341 76.0407 5.32527C75.8681 6.20399 75.7053 7.08271 75.5523 7.96143C75.4993 8.26741 75.3757 8.3851 75.0462 8.37333C74.1283 8.37333 73.2162 8.37333 72.3041 8.37333C72.0688 8.37333 71.9158 8.37333 71.8628 8.69108C71.6078 10.2014 71.3313 11.7058 71.0331 13.2043C70.9508 13.6045 71.0861 13.6633 71.445 13.6515C72.2571 13.6515 73.075 13.6515 73.8929 13.6515C74.3225 13.6515 74.5461 13.6515 74.4048 14.24C74.193 15.0696 74.0635 15.917 73.9341 16.7584C73.887 17.035 73.7811 17.1174 73.5104 17.1115C72.8514 17.1115 72.1982 17.1115 71.4274 17.1115" fill="white"/>
<path d="M66.514 4.91336C66.0138 7.63778 65.5195 10.3151 65.0253 12.9866C64.8075 14.1634 64.5663 15.3403 64.3721 16.5583C64.3133 16.9114 64.225 17.0762 63.819 17.0644C62.6421 17.035 61.5124 17.0644 60.359 17.0644C59.9942 17.0644 59.9471 16.9761 60.0119 16.6231C60.718 12.8571 61.4143 9.08923 62.1008 5.31937C62.142 5.08988 62.1714 4.90747 62.4833 4.90747C63.8131 4.90747 65.1371 4.90747 66.5081 4.90747" fill="white"/>
<path d="M64.4839 4.00732C63.5542 4.00732 62.854 3.60719 62.6186 2.98345C62.5067 2.56916 62.5184 2.13119 62.6522 1.72346C62.786 1.31572 63.0361 0.95601 63.3718 0.688585C63.7853 0.372434 64.2741 0.169305 64.7899 0.0991522C65.3057 0.0289996 65.8309 0.0942364 66.3139 0.288454C66.6269 0.401842 66.8885 0.624359 67.0507 0.915136C67.2128 1.20591 67.2646 1.54543 67.1965 1.87132C67.02 3.19529 65.9608 4.02497 64.4839 4.00732Z" fill="white"/>
<path d="M16.4491 29.2235C15.8791 28.4381 15.3843 27.6008 14.9713 26.7226C14.0953 25.2447 13.1993 23.7736 12.1427 22.2289H15.0382C15.7804 22.2289 16.5227 22.2289 17.265 22.2289C17.4178 22.242 17.5718 22.2217 17.716 22.1693C17.8602 22.1169 17.9913 22.0337 18.1001 21.9255C18.209 21.8173 18.2929 21.6867 18.3462 21.5428C18.3994 21.3989 18.4206 21.2451 18.4084 21.0921C18.4084 20.1292 18.4084 19.1529 18.4084 18.19C18.4084 16.9261 18.4552 15.669 18.4084 14.4051C18.4084 13.6361 17.9738 13.2884 17.071 13.275C15.4929 13.275 13.9148 13.275 12.3567 13.275C12.223 13.0945 12.3567 13.0009 12.4303 12.9006C13.099 11.824 13.8613 10.7674 14.53 9.66405C14.6422 9.41744 14.8291 9.2124 15.0644 9.07798C15.2996 8.94355 15.5712 8.88657 15.8406 8.91511C18.5154 8.94855 21.1902 8.91511 23.8316 8.91511L20.127 3.02387C19.9932 2.80989 19.8729 2.60259 19.7458 2.35517C19.037 1.17158 19.037 1.17158 19.9398 0.168528C17.0465 0.0704516 14.1488 0.0704516 11.2467 0.168528C10.5561 0.174087 9.8801 0.367466 9.2911 0.727936C8.70213 1.08841 8.22233 1.60237 7.90317 2.21475C6.46547 4.70231 5.0077 7.17649 3.56331 9.65068C2.37303 11.7437 1.12925 13.7766 -0.0209131 15.8361C-0.42882 16.5517 -0.876848 17.2872 -0.622742 18.1833C-0.522135 18.9072 -0.246719 19.5958 0.1797 20.1894C2.76756 24.6362 5.38886 29.0697 7.92992 33.5634C8.82597 35.1482 9.9962 35.9372 11.8552 35.8503C14.2224 35.7433 16.5963 35.8035 18.9701 35.7901C19.8528 35.3087 19.9732 34.9676 19.485 34.1184C18.5355 32.46 17.4789 30.8418 16.4425 29.2502" fill="white"/>
<path d="M126.192 4.00731C126.134 2.83045 126.328 2.16553 127.822 2.16553C129.317 2.16553 129.588 2.82457 129.641 4.00731C129.694 5.19005 129.505 5.84908 128.005 5.84908C126.504 5.84908 126.245 5.19005 126.192 4.00731ZM129.305 4.00731C129.252 2.90106 129.023 2.47739 127.84 2.47739C126.657 2.47739 126.481 2.90106 126.534 4.00731C126.587 5.11355 126.81 5.56075 127.987 5.56075C129.164 5.56075 129.358 5.1312 129.305 3.99554V4.00731ZM127.222 4.9076L127.134 3.14232C127.134 3.04228 127.175 3.00698 127.257 2.99521C127.464 2.96239 127.672 2.94469 127.881 2.94225C128.47 2.94225 128.664 3.0364 128.693 3.58952C128.693 3.93081 128.623 4.10145 128.37 4.17795L128.77 4.84287C128.795 4.87623 128.813 4.91424 128.823 4.95467C128.823 5.01352 128.781 5.03705 128.64 5.03705C128.499 5.03705 128.428 5.03705 128.387 4.92525L128.034 4.22502H127.593L127.628 4.9076C127.628 5.01352 127.587 5.03705 127.428 5.03705C127.269 5.03705 127.222 5.00175 127.216 4.89583L127.222 4.9076ZM127.581 3.93081H127.911C128.264 3.93081 128.328 3.88374 128.311 3.57187C128.293 3.26 128.228 3.28354 127.899 3.28354C127.769 3.28354 127.663 3.28354 127.569 3.28354L127.581 3.93081Z" fill="white"/>
</g>
</svg>
